<svg width="32" height="32" viewBox="0 0 32 32" fill="none" xmlns="http://www.w3.org/2000/svg"><path fill-rule="evenodd" clip-rule="evenodd" d="M16 5c-3.187 0-3.586.013-4.838.066-1.249.054-2.101.24-2.848.512a5.804 5.804 0 00-2.078 1.268 5.37 5.37 0 00-1.353 1.949c-.29.7-.489 1.499-.546 2.67-.057 1.173-.07 1.547-.07 4.535 0 2.987.013 3.362.07 4.535.057 1.171.256 1.97.546 2.67a5.37 5.37 0 001.353 1.949 5.803 5.803 0 002.078 1.268c.747.272 1.6.458 2.848.512 1.252.053 1.651.066 4.838.066 3.187 0 3.586-.013 4.838-.066 1.248-.054 2.101-.24 2.848-.512a5.804 5.804 0 002.078-1.268 5.369 5.369 0 001.353-1.949c.29-.7.489-1.499.546-2.67.057-1.173.07-1.548.07-4.535s-.013-3.362-.07-4.535c-.057-1.171-.256-1.97-.546-2.67a5.37 5.37 0 00-1.353-1.949 5.804 5.804 0 00-2.078-1.268c-.747-.272-1.6-.458-2.848-.512C19.586 5.013 19.187 5 16 5zm0 1.982c3.133 0 3.504.011 4.74.064 1.145.049 1.766.228 2.18.379.547.2.938.438 1.349.823.41.385.665.751.878 1.264.16.388.351.97.404 2.043.056 1.16.068 1.508.068 4.445 0 2.937-.012 3.285-.069 4.445-.052 1.072-.243 1.655-.404 2.042-.212.514-.467.88-.877 1.265-.41.385-.802.623-1.35.823-.413.15-1.034.33-2.178.379-1.237.053-1.608.064-4.741.064-3.133 0-3.505-.011-4.742-.064-1.144-.05-1.765-.228-2.178-.379a3.667 3.667 0 01-1.35-.823 3.396 3.396 0 01-.877-1.265c-.16-.387-.352-.97-.404-2.042-.057-1.16-.069-1.508-.069-4.445 0-2.937.012-3.285.069-4.445.052-1.072.243-1.655.404-2.043.213-.513.467-.88.878-1.264.41-.385.801-.624 1.349-.823.413-.15 1.034-.33 2.178-.379 1.238-.053 1.609-.064 4.742-.064zm0 12.685c-2.16 0-3.91-1.642-3.91-3.667s1.75-3.667 3.91-3.667 3.912 1.642 3.912 3.667S18.16 19.667 16 19.667zm0-9.316c-3.328 0-6.025 2.53-6.025 5.649 0 3.12 2.697 5.649 6.025 5.649 3.327 0 6.025-2.53 6.025-5.649 0-3.12-2.698-5.649-6.025-5.649zm6.264 1.097c.777 0 1.408-.59 1.408-1.32 0-.729-.63-1.32-1.408-1.32-.778 0-1.408.591-1.408 1.32 0 .73.63 1.32 1.408 1.32z" fill="#fff"/></svg>