<svg width="60" height="193" viewBox="0 0 60 193" fill="none" xmlns="http://www.w3.org/2000/svg"><path d="M38.267 11.888c.215.825.466 1.757.717 2.51a.395.395 0 00.574.252c.968-.251 2.367-.538 4.088-.825l3.587-.61.61 2.94c.358 1.615.645 3.372.824 4.304 0 .216.18.323.502.323a17.948 17.948 0 002.295-.538c.216 0 .323 0 .323-.287-.323-1.255-.753-2.869-1.112-4.554l-.573-2.762 3.586-.61 3.658-.645a.43.43 0 00.395-.43 14.015 14.015 0 00-.395-2.009c0-.25 0-.358-.43-.287-1.3.346-2.616.621-3.945.825l-3.587.646-.61-3.228 2.188-.394 4.196-.718c.251 0 .395 0 .395-.25a22.343 22.343 0 00-.502-2.188c0-.18 0-.251-.287-.251-1.291.322-3.049.645-4.483.896l-2.08.359-.359-2.116a5.447 5.447 0 010-1.83c0-.25 0-.322-.502-.358a25.105 25.105 0 00-3.264 0c.489.997.827 2.06 1.005 3.156l.358 1.578-2.295.359c-1.757.287-3.12.466-4.483.574.18.852.42 1.691.717 2.51 0 .251.215.323.466.251.252-.072 2.367-.538 3.587-.753l2.367-.395.789 3.443-3.586.61c-1.865.144-3.192.359-4.734.502zm2.618 31.524a.862.862 0 000 .43.61.61 0 000 .431 7.786 7.786 0 001.542 1.686.538.538 0 00.86 0 8.24 8.24 0 011.435-.79 54.336 54.336 0 006.133-3.12 40.71 40.71 0 006.276-4.303.79.79 0 00.25-1.04 12.338 12.338 0 01-.394-2.905 32.283 32.283 0 01-6.634 5.128 41.534 41.534 0 01-6.42 3.156v-9.217a10.09 10.09 0 01.287-3.12c.028-.178.028-.36 0-.538a.467.467 0 00-.215-.502 24.767 24.767 0 00-3.264-.574c.238 1.446.334 2.911.287 4.376v9.468c.006.482-.042.963-.143 1.434zm-.395 24.173a.85.85 0 00.395 0 43.037 43.037 0 006.886-4.806v10.866c0 .323 0 .43.358.43h2.51c.79 0 .395 0 .395-.43V60.09c1.004-1.004 1.937-1.972 2.941-3.156.44-.528.947-.998 1.506-1.399a.681.681 0 00.323-.538.358.358 0 000-.358 22.792 22.792 0 00-2.797-1.794 6.92 6.92 0 01-1.578 2.618 46.218 46.218 0 01-5.344 5.237 41.523 41.523 0 01-7.926 5.164c.784.385 1.508.88 2.152 1.47.04.097.101.183.18.252zm1.686 30.448a4.77 4.77 0 004.411-2.905 31.847 31.847 0 003.156-10.76 5.702 5.702 0 015.63 5.81c0 4.735-3.335 6.528-7.567 7.532.692.395 1.29.933 1.758 1.578.322.502.538.574 1.076.43a9.145 9.145 0 007.746-9.145 8.642 8.642 0 00-9.575-8.715 11.012 11.012 0 00-8.177 3.228 9.287 9.287 0 00-2.834 6.527c-.071 4.053 2.152 6.42 4.376 6.42zm.215-11.261a7.173 7.173 0 014.196-2.296 28.693 28.693 0 01-2.654 9.002c-.681 1.184-1.22 1.506-1.865 1.506s-1.721-1.255-1.721-3.586a7.172 7.172 0 012.044-4.626zm11.979 30.269a.599.599 0 00-.539 0 7.663 7.663 0 01-2.546 0 6.06 6.06 0 012.26 4.59c0 2.26-1.65 3.371-4.591 3.371-2.331 0-3.335-.896-3.335-3.192a18.732 18.732 0 010-2.044c1.278.072 2.559.072 3.837 0 .251 0 .323 0 .359-.394a18.32 18.32 0 000-1.901c0-.215 0-.323-.43-.287h-3.587c0-1.004.395-2.69.538-3.586 1.123.071 2.248.071 3.371 0 .287 0 .395 0 .395-.395.054-.62.054-1.244 0-1.865 0-.179 0-.323-.251-.323a12.855 12.855 0 01-3.085.18c0-.933.287-1.793.395-2.367a2.15 2.15 0 01.466-1.076.967.967 0 000-.502c0-.215 0-.431-.538-.574a15.245 15.245 0 00-3.012-.681c.054.692.054 1.387 0 2.08 0 .753 0 1.434-.323 2.905a19.179 19.179 0 01-4.555-.969v2.331c0 .574 0 .359.395.431 1.166.366 2.368.606 3.586.717 0 1.04-.323 2.654-.43 3.586a15.78 15.78 0 01-3.336-1.04 12.668 12.668 0 000 2.332c0 .286 0 .43.287.466a16.99 16.99 0 003.407.753v2.367c0 3.586 1.901 5.666 6.312 5.666 4.411 0 7.173-2.295 7.173-5.845a6.558 6.558 0 00-2.224-4.734zm-14.023 31.488c0 3.264 2.51 4.842 7.172 4.842 2.505.054 5.01-.078 7.496-.395.287 0 .466 0 .466-.43 0-.431 0-1.65-.25-2.331-.252-.682 0-.323-.467-.287a43.169 43.169 0 01-7.675.573c-2.869 0-3.98-.609-3.98-2.116 0-1.506.788-2.367 2.976-3.801a34.477 34.477 0 015.882-2.905 9.736 9.736 0 012.402-.753.537.537 0 00.502-.538 1.329 1.329 0 000-.502 13.2 13.2 0 00-1.864-2.367 6.282 6.282 0 01-1.722 1.363l-3.586 1.9a39.43 39.43 0 01-.861-4.483v-1.649c0-.502.18-.718.18-1.076 0-.359-.18-.323-.467-.395a15.286 15.286 0 00-3.3-.287c.37.93.6 1.909.682 2.905a33.96 33.96 0 001.291 6.133c-3.048 1.972-4.877 3.837-4.877 6.599zM43 172.163c-.537 1.255-1.04 2.331-1.541 3.586v-3.227a48.026 48.026 0 011.29-9.146c.061-.476.207-.937.431-1.362a1.33 1.33 0 00.18-.574s0-.359-.395-.502a19.13 19.13 0 00-2.833-.897c.033.996-.027 1.992-.18 2.977a55.166 55.166 0 00-1.04 9.504 24.07 24.07 0 001.076 7.675c0 .322.215.358.502.286a11.46 11.46 0 001.901-.43c.215 0 .323 0 .287-.323a4.195 4.195 0 010-1.327c.256-1.331.69-2.622 1.291-3.837a.899.899 0 000-.395.93.93 0 000-.358 5.096 5.096 0 01-.968-1.65zm11.226 4.734a13.779 13.779 0 012.726 2.008h.215c.033.016.07.025.107.025a.25.25 0 00.108-.025 13.26 13.26 0 001.183-1.936v-.502a16.419 16.419 0 00-4.16-2.403c0-2.152-.18-3.909-.18-6.743a32.15 32.15 0 003.874-.502.357.357 0 00.287-.394 9.496 9.496 0 00-.18-1.793c0-.251 0-.359-.394-.287a35.707 35.707 0 01-3.586.43v-2.654c.025-.296.098-.587.215-.861v-.43c0-.107-.18-.359-.466-.43a12.943 12.943 0 00-3.049-.466c.225.794.346 1.613.36 2.438v2.618a37.689 37.689 0 01-5.703 0 14.21 14.21 0 000 2.26c0 .251 0 .323.43.323 1.72.107 3.445.107 5.165 0v5.774a9.29 9.29 0 00-2.009-.216c-2.546 0-4.375 1.471-4.375 3.587s1.578 3.586 4.483 3.586c2.905 0 4.77-1.291 4.949-3.407zm-4.662.933c-1.47 0-2.045-.503-2.045-1.256s.718-1.219 1.901-1.219a7.179 7.179 0 012.188.323v.502c0 .896-.79 1.65-2.044 1.65zM59.82 189.7a18.224 18.224 0 00-4.984-4.59.572.572 0 00-.323 0 .68.68 0 00-.395 0l-1.398 1.291s-.18.215-.18.287c0 .072 0 0 .252.251a18.849 18.849 0 014.733 4.806c0 .179.216.251.36.251.143 0 .178 0 .358-.251l1.506-1.291c.215 0 .251-.287.251-.395 0-.108 0 .036-.18-.359zM20.837 8.194c.394-.502 1.04-1.255 1.363-1.757.322-.502 0-.18 0-.251 0-.072 0-.18-.18-.251a11.655 11.655 0 00-5.2-3.085s-.251 0-.43.287a15.72 15.72 0 00-1.148 1.973 11.692 11.692 0 015.093 3.084s.43.108.502 0zM2.618 14.363c-.725.392-1.496.693-2.295.896.34.798.723 1.576 1.148 2.331a.681.681 0 00.537.36.538.538 0 00.43 0c.242-.276.52-.517.826-.718a15.279 15.279 0 013.586 3.192c.251.323.323.538.61.502a9.075 9.075 0 001.865-.287c.43 0 .358-.466.358-.825 0-.359 0-2.152-.179-3.264-.18-1.111 0-1.972 0-3.012a12.481 12.481 0 015.738-1.722c1.758 0 2.762.897 2.762 2.547a2.476 2.476 0 01-2.69 2.582 8.858 8.858 0 01-3.156-.466c.44.636.7 1.38.753 2.152a.681.681 0 00.574.753c.673.136 1.357.209 2.044.215a4.842 4.842 0 005.308-5.236 4.985 4.985 0 00-5.344-5.021c-2.133.05-4.232.538-6.168 1.434V7.19a22.45 22.45 0 003.586-.968c.251 0 .323 0 .323-.395.053-.656.053-1.316 0-1.972-.144-.251-.323-.251-.538-.251-1.049.397-2.128.71-3.228.932v-2.08a2.65 2.65 0 01.359-.968.86.86 0 000-.43c0-.216-.215-.395-.502-.467a15.708 15.708 0 00-2.69-.359 9.501 9.501 0 010 2.009V5.11c-1.076 0-2.152.215-3.192.215-.656.053-1.316.053-1.972 0 0 .897.215 1.722.286 2.188.072.466 0 .538.61.538 1.686 0 2.94 0 4.196-.215v4.303l-3.945 2.224zm4.232.322v2.618c0 .646 0 .252-.251.216-.81-.34-1.6-.723-2.367-1.148l2.618-1.685zM5.2 30.322s-.18-.359-.43-.466a11.155 11.155 0 00-3.156-.825 13.45 13.45 0 01.287 3.264c.019 2.403.223 4.8.61 7.172.68 4.232 2.725 6.563 4.698 6.563 1.972 0 3.3-1.362 4.267-3.945a.825.825 0 000-.932 8.5 8.5 0 01-1.793-1.686c-.968 2.618-1.614 3.587-2.403 3.587-.789 0-1.721-1.722-2.08-3.587a32.277 32.277 0 01-.43-5.738 10.76 10.76 0 01.215-2.439c.149-.3.223-.633.215-.968zm14.49 11.333a7.673 7.673 0 001.792-1.004c.216 0 .359-.215.287-.574A16.389 16.389 0 0017 31.506a.357.357 0 00-.287 0h-.287l-2.115 1.111a16.748 16.748 0 014.698 8.751c.179.323.358.395.681.287zm.322 27.651a1.542 1.542 0 00-.215-.61 8.785 8.785 0 01-.574-2.367 13.233 13.233 0 01-8.787 4.627c-2.008 0-2.295-.574-2.295-3.12 0-3.3 0-5.846.359-9.72.013-1.037.133-2.07.358-3.084.137-.256.222-.536.251-.825 0-.25 0-.358-.61-.466a26.613 26.613 0 00-3.12-.466c.28 1.525.365 3.08.251 4.626 0 3.013-.358 6.6-.358 10.76s1.506 5.128 4.698 5.128a14.345 14.345 0 009.54-3.766c.394-.287.502-.502.502-.717zM1.9 85.552a46.84 46.84 0 00.61 7.173c.682 4.232 2.726 6.563 4.699 6.563 1.972 0 3.3-1.363 4.267-3.945a.825.825 0 000-.932 8.503 8.503 0 01-1.613-1.937c-.969 2.618-1.614 3.586-2.403 3.586-.79 0-1.722-1.721-2.08-3.586a32.277 32.277 0 01-.43-5.738 10.76 10.76 0 01.214-2.439 2.08 2.08 0 00.216-.717c0-.18-.18-.359-.43-.466a11.155 11.155 0 00-3.157-.825 13.4 13.4 0 01.108 3.263zm17.79 9.325a7.677 7.677 0 001.792-1.004c.216 0 .359-.252.287-.574a16.39 16.39 0 00-4.913-8.572.36.36 0 00-.287 0h-.287L14.31 85.84a16.748 16.748 0 014.698 8.75c.179.288.358.395.681.288zM2.008 124.393a.549.549 0 00.43 0c.262-.2.537-.38.826-.538a15.257 15.257 0 013.586 3.192c.251.322.323.537.61.502a9.116 9.116 0 001.865-.287c.43 0 .358-.467.358-.825 0-.359 0-2.152-.18-3.264-.178-1.112 0-1.972 0-3.012a12.473 12.473 0 015.596-1.793c1.757 0 2.761.896 2.761 2.546a2.47 2.47 0 01-1.65 2.451 2.465 2.465 0 01-1.04.131 8.859 8.859 0 01-3.156-.466c.44.636.7 1.38.754 2.152a.68.68 0 00.573.753c.673.137 1.358.209 2.045.215a4.835 4.835 0 003.923-1.264 4.847 4.847 0 001.528-3.829 4.98 4.98 0 00-3.317-4.746 4.987 4.987 0 00-2.027-.275 15.427 15.427 0 00-6.168 1.363v-3.586c1.22-.223 2.42-.547 3.586-.969.251 0 .323.001.323-.394a11.6 11.6 0 000-1.937.287.287 0 00-.43-.251 20.69 20.69 0 01-3.228.933v-2.08c.055-.343.176-.672.358-.969a.859.859 0 000-.394c0-.251-.215-.431-.502-.502a15.663 15.663 0 00-2.977-.431 9.474 9.474 0 010 2.009v2.869c-1.075 0-2.151.215-3.191.215-.657.053-1.316.053-1.973 0 0 .897.215 1.721.287 2.188.072.466 0 .538.61.538 1.685 0 2.94 0 4.196-.215v3.945l-4.089 2.331a10.01 10.01 0 01-2.295.896c.34.798.723 1.576 1.148 2.331a.689.689 0 00.331.416.695.695 0 00.53.051zm4.842-3.3v2.618c0 .646 0 .251-.251.215-.81-.339-1.6-.722-2.367-1.147l2.618-1.686zm13.987-6.312c.394-.502 1.04-1.255 1.363-1.757.322-.502 0 0 0-.251s0 0-.18-.251a11.662 11.662 0 00-5.308-3.085s-.25 0-.43.323a13.25 13.25 0 00-1.148 1.937 11.69 11.69 0 015.2 3.084h.503zm-8.787 17.932h-.287c-.538.323-1.22.897-1.936 1.435 1.18.748 2.233 1.68 3.12 2.761h.43a6.309 6.309 0 001.65-1.399.358.358 0 000-.251v-.287a14.102 14.102 0 00-2.69-2.259h-.287z" fill="#fff"/><path d="M2.116 145.086a.999.999 0 00.466-.251 5.343 5.343 0 011.291-.789l2.403-1.148a176.275 176.275 0 013.587 11.154c0 .251 0 .323.322.287a11.683 11.683 0 002.152-.789c.359-.179.323-.287.215-.61-1.29-3.909-2.546-7.424-3.873-11.189a46.813 46.813 0 014.124-1.65 11.43 11.43 0 013.587-.717c1.614 0 2.618.753 2.618 2.08s-1.47 2.797-3.766 2.797a15.902 15.902 0 01-2.797-.251c.58.7.997 1.521 1.22 2.403 0 .287.25.43.68.43h1.112c4.089 0 6.492-1.972 6.492-5.2a4.699 4.699 0 00-5.129-4.626c-1.5-.011-2.992.231-4.411.717-1.435.394-2.977 1.004-4.59 1.614 0-.323-.252-.717-.431-1.327-.18-.61-.359-1.399-.502-1.937a3.265 3.265 0 010-.825c0-.358 0-.538-.395-.538a16.555 16.555 0 00-3.37.395c.5.627.9 1.329 1.183 2.08.502 1.327.825 2.331 1.147 3.228-1.506.645-2.367.968-2.905 1.147-.797.317-1.627.545-2.474.682a14.63 14.63 0 001.542 2.438.86.86 0 00.502.395zm19.366 24.602a6.674 6.674 0 00-4.465-6.314 6.676 6.676 0 00-2.707-.356 32.74 32.74 0 00-9.181 1.972 23.42 23.42 0 01-4.878 1.327c.426.926.969 1.794 1.614 2.582.251.395.466.538.717.538.259-.047.496-.172.682-.358.553-.348 1.128-.66 1.721-.933a25.293 25.293 0 019.074-2.582c2.797 0 4.303 1.471 4.303 3.838a5.49 5.49 0 01-3.586 4.985 23.59 23.59 0 01-6.814 1.865 4.73 4.73 0 011.757 1.972c.18.502.359.502.86.395a19.905 19.905 0 006.385-2.081 7.174 7.174 0 004.518-6.85zm-1.865 15.386a3.588 3.588 0 00-3.586 3.586 3.584 3.584 0 003.586 3.587 3.585 3.585 0 003.587-3.587 3.587 3.587 0 00-3.587-3.586zm0 5.702a2.118 2.118 0 01-1.532-3.612 2.112 2.112 0 012.323-.451 2.113 2.113 0 011.29 1.983 2.047 2.047 0 01-2.08 2.08z" fill="#fff"/></svg>