<svg width="32" height="32" viewBox="0 0 32 32" fill="none" xmlns="http://www.w3.org/2000/svg"><path d="M12.37 25.076c8.452 0 13.078-6.572 13.078-12.26 0-.186 0-.37-.01-.556a9.06 9.06 0 002.295-2.235 9.807 9.807 0 01-2.644.68 4.398 4.398 0 002.026-2.386 9.522 9.522 0 01-2.922 1.042A4.735 4.735 0 0020.84 8c-2.536 0-4.598 1.933-4.598 4.31 0 .337.045.665.116.984-3.818-.176-7.206-1.899-9.474-4.504a4.105 4.105 0 00-.618 2.168c0 1.496.815 2.815 2.043 3.588a4.888 4.888 0 01-2.08-.538v.06c0 2.083 1.587 3.831 3.685 4.226a4.76 4.76 0 01-1.21.151c-.296 0-.583-.025-.86-.075.582 1.714 2.285 2.958 4.293 2.991a9.615 9.615 0 01-5.71 1.85c-.368 0-.735-.018-1.094-.06a13.717 13.717 0 007.037 1.925z" fill="#fff"/></svg>