<svg width="20" height="340" viewBox="0 0 20 340" fill="none" xmlns="http://www.w3.org/2000/svg"><path d="M1.296 10.264c.185.71.401 1.512.618 2.16a.34.34 0 00.493.216c.834-.216 2.037-.463 3.519-.71l3.086-.524.525 2.53c.309 1.39.556 2.902.71 3.704 0 .186.154.278.432.278.668-.11 1.328-.265 1.975-.463.185 0 .278 0 .278-.247-.278-1.08-.648-2.469-.957-3.92l-.493-2.376 3.086-.525 3.487-.555a.37.37 0 00.34-.37 12.068 12.068 0 00-.37-1.73c0-.215 0-.308-.37-.246a32.221 32.221 0 01-3.396.71l-3.086.555-.525-2.777 1.667-.34 3.61-.617c.217 0 .34 0 .34-.216a19.201 19.201 0 00-.555-1.883c0-.154 0-.216-.247-.216-1.111.278-2.623.556-3.858.772l-1.79.308-.309-1.82a4.691 4.691 0 010-1.575c-.062-.34-.278-.34-.494-.34a21.605 21.605 0 00-2.87 0c.45.884.763 1.831.926 2.81l.309 1.357-1.976.309c-1.512.247-2.685.401-3.858.494.155.734.361 1.456.617 2.16 0 .216.186.278.402.216a63.108 63.108 0 013.086-.648l2.037-.34.556 2.779-3.087.524c-1.389.247-2.53.432-3.858.556zM3.55 37.393a.74.74 0 000 .37.525.525 0 000 .371 6.697 6.697 0 001.327 1.45.525.525 0 00.37.186.527.527 0 00.37-.185 7.098 7.098 0 011.235-.68 46.765 46.765 0 005.278-2.684 35.033 35.033 0 005.4-3.704.679.679 0 00.217-.895 10.619 10.619 0 01-.34-2.5 27.776 27.776 0 01-5.71 4.413 35.734 35.734 0 01-5.555 2.716V28.32a8.672 8.672 0 01.247-2.685c.024-.153.024-.31 0-.463a.401.401 0 00-.247-.432 21.315 21.315 0 00-2.809-.494 19.35 19.35 0 01.34 3.797v8.148c.003.404-.039.808-.124 1.203zm-.34 20.803a.709.709 0 00.34 0 37.033 37.033 0 005.925-4.136v9.352c0 .278 0 .37.309.37h2.16c.68 0 .34 0 .34-.37V51.746a43.644 43.644 0 002.53-2.717c.38-.454.816-.859 1.297-1.204a.585.585 0 00.278-.462.309.309 0 000-.31 19.624 19.624 0 00-2.408-1.542 5.956 5.956 0 01-1.358 2.253 39.786 39.786 0 01-4.598 4.506 35.74 35.74 0 01-7.13 4.444 7.871 7.871 0 011.852 1.266.586.586 0 00.463.216zM4.66 84.4a4.105 4.105 0 003.673-2.5 27.407 27.407 0 002.716-9.26 4.91 4.91 0 014.846 5c0 4.074-2.87 5.618-6.512 6.482a4.82 4.82 0 011.512 1.358c.278.432.463.494.926.37a7.87 7.87 0 006.667-7.901 7.438 7.438 0 00-8.241-7.5 9.475 9.475 0 00-7.037 2.778 7.993 7.993 0 00-2.438 5.617C.833 82.363 2.747 84.4 4.66 84.4zm.186-9.692a6.174 6.174 0 013.673-1.975 24.69 24.69 0 01-2.377 7.747c-.586 1.018-1.05 1.296-1.605 1.296-.556 0-1.481-1.08-1.481-3.086a6.173 6.173 0 011.79-3.982zM2.253 99.893a10.9 10.9 0 000 2.007c0 .246 0 .37.247.401 1.002.327 2.037.544 3.087.648 0 .988-.155 1.574-.155 2.037 0 3.086 1.636 4.877 5.432 4.877 3.797 0 6.173-1.976 6.173-5.031a5.654 5.654 0 00-1.82-4.074.517.517 0 00-.464 0 6.606 6.606 0 01-2.191 0 5.211 5.211 0 011.944 3.95c0 1.945-1.42 2.901-3.95 2.901-2.007 0-2.87-.771-2.87-2.746a16.125 16.125 0 010-1.76c1.1.062 2.202.062 3.302 0 .216 0 .277 0 .308-.339.029-.545.029-1.091 0-1.636 0-.185 0-.278-.37-.247H7.84c0-.864.34-2.315.463-3.086a22.76 22.76 0 002.9 0c.248 0 .34 0 .34-.34a9.25 9.25 0 000-1.605c0-.154 0-.278-.216-.278-.794.14-1.601.191-2.407.155 0-.803.247-1.544.34-2.037.045-.34.184-.66.4-.926a.833.833 0 000-.432c0-.185 0-.37-.462-.494a13.104 13.104 0 00-2.593-.587 11.38 11.38 0 010 1.79c0 .649 0 1.235-.278 2.5a16.48 16.48 0 01-3.92-.833v2.006c0 .494 0 .309.34.37 1.004.316 2.039.522 3.086.618 0 .895-.277 2.284-.37 3.086a13.579 13.579 0 01-3.21-.895zm13.519 31.791c.247 0 .4 0 .4-.371 0-.37 0-1.42-.215-2.006-.216-.586 0-.278-.401-.247a37.16 37.16 0 01-6.605.617c-2.47 0-3.426-.524-3.426-1.821 0-1.296.679-2.037 2.561-3.271a29.739 29.739 0 015.062-2.5 8.337 8.337 0 012.068-.648.464.464 0 00.432-.463 1.146 1.146 0 00-.247-.556 11.398 11.398 0 00-1.605-2.037 5.402 5.402 0 01-1.481 1.173l-3.087 1.636a33.99 33.99 0 01-.555-3.858v-2.346c0-.309 0-.278-.401-.34a13.197 13.197 0 00-2.84-.246c.372.832.612 1.717.71 2.623.207 1.79.58 3.557 1.111 5.278-2.53 1.574-4.105 3.086-4.105 5.555s2.16 4.167 6.173 4.167a43.465 43.465 0 006.45-.339zm-9.63 18.487a.77.77 0 000-.339.804.804 0 000-.309 4.383 4.383 0 01-.833-1.327c-.463 1.08-.895 2.006-1.327 3.086v-2.778a43.34 43.34 0 011.08-7.87c.073-.409.209-.804.401-1.173.061-.167.082-.347.062-.524 0 0 0-.309-.34-.433a16.638 16.638 0 00-2.438-.771c.028.857-.023 1.714-.154 2.562a47.468 47.468 0 00-.895 8.179c-.05 2.237.262 4.467.926 6.605 0 .277.185.308.432.246a9.957 9.957 0 001.635-.37c.186 0 .278 0 .247-.278a3.611 3.611 0 010-1.142c.245-1.171.65-2.303 1.204-3.364zm8.766-6.173a27.692 27.692 0 003.333-.432.308.308 0 00.247-.339 8.166 8.166 0 000-1.543c0-.217 0-.309-.34-.247a30.769 30.769 0 01-3.086.37v-2.284a2.36 2.36 0 01.092-.586v-.371c0-.092 0-.308-.4-.37a11.202 11.202 0 00-2.44-.556c.194.684.298 1.389.31 2.099v2.284a32.678 32.678 0 01-4.908 0 12.125 12.125 0 000 1.944c0 .217 0 .278.37.278 1.48.093 2.965.093 4.445 0v4.969a8.035 8.035 0 00-1.729-.185c-2.19 0-3.765 1.266-3.765 3.087 0 1.821 1.358 3.086 3.858 3.086s3.796-.988 3.95-2.809c.85.478 1.639 1.058 2.346 1.729h.186a.213.213 0 00.185 0 11.45 11.45 0 001.018-1.667v-.432a14.134 14.134 0 00-3.58-2.068 172.168 172.168 0 01-.092-5.957zm-3.89 9.074c-1.265 0-1.759-.432-1.759-1.08 0-.648.618-1.049 1.636-1.049a6.132 6.132 0 011.883.278v.432c0 .771-.68 1.419-1.76 1.419zm4.538 7.47a.445.445 0 00-.155 0 .578.578 0 00-.34 0l-1.203 1.111v.247c0 .061 0 0 .216.216a16.222 16.222 0 013.796 4.259s.186.216.309.216 0 0 .309-.216l1.296-1.111c.185-.155.216-.247.216-.34v-.339a15.665 15.665 0 00-4.444-4.043zM1.728 189.616a.466.466 0 00.37-.155c.225-.172.463-.326.71-.463a13.178 13.178 0 013.087 2.747c.216.278.278.463.525.432a7.778 7.778 0 001.605-.247c.37 0 .308-.401.308-.709 0-.309 0-1.852-.154-2.809-.154-.957 0-1.698 0-2.593a10.738 10.738 0 014.938-1.481c1.513 0 2.377.771 2.377 2.191a2.125 2.125 0 01-.653 1.637 2.125 2.125 0 01-1.662.585 7.6 7.6 0 01-2.84-.432c.38.548.603 1.188.649 1.852a.587.587 0 00.494.648 9.28 9.28 0 001.759.186 4.173 4.173 0 004.402-2.589 4.164 4.164 0 00.29-1.794 4.29 4.29 0 00-4.6-4.321 12.854 12.854 0 00-5.308 1.204v-3.087a19.375 19.375 0 003.086-.833c.216 0 .278 0 .278-.34a9.84 9.84 0 000-1.666.248.248 0 00-.246-.25.246.246 0 00-.125.034c-.902.342-1.831.61-2.777.802v-1.79a2.28 2.28 0 01.308-.833.743.743 0 000-.34c0-.216-.185-.37-.432-.432a13.508 13.508 0 00-2.561-.37 8.145 8.145 0 010 1.728v2.469c-.926 0-1.852.185-2.747.185-.565.046-1.133.046-1.698 0 0 .772.185 1.482.247 1.883s0 .463.525.463c1.45 0 2.53 0 3.61-.185v3.704l-3.518 2.006a7.351 7.351 0 01-1.975.771c.292.687.622 1.356.988 2.006a.584.584 0 00.74.186zm4.167-2.84v2.253c0 .556 0 .216-.216.185a20.485 20.485 0 01-1.914-.895l2.13-1.543zm13.148-7.5a10.033 10.033 0 00-4.568-2.654s-.216 0-.37.278a11.246 11.246 0 00-.988 1.666 10.057 10.057 0 014.383 2.655h.432c.062 0 .895-1.081 1.173-1.513.278-.432 0-.154 0-.216a.31.31 0 00-.062-.216zM4.475 200.264c0-.154-.154-.309-.37-.401a9.573 9.573 0 00-2.716-.71c.199.932.282 1.886.247 2.839a40.31 40.31 0 00.525 6.173c.586 3.765 2.345 5.772 3.981 5.772 1.636 0 2.84-1.173 3.673-3.395a.712.712 0 000-.803 7.763 7.763 0 01-1.389-1.636c-.833 2.223-1.389 3.087-2.068 3.087s-1.481-1.482-1.79-3.087a27.769 27.769 0 01-.37-4.938 9.267 9.267 0 01.185-2.099c.091-.257.123-.531.092-.802zm12.469 9.66a7.808 7.808 0 001.544-.771c.185 0 .308-.216.247-.494a14.107 14.107 0 00-4.105-7.377.308.308 0 00-.247 0h-.247l-1.821.957a14.416 14.416 0 014.167 7.685c.03 0 .185.186.462 0zm.278 23.889a1.33 1.33 0 00-.185-.525 7.548 7.548 0 01-.494-2.037 11.386 11.386 0 01-7.562 3.982c-1.728 0-1.975-.494-1.975-2.685 0-2.84 0-5.031.309-8.364.011-.893.115-1.783.308-2.655a1.91 1.91 0 00.216-.71c0-.216 0-.308-.524-.401a22.735 22.735 0 00-2.685-.401c.24 1.312.313 2.65.216 3.981 0 2.593-.309 5.679-.309 9.26 0 3.58 1.296 4.444 4.043 4.444a12.344 12.344 0 008.21-3.086c.34-.432.432-.587.432-.803zm-.278 22.006a7.755 7.755 0 001.544-.864c.185 0 .308-.216.247-.494a14.106 14.106 0 00-4.105-7.5.308.308 0 00-.247 0h-.247l-1.821 1.081a14.41 14.41 0 014.043 7.53c.154.247.309.34.586.247zm-15.308-8.024a40.32 40.32 0 00.524 6.173c.587 3.641 2.346 5.648 4.044 5.648 1.697 0 2.84-1.173 3.673-3.395a.712.712 0 000-.803 7.763 7.763 0 01-1.39-1.636c-.833 2.223-1.388 3.087-2.067 3.087-.68 0-1.482-1.482-1.79-3.087a27.769 27.769 0 01-.37-4.938 9.267 9.267 0 01.184-2.099c.099-.193.162-.402.186-.617 0 0-.155-.309-.37-.401a9.573 9.573 0 00-2.717-.71c.143.919.174 1.851.093 2.778zm16.296 25.031c.34-.433.895-1.081 1.173-1.513.278-.432 0 0 0-.216s0 0-.154-.216a10.025 10.025 0 00-4.568-2.654s-.216 0-.37.278a11.237 11.237 0 00-.988 1.666 10.058 10.058 0 014.382 2.655s.463.092.525 0zm-16.204 8.395a.47.47 0 00.37 0 5.59 5.59 0 01.71-.463 13.133 13.133 0 013.087 2.747c.216.277.278.463.525.432a7.847 7.847 0 001.605-.247c.37 0 .308-.401.308-.71 0-.309 0-1.852-.154-2.809-.154-.957 0-1.697 0-2.592a10.74 10.74 0 014.938-1.482c1.513 0 2.377.772 2.377 2.192a2.132 2.132 0 01-1.42 2.109c-.287.101-.592.14-.895.113a7.64 7.64 0 01-2.716-.401 3.7 3.7 0 01.648 1.851.587.587 0 00.494.649c.58.117 1.168.179 1.76.185a4.172 4.172 0 004.401-2.589 4.164 4.164 0 00.29-1.794 4.288 4.288 0 00-4.6-4.321c-1.83.02-3.638.42-5.308 1.173v-3.087c1.05-.192 2.082-.47 3.087-.833.216 0 .277 0 .277-.339a9.851 9.851 0 000-1.667.245.245 0 00-.122-.216.245.245 0 00-.248 0 17.76 17.76 0 01-2.778.802v-1.79a2.27 2.27 0 01.309-.833.74.74 0 000-.37c0-.186-.185-.34-.432-.402a13.508 13.508 0 00-2.562-.37 8.144 8.144 0 010 1.728v2.469c-.926 0-1.852.186-2.747.186-.565.046-1.133.046-1.697 0 0 .771.185 1.481.246 1.882.062.402 0 .463.525.463 1.45 0 2.531 0 3.611-.185v3.704L2.1 278.412a8.602 8.602 0 01-1.976.772c.352.595.733 1.172 1.142 1.728a.586.586 0 00.463.309zm4.167-2.84v2.253c0 .556.247.278-.093.278a20.78 20.78 0 01-2.037-.988l2.13-1.543zm4.475 9.846h-.246c-.464.278-1.05.771-1.667 1.234a11.297 11.297 0 012.685 2.377h.37a5.44 5.44 0 001.42-1.204.309.309 0 000-.216v-.247a12.142 12.142 0 00-2.315-1.975l-.247.031z" fill="#fff"/><path d="M1.821 299.029a.862.862 0 00.401-.216c.337-.278.71-.506 1.111-.679l2.068-.987a151.466 151.466 0 013.087 9.598c0 .216 0 .278.277.247a10.008 10.008 0 001.852-.679c.309 0 .278-.247.185-.525-1.08-3.271-2.16-6.358-3.302-9.629a40.271 40.271 0 013.55-1.42 9.847 9.847 0 013.086-.617c1.389 0 2.253.648 2.253 1.79s-1.265 2.407-3.24 2.407a13.59 13.59 0 01-2.408-.216c.5.603.858 1.309 1.05 2.068 0 .247.215.371.586.371h.956c3.519 0 5.587-1.698 5.587-4.507a4.038 4.038 0 00-1.357-2.949 4.04 4.04 0 00-3.088-1.001 11.479 11.479 0 00-3.796.617c-1.235.34-2.562.864-3.95 1.389 0-.278-.217-.617-.37-1.142-.155-.525-.31-1.204-.433-1.667a2.809 2.809 0 010-.71c0-.308 0-.463-.34-.463-.976.014-1.948.128-2.9.34.43.54.774 1.144 1.018 1.79.432 1.142.71 2.006.987 2.778-1.296.555-2.037.833-2.5.988-.686.272-1.4.468-2.13.586.373.742.817 1.445 1.328 2.099a.74.74 0 00.432.339zm16.667 21.173a5.734 5.734 0 00-1.832-4.22 5.731 5.731 0 00-4.341-1.521 28.215 28.215 0 00-7.778 1.79 20.151 20.151 0 01-4.198 1.142c.376.802.842 1.558 1.39 2.254.215.308.4.432.617.432.222-.041.427-.149.586-.309a10.05 10.05 0 011.482-.772 21.306 21.306 0 017.808-2.253c2.408 0 3.704 1.266 3.704 3.303a4.721 4.721 0 01-3.087 4.29 20.26 20.26 0 01-5.864 1.605c.655.411 1.18.999 1.513 1.697.154.432.308.432.74.371a18.018 18.018 0 005.494-1.821 6.173 6.173 0 003.766-5.988zm-1.605 13.179a3.086 3.086 0 10-.001 6.171 3.086 3.086 0 000-6.171zm0 4.908a1.827 1.827 0 01-1.707-1.11 1.822 1.822 0 113.497-.681 1.755 1.755 0 01-1.085 1.719 1.74 1.74 0 01-.705.133v-.061z" fill="#fff"/></svg>