<svg width="145" height="28" viewBox="0 0 145 28" fill="none" xmlns="http://www.w3.org/2000/svg">
<path d="M5.74626 6.13289L5.89174 9.20606C5.90992 9.76977 5.80081 9.82432 5.60079 9.86069C5.18255 9.95161 4.80067 9.9698 3.81872 9.98798C3.78235 9.98798 3.74598 10.0062 3.7278 10.0425C3.7278 10.0789 3.7278 10.1153 3.76416 10.1516C4.20059 10.4971 4.4188 10.7699 4.63701 11.2427C4.72794 11.4791 4.87341 11.5155 5.10981 11.5155C5.70989 11.5155 6.45545 11.3154 6.91006 11.0609C7.38285 10.7699 7.60107 10.2971 7.5647 9.6243L7.34649 4.93272H8.27389C9.03763 4.93272 9.74682 4.95091 10.7106 4.98728C10.8743 4.98728 10.9834 4.87817 10.9834 4.71451C10.9834 4.35082 10.9834 3.95077 10.9834 3.60527C10.9834 3.47797 10.8924 3.36887 10.6924 3.36887C9.74682 3.40524 9.11037 3.44161 8.21934 3.44161H7.20101L7.16464 2.56876C7.12827 1.76864 7.16464 1.56861 7.20101 1.42314V1.38677C7.20101 1.38677 7.25556 1.25948 7.25556 1.18674C7.25556 0.986714 7.07372 0.950346 7.01917 0.950346C6.65548 0.877608 6.1645 0.841239 5.40076 0.804871C5.36439 0.804871 5.3462 0.804871 5.32802 0.841239C5.32802 0.859424 5.30984 0.895792 5.32802 0.913977C5.43713 1.31403 5.50986 1.76864 5.52805 2.4051L5.5826 3.44161H2.63673C1.72752 3.44161 1.03651 3.42342 0.363687 3.36887C0.345503 3.36887 0.309134 3.36887 0.29095 3.38705C0.29095 3.40524 0.254581 3.42342 0.272766 3.45979V3.49616C0.29095 3.96895 0.327319 4.47812 0.381872 4.69633C0.381872 4.82362 0.436425 4.89636 0.490978 4.95091C0.527347 4.98728 0.5819 5.00546 0.654637 5.00546C1.38201 4.96909 2.07302 4.93272 2.69129 4.93272H4.74612C4.3097 5.49644 3.78235 6.04197 3.00042 6.73298C2.16394 7.47854 1.38201 8.00589 0.0545531 8.73326C0.0181844 8.73326 0 8.78781 0 8.82418C0 8.86055 0.0181844 8.89692 0.0545531 8.89692C0.400056 9.0424 0.818297 9.33335 1.05469 9.6243C1.14562 9.75159 1.27291 9.78795 1.34564 9.78795C1.45475 9.78795 1.54567 9.75159 1.69115 9.66066C2.52763 9.18787 3.50958 8.42413 4.10967 7.86041C4.81886 7.22396 5.32802 6.69661 5.76445 6.09653L5.74626 6.13289Z" fill="white"/>
<path d="M20.4399 7.16938C21.3673 7.16938 22.2766 7.16938 23.2403 7.18757H23.2767C23.2767 7.18757 23.4585 7.18757 23.5313 7.13301C23.604 7.07846 23.604 6.98754 23.604 6.9148C23.6222 6.53293 23.6222 6.0965 23.604 5.71463C23.604 5.64189 23.604 5.55097 23.5313 5.49642C23.4767 5.44187 23.3858 5.44187 23.2767 5.44187C22.9676 5.44187 22.6584 5.44187 22.3311 5.44187C21.6765 5.44187 21.0037 5.46005 20.349 5.46005H16.2393C15.0028 5.46005 14.3482 5.44187 13.5117 5.31458C13.4753 5.31458 13.4571 5.31458 13.439 5.33276C13.4208 5.35094 13.4026 5.38731 13.4026 5.4055C13.4571 6.04195 13.5299 6.66022 13.6026 6.95117C13.6572 7.22393 13.839 7.29667 13.9845 7.29667C14.0209 7.29667 14.0754 7.29667 14.1663 7.27849C14.4027 7.24212 14.9119 7.1512 15.8575 7.1512H20.4399V7.16938Z" fill="white"/>
<path d="M29.4762 8.87875C29.4762 9.76979 29.4762 10.5153 29.4216 11.3882C29.4216 11.6428 29.5853 11.661 29.7489 11.661C29.9308 11.661 30.1308 11.6791 30.3308 11.6791C30.5309 11.6791 30.7127 11.6791 30.8945 11.661C30.9855 11.661 31.0946 11.661 31.1673 11.5882C31.2219 11.5155 31.2219 11.4428 31.2219 11.3882V10.8972C31.1855 10.188 31.1673 9.56976 31.1673 8.89694V6.20565C32.1493 6.53297 33.2585 7.0785 34.3678 7.76951C34.4223 7.82406 34.4951 7.86043 34.5678 7.86043C34.6951 7.86043 34.7678 7.75132 34.8042 7.67859C34.9315 7.47856 35.1497 7.0785 35.3497 6.55116C35.4588 6.26021 35.2406 6.1511 35.1679 6.11473C34.0041 5.42372 32.8403 4.91456 31.1673 4.38722V2.64152C31.1673 1.96869 31.1673 1.64138 31.2401 1.4959C31.3128 1.36861 31.3492 1.24132 31.3492 1.1504C31.3492 0.986738 31.24 0.895817 31.04 0.841263C30.7127 0.750342 30.1854 0.677604 29.4216 0.641235C29.4034 0.641235 29.3671 0.641235 29.3489 0.677604C29.3307 0.713973 29.3307 0.732157 29.3307 0.750342C29.4216 1.22314 29.458 1.64138 29.458 2.62333V8.89694L29.4762 8.87875Z" fill="white"/>
<path d="M47.3708 11.6609C47.4981 11.6609 47.5709 11.5518 47.6436 11.4609C47.8436 11.1154 48.0073 10.7517 48.1528 10.4062C48.2073 10.2971 48.2073 10.2062 48.1891 10.1334C48.1528 10.0607 48.0982 9.98797 47.9891 9.93342C45.9161 8.91509 43.7885 8.22409 41.861 7.93314C41.5882 7.87858 41.4791 8.00587 41.4064 8.13316C41.2427 8.42411 40.9881 8.93328 40.8245 9.33333C40.8245 9.35152 40.8245 9.38789 40.8245 9.40607C40.8245 9.42425 40.8608 9.44244 40.879 9.46062C43.1884 9.89705 45.1705 10.5699 47.1344 11.57C47.2254 11.6246 47.2981 11.6427 47.3527 11.6427L47.3708 11.6609Z" fill="white"/>
<path d="M41.9336 2.3869C43.6429 2.69604 45.2977 3.2052 46.7161 3.84165C46.7888 3.87802 46.8434 3.89621 46.8979 3.89621C46.9343 3.89621 46.9525 3.89621 46.9888 3.89621C47.0616 3.87802 47.1161 3.80528 47.1525 3.73255C47.3162 3.38704 47.5162 2.89607 47.5889 2.6233C47.6253 2.55056 47.6617 2.45964 47.6253 2.36872C47.5889 2.2778 47.5162 2.22324 47.3889 2.18687C46.0978 1.60497 44.1157 1.07763 42.8428 0.841231C42.6428 0.786678 42.5337 0.804863 42.4064 1.05944C42.2973 1.25947 42.0245 1.91411 41.8608 2.2778C41.8608 2.29598 41.8608 2.33235 41.8608 2.35053C41.8608 2.36872 41.8972 2.3869 41.9336 2.40509V2.3869Z" fill="white"/>
<path d="M41.078 5.69647C42.751 6.06016 44.0239 6.4784 45.224 7.04212C45.2968 7.07849 45.3695 7.09667 45.4422 7.09667C45.5695 7.09667 45.6423 6.98756 45.6968 6.87846C45.8241 6.64206 46.0423 6.1329 46.1151 5.87832C46.1878 5.62374 46.1332 5.49645 45.8969 5.40552C44.8785 4.93273 43.4601 4.47812 42.0054 4.16899C41.7872 4.11443 41.6599 4.16899 41.569 4.35083C41.4235 4.60541 41.2053 5.09639 41.0234 5.56918C41.0234 5.58737 41.0234 5.62374 41.0234 5.64192C41.0234 5.6601 41.0598 5.67829 41.078 5.69647V5.69647Z" fill="white"/>
<path d="M59.3904 7.16938C60.3178 7.16938 61.227 7.16938 62.1908 7.18757H62.2271C62.2271 7.18757 62.409 7.18757 62.4817 7.13301C62.5545 7.07846 62.5545 6.98754 62.5545 6.9148C62.5726 6.53293 62.5726 6.0965 62.5545 5.71463C62.5545 5.64189 62.5545 5.55097 62.4817 5.49642C62.4272 5.44187 62.3363 5.44187 62.2271 5.44187C61.918 5.44187 61.6089 5.44187 61.2816 5.44187C60.6269 5.44187 59.9541 5.46005 59.2995 5.46005H55.1898C53.9533 5.46005 53.2986 5.44187 52.4621 5.31458C52.4258 5.31458 52.4076 5.31458 52.3894 5.33276C52.3712 5.35094 52.353 5.38731 52.353 5.4055C52.4076 6.04195 52.4803 6.66022 52.5531 6.95117C52.6076 7.22393 52.7895 7.29667 52.9349 7.29667C52.9713 7.29667 53.0258 7.29667 53.1168 7.27849C53.3532 7.24212 53.8623 7.1512 54.8079 7.1512H59.3904V7.16938Z" fill="white"/>
<path d="M76.2651 6.22378C76.0468 5.82373 75.9196 5.40549 75.8832 4.96906C75.8832 4.93269 75.8468 4.89632 75.8104 4.89632C75.7741 4.89632 75.7377 4.89632 75.7195 4.93269C75.1013 5.71462 74.3921 6.40563 73.501 7.07845C72.9009 7.53306 72.3736 7.89675 71.8462 8.1877V4.07803C71.8462 3.16881 71.8462 2.93241 71.9554 2.69601C72.0099 2.58691 72.0645 2.45962 72.0645 2.33233C72.0645 2.22322 72.0099 2.07775 71.7735 2.02319C71.3735 1.91409 70.6824 1.82316 70.1733 1.75043C70.1369 1.75043 70.1187 1.75043 70.1005 1.7868C70.0824 1.80498 70.0642 1.84135 70.0824 1.85953C70.2097 2.44143 70.2097 2.9506 70.2097 4.05984V8.26043C70.2097 8.71504 70.2097 8.84233 70.1369 8.96963C70.1005 9.06055 70.0824 9.1151 70.0824 9.20602C70.0824 9.31513 70.1369 9.40605 70.2097 9.53334C70.3006 9.66063 70.6461 10.0971 70.9916 10.3335C71.1189 10.4062 71.2098 10.4426 71.3007 10.4426C71.4098 10.4426 71.5189 10.4062 71.6098 10.3153L71.6644 10.2789C71.6644 10.2789 71.7917 10.188 71.9735 10.0607C72.7736 9.58789 73.501 9.09692 74.2466 8.5332C74.9012 8.04222 75.4831 7.51488 76.1378 6.86024C76.2651 6.73295 76.356 6.60566 76.356 6.47837C76.356 6.40563 76.3378 6.35107 76.3014 6.27834L76.2651 6.2056V6.22378Z" fill="white"/>
<path d="M69.1909 3.04164C69.1909 3.04164 69.0636 2.89617 68.9545 2.8598C68.6817 2.76888 68.1907 2.67795 67.3179 2.56885C67.2815 2.56885 67.2633 2.56885 67.2452 2.60522C67.227 2.6234 67.227 2.65977 67.2452 2.69614C67.3543 3.07801 67.3725 3.25985 67.3725 3.73265C67.3725 5.73293 67.2088 6.42393 66.8451 7.29678C66.4269 8.26056 65.7722 9.0243 64.7539 9.78804C64.7357 9.80623 64.7175 9.8426 64.7175 9.87897C64.7175 9.91533 64.7539 9.93352 64.7721 9.9517C65.2267 10.1154 65.5176 10.2608 65.8268 10.479C65.9177 10.5336 66.0086 10.5882 66.1177 10.5882C66.245 10.5882 66.3723 10.5154 66.4996 10.4063C67.3361 9.67894 67.9544 8.86064 68.3362 7.98779C68.7726 6.98765 69.009 5.75111 69.0272 4.20544C69.0272 3.91449 69.0272 3.64173 69.1727 3.36896C69.2273 3.24167 69.2273 3.13256 69.1727 3.04164H69.1909Z" fill="white"/>
<path d="M82.7389 7.76949H82.7207C82.5025 8.00589 82.2843 8.24228 82.0297 8.4605C81.9206 8.5696 81.8297 8.67871 81.8297 8.78782C81.8297 8.87874 81.8843 8.96966 82.0297 9.11514L82.4298 9.51519C82.5389 9.6243 82.648 9.69704 82.7571 9.69704C82.8662 9.69704 82.9753 9.60611 83.0844 9.49701C83.3027 9.24243 83.539 9.00603 83.7754 8.76963L85.1756 7.38762C85.3029 7.26033 85.3393 7.24214 85.3939 7.24214C85.4302 7.24214 85.5211 7.31488 85.5939 7.38762L86.9759 8.76963C87.1941 8.98784 87.4305 9.22424 87.6851 9.49701C87.8124 9.6243 87.8851 9.69704 87.9942 9.69704C88.0851 9.69704 88.1942 9.64248 88.3397 9.49701L88.7216 9.11514C88.8307 9.00603 88.9216 8.89692 88.9216 8.78782C88.9216 8.67871 88.8489 8.58779 88.7216 8.4605L88.6489 8.38776C88.4306 8.18773 88.2124 7.9877 88.0124 7.76949L86.6122 6.36929C86.4849 6.242 86.4667 6.18745 86.4667 6.15108C86.4667 6.11471 86.5395 6.04198 86.6122 5.96924L87.976 4.60541C88.1942 4.3872 88.467 4.11443 88.7398 3.87804C88.8671 3.75075 88.9398 3.67801 88.9398 3.5689C88.9398 3.47798 88.8853 3.36887 88.7398 3.2234L88.3761 2.85971C88.067 2.55058 87.9397 2.62331 87.7033 2.85971C87.576 2.987 87.4669 3.11429 87.3578 3.2234C87.2305 3.35069 87.1032 3.49616 86.9759 3.60527L85.6121 4.9691C85.4848 5.09639 85.4302 5.11457 85.3939 5.11457C85.3575 5.11457 85.2666 5.04184 85.1938 4.9691L83.83 3.60527C83.539 3.33251 83.3026 3.09611 83.1026 2.8779C82.9753 2.73242 82.8844 2.65968 82.7753 2.65968C82.6662 2.65968 82.5571 2.75061 82.448 2.85971L82.0843 3.2234C81.9388 3.36887 81.8843 3.47798 81.8843 3.5689C81.8843 3.67801 81.9752 3.76893 82.0843 3.89622C82.3389 4.13262 82.6116 4.40538 82.8117 4.60541L84.1937 5.98742C84.2846 6.07834 84.3392 6.15108 84.3392 6.18745C84.3392 6.22382 84.3028 6.29656 84.1937 6.38748L82.7935 7.78768L82.7389 7.76949Z" fill="white"/>
<path d="M103.105 2.29601C102.941 2.24146 102.868 2.36875 102.796 2.47785C102.559 2.84154 102.359 3.16886 102.196 3.47799C102.196 3.49618 102.196 3.53255 102.196 3.55073C102.196 3.56892 102.232 3.5871 102.25 3.60528C103.378 3.98716 104.196 4.47813 104.778 5.13277C104.814 5.18732 104.869 5.22369 104.96 5.22369H104.978C104.978 5.22369 105.141 5.20551 105.196 5.15096C105.269 5.06003 105.341 4.95093 105.432 4.84182C105.596 4.62361 105.778 4.4054 105.887 4.24174V4.20537C105.887 4.20537 105.942 4.11445 105.942 4.07808C105.942 4.00534 105.887 3.9326 105.832 3.89623C105.105 3.16886 104.214 2.64151 103.087 2.31419L103.105 2.29601Z" fill="white"/>
<path d="M102.415 5.66013H102.342C101.469 5.66013 100.397 5.89653 99.3782 6.31477C99.3782 6.06019 99.3782 5.78742 99.3782 5.53284C99.3782 5.24189 99.3782 4.96912 99.3782 4.67817C100.106 4.5327 100.342 4.45996 101.142 4.20538C101.288 4.16901 101.378 4.09628 101.378 3.91443C101.378 3.56893 101.36 3.22343 101.306 2.91429C101.306 2.80518 101.251 2.76882 101.215 2.73245C101.178 2.69608 101.088 2.67789 100.978 2.73245C100.524 2.89611 100.015 3.05977 99.4691 3.16887C99.4691 2.82337 99.4873 2.53242 99.5237 2.24147C99.5419 2.09599 99.5964 1.95052 99.6873 1.76868C99.7419 1.65957 99.7783 1.58683 99.7783 1.51409C99.7783 1.36862 99.651 1.24133 99.4691 1.18678C99.0873 1.07767 98.5235 0.986747 97.9235 0.950378C97.8871 0.950378 97.8689 0.950378 97.8507 0.986747C97.8325 1.02312 97.8325 1.0413 97.8325 1.05948C97.9053 1.3868 97.9235 1.75049 97.9235 2.07781C97.9235 2.36876 97.9235 2.64153 97.9235 2.89611C97.9235 3.09613 97.9235 3.27798 97.9235 3.44164C97.4143 3.49619 96.9051 3.53256 96.396 3.53256C95.9959 3.53256 95.705 3.51438 95.414 3.47801C95.3776 3.47801 95.3595 3.47801 95.3413 3.49619C95.3231 3.51438 95.3049 3.55074 95.3231 3.56893C95.3776 4.09628 95.4322 4.45996 95.4686 4.67817C95.5049 4.8782 95.5777 5.02368 95.8686 5.02368C96.7051 5.02368 97.3416 4.96913 97.9235 4.93276V6.95122C97.0324 7.46038 96.4323 7.80589 95.8868 8.11502C95.4322 8.3696 95.014 8.49689 94.7412 8.55145C94.723 8.55145 94.6866 8.56963 94.6866 8.606C94.6866 8.62418 94.6866 8.66055 94.6866 8.67874C94.8321 9.00606 95.1231 9.62432 95.2867 9.87891C95.3776 10.0426 95.5049 10.1335 95.6504 10.1335C95.7232 10.1335 95.8504 10.0971 95.9232 10.0244C96.0141 9.95164 96.1414 9.86072 96.2687 9.78798C97.0142 10.2971 97.6689 10.879 98.0144 11.37L98.0508 11.4246C98.1417 11.5519 98.2144 11.6792 98.3781 11.6792H98.4144C98.6872 11.6792 99.1054 11.6064 99.3782 11.5155C99.651 11.4609 99.6328 11.2246 99.6328 11.0609V11.0063C99.6328 10.7881 99.5964 10.279 99.5601 9.80617L99.5237 9.35156C99.5055 8.82421 99.4873 8.40597 99.4691 7.87863C100.597 7.29673 101.469 7.04214 102.288 7.04214C103.106 7.04214 103.597 7.46038 103.597 8.24231C103.597 9.15153 102.906 9.46067 102.306 9.46067C101.869 9.46067 101.36 9.46067 100.742 9.24245C100.706 9.24245 100.669 9.24245 100.633 9.27882C100.615 9.31519 100.615 9.35156 100.633 9.38793C100.906 9.75162 100.978 10.188 100.997 10.4244C100.997 10.679 101.106 10.8427 101.342 10.8972C101.633 10.97 102.051 11.0063 102.415 11.0063C104.197 11.0063 105.27 10.0062 105.27 8.33323C105.27 6.78756 104.124 5.71468 102.47 5.6965L102.415 5.66013ZM98.0144 9.71525C97.7052 9.58796 97.3416 9.4243 96.9597 9.20608C97.3234 8.9515 97.6689 8.71511 97.9598 8.51508C97.9598 8.62418 97.9598 8.75147 97.978 8.87876C97.978 9.1879 98.0144 9.49703 98.0326 9.69706L98.0144 9.71525Z" fill="white"/>
<path d="M116.98 3.15065C116.98 3.15065 116.78 2.98699 116.634 3.07792C116.307 3.24157 115.943 3.49616 115.634 3.69618L115.58 3.73255C115.58 3.73255 115.543 3.76892 115.543 3.80529C115.543 3.84166 115.543 3.85984 115.58 3.87803C116.434 4.69633 117.125 5.7692 117.635 7.13303C117.671 7.24214 117.725 7.29669 117.78 7.31488C117.816 7.31488 117.853 7.33306 117.889 7.33306C117.944 7.33306 117.998 7.33306 118.071 7.27851C118.326 7.15122 118.817 6.84208 119.053 6.62387C119.18 6.51476 119.198 6.40566 119.126 6.26018C118.689 5.11457 117.944 4.04169 116.998 3.13247L116.98 3.15065Z" fill="white"/>
<path d="M108.76 5.73284C108.906 5.67828 109.106 5.60555 109.451 5.53281C109.742 5.47826 110.106 5.40552 110.542 5.35096C109.869 7.24214 109.178 8.60597 108.269 10.1698C108.233 10.2244 108.196 10.2971 108.196 10.3699C108.196 10.479 108.269 10.5517 108.324 10.6244C108.487 10.7699 108.996 11.079 109.233 11.2063C109.324 11.2609 109.415 11.2609 109.506 11.2427C109.578 11.2245 109.651 11.1518 109.687 11.0609C110.615 9.3879 111.342 7.71493 112.233 5.11457C112.633 5.06001 112.979 5.04183 113.233 5.04183C113.688 5.04183 113.87 5.18731 113.87 6.13289C113.87 7.47854 113.597 8.66052 113.379 9.26061C113.197 9.75158 113.033 9.87888 112.652 9.87888C112.215 9.87888 111.779 9.78795 111.288 9.60611C111.251 9.60611 111.215 9.60611 111.197 9.62429C111.179 9.64248 111.16 9.69703 111.197 9.71522C111.36 10.0971 111.397 10.4244 111.433 10.8063V10.879C111.433 11.1154 111.542 11.2609 111.724 11.3154C112.033 11.4245 112.433 11.4609 113.015 11.4609C113.815 11.4609 114.452 11.0245 114.815 10.2062C115.234 9.33334 115.506 7.66038 115.506 6.07834C115.506 4.4963 114.815 3.62345 113.561 3.62345C113.415 3.62345 113.07 3.62345 112.688 3.65982C112.742 3.45979 112.797 3.27795 112.852 3.0961C112.924 2.82334 113.015 2.55057 113.106 2.27781C113.161 2.11415 113.233 1.96867 113.343 1.8232C113.415 1.75046 113.452 1.65954 113.452 1.56861C113.452 1.40496 113.343 1.27766 113.197 1.22311C112.67 1.02308 112.324 0.932161 111.651 0.804871C111.615 0.804871 111.597 0.804871 111.579 0.804871C111.56 0.804871 111.542 0.841239 111.542 0.877608C111.542 1.29585 111.506 1.75046 111.415 2.27781V2.36873C111.306 2.76878 111.233 3.16884 111.051 3.80529C110.506 3.89621 110.069 3.95077 109.615 3.98714C108.942 4.04169 108.415 4.07806 107.942 4.07806C107.905 4.07806 107.887 4.07806 107.869 4.11443C107.869 4.13261 107.851 4.16898 107.869 4.18716C108.015 4.7327 108.142 5.20549 108.269 5.51462C108.36 5.75102 108.542 5.82376 108.796 5.73284H108.76Z" fill="white"/>
<path d="M127.873 5.18738C126.473 5.18738 124.982 5.8602 123.727 7.06037C123.782 6.38755 123.891 5.58744 124.018 4.98735C124.073 4.76914 124.145 4.53274 124.254 4.33271C124.309 4.24179 124.327 4.16905 124.327 4.09632C124.327 3.95084 124.254 3.85992 124.073 3.769C123.763 3.58715 123.2 3.44168 122.727 3.2962C122.691 3.2962 122.672 3.2962 122.654 3.2962C122.636 3.2962 122.618 3.33257 122.618 3.36894C122.618 3.71444 122.581 3.98721 122.527 4.27816L122.491 4.49637C122.381 5.31467 122.181 6.93308 122.09 8.62423C122.09 8.84244 122.181 8.89699 122.327 8.96973C122.563 9.07884 122.836 9.18794 123.218 9.31523C123.382 9.3516 123.509 9.36979 123.618 9.18794C123.763 8.93336 123.945 8.71515 124.145 8.49693C125.345 7.27858 126.655 6.58758 127.746 6.58758C128.655 6.58758 129.182 7.04219 129.182 7.80593C129.182 8.60604 128.691 9.22431 127.728 9.64255C126.891 10.0062 125.691 10.2608 124.254 10.3517C124.218 10.3517 124.182 10.3881 124.182 10.4245C124.182 10.4608 124.182 10.4972 124.218 10.5154C124.582 10.8064 124.8 11.1155 125.055 11.5701C125.164 11.7519 125.291 11.8065 125.436 11.8065C125.509 11.8065 125.564 11.8065 125.655 11.8065C126.946 11.6428 128.164 11.3155 128.946 10.9155C129.855 10.4608 130.91 9.588 130.91 7.98777C130.91 6.24207 129.746 5.16919 127.855 5.16919L127.873 5.18738Z" fill="white"/>
<path d="M126.127 3.36888C126.127 3.36888 126.254 3.47799 126.345 3.47799C126.418 3.47799 126.491 3.44162 126.563 3.3507C126.782 3.09612 127.054 2.71425 127.218 2.44148C127.273 2.35056 127.291 2.29601 127.291 2.24145C127.291 2.15053 127.236 2.07779 127.163 2.04142C126.382 1.3686 125.581 0.877624 124.636 0.513937C124.509 0.477568 124.399 0.513937 124.29 0.604859C124.09 0.786702 123.872 1.09584 123.527 1.605C123.527 1.62318 123.527 1.65955 123.527 1.67774C123.527 1.69592 123.545 1.73229 123.581 1.73229C124.49 2.13235 125.345 2.67788 126.127 3.36888V3.36888Z" fill="white"/>
<path d="M139.565 1.85956C137.855 1.85956 136.473 2.40509 135.364 3.51434C134.418 4.45992 133.891 5.66009 133.891 6.89663C133.891 9.07876 135.091 10.2607 136.237 10.2607C137.182 10.2607 137.892 9.78795 138.473 8.75144C139.201 7.47853 139.746 5.60554 140.074 3.31431C141.419 3.31431 142.801 4.40537 142.801 6.16926C142.801 8.66052 140.892 9.44245 139.019 9.89706C138.983 9.89706 138.964 9.93342 138.946 9.96979C138.946 10.0062 138.946 10.0425 138.983 10.0607C139.474 10.3517 139.728 10.6426 139.837 10.8426C139.983 11.0609 140.092 11.1518 140.274 11.1518C140.346 11.1518 140.401 11.1518 140.492 11.1154C143.183 10.3153 144.474 8.76962 144.474 6.38747C144.474 3.69618 142.492 1.87774 139.528 1.87774L139.565 1.85956ZM138.419 3.40523C138.201 4.96909 137.673 6.75116 137.091 7.80585C136.746 8.40594 136.491 8.53323 136.219 8.53323C135.891 8.53323 135.437 7.93314 135.437 6.80571C135.437 6.04197 135.8 5.20548 136.4 4.51448C136.91 3.95076 137.546 3.60526 138.401 3.40523H138.419Z" fill="white"/>
<path d="M12.456 15.9893C12.456 15.9893 12.2923 15.862 12.1468 15.9529L11.5104 16.4075C11.5104 16.4075 11.474 16.4439 11.474 16.4803C11.474 16.5166 11.474 16.5348 11.5104 16.553C12.0013 16.953 12.4196 17.4258 12.7651 17.9896C12.8015 18.0623 12.856 18.0987 12.9287 18.0987H12.9651C12.9651 18.0987 13.0742 18.0987 13.1288 18.0441L13.6379 17.6441C13.6379 17.6441 13.8198 17.4622 13.6925 17.2986C13.4015 16.8258 12.9287 16.3166 12.4741 15.9711L12.456 15.9893Z" fill="white"/>
<path d="M11.3281 16.8076C11.3281 16.8076 11.1645 16.6803 11.019 16.7712L10.3462 17.244C10.3462 17.244 10.3098 17.2804 10.3098 17.3167C10.3098 17.3531 10.3098 17.3713 10.3462 17.3895C10.819 17.7713 11.219 18.2441 11.6191 18.8442C11.6736 18.917 11.7464 18.9533 11.8191 18.9533C11.8737 18.9533 11.9282 18.9351 11.9646 18.8988L12.4919 18.4987C12.4919 18.4987 12.6556 18.3351 12.5465 18.1714C12.1828 17.6259 11.7282 17.0985 11.31 16.7894L11.3281 16.8076Z" fill="white"/>
<path d="M10.5472 18.3714C10.3472 18.2441 10.1835 18.2623 10.0744 18.3532C9.96529 18.4259 9.81981 18.4805 9.47431 18.4987L7.36492 18.5532C7.47403 18.3896 7.58313 18.2259 7.69224 18.0623L7.74679 17.9895C7.81953 17.8804 7.89227 17.7895 7.98319 17.7349C8.12867 17.644 8.16504 17.5167 8.16504 17.444C8.16504 17.3349 8.11048 17.2258 8.00138 17.153C7.71043 16.953 7.23763 16.7348 6.49207 16.462C6.47389 16.462 6.43752 16.462 6.41934 16.462C6.40115 16.462 6.38297 16.4984 6.38297 16.5166C6.23749 17.1349 6.05565 17.5167 5.63741 18.2077C4.74637 19.6079 3.70986 20.7717 2.23693 21.9719C2.20056 21.9901 2.20056 22.0265 2.20056 22.0628C2.20056 22.0992 2.23693 22.1174 2.2733 22.1356C2.72791 22.2265 3.18252 22.4811 3.45528 22.6629C3.63713 22.8084 3.85534 22.7902 4.03718 22.5902C4.76456 21.9901 5.4192 21.2445 6.43752 20.008L9.32883 19.9171C8.61964 21.39 8.05593 22.2629 7.05579 23.3721C5.7647 24.7723 4.74637 25.5542 2.83701 26.6089C2.80065 26.6089 2.78246 26.6635 2.78246 26.6998C2.78246 26.7362 2.81883 26.7726 2.8552 26.7726C3.34618 26.8999 3.72805 27.0999 4.03718 27.3363C4.1281 27.409 4.23721 27.5 4.38269 27.5C4.47361 27.5 4.56453 27.4818 4.63727 27.4272C5.91017 26.718 7.43766 25.4633 8.52872 24.245C9.43794 23.2084 10.2381 21.9537 11.0563 20.2989C11.1655 20.0625 11.2927 19.8989 11.4564 19.7716C11.5837 19.6625 11.6382 19.5534 11.6382 19.4443C11.6382 19.3534 11.6019 19.2261 11.4382 19.0806C11.1473 18.8078 10.8563 18.5714 10.5654 18.3896L10.5472 18.3714Z" fill="white"/>
<path d="M17.293 18.2078C17.293 18.2078 17.2384 18.2078 17.2203 18.2441C17.2021 18.2623 17.2021 18.2987 17.2203 18.3351C17.3112 18.7169 17.3475 18.917 17.3475 19.3897C17.3475 21.39 17.1839 22.081 16.8202 22.9539C16.402 23.9177 15.7473 24.6814 14.729 25.4451C14.7108 25.4633 14.6926 25.4997 14.6926 25.5361C14.6926 25.5724 14.729 25.5906 14.7472 25.6088C15.2018 25.7725 15.4927 25.9179 15.8019 26.1362C15.8928 26.1907 15.9837 26.2453 16.0928 26.2453C16.2201 26.2453 16.3292 26.1725 16.4747 26.0634C17.3112 25.336 17.9294 24.5177 18.3113 23.6449C18.7477 22.6448 18.9841 21.4082 19.0023 19.8625C19.0023 19.5716 19.0023 19.2988 19.1478 19.0261C19.2024 18.8988 19.2024 18.7897 19.1478 18.6987C19.1114 18.6078 19.0205 18.5533 18.9114 18.5169C18.6205 18.426 18.1295 18.3351 17.2748 18.2259L17.293 18.2078Z" fill="white"/>
<path d="M26.2403 21.8628C26.0221 21.4628 25.8948 21.0445 25.8584 20.6081C25.8584 20.5717 25.822 20.5354 25.7857 20.5354C25.7493 20.5354 25.7129 20.5354 25.6947 20.5717C25.0765 21.3537 24.3855 22.0265 23.4762 22.7175C22.8762 23.1721 22.3488 23.5176 21.8215 23.8267V19.7171C21.8215 18.8079 21.8215 18.5715 21.9306 18.3532C21.9851 18.2441 22.0397 18.0987 22.0397 17.9896C22.0397 17.8804 21.9851 17.735 21.7487 17.6804C21.3487 17.5531 20.6213 17.4622 20.1485 17.4077C20.1121 17.4077 20.094 17.4077 20.0758 17.444C20.0576 17.4622 20.0394 17.4986 20.0576 17.5168C20.1849 18.0987 20.1849 18.6078 20.1849 19.7171V23.9177C20.1849 24.3723 20.1849 24.4996 20.1121 24.6269C20.0758 24.7178 20.0576 24.7723 20.0576 24.8632C20.0576 24.9724 20.1121 25.0633 20.1849 25.1906C20.2758 25.3179 20.6031 25.7361 20.9668 25.9907C21.0941 26.0634 21.185 26.0998 21.2759 26.0998C21.385 26.0998 21.4941 26.0634 21.5851 25.9725L21.6578 25.9179C21.6578 25.9179 21.7851 25.827 21.9488 25.6997C22.7671 25.2269 23.4762 24.736 24.2218 24.1722C24.8764 23.6813 25.4583 23.1539 26.113 22.4993C26.2403 22.372 26.3312 22.2447 26.3312 22.1174C26.3312 22.0447 26.313 21.9901 26.2766 21.9174L26.2403 21.8446V21.8628Z" fill="white"/>
<path d="M31.823 17.0803C31.3502 17.0803 30.6956 17.0803 29.7136 17.0076C29.6772 17.0076 29.659 17.0076 29.6409 17.0439C29.6409 17.0621 29.6227 17.0803 29.6227 17.1167C29.6227 17.3167 29.6591 17.5167 29.6591 17.6986C29.6591 17.935 29.6772 18.1532 29.7136 18.335C29.7136 18.5169 29.7863 18.626 30.0227 18.626H30.3864C30.9138 18.5896 31.3502 18.5714 31.823 18.5714H34.6779C35.4053 18.5714 36.1327 18.5714 36.8237 18.6078C37.0783 18.6078 37.0783 18.4078 37.0783 18.2805C37.0965 17.9713 37.0965 17.644 37.0783 17.3349C37.0783 17.2258 37.0783 17.0076 36.8237 17.0076C36.1327 17.0439 35.278 17.0621 34.6779 17.0621H31.823V17.0803Z" fill="white"/>
<path d="M38.5148 19.9535C37.7147 20.008 36.9692 20.0262 36.0418 20.0262H30.3137C29.5681 20.0262 28.8589 20.0262 28.1498 19.9535C28.1316 19.9535 28.0952 19.9535 28.077 19.9717C28.077 19.9717 28.0406 20.008 28.0406 20.0444C28.0406 20.4445 28.077 20.9354 28.1498 21.281C28.1498 21.3901 28.1679 21.4992 28.2589 21.5719C28.2952 21.6083 28.3498 21.6265 28.4225 21.6083C29.0772 21.5719 29.6954 21.5355 30.3319 21.5355H32.6595C32.6049 22.6266 32.4958 23.2994 32.023 24.1359C31.5321 25.0451 30.8229 25.6634 29.5318 26.3726C29.4954 26.3726 29.4772 26.4271 29.4772 26.4635C29.4772 26.4999 29.4954 26.5362 29.5318 26.5362C29.9682 26.6999 30.3864 26.9545 30.641 27.1909C30.7501 27.3 30.8592 27.3363 30.9683 27.3363C31.1138 27.3363 31.2593 27.2636 31.4048 27.1727C32.2958 26.6453 33.1868 25.6816 33.6778 24.736C34.1506 23.8086 34.3506 22.9721 34.4415 21.5355H36.06C36.7873 21.5355 37.6056 21.5355 38.4785 21.5901C38.6603 21.5901 38.7694 21.481 38.7694 21.281C38.7694 21.1173 38.7694 20.4627 38.7694 20.299C38.7694 20.1535 38.7694 19.9535 38.533 19.9535H38.5148Z" fill="white"/>
<path d="M50.9897 18.5896C50.9897 18.5896 50.9533 18.5168 50.9169 18.5168C50.8806 18.5168 50.8442 18.5168 50.826 18.5532C49.8077 19.8625 48.9894 20.6626 47.3528 22.0082C46.0617 23.0448 45.2434 23.5721 43.6977 24.3722C43.0431 24.6995 42.6612 24.8268 41.9884 25.0087C41.9702 25.0087 41.9338 25.045 41.9338 25.0632C41.9338 25.0814 41.9338 25.1178 41.9338 25.136C42.2066 25.6088 42.5885 26.1543 42.9522 26.5725C43.0431 26.6816 43.1522 26.7362 43.2431 26.7362C43.334 26.7362 43.425 26.6816 43.5341 26.5907C43.6432 26.4816 43.8068 26.3543 44.3705 26.027C45.989 25.136 47.0982 24.4086 48.2256 23.5175C49.3712 22.6447 50.4623 21.6264 51.1715 20.8081C51.317 20.6444 51.3897 20.5171 51.3897 20.3717C51.3897 20.2625 51.3533 20.1716 51.317 20.0989C51.1351 19.6443 51.026 19.2079 50.9715 18.626L50.9897 18.5896Z" fill="white"/>
<path d="M44.4973 20.99C44.4973 20.99 44.6428 20.9355 44.7155 20.8627C44.8974 20.6627 45.3156 20.1535 45.5156 19.8989C45.5702 19.8262 45.6066 19.7717 45.6066 19.6807C45.6066 19.5898 45.5338 19.5171 45.4611 19.4443C44.7519 18.7715 43.6972 17.9896 43.0062 17.6259C42.9334 17.5895 42.8789 17.5532 42.788 17.5532C42.6971 17.5532 42.6061 17.6077 42.5334 17.6805C42.3879 17.8259 41.9515 18.2805 41.6424 18.6806C41.6424 18.6988 41.6242 18.7351 41.6424 18.7533C41.6424 18.7715 41.6605 18.8079 41.6787 18.8079C42.6061 19.3716 43.5154 20.099 44.2609 20.8627C44.3155 20.9173 44.3882 20.99 44.4973 20.99Z" fill="white"/>
<path d="M63.0267 17.6622C62.8812 17.5895 62.663 17.5713 62.5175 17.6622C62.3539 17.7531 62.2266 17.7713 61.8629 17.7713H57.3168C56.1348 17.7713 55.4438 17.7531 54.8801 17.6804C54.8437 17.6804 54.8256 17.6804 54.8074 17.6986C54.7892 17.7168 54.771 17.7349 54.771 17.7713C54.8255 18.4441 54.8619 18.8806 54.8801 19.0624C54.8801 19.1715 54.9347 19.3897 55.1892 19.3897H55.2983C55.8439 19.3534 56.5349 19.317 57.3168 19.317H61.7902C61.2992 20.6444 60.6627 21.6991 59.699 22.7902C58.517 24.1722 57.3895 25.0269 55.5529 25.9543C55.5166 25.9543 55.4984 26.0088 55.4984 26.0452C55.4984 26.0816 55.5166 26.1179 55.5529 26.1179C56.0621 26.318 56.444 26.5544 56.6985 26.7908C56.844 26.9362 56.9895 26.9544 57.0804 26.9544C57.2077 26.9544 57.3532 26.9181 57.4623 26.8271C58.717 26.1179 59.9717 25.0632 61.0992 23.7722C62.0811 22.6447 62.8994 21.2809 63.5904 19.6079C63.6995 19.3534 63.7541 19.2442 63.8632 19.1351C64.0087 19.0079 64.0814 18.8806 64.0814 18.7533C64.0814 18.6623 64.045 18.5714 63.9723 18.4805C63.7177 18.1532 63.354 17.8259 63.0085 17.6077L63.0267 17.6622Z" fill="white"/>
<path d="M70.9555 22.863V22.4993C70.9373 22.1538 70.9192 21.7538 70.9192 21.2628V18.6988C70.9192 18.0987 70.9373 17.7532 71.0646 17.5168C71.0828 17.4441 71.1192 17.3713 71.1192 17.2986C71.1192 17.2077 71.0828 17.0622 70.8464 17.0076C70.4827 16.8803 69.8463 16.8076 69.3189 16.7531H69.2462C69.2462 16.7531 69.1916 16.7531 69.1735 16.7712C69.1553 16.7894 69.1553 16.8258 69.1553 16.844C69.2644 17.335 69.3007 17.8259 69.3007 18.6806V21.1719C69.3007 21.4628 69.3007 21.7901 69.2826 22.1174C69.2826 22.4084 69.2826 22.6812 69.2826 22.8994C69.2826 22.9903 69.2826 23.063 69.3371 23.1176C69.4099 23.1903 69.519 23.2085 69.6099 23.2085H70.6282C70.7919 23.2085 70.9919 23.1721 70.9919 22.863H70.9555Z" fill="white"/>
<path d="M75.3746 16.7893C74.8836 16.6256 74.1926 16.5529 73.7016 16.4984C73.6653 16.4984 73.6471 16.4984 73.6289 16.5347C73.6107 16.5529 73.6107 16.5893 73.6107 16.6075C73.7198 17.1712 73.7562 17.553 73.7562 18.6623V21.0626C73.7562 22.6629 73.5016 23.6994 72.9197 24.4086C72.2833 25.1905 71.2831 25.7906 69.8647 26.2452C69.8284 26.2452 69.8102 26.2815 69.792 26.3179C69.792 26.3543 69.792 26.3907 69.8465 26.4088C70.2648 26.627 70.5921 26.8634 70.9012 27.1726C71.0285 27.2999 71.1376 27.3544 71.2649 27.3544C71.3377 27.3544 71.4286 27.3362 71.5559 27.2817C72.6651 26.8816 73.7744 26.0815 74.3926 25.245C75.12 24.2631 75.4473 23.0084 75.4473 21.0444V18.6805C75.4473 17.8985 75.4473 17.5712 75.5564 17.3348C75.611 17.2439 75.6292 17.153 75.6292 17.0803C75.6292 16.9348 75.5383 16.8257 75.3928 16.7711L75.3746 16.7893Z" fill="white"/>
<path d="M90.0853 21.0808C89.7398 21.0808 89.3943 21.0808 89.0488 21.0808C88.4305 21.0808 87.7759 21.099 87.1576 21.099H83.0479C81.8114 21.099 81.175 21.0808 80.3203 20.9536C80.3021 20.9536 80.2657 20.9536 80.2476 20.9717C80.2294 20.9899 80.2112 21.0263 80.2112 21.0445C80.2657 21.6809 80.3385 22.281 80.4112 22.5901C80.4658 22.8811 80.6476 22.9356 80.7931 22.9356C80.8294 22.9356 80.884 22.9356 80.9749 22.9175C81.2113 22.8811 81.7205 22.7902 82.6661 22.7902H87.2485C88.1759 22.7902 89.0852 22.7902 90.0489 22.8084H90.0853C90.0853 22.8084 90.2671 22.8084 90.3399 22.7538C90.4126 22.6993 90.4126 22.6083 90.4126 22.5356C90.4308 22.1537 90.4308 21.7173 90.4126 21.3354C90.4126 21.2627 90.4126 21.1718 90.3399 21.1172C90.2853 21.0627 90.1944 21.0445 90.0853 21.0627V21.0808Z" fill="white"/>
<path d="M101.705 18.2623C101.505 18.135 101.341 18.1532 101.232 18.2259C101.123 18.2986 100.978 18.3532 100.632 18.3714L98.5226 18.4259C98.6317 18.2623 98.7409 18.0986 98.85 17.9349L98.9045 17.8622C98.9773 17.7531 99.05 17.6622 99.1409 17.6076C99.2864 17.5167 99.3228 17.3894 99.3228 17.3167C99.3228 17.2439 99.2864 17.1166 99.1591 17.0257C98.8863 16.8257 98.3953 16.6075 97.6498 16.3347C97.6316 16.3347 97.5952 16.3347 97.577 16.3347C97.5589 16.3347 97.5407 16.3711 97.5407 16.3893C97.3952 17.0075 97.1952 17.4076 96.7951 18.0804C95.9041 19.4806 94.8676 20.6444 93.3946 21.8446C93.3583 21.8628 93.3583 21.8991 93.3583 21.9355C93.3583 21.9719 93.3946 21.9901 93.431 22.0082C93.8129 22.081 94.2675 22.2992 94.613 22.5356C94.7948 22.6811 94.9949 22.6629 95.1949 22.4629C95.9223 21.8628 96.5769 21.1172 97.5952 19.8807L100.487 19.7897C99.7774 21.2627 99.2136 22.1355 98.2135 23.2448C96.9224 24.645 95.9041 25.4269 93.9947 26.4816C93.9584 26.4816 93.9402 26.5362 93.9402 26.5725C93.9402 26.6089 93.9765 26.6453 94.0129 26.6453C94.5039 26.7907 94.8858 26.9726 95.1949 27.209C95.2858 27.2817 95.3949 27.3726 95.5404 27.3726C95.6313 27.3726 95.7222 27.3544 95.795 27.2999C97.0679 26.5907 98.5954 25.336 99.6864 24.1176C100.596 23.0811 101.396 21.8264 102.214 20.1716C102.341 19.9352 102.45 19.7716 102.614 19.6443C102.741 19.5352 102.796 19.4261 102.796 19.2988C102.796 19.2078 102.76 19.0806 102.596 18.9351C102.305 18.6623 102.014 18.4259 101.723 18.2441L101.705 18.2623Z" fill="white"/>
<path d="M110.815 19.4443C110.615 19.517 110.361 19.6443 109.924 19.8625L109.797 19.9171C109.797 19.9171 109.761 19.9534 109.742 19.9716C109.742 19.9898 109.742 20.0262 109.742 20.0444C110.233 20.7354 110.524 21.3536 110.797 22.0628C110.833 22.1901 110.888 22.281 110.961 22.3174C110.979 22.3174 111.015 22.3356 111.052 22.3356C111.088 22.3356 111.124 22.3356 111.161 22.3174C111.506 22.1901 111.797 22.0628 112.052 21.9174C112.252 21.8082 112.306 21.6991 112.216 21.4627C112.015 20.8627 111.597 20.0625 111.234 19.5898C111.106 19.4079 110.979 19.3715 110.797 19.4625L110.815 19.4443Z" fill="white"/>
<path d="M109.652 22.572C109.743 22.5175 109.852 22.4447 109.852 22.3174C109.852 22.2629 109.852 22.2265 109.816 22.172C109.816 22.1538 109.816 22.1356 109.797 22.0992C109.579 21.4809 109.197 20.8263 108.688 20.1899C108.561 20.0262 108.434 19.9898 108.252 20.0808L108.161 20.1171C107.906 20.2262 107.633 20.3717 107.252 20.5899C107.233 20.5899 107.215 20.6263 107.215 20.6445C107.215 20.6627 107.215 20.699 107.233 20.7172C107.706 21.2991 108.106 21.9719 108.415 22.7357C108.452 22.8266 108.488 22.9357 108.597 22.9721C108.634 22.9721 108.67 22.9903 108.706 22.9903C108.743 22.9903 108.797 22.9903 108.852 22.9539C109.161 22.8448 109.379 22.7357 109.688 22.5538L109.652 22.572Z" fill="white"/>
<path d="M115.325 20.2444C115.034 20.0444 114.488 19.808 113.87 19.6262C113.852 19.6262 113.816 19.6262 113.797 19.6262C113.779 19.6262 113.761 19.6625 113.761 19.6989C113.707 20.299 113.634 20.5717 113.47 21.0264C113.125 21.9719 112.415 23.2267 111.761 24.0813C111.015 25.0451 110.288 25.6816 108.724 26.7181C108.688 26.7362 108.669 26.7726 108.688 26.809C108.688 26.8454 108.724 26.8817 108.76 26.8817C109.233 27.0272 109.506 27.1545 109.797 27.3909C109.87 27.4636 109.961 27.5 110.07 27.5C110.197 27.5 110.324 27.4273 110.433 27.3363C111.488 26.6453 112.197 25.9725 113.088 24.8633C113.816 23.9177 114.488 22.7357 115.016 21.4628L115.052 21.3719C115.125 21.1718 115.216 20.99 115.361 20.8445C115.452 20.7718 115.525 20.6809 115.525 20.5536C115.525 20.4263 115.416 20.3353 115.325 20.2626V20.2444Z" fill="white"/>
<path d="M129.054 20.899C129.054 20.899 128.89 20.8627 128.818 20.8808C128.272 21.0263 127.617 21.1718 126.817 21.2991L125.053 21.6082L124.763 20.1535L125.799 19.9716C126.181 19.8989 126.636 19.8261 127.09 19.7534C127.399 19.6989 127.69 19.6625 127.927 19.6079C128.108 19.6079 128.199 19.517 128.199 19.3534C128.127 18.9169 128.036 18.5714 127.945 18.2441C127.908 18.1168 127.818 18.0441 127.727 18.0441H127.708C127.072 18.2259 126.199 18.3714 125.508 18.4987L124.49 18.6805L124.308 17.6986C124.235 17.2985 124.253 17.0803 124.272 16.9348C124.272 16.8803 124.272 16.8439 124.272 16.8075C124.272 16.553 124.017 16.5348 123.926 16.5166C123.362 16.4802 122.744 16.5166 122.253 16.553C122.217 16.553 122.199 16.5711 122.18 16.5893C122.18 16.6075 122.18 16.6439 122.18 16.6803C122.417 17.153 122.544 17.5895 122.69 18.2441L122.835 18.9715L121.762 19.1351C120.853 19.2806 120.162 19.3715 119.507 19.4079C119.489 19.4079 119.453 19.4079 119.435 19.4443C119.416 19.4806 119.416 19.4988 119.435 19.517C119.507 19.8625 119.671 20.499 119.798 20.8081C119.835 20.9172 119.925 21.0445 120.144 20.9899C120.489 20.899 121.344 20.7172 122.035 20.6081L123.144 20.4262L123.435 21.8992L121.744 22.1719C120.744 22.3356 120.107 22.4265 119.38 22.5174C119.362 22.5174 119.325 22.5174 119.307 22.5538C119.289 22.5902 119.289 22.6084 119.307 22.6265C119.453 23.1721 119.562 23.5903 119.671 23.8994C119.707 23.9904 119.762 24.0631 119.835 24.0995C119.907 24.1358 119.998 24.1358 120.089 24.0995C120.598 23.9722 121.344 23.8085 122.144 23.663L123.799 23.3721L124.108 24.7905C124.235 25.3542 124.326 25.9543 124.417 26.4271C124.453 26.6271 124.49 26.8089 124.508 26.9544C124.508 27.0272 124.562 27.1908 124.817 27.1908H124.872C125.217 27.1363 125.781 27.009 126.035 26.9181C126.126 26.8817 126.29 26.8271 126.254 26.6635V26.6089C126.072 25.9725 125.872 25.1905 125.69 24.3722L125.417 23.0448L127.09 22.7538C127.872 22.6265 128.727 22.4811 129.127 22.4265C129.29 22.4265 129.4 22.281 129.4 22.0992C129.345 21.681 129.254 21.3354 129.181 21.0809C129.181 21.0081 129.163 20.9354 129.09 20.8808L129.054 20.899Z" fill="white"/>
<path d="M142.039 21.0808C141.693 21.0808 141.348 21.0808 141.002 21.0808C140.384 21.0808 139.729 21.099 139.111 21.099H135.002C133.765 21.099 133.129 21.0808 132.274 20.9536C132.238 20.9536 132.219 20.9536 132.201 20.9717C132.183 20.9899 132.165 21.0263 132.165 21.0445C132.219 21.6809 132.292 22.281 132.365 22.5901C132.419 22.8811 132.601 22.9356 132.747 22.9356C132.783 22.9356 132.838 22.9356 132.929 22.9175C133.165 22.8811 133.674 22.7902 134.62 22.7902H139.202C140.13 22.7902 141.039 22.7902 142.003 22.8084H142.039C142.039 22.8084 142.221 22.8084 142.293 22.7538C142.366 22.6993 142.366 22.6083 142.366 22.5356C142.384 22.1537 142.384 21.7173 142.366 21.3354C142.366 21.2627 142.366 21.1718 142.293 21.1172C142.239 21.0627 142.148 21.0445 142.039 21.0627V21.0808Z" fill="white"/>
</svg>
