<svg width="32" height="32" viewBox="0 0 32 32" fill="none" xmlns="http://www.w3.org/2000/svg"><path d="M5.91 6a.909.909 0 100 1.818h1.365l1.027 2.996 1.853 7.236.002.007h-.001l.004.015c.004.012.007.025.012.037l.79 2.883a2.286 2.286 0 00-2.15 2.267 2.287 2.287 0 002.272 2.273 2.287 2.287 0 002.273-2.273c0-.498-.17-.957-.447-1.333h7.991a2.24 2.24 0 00-.446 1.333 2.287 2.287 0 002.272 2.273A2.287 2.287 0 0025 23.259a2.289 2.289 0 00-1.865-2.233v-.009a.91.91 0 00-.909-.909h-9.621l-.375-1.367h9.997a.908.908 0 00.88-.684l1.865-7.282a.91.91 0 00-.88-1.134H9.82L8.78 6.614A.909.909 0 007.925 6H5.909zm4.433 5.46H22.92l-1.4 5.463h-9.777l-1.4-5.464zm.741 11.345c.261 0 .455.193.455.454a.442.442 0 01-.455.455.442.442 0 01-.454-.455c0-.261.193-.454.454-.454zm11.643 0c.261 0 .455.193.455.454a.442.442 0 01-.455.455.442.442 0 01-.454-.455c0-.261.193-.454.454-.454z" fill="#EC6D4E"/></svg>