<svg width="150" height="40" viewBox="0 0 150 40" fill="none" xmlns="http://www.w3.org/2000/svg"><path d="M24.321 2.492c1.09 0 1.647.623 1.647 1.357a1.135 1.135 0 01-.423.979H9.371v11.947h9.989c1.09 0 1.624.623 1.624 1.357a1.223 1.223 0 01-.4 1.001H9.46v9.522c0 7.387-1.18 11.258-5.696 11.258-2.403 0-3.76-2.047-3.76-5.54 0-4.271 3.249-8.143 5.25-10.056v-5.184H3.03c-.957 0-1.49-.6-1.49-1.29a1.179 1.179 0 01.4-1.001H5.3V4.828H1.627c-1.09 0-1.624-.579-1.624-1.313a1.157 1.157 0 01.4-.979l23.917-.044zM5.3 28.967v-2.559a13.349 13.349 0 00-3.315 8.099c0 2.758.646 3.648 1.647 3.648 1 0 1.624-1.89 1.668-9.188zm21.78 4.672a2.068 2.068 0 01-1.713.623c-1.224 0-2.358-.801-2.358-2.759V14.328a2.227 2.227 0 011.735-.623c1.224 0 2.336.8 2.336 2.758v3.427c1.18-2.937 3.137-5.607 6.296-5.607A4.916 4.916 0 0138.85 19.4a2.36 2.36 0 01-2.225 2.492c-1.09 0-1.357-.556-1.357-.556a4.893 4.893 0 00.334-1.669 3.315 3.315 0 00-2.937-3.626c-3.159 0-5.517 7.564-5.517 10.412l-.067 7.186zm37.933-10.212c.378 0 .823.445.823 2.38 0 5.029-2.225 8.455-6.274 8.455a6.073 6.073 0 01-6.163-4.294 6.474 6.474 0 01-6.474 4.294 5.895 5.895 0 01-6.23-6.541V16.463c0-1.957 1.136-2.758 2.36-2.758a2.07 2.07 0 011.712.623v12.97c0 3.983 1.09 5.384 2.714 5.384 2.403 0 5.34-2.936 5.34-9.3v-6.919a2.536 2.536 0 012.559-2.758 2.424 2.424 0 011.78.623v12.97c0 3.538 1.223 5.206 3.025 5.206 1.802 0 4.25-1.401 4.25-8.899-.09.09-.045-.178.578-.178z" fill="#fff"/><path d="M77.872 36.309c-8.899 0-14.35-6.675-14.35-17.22 0-10.546 7.476-14.595 12.125-14.595A1.69 1.69 0 0177.45 5.94c0 .645-.266.69-.266.69-6.14 0-9.5 5.006-9.5 12.526 0 8.899 3.715 15.417 10.19 15.417 6.473 0 10.656-6.963 10.656-16.33.089-8.832-4.828-15.974-11.836-15.974-7.742 0-13.349 4.873-13.482 10.48a.868.868 0 01-.846.355c-.6 0-1.179-.534-1.179-1.624C61.186 7.03 66.281 0 76.76 0c10.01.044 16.018 8.232 16.018 18.221 0 11.035-5.74 18.088-14.906 18.088zm41.226-12.882c.356 0 .823.445.823 2.38 0 5.029-2.225 8.455-6.296 8.455a5.876 5.876 0 01-6.052-4.005 6.36 6.36 0 01-5.74 4.005c-4.983 0-7.92-2.981-7.92-10.346 0-7.364 3.982-10.211 8.899-10.211a6.074 6.074 0 014.45 1.312 2.22 2.22 0 012.069-1.312 2.07 2.07 0 011.713.623v12.97c0 3.538 1.223 5.206 3.048 5.206 2.469 0 4.249-2.224 4.249-8.899.089.09.134-.178.757-.178zm-12.081 2.981v-6.207c0-2.981-1.847-4.739-3.693-4.739-2.981 0-5.117.913-5.117 8.454 0 7.543 1.913 8.588 4.138 8.588a5.832 5.832 0 004.672-6.096z" fill="#fff"/><path d="M122.479 15.907v11.391a4.808 4.808 0 004.717 5.206c3.648 0 5.428-2.536 5.428-8.899 0 0 0-.29.668-.29.667 0 .823.468.823 2.404 0 4.45-2.091 8.454-7.475 8.454-4.828 0-8.232-2.492-8.232-7.898V9.767c0-1.958 1.135-2.759 2.358-2.759a2.07 2.07 0 011.713.623v6.675h6.207c1.313 0 1.536.489 1.536 1.58l-7.743.021z" fill="#fff"/><path d="M133.759 18.399c0-2.803 2.403-4.694 7.564-4.694 5.162 0 7.743 2.113 7.743 4.138a1.852 1.852 0 01-1.212 1.692 1.852 1.852 0 01-.724.11c-1.09 0-1.357-.534-1.357-.534a1.76 1.76 0 00.267-1.046c0-1.624-2.447-2.67-4.45-2.67-2.002 0-4.071.78-4.071 2.492 0 4.917 12.481 3.604 12.481 10.568 0 4.027-3.982 5.74-9.077 5.74-5.607 0-9.233-3.693-9.233-8.254 0-1.735.756-2.714 1.802-2.714s1.268.534 1.268.534a4.906 4.906 0 00-.267 1.668 6.473 6.473 0 006.675 7.008c3.159 0 4.783-1 4.827-3.381-.066-5.184-12.369-3.649-12.236-10.657z" fill="#fff"/></svg>