<svg width="400" height="18" viewBox="0 0 400 18" fill="none" xmlns="http://www.w3.org/2000/svg">
<path d="M14.8223 5.2982C13.4885 5.34853 12.6329 5.39886 11.3998 5.39886H9.99055L9.94022 4.19094C9.88989 3.08367 9.94022 2.80686 10.0157 2.60553V2.53004C10.0157 2.53004 10.0912 2.37905 10.0912 2.30355C10.0912 2.1274 9.99055 2.00157 9.76407 1.97641C9.26077 1.87575 8.58131 1.82542 7.52437 1.77509C7.47404 1.77509 7.44888 1.77509 7.42371 1.82542C7.42371 1.85058 7.39855 1.90091 7.42371 1.92608C7.5747 2.47971 7.67536 3.10884 7.70053 3.96445L7.77602 5.39886H3.64894C2.39069 5.39886 1.43441 5.3737 0.503302 5.2982C0.503302 5.2982 0.427807 5.2982 0.402642 5.32337C0.402642 5.34853 0.352312 5.3737 0.377477 5.42403V5.54985C0.427807 6.17898 0.452972 6.83328 0.528468 7.13526C0.528468 7.31141 0.603963 7.41207 0.679458 7.48757C0.754954 7.5379 0.830449 7.56306 0.905944 7.56306C1.91255 7.51273 2.89399 7.4624 3.72444 7.4624H6.5681C5.96413 8.24252 5.23435 8.99748 4.15225 9.95375C2.99465 10.9855 1.91255 11.7153 0.0754954 12.7219C0.0251651 12.7219 0 12.7974 0 12.8477C0 12.8981 0.0251651 12.9484 0.0754954 12.9484C0.553633 13.1497 1.13243 13.5524 1.45958 13.955C1.5854 14.1312 1.76156 14.1815 1.86222 14.1815C2.01321 14.1815 2.13904 14.1312 2.34036 14.0053C3.49795 13.3762 4.85687 12.2941 5.68732 11.514C6.66876 10.6332 7.37338 9.90342 7.97734 9.07297L8.17867 13.3259C8.20383 14.106 8.05284 14.1815 7.77602 14.2318C7.19723 14.3576 6.66876 14.3828 5.30984 14.408C5.25951 14.408 5.20918 14.4331 5.18402 14.4835C5.18402 14.5338 5.18402 14.5841 5.23435 14.6345C5.83831 15.1126 6.14029 15.4901 6.41711 16.1444C6.54293 16.4715 6.74425 16.5218 7.0714 16.5218C7.90185 16.5218 8.93362 16.245 9.56275 15.8927C10.217 15.4901 10.519 14.8358 10.4687 13.9047L10.1667 7.41207H11.4501C12.5071 7.41207 13.4885 7.43724 14.8223 7.48757C15.0487 7.48757 15.1997 7.33658 15.1997 7.11009C15.1997 6.60679 15.1997 6.05316 15.1997 5.57502C15.1997 5.39886 15.0739 5.24787 14.7971 5.24787L14.8223 5.2982Z" fill="white"/>
<path d="M32.2113 8.16706C31.7835 8.16706 31.3557 8.16706 30.9027 8.16706C29.9968 8.16706 29.0657 8.19223 28.1597 8.19223H22.4724C20.7612 8.19223 19.8552 8.16706 18.6976 7.99091C18.6725 7.99091 18.6221 7.99091 18.597 8.01607C18.5718 8.04124 18.5466 8.09157 18.5466 8.11673C18.6221 8.99751 18.7228 9.85313 18.8234 10.2558C18.8989 10.6332 19.1506 10.7339 19.3519 10.7339C19.4022 10.7339 19.4777 10.7339 19.6036 10.7087C19.9307 10.6584 20.6353 10.5326 21.9439 10.5326H28.2855C29.569 10.5326 30.8272 10.5326 32.161 10.5577H32.2113C32.2113 10.5577 32.4629 10.5577 32.5636 10.4823C32.6643 10.4068 32.6643 10.2809 32.6643 10.1803C32.6894 9.6518 32.6894 9.04784 32.6643 8.51937C32.6643 8.41871 32.6643 8.29289 32.5636 8.21739C32.4881 8.1419 32.3623 8.11673 32.2113 8.1419V8.16706Z" fill="white"/>
<path d="M48.6946 9.09814C47.084 8.14187 45.4734 7.43724 43.1583 6.70745V4.2916C43.1583 3.36049 43.1583 2.90752 43.2589 2.7062C43.3596 2.50488 43.4099 2.35389 43.4099 2.22806C43.4099 2.00157 43.2589 1.87575 42.9821 1.80025C42.5291 1.67443 41.7993 1.57377 40.7424 1.52344C40.6921 1.52344 40.6669 1.52344 40.6417 1.57377C40.6166 1.59893 40.6166 1.64926 40.6166 1.67443C40.7424 2.35389 40.7927 2.90752 40.7927 4.26644V12.9484C40.7927 14.1815 40.7927 15.2133 40.7172 16.4212C40.7172 16.7735 40.9437 16.7987 41.1702 16.7987C41.4219 16.7987 41.6987 16.8238 41.9755 16.8238C42.2523 16.8238 42.504 16.8238 42.7556 16.7987C42.8814 16.7987 43.0324 16.7987 43.1331 16.698C43.2086 16.5973 43.2086 16.4967 43.2086 16.4212V16.0437C43.1583 14.9364 43.1331 14.0053 43.1331 12.9736V9.24913C44.492 9.67694 46.0271 10.4319 47.5622 11.4133C47.6628 11.514 47.7635 11.5392 47.839 11.5392C48.0151 11.5392 48.1158 11.3882 48.1661 11.2875C48.3423 11.0107 48.6443 10.4571 48.9462 9.72727C49.0972 9.32463 48.7952 9.17364 48.6946 9.1233V9.09814Z" fill="white"/>
<path d="M56.8481 8.51936C59.1633 9.02267 60.9248 9.60146 62.5857 10.3816C62.6864 10.4319 62.787 10.4571 62.8877 10.4571C63.0638 10.4571 63.1645 10.3061 63.24 10.1551C63.4162 9.82795 63.7181 9.12333 63.844 8.77101C63.9446 8.4187 63.8691 8.24255 63.542 8.11672C62.1327 7.46243 60.1699 6.8333 58.1566 6.40549C57.8547 6.33 57.6785 6.40549 57.5527 6.65714C57.3514 7.00946 57.0494 7.66375 56.7977 8.34321C56.7977 8.36837 56.7977 8.4187 56.7977 8.44387C56.7977 8.46903 56.8481 8.4942 56.8732 8.51936H56.8481Z" fill="white"/>
<path d="M57.9301 11.6399C57.5527 11.5644 57.4017 11.7405 57.301 11.9167C57.0997 12.2941 56.7222 13.0239 56.4957 13.5776C56.4957 13.6027 56.4957 13.6531 56.4957 13.6782C56.4957 13.7034 56.5461 13.7286 56.5712 13.7537C59.7672 14.3577 62.5354 15.2888 65.228 16.6729C65.3539 16.7484 65.4545 16.7735 65.53 16.7735C65.7062 16.7735 65.8068 16.6225 65.9075 16.4967C66.1843 16.0186 66.4108 15.5153 66.6121 15.0371C66.6876 14.8862 66.6876 14.7603 66.6624 14.6597C66.6121 14.559 66.5366 14.4583 66.3856 14.3828C63.5168 12.9736 60.5725 12.0173 57.905 11.6147L57.9301 11.6399Z" fill="white"/>
<path d="M58.0307 3.93929C60.3962 4.36709 62.6863 5.07172 64.6491 5.9525C64.7498 6.00283 64.8253 6.02799 64.9008 6.02799C64.9511 6.02799 64.9763 6.02799 65.0266 6.02799C65.1273 6.00283 65.2028 5.90217 65.2531 5.80151C65.4041 5.49953 65.7312 4.71941 65.8571 4.26643C65.9074 4.16577 65.9577 4.03995 65.9074 3.91412C65.8571 3.7883 65.7564 3.7128 65.5802 3.66247C63.7935 2.85719 61.0505 2.1274 59.289 1.80025C59.0122 1.74992 58.836 1.74992 58.6598 2.10223C58.5088 2.40421 58.1314 3.31016 57.9301 3.81346C57.9301 3.83863 57.9301 3.88896 57.9301 3.91412C57.9301 3.93929 57.9804 3.96445 58.0307 3.98962V3.93929Z" fill="white"/>
<path d="M86.1151 8.16706C85.6873 8.16706 85.2595 8.16706 84.8065 8.16706C83.9006 8.16706 82.9695 8.19223 82.0635 8.19223H76.3762C74.665 8.19223 73.759 8.16706 72.6014 7.99091C72.5511 7.99091 72.5259 7.99091 72.5008 8.01607C72.4756 8.04124 72.4504 8.09157 72.4504 8.11673C72.5259 8.99751 72.6266 9.85313 72.7273 10.2558C72.8028 10.6332 73.0544 10.7339 73.2557 10.7339C73.3061 10.7339 73.3815 10.7339 73.5074 10.7087C73.8345 10.6584 74.5391 10.5326 75.8477 10.5326H82.1893C83.4728 10.5326 84.731 10.5326 86.0648 10.5577H86.1151C86.1151 10.5577 86.3668 10.5577 86.4674 10.4823C86.5681 10.4068 86.5681 10.2809 86.5681 10.1803C86.5932 9.6518 86.5932 9.04784 86.5681 8.51937C86.5681 8.41871 86.5681 8.29289 86.4674 8.21739C86.3919 8.1419 86.2661 8.11673 86.1151 8.1419V8.16706Z" fill="white"/>
<path d="M105.543 9.22401C105.241 8.67037 105.09 8.09158 105.014 7.48761C105.014 7.43728 104.964 7.38695 104.913 7.38695C104.863 7.38695 104.813 7.38695 104.788 7.43728C103.932 8.51938 102.951 9.47566 101.717 10.4068C100.887 11.0359 100.157 11.5392 99.4022 11.9418V6.25452C99.4022 4.99627 99.4022 4.66912 99.5532 4.34197C99.6287 4.19098 99.7042 4.01483 99.7042 3.83867C99.7042 3.68768 99.6287 3.48636 99.3016 3.41086C98.748 3.23471 97.7413 3.10888 97.0871 3.03339C97.0367 3.03339 97.0116 3.03339 96.9864 3.08372C96.9612 3.13405 96.9361 3.15921 96.9612 3.18438C97.1374 3.98966 97.1374 4.69428 97.1374 6.22936V12.0425C97.1374 12.6716 97.1374 12.8478 97.0367 13.0239C96.9864 13.1498 96.9612 13.2253 96.9612 13.3511C96.9612 13.5021 97.0367 13.6279 97.1374 13.8041C97.2632 13.9802 97.7413 14.5842 98.2195 14.9113C98.3956 15.012 98.5215 15.0623 98.6473 15.0623C98.7983 15.0623 98.9493 15.012 99.0751 14.8862L99.1254 14.8358C99.1254 14.8358 99.3016 14.6848 99.5784 14.5087C100.686 13.8544 101.692 13.1749 102.724 12.3948C103.63 11.7154 104.435 11.0107 105.341 10.0796C105.568 9.85313 105.643 9.72731 105.643 9.55115C105.643 9.45049 105.593 9.375 105.568 9.27434V9.19884L105.543 9.22401Z" fill="white"/>
<path d="M93.1612 4.16577C93.1612 4.16577 93.0857 4.16577 93.0606 4.2161C93.0354 4.26643 93.0354 4.2916 93.0606 4.34193C93.2116 4.8704 93.2367 5.12205 93.2367 5.77634C93.2367 8.5445 93.0102 9.50078 92.5069 10.7087C91.9281 12.0425 91.0222 13.0994 89.613 14.1563C89.5878 14.1815 89.5626 14.2318 89.5626 14.2822C89.5626 14.3325 89.613 14.3576 89.6381 14.3828C90.2673 14.6093 90.6699 14.8106 91.0977 15.1126C91.2235 15.1881 91.3493 15.2636 91.5003 15.2636C91.6765 15.2636 91.8527 15.1629 92.0288 15.0119C93.1864 14.0053 94.042 12.8729 94.5705 11.665C95.1744 10.2809 95.5016 8.56967 95.5268 6.43063C95.5268 6.02799 95.5268 5.65051 95.7281 5.27304C95.8036 5.09688 95.8036 4.94589 95.7281 4.82006C95.6777 4.69424 95.5519 4.61874 95.4009 4.56841C95.0235 4.44259 94.344 4.31676 93.1361 4.16577H93.1612Z" fill="white"/>
<path d="M121.673 7.00947C121.975 6.70749 122.353 6.33001 122.73 6.00287C122.906 5.82671 123.007 5.72605 123.007 5.57506C123.007 5.44923 122.932 5.29824 122.73 5.09692L122.227 4.59362C121.799 4.16581 121.623 4.26647 121.296 4.59362C121.12 4.76978 120.969 4.94593 120.818 5.09692C120.642 5.27308 120.465 5.4744 120.289 5.62539L118.402 7.51277C118.226 7.68893 118.15 7.7141 118.1 7.7141C118.05 7.7141 117.924 7.61343 117.823 7.51277L115.936 5.62539C115.533 5.24791 115.206 4.92077 114.929 4.61879C114.753 4.41746 114.627 4.3168 114.476 4.3168C114.325 4.3168 114.174 4.44263 114.023 4.59362L113.52 5.09692C113.319 5.29824 113.243 5.44923 113.243 5.57506C113.243 5.72605 113.369 5.85188 113.52 6.02803C113.872 6.35518 114.25 6.73266 114.526 7.00947L116.439 8.92202C116.565 9.04785 116.64 9.14851 116.64 9.19884C116.64 9.24917 116.59 9.34983 116.439 9.47565L114.501 11.4134H114.476C114.174 11.7405 113.872 12.0677 113.52 12.3696C113.369 12.5206 113.243 12.6716 113.243 12.8226C113.243 12.9484 113.319 13.0743 113.52 13.2756L114.073 13.8292C114.224 13.9802 114.375 14.0809 114.526 14.0809C114.677 14.0809 114.828 13.955 114.979 13.8041C115.281 13.4517 115.609 13.1246 115.936 12.7975L117.873 10.8849C118.05 10.7087 118.1 10.6836 118.175 10.6836C118.226 10.6836 118.352 10.7842 118.452 10.8849L120.365 12.7975C120.667 13.0994 120.994 13.4266 121.346 13.8041C121.522 13.9802 121.623 14.0809 121.774 14.0809C121.9 14.0809 122.051 14.0054 122.252 13.8041L122.781 13.2756C122.932 13.1246 123.057 12.9736 123.057 12.8226C123.057 12.6716 122.957 12.5458 122.781 12.3696L122.68 12.269C122.378 11.9922 122.076 11.7154 121.799 11.4134L119.861 9.47565C119.685 9.2995 119.66 9.224 119.66 9.17367C119.66 9.12334 119.761 9.02268 119.861 8.92202L121.749 7.03464L121.673 7.00947Z" fill="white"/>
<path d="M142.686 3.78832C142.46 3.71283 142.359 3.88898 142.258 4.03998C141.931 4.54328 141.654 4.99625 141.428 5.42406C141.428 5.44922 141.428 5.49955 141.428 5.52472C141.428 5.54988 141.478 5.57505 141.503 5.60021C143.064 6.12868 144.196 6.80814 145.001 7.71408C145.052 7.78958 145.127 7.83991 145.253 7.83991H145.278C145.278 7.83991 145.505 7.81474 145.58 7.73925C145.681 7.61342 145.782 7.46243 145.907 7.31144C146.134 7.00946 146.386 6.70748 146.537 6.48099V6.43066C146.537 6.43066 146.612 6.30484 146.612 6.25451C146.612 6.15385 146.536 6.05318 146.461 6.00285C145.454 4.99625 144.221 4.26646 142.661 3.81349L142.686 3.78832Z" fill="white"/>
<path d="M141.73 8.44385H141.629C140.421 8.44385 138.937 8.771 137.527 9.3498C137.527 8.99749 137.527 8.62001 137.527 8.2677C137.527 7.86506 137.527 7.48758 137.527 7.08494C138.534 6.88362 138.861 6.78296 139.968 6.43064C140.17 6.38031 140.296 6.27965 140.296 6.028C140.296 5.54986 140.27 5.07173 140.195 4.64392C140.195 4.49293 140.119 4.4426 140.069 4.39227C140.019 4.3671 139.893 4.31677 139.742 4.39227C139.113 4.61875 138.408 4.84524 137.653 4.99623C137.653 4.51809 137.678 4.11545 137.729 3.71281C137.754 3.51149 137.829 3.31017 137.955 3.05852C138.031 2.90753 138.081 2.80687 138.081 2.70621C138.081 2.50488 137.905 2.32873 137.653 2.25323C137.125 2.10224 136.345 1.97642 135.514 1.92609C135.489 1.92609 135.439 1.92609 135.414 1.97642C135.388 2.02675 135.388 2.05191 135.388 2.07708C135.489 2.53005 135.514 3.03335 135.514 3.48632C135.514 3.88897 135.514 4.26644 135.514 4.61875C135.514 4.89557 135.514 5.14722 135.514 5.37371C134.81 5.4492 134.105 5.49953 133.4 5.49953C132.847 5.49953 132.444 5.47437 132.041 5.42404C132.016 5.42404 131.966 5.42404 131.941 5.4492C131.916 5.47437 131.89 5.5247 131.916 5.54986C131.991 6.27965 132.067 6.78296 132.117 7.08494C132.167 7.36175 132.268 7.56307 132.671 7.56307C133.828 7.56307 134.709 7.48758 135.514 7.43725V10.2306C134.281 10.9352 133.451 11.4133 132.696 11.8411C132.067 12.1935 131.488 12.3696 131.11 12.4451C131.085 12.4451 131.035 12.4703 131.035 12.5206C131.035 12.5458 131.035 12.5961 131.035 12.6213C131.236 13.0742 131.639 13.9299 131.865 14.2822C131.991 14.5086 132.167 14.6345 132.369 14.6345C132.469 14.6345 132.645 14.5841 132.746 14.4835C132.872 14.3828 133.048 14.257 133.224 14.1563C134.256 14.861 135.162 15.6662 135.64 16.3457L135.69 16.4212C135.816 16.5974 135.917 16.7735 136.143 16.7735H136.194C136.571 16.7735 137.15 16.6728 137.527 16.547C137.905 16.4715 137.88 16.1444 137.88 15.9179V15.8424C137.88 15.5404 137.829 14.8358 137.779 14.1815L137.729 13.5524C137.704 12.8226 137.678 12.2438 137.653 11.514C139.213 10.7087 140.421 10.3564 141.554 10.3564C142.686 10.3564 143.366 10.9352 143.366 12.0173C143.366 13.2756 142.409 13.7034 141.579 13.7034C140.975 13.7034 140.27 13.7034 139.415 13.4014C139.364 13.4014 139.314 13.4014 139.264 13.4517C139.239 13.502 139.239 13.5524 139.264 13.6027C139.641 14.106 139.742 14.71 139.767 15.0371C139.767 15.3894 139.918 15.6159 140.245 15.6914C140.648 15.7921 141.227 15.8424 141.73 15.8424C144.196 15.8424 145.681 14.4583 145.681 12.1431C145.681 10.0041 144.095 8.51935 141.805 8.49418L141.73 8.44385ZM135.64 14.0557C135.212 13.8795 134.709 13.653 134.18 13.3511C134.684 12.9987 135.162 12.6716 135.565 12.3948C135.565 12.5458 135.565 12.7219 135.59 12.8981C135.59 13.3259 135.64 13.7537 135.665 14.0305L135.64 14.0557Z" fill="white"/>
<path d="M161.887 4.97105C161.887 4.97105 161.61 4.74457 161.409 4.87039C160.956 5.09688 160.453 5.44919 160.025 5.72601L159.95 5.77634C159.95 5.77634 159.899 5.82667 159.899 5.877C159.899 5.92733 159.899 5.95249 159.95 5.97766C161.132 7.11009 162.089 8.59483 162.793 10.4822C162.843 10.6332 162.919 10.7087 162.994 10.7339C163.045 10.7339 163.095 10.759 163.145 10.759C163.221 10.759 163.296 10.759 163.397 10.6835C163.749 10.5074 164.429 10.0796 164.756 9.77759C164.932 9.6266 164.957 9.47561 164.857 9.27429C164.253 7.68889 163.221 6.20415 161.912 4.94589L161.887 4.97105Z" fill="white"/>
<path d="M157.131 5.62533C156.93 5.62533 156.452 5.62533 155.923 5.67566C155.999 5.39884 156.074 5.14719 156.15 4.89554C156.25 4.51806 156.376 4.14058 156.502 3.76311C156.577 3.53662 156.678 3.3353 156.829 3.13398C156.93 3.03332 156.98 2.90749 156.98 2.78167C156.98 2.55518 156.829 2.37902 156.628 2.30353C155.898 2.02671 155.42 1.90089 154.489 1.72473C154.438 1.72473 154.413 1.72473 154.388 1.72473C154.363 1.72473 154.338 1.77506 154.338 1.82539C154.338 2.40419 154.287 3.03332 154.162 3.76311V3.88893C154.011 4.44256 153.91 4.9962 153.658 5.87698C152.903 6.0028 152.299 6.0783 151.67 6.12863C150.739 6.20412 150.009 6.25445 149.355 6.25445C149.305 6.25445 149.28 6.25445 149.254 6.30478C149.254 6.32995 149.229 6.38028 149.254 6.40544C149.456 7.1604 149.632 7.81469 149.808 8.2425C149.934 8.56965 150.185 8.67031 150.538 8.54448C150.739 8.46898 151.016 8.36832 151.494 8.26766C151.897 8.19217 152.4 8.09151 153.004 8.01601C152.073 10.6332 151.117 12.5206 149.858 14.6848C149.808 14.7603 149.758 14.8609 149.758 14.9616C149.758 15.1126 149.858 15.2132 149.934 15.3139C150.16 15.5152 150.865 15.943 151.192 16.1192C151.318 16.1947 151.444 16.1947 151.57 16.1695C151.67 16.1443 151.771 16.0437 151.821 15.9179C153.105 13.6027 154.111 11.2875 155.344 7.68887C155.898 7.61337 156.376 7.58821 156.728 7.58821C157.358 7.58821 157.609 7.78953 157.609 9.09811C157.609 10.9603 157.232 12.5961 156.93 13.4265C156.678 14.106 156.452 14.2821 155.923 14.2821C155.319 14.2821 154.715 14.1563 154.036 13.9047C153.985 13.9047 153.935 13.9047 153.91 13.9298C153.885 13.955 153.86 14.0305 153.91 14.0556C154.136 14.5841 154.187 15.0371 154.237 15.5655V15.6662C154.237 15.9934 154.388 16.1947 154.64 16.2702C155.067 16.4212 155.621 16.4715 156.426 16.4715C157.534 16.4715 158.414 15.8675 158.918 14.7351C159.497 13.5272 159.874 11.212 159.874 9.02262C159.874 6.83325 158.918 5.62533 157.181 5.62533H157.131Z" fill="white"/>
<path d="M176.961 7.81474C175.024 7.81474 172.96 8.74585 171.224 10.4068C171.299 9.47564 171.45 8.36838 171.626 7.53793C171.702 7.23595 171.802 6.9088 171.953 6.63198C172.029 6.50616 172.054 6.4055 172.054 6.30484C172.054 6.10352 171.953 5.97769 171.702 5.85186C171.274 5.60021 170.494 5.39889 169.84 5.19757C169.789 5.19757 169.764 5.19757 169.739 5.19757C169.714 5.19757 169.689 5.2479 169.689 5.29823C169.689 5.77637 169.638 6.15385 169.563 6.55649L169.512 6.85847C169.361 7.9909 169.085 10.2306 168.959 12.571C168.959 12.8729 169.085 12.9484 169.286 13.0491C169.613 13.2001 169.99 13.3511 170.519 13.5272C170.745 13.5776 170.922 13.6027 171.073 13.3511C171.274 12.9988 171.526 12.6968 171.802 12.3948C173.463 10.7087 175.275 9.75246 176.785 9.75246C178.043 9.75246 178.773 10.3816 178.773 11.4385C178.773 12.5458 178.094 13.4014 176.76 13.9802C175.602 14.4835 173.941 14.8358 171.953 14.9616C171.903 14.9616 171.853 15.012 171.853 15.0623C171.853 15.1126 171.853 15.163 171.903 15.1881C172.406 15.5908 172.708 16.0186 173.061 16.6477C173.212 16.8994 173.388 16.9748 173.589 16.9748C173.69 16.9748 173.765 16.9748 173.891 16.9748C175.678 16.7484 177.364 16.2954 178.446 15.7418C179.704 15.1126 181.164 13.9047 181.164 11.6902C181.164 9.27432 179.553 7.78958 176.936 7.78958L176.961 7.81474Z" fill="white"/>
<path d="M174.545 5.27307C174.545 5.27307 174.721 5.42406 174.847 5.42406C174.948 5.42406 175.049 5.37373 175.149 5.2479C175.451 4.89559 175.829 4.36712 176.055 3.98965C176.131 3.86382 176.156 3.78833 176.156 3.71283C176.156 3.587 176.08 3.48634 175.98 3.43601C174.898 2.5049 173.79 1.82545 172.482 1.32214C172.306 1.27181 172.155 1.32214 172.004 1.44797C171.727 1.69962 171.425 2.12743 170.947 2.83205C170.947 2.85722 170.947 2.90755 170.947 2.93271C170.947 2.95788 170.972 3.00821 171.022 3.00821C172.28 3.56184 173.463 4.31679 174.545 5.27307V5.27307Z" fill="white"/>
<path d="M194.199 3.18433C191.834 3.18433 189.921 3.93928 188.386 5.47435C187.077 6.78294 186.348 8.44384 186.348 10.1551C186.348 13.1749 188.009 14.8106 189.594 14.8106C190.903 14.8106 191.884 14.1563 192.689 12.7219C193.696 10.9603 194.451 8.36834 194.904 5.19754C196.766 5.19754 198.679 6.70744 198.679 9.14846C198.679 12.5961 196.036 13.6782 193.444 14.3073C193.394 14.3073 193.369 14.3576 193.344 14.408C193.344 14.4583 193.344 14.5086 193.394 14.5338C194.073 14.9364 194.426 15.3391 194.577 15.6159C194.778 15.9179 194.929 16.0437 195.181 16.0437C195.281 16.0437 195.357 16.0437 195.483 15.9934C199.207 14.8861 200.994 12.7471 200.994 9.45044C200.994 5.726 198.251 3.20949 194.149 3.20949L194.199 3.18433ZM192.614 5.32336C192.312 7.48756 191.582 9.95374 190.777 11.4133C190.299 12.2438 189.946 12.4199 189.569 12.4199C189.116 12.4199 188.487 11.5895 188.487 10.0292C188.487 8.9723 188.99 7.81471 189.82 6.85843C190.525 6.07832 191.406 5.60018 192.589 5.32336H192.614Z" fill="white"/>
<path d="M217.351 4.41744C217.074 4.24129 216.848 4.26645 216.697 4.36711C216.546 4.46777 216.345 4.54327 215.892 4.56843L212.947 4.64393C213.098 4.41744 213.249 4.19096 213.375 3.96447C213.4 3.91414 213.425 3.88897 213.476 3.83864C213.576 3.71282 213.677 3.58699 213.803 3.5115C214.004 3.38567 214.055 3.20952 214.055 3.10886C214.055 3.0082 214.004 2.83204 213.828 2.70621C213.425 2.4294 212.771 2.12742 211.739 1.74994C211.714 1.74994 211.664 1.74994 211.639 1.74994C211.614 1.74994 211.588 1.80027 211.588 1.82543C211.387 2.68105 211.135 3.20952 210.557 4.16579C209.298 6.12867 207.889 7.68891 205.851 9.37497C205.8 9.40014 205.8 9.45047 205.8 9.5008C205.8 9.55113 205.851 9.57629 205.901 9.60146C206.43 9.70212 207.084 10.0041 207.537 10.3312C207.788 10.5326 208.065 10.5074 208.342 10.2306C209.349 9.40014 210.255 8.36837 211.664 6.63197L215.665 6.50615C214.684 8.54452 213.904 9.72728 212.519 11.2875C210.733 13.2252 209.324 14.3073 206.681 15.7669C206.631 15.7669 206.606 15.8424 206.606 15.8927C206.606 15.9431 206.656 15.9934 206.706 15.9934C207.386 16.1947 207.914 16.4464 208.342 16.7735C208.468 16.8742 208.619 17 208.82 17C208.946 17 209.047 16.9748 209.173 16.8993C210.934 15.9179 213.048 14.1815 214.558 12.4954C215.816 11.061 216.923 9.32464 218.056 7.03462C218.207 6.70747 218.383 6.48098 218.609 6.30483C218.786 6.15384 218.861 6.00284 218.861 5.82669C218.861 5.70086 218.811 5.52471 218.584 5.32339C218.182 4.94591 217.779 4.61876 217.376 4.36711L217.351 4.41744Z" fill="white"/>
<path d="M218.433 2.25323C218.433 2.25323 218.207 2.07708 218.005 2.2029L217.074 2.8572C217.074 2.8572 217.024 2.90753 217.024 2.95786C217.024 3.00819 217.024 3.03335 217.074 3.05852C217.729 3.58699 218.282 4.21611 218.836 5.07173C218.911 5.17239 218.987 5.22272 219.062 5.22272H219.113C219.113 5.22272 219.239 5.22272 219.314 5.14722L220.044 4.59359C220.22 4.46777 220.245 4.31677 220.119 4.14062C219.616 3.38566 218.987 2.68104 218.408 2.22807L218.433 2.25323Z" fill="white"/>
<path d="M219.994 1.09564C219.994 1.09564 219.767 0.919486 219.566 1.04531L218.685 1.67444C218.685 1.67444 218.635 1.72477 218.635 1.7751C218.635 1.82543 218.635 1.8506 218.685 1.87576C219.364 2.42939 219.918 3.08369 220.421 3.8638C220.472 3.96447 220.547 4.0148 220.648 4.0148H220.698C220.698 4.0148 220.849 4.0148 220.925 3.9393L221.629 3.38567C221.805 3.25984 221.831 3.08369 221.705 2.90753C221.302 2.25324 220.648 1.54861 220.019 1.07048L219.994 1.09564Z" fill="white"/>
<path d="M239.069 9.22401C238.767 8.67037 238.616 8.09158 238.54 7.48761C238.54 7.43728 238.49 7.38695 238.44 7.38695C238.389 7.38695 238.339 7.38695 238.314 7.43728C237.458 8.51938 236.477 9.47566 235.244 10.4068C234.413 11.0359 233.683 11.5392 232.928 11.9418V6.25452C232.928 4.99627 232.928 4.66912 233.079 4.34197C233.155 4.19098 233.23 4.01483 233.23 3.83867C233.23 3.68768 233.155 3.48636 232.828 3.41086C232.274 3.23471 231.267 3.10888 230.613 3.03339C230.563 3.03339 230.538 3.03339 230.513 3.08372C230.487 3.10888 230.462 3.15921 230.487 3.18438C230.664 3.98966 230.664 4.69428 230.664 6.22936V12.0425C230.664 12.6968 230.664 12.8478 230.563 13.0491C230.513 13.1749 230.487 13.2504 230.487 13.3763C230.487 13.5272 230.563 13.6531 230.664 13.8292C230.789 14.0054 231.267 14.6093 231.746 14.9365C231.922 15.0372 232.048 15.0875 232.173 15.0875C232.324 15.0875 232.475 15.0372 232.601 14.9113L232.652 14.861C232.652 14.861 232.828 14.71 233.105 14.5338C234.212 13.8796 235.218 13.2001 236.25 12.42C237.156 11.7405 237.961 11.0359 238.867 10.1048C239.094 9.8783 239.169 9.75247 239.169 9.57632C239.169 9.47566 239.119 9.40016 239.094 9.2995V9.22401H239.069Z" fill="white"/>
<path d="M226.687 4.16577C226.687 4.16577 226.612 4.16577 226.587 4.2161C226.562 4.26643 226.562 4.2916 226.587 4.34193C226.738 4.8704 226.763 5.12205 226.763 5.77634C226.763 8.5445 226.536 9.50078 226.033 10.7087C225.454 12.0425 224.548 13.0994 223.139 14.1563C223.114 14.1815 223.089 14.2318 223.089 14.2822C223.089 14.3325 223.139 14.3576 223.164 14.3828C223.793 14.6093 224.196 14.8106 224.624 15.1126C224.75 15.1881 224.876 15.2636 225.027 15.2636C225.203 15.2636 225.379 15.1629 225.555 15.0119C226.713 14.0053 227.568 12.8729 228.097 11.665C228.701 10.2809 229.028 8.56967 229.053 6.43063C229.053 6.02799 229.053 5.65051 229.254 5.27304C229.33 5.09688 229.33 4.94589 229.254 4.82006C229.204 4.69424 229.078 4.61874 228.927 4.56841C228.55 4.44259 227.87 4.31676 226.662 4.16577H226.687Z" fill="white"/>
<path d="M243.875 4.34194C243.875 4.56842 243.951 4.76974 244.303 4.76974H244.857C245.586 4.71941 246.14 4.69425 246.794 4.69425H250.745C251.752 4.69425 252.784 4.69425 253.715 4.74458C254.067 4.74458 254.067 4.46776 254.067 4.29161C254.092 3.8638 254.092 3.41083 254.067 2.98302C254.067 2.83203 254.067 2.53005 253.715 2.53005C252.759 2.58038 251.576 2.60554 250.745 2.60554H246.794C246.14 2.60554 245.234 2.60554 243.875 2.50488C243.825 2.50488 243.8 2.50488 243.775 2.53005C243.775 2.55521 243.749 2.58038 243.749 2.63071C243.749 2.88236 243.775 3.15918 243.8 3.41083C243.8 3.76314 243.85 4.09029 243.875 4.31677V4.34194Z" fill="white"/>
<path d="M256.055 6.58162C254.948 6.65712 253.941 6.68228 252.633 6.68228H244.731C243.699 6.68228 242.718 6.68228 241.736 6.58162C241.686 6.58162 241.661 6.58162 241.636 6.60679C241.636 6.60679 241.585 6.65712 241.585 6.70745C241.585 7.26108 241.636 7.94054 241.736 8.41868C241.736 8.56967 241.761 8.72066 241.887 8.79615C241.938 8.84648 242.013 8.87165 242.114 8.84648H242.214C243.095 8.79615 243.9 8.74582 244.756 8.74582H247.977C247.902 10.2557 247.751 11.1868 247.096 12.3444C246.417 13.6027 245.435 14.4583 243.649 15.4397C243.598 15.4397 243.573 15.5152 243.573 15.5656C243.573 15.6159 243.598 15.6662 243.649 15.6662C244.253 15.8927 244.832 16.245 245.184 16.5722C245.335 16.7232 245.486 16.7735 245.637 16.7735C245.838 16.7735 246.065 16.6477 246.241 16.547C247.474 15.8172 248.707 14.4835 249.386 13.1749C250.041 11.8915 250.317 10.759 250.443 8.74582H252.683C253.69 8.74582 254.822 8.74582 256.03 8.82132C256.282 8.82132 256.433 8.67033 256.433 8.39351C256.433 8.16703 256.433 7.26108 256.433 7.0346C256.433 6.83327 256.433 6.55646 256.105 6.55646L256.055 6.58162Z" fill="white"/>
<path d="M264.334 8.01604C264.46 8.01604 264.536 7.94054 264.636 7.83988C264.888 7.56306 265.467 6.85844 265.744 6.50613C265.794 6.43063 265.869 6.32997 265.869 6.20415C265.869 6.07832 265.794 6.00283 265.668 5.877C264.687 4.94589 263.227 3.86379 262.271 3.36049C262.17 3.31016 262.095 3.25983 261.969 3.25983C261.843 3.25983 261.717 3.33532 261.642 3.43598C261.289 3.81346 260.786 4.34193 260.409 4.82006C260.409 4.84523 260.383 4.89556 260.409 4.92072C260.409 4.94589 260.434 4.99622 260.459 4.99622C261.742 5.77634 263.001 6.78294 264.032 7.83988C264.133 7.94054 264.234 8.01604 264.36 8.01604H264.334Z" fill="white"/>
<path d="M273.318 4.71943C273.318 4.71943 273.268 4.61877 273.218 4.61877C273.167 4.61877 273.117 4.61877 273.092 4.6691C271.683 6.48099 270.55 7.58826 268.285 9.45048C266.499 10.8849 265.366 11.6147 263.227 12.7219C262.296 13.2001 261.768 13.3511 260.862 13.6027C260.811 13.6027 260.786 13.6531 260.786 13.6782C260.786 13.7034 260.786 13.7537 260.786 13.7789C261.164 14.4332 261.692 15.1881 262.221 15.7669C262.346 15.9179 262.497 15.9934 262.623 15.9934C262.799 15.9934 262.95 15.8676 263.026 15.7921C263.177 15.6411 263.428 15.4649 264.183 15.012C266.423 13.7789 267.958 12.7723 269.518 11.5392C271.079 10.3313 272.614 8.92201 273.595 7.78958C273.797 7.53793 273.897 7.38694 273.897 7.18562C273.897 7.03463 273.847 6.9088 273.796 6.80814C273.545 6.17901 273.419 5.57505 273.318 4.76977V4.71943Z" fill="white"/>
<path d="M289.978 3.41082C289.751 3.31015 289.474 3.28499 289.273 3.41082C289.047 3.53664 288.87 3.56181 288.367 3.56181H282.076C280.44 3.56181 279.484 3.53664 278.704 3.43598C278.653 3.43598 278.628 3.43598 278.603 3.46115C278.578 3.48631 278.553 3.51148 278.553 3.56181C278.578 4.01478 278.653 4.97105 278.704 5.34853C278.704 5.49952 278.779 5.8015 279.132 5.8015H279.383C280.113 5.75117 281.044 5.70084 282.101 5.70084H288.292C287.612 7.5379 286.731 8.99747 285.398 10.5074C283.762 12.4199 282.202 13.6027 279.685 14.8861C279.635 14.8861 279.61 14.9616 279.61 15.0119C279.61 15.0623 279.635 15.1126 279.685 15.1126C280.39 15.3894 280.918 15.7166 281.271 16.0437C281.422 16.1947 281.598 16.2702 281.799 16.2702C282 16.2702 282.151 16.2199 282.328 16.094C284.064 15.1126 285.8 13.653 287.361 11.8663C288.719 10.3061 289.852 8.41868 290.808 6.10348C290.959 5.75117 291.035 5.60018 291.186 5.44919C291.387 5.27303 291.462 5.09688 291.462 4.92072C291.462 4.7949 291.412 4.66907 291.311 4.54325C290.959 4.09027 290.456 3.6373 289.978 3.33532V3.41082Z" fill="white"/>
<path d="M307.065 2.22808C306.36 2.0016 305.429 1.90093 304.75 1.82544C304.724 1.82544 304.674 1.82544 304.649 1.87577C304.624 1.90093 304.624 1.95127 304.624 1.97643C304.775 2.75655 304.825 3.31018 304.825 4.82009V8.14189C304.825 10.3564 304.473 11.7908 303.668 12.7723C302.787 13.8795 301.403 14.6848 299.44 15.3139C299.389 15.3139 299.364 15.3643 299.339 15.4146C299.339 15.4649 299.339 15.5153 299.415 15.5404C300.019 15.8424 300.472 16.1696 300.874 16.5974C301.05 16.7735 301.201 16.849 301.377 16.849C301.503 16.849 301.654 16.7987 301.805 16.7484C303.34 16.1947 304.875 15.0875 305.731 13.9299C306.738 12.5709 307.191 10.8346 307.191 8.11672V4.84525C307.191 3.76315 307.191 3.31018 307.342 2.98304C307.417 2.85721 307.442 2.70622 307.442 2.63072C307.442 2.4294 307.316 2.27841 307.115 2.20292L307.065 2.22808Z" fill="white"/>
<path d="M300.95 10.6333V10.2054C300.925 9.70214 300.899 9.12335 300.899 8.41872V4.84527C300.899 4.01483 300.925 3.53669 301.101 3.20954C301.126 3.10888 301.176 3.00822 301.176 2.90756C301.176 2.8069 301.151 2.60558 300.799 2.50492C300.295 2.32876 299.389 2.2281 298.66 2.12744H298.584C298.584 2.12744 298.509 2.12744 298.484 2.15261C298.458 2.17777 298.458 2.2281 298.458 2.25327C298.609 2.93273 298.66 3.61218 298.66 4.79494V8.24257C298.66 8.64521 298.66 9.09818 298.635 9.55115C298.635 9.9538 298.635 10.3313 298.635 10.6333C298.635 10.7591 298.635 10.8597 298.735 10.9352C298.811 11.0107 298.937 11.0611 299.113 11.0611H300.522C300.874 11.0611 301.025 10.9101 301.025 10.5829L300.95 10.6333Z" fill="white"/>
<path d="M327.449 8.16706C327.021 8.16706 326.593 8.16706 326.14 8.16706C325.234 8.16706 324.303 8.19223 323.397 8.19223H317.71C315.998 8.19223 315.093 8.16706 313.935 7.99091C313.91 7.99091 313.859 7.99091 313.834 8.01607C313.809 8.04124 313.784 8.09157 313.784 8.11673C313.859 8.99751 313.96 9.85313 314.061 10.2558C314.136 10.6332 314.388 10.7339 314.589 10.7339C314.64 10.7339 314.715 10.7339 314.841 10.7087C315.168 10.6584 315.873 10.5326 317.181 10.5326H323.523C324.806 10.5326 326.065 10.5326 327.398 10.5577H327.449C327.449 10.5577 327.7 10.5577 327.801 10.4823C327.902 10.4068 327.902 10.2809 327.902 10.1803C327.927 9.6518 327.927 9.04784 327.902 8.51937C327.902 8.41871 327.902 8.29289 327.801 8.21739C327.725 8.1419 327.6 8.11673 327.449 8.1419V8.16706Z" fill="white"/>
<path d="M343.504 4.24128C343.227 4.06512 343.001 4.09029 342.85 4.19095C342.699 4.29161 342.497 4.3671 342.019 4.39227L339.075 4.46776C339.226 4.24128 339.377 4.01479 339.528 3.7883L339.603 3.68764C339.704 3.56182 339.805 3.41083 339.93 3.3605C340.132 3.23467 340.182 3.05852 340.182 2.95785C340.182 2.85719 340.132 2.68104 339.956 2.55521C339.578 2.2784 338.899 1.97641 337.867 1.59894C337.842 1.59894 337.791 1.59894 337.766 1.59894C337.741 1.59894 337.716 1.64927 337.716 1.67443C337.515 2.53005 337.263 3.05852 336.684 4.01479C335.451 5.9525 334.017 7.56307 331.978 9.22397C331.928 9.24914 331.928 9.29947 331.928 9.3498C331.928 9.40013 331.978 9.42529 332.029 9.45046C332.557 9.55112 333.211 9.8531 333.664 10.1802C333.916 10.3816 334.193 10.3564 334.47 10.0796C335.501 9.22397 336.382 8.21737 337.791 6.48097L341.793 6.35515C340.811 8.39352 340.031 9.57628 338.647 11.1365C336.86 13.0742 335.451 14.1563 332.809 15.6159C332.758 15.6159 332.733 15.6914 332.733 15.7417C332.733 15.7921 332.784 15.8424 332.834 15.8424C333.513 16.0437 334.042 16.2954 334.47 16.6225C334.595 16.7232 334.746 16.849 334.948 16.849C335.074 16.849 335.174 16.8238 335.3 16.7483C337.062 15.7669 339.176 14.0305 340.685 12.3444C341.944 10.91 343.051 9.17364 344.183 6.88361C344.36 6.55647 344.511 6.32998 344.737 6.15383C344.913 6.00283 344.989 5.85184 344.989 5.67569C344.989 5.54986 344.938 5.37371 344.712 5.17239C344.309 4.79491 343.907 4.46776 343.504 4.21611V4.24128Z" fill="white"/>
<path d="M354.501 10.2054C354.627 10.1299 354.778 10.0292 354.778 9.85309C354.778 9.77759 354.778 9.72726 354.728 9.65176C354.728 9.6266 354.728 9.60143 354.702 9.5511C354.4 8.69549 353.872 7.78955 353.167 6.90877C352.991 6.68228 352.815 6.63195 352.563 6.75778L352.438 6.80811C352.085 6.9591 351.708 7.16042 351.179 7.4624C351.154 7.4624 351.129 7.51273 351.129 7.53789C351.129 7.56306 351.129 7.61339 351.154 7.63855C351.808 8.44384 352.362 9.37495 352.79 10.4319C352.84 10.5577 352.89 10.7087 353.041 10.759C353.092 10.759 353.142 10.7842 353.192 10.7842C353.243 10.7842 353.318 10.7842 353.394 10.7339C353.822 10.5577 354.124 10.4319 354.551 10.1802L354.501 10.2054Z" fill="white"/>
<path d="M356.112 9.52594C356.162 9.65176 356.212 9.77759 356.288 9.82792C356.338 9.87825 356.414 9.90341 356.464 9.90341C356.54 9.90341 356.59 9.90341 356.615 9.87825C357.118 9.70209 357.496 9.52594 357.848 9.32462C358.125 9.17363 358.2 9.02263 358.075 8.69549C357.798 7.86504 357.219 6.75777 356.716 6.10348C356.54 5.85183 356.363 5.8015 356.112 5.92732C355.835 6.05315 355.457 6.22931 354.828 6.53129L354.702 6.58162C354.702 6.58162 354.652 6.63195 354.627 6.65711C354.627 6.68228 354.627 6.73261 354.627 6.75777C355.306 7.71405 355.709 8.56966 356.087 9.5511L356.112 9.52594Z" fill="white"/>
<path d="M362.353 6.98428C361.95 6.70746 361.195 6.38031 360.339 6.12866C360.289 6.12866 360.264 6.12866 360.239 6.12866C360.214 6.12866 360.188 6.17899 360.188 6.22932C360.113 7.05977 360.012 7.43725 359.786 8.06638C359.308 9.37496 358.326 11.1114 357.42 12.2941C356.388 13.6279 355.382 14.5086 353.218 15.9179C353.167 15.9431 353.142 15.9934 353.167 16.0437C353.193 16.0941 353.218 16.1444 353.268 16.1444C353.922 16.3457 354.3 16.5219 354.702 16.849C354.803 16.9497 354.929 17 355.08 17C355.256 17 355.432 16.8993 355.583 16.7987C357.043 15.8424 358.024 14.9113 359.257 13.3762C360.264 12.0676 361.17 10.4319 361.925 8.67034L361.975 8.54451C362.076 8.2677 362.202 8.01605 362.403 7.83989C362.529 7.73923 362.629 7.6134 362.629 7.43725C362.629 7.26109 362.478 7.13527 362.353 7.03461V6.98428Z" fill="white"/>
<path d="M381.352 7.91537C381.352 7.91537 381.126 7.86504 381.025 7.89021C380.27 8.09153 379.364 8.29285 378.257 8.46901L375.816 8.89681L375.413 6.8836L376.848 6.63195C377.351 6.53129 378.005 6.43063 378.584 6.32997C379.012 6.25447 379.44 6.17898 379.767 6.12865C380.019 6.10348 380.144 6.00282 380.144 5.77634C380.044 5.17237 379.943 4.69424 379.792 4.24126C379.742 4.06511 379.616 3.96445 379.49 3.96445H379.465C378.609 4.19093 377.477 4.39226 376.495 4.56841L374.986 4.82006L374.734 3.46115C374.633 2.90751 374.658 2.60553 374.683 2.37905C374.683 2.30355 374.683 2.25322 374.683 2.20289C374.683 1.9764 374.533 1.82541 374.205 1.82541C373.425 1.77508 372.62 1.82541 371.89 1.87574C371.84 1.87574 371.815 1.90091 371.79 1.92607C371.79 1.95124 371.79 2.00157 371.79 2.0519C372.117 2.70619 372.293 3.31016 372.494 4.2161L372.695 5.2227L371.211 5.44919C369.927 5.65051 368.996 5.77634 368.09 5.82667C368.065 5.82667 368.015 5.82667 367.99 5.877C367.964 5.92733 367.964 5.95249 367.99 5.97766C368.09 6.4558 368.317 7.33657 368.493 7.76438C368.543 7.91537 368.669 8.11669 368.971 8.01603C369.449 7.89021 370.657 7.63856 371.588 7.48757L373.123 7.23591L373.526 9.27429L371.186 9.65177C370.003 9.85309 369.021 10.0041 367.914 10.1299C367.889 10.1299 367.839 10.1299 367.813 10.1802C367.813 10.2054 367.788 10.2557 367.813 10.2809C368.015 11.0358 368.166 11.6146 368.317 12.0425C368.367 12.1683 368.443 12.2689 368.543 12.3193C368.644 12.3696 368.745 12.3696 368.87 12.3193C369.575 12.1431 370.582 11.9166 371.714 11.7153L374.004 11.3127L374.432 13.2755C374.608 14.0557 374.734 14.8861 374.86 15.5404C374.91 15.8172 374.96 16.0689 374.986 16.2702C374.986 16.3709 375.061 16.5973 375.413 16.5973H375.489C375.967 16.5218 376.747 16.3457 377.125 16.2199C377.225 16.1947 377.477 16.094 377.427 15.8676V15.7921C377.175 14.9113 376.898 13.8292 376.646 12.6716L376.269 10.8345L378.584 10.4319C379.817 10.2306 380.899 10.0544 381.403 9.97891C381.629 9.97891 381.78 9.77759 381.78 9.52594C381.705 8.94714 381.579 8.46901 381.478 8.11669C381.478 8.01603 381.453 7.91537 381.352 7.83988V7.91537Z" fill="white"/>
<path d="M399.673 8.24256C399.673 8.24256 399.471 8.1419 399.32 8.16706C398.892 8.16706 398.465 8.16706 398.012 8.16706C397.106 8.16706 396.175 8.19223 395.269 8.19223H389.581C387.87 8.19223 386.964 8.16706 385.807 7.99091C385.756 7.99091 385.731 7.99091 385.706 8.01607C385.681 8.04124 385.656 8.09157 385.656 8.11673C385.731 8.99751 385.832 9.85313 385.932 10.2558C386.008 10.6332 386.259 10.7339 386.461 10.7339C386.511 10.7339 386.587 10.7339 386.712 10.7087C387.04 10.6584 387.744 10.5326 389.053 10.5326H395.394C396.678 10.5326 397.936 10.5326 399.27 10.5577H399.32C399.32 10.5577 399.572 10.5577 399.673 10.4823C399.773 10.4068 399.773 10.2809 399.773 10.1803C399.798 9.6518 399.798 9.04784 399.773 8.51937C399.773 8.41871 399.773 8.29289 399.673 8.21739V8.24256Z" fill="white"/>
</svg>
