<svg width="100" height="100" viewBox="0 0 100 100" fill="none" xmlns="http://www.w3.org/2000/svg"><path d="M66 7.96l1.975-4.621 1.726.8c.317.12.597.32.814.58.176.222.286.49.318.772.024.298-.029.597-.152.87a1.725 1.725 0 01-.525.703 1.381 1.381 0 01-.787.317 2.058 2.058 0 01-.98-.193l-1.146-.483.29-.69 1.036.442c.173.078.362.115.552.11a.911.911 0 00.428-.18 1.16 1.16 0 00.276-.385c.064-.153.097-.318.097-.483a.704.704 0 00-.18-.414 1.119 1.119 0 00-.47-.318l-.759-.33-1.67 3.821L66 7.961zm6.628 3.174l2.664-4.236.773.483-2.264 3.656 1.864 1.187-.4.635-2.637-1.725zm5.577 3.849l3.259-3.794 2.471 2.139-.497.58-1.754-1.49-.897 1.034 1.657 1.38-.497.58-1.657-1.38-.897 1.034 1.794 1.49-.496.58-2.486-2.153zm5.565 5.354l-.608-.76 4.984-1.82.718.855-2.761 4.567-.622-.76 2.223-3.573-3.935 1.49zm1.546-1.228l1.67 2.028-.566.469-1.684-2.042.58-.455zm7.304 7.547a.635.635 0 00.29-.497 1.144 1.144 0 00-.18-.662.952.952 0 00-.318-.373.635.635 0 00-.345-.152.511.511 0 00-.345 0 .468.468 0 00-.207.194.633.633 0 000 .276c-.013.1-.013.202 0 .303a1.948 1.948 0 000 .304l.138.469a4 4 0 01.11.565c.028.183.028.37 0 .552-.023.18-.09.35-.193.497a1.174 1.174 0 01-.428.386 1.382 1.382 0 01-.787.193 1.478 1.478 0 01-.773-.303 2.647 2.647 0 01-.677-.8 2.412 2.412 0 01-.345-.966 1.379 1.379 0 01.124-.842c.128-.279.34-.51.608-.662l.442.786a.69.69 0 00-.304.36.8.8 0 000 .44c.034.177.1.345.193.497.084.153.197.29.332.4.11.093.244.155.386.18a.58.58 0 00.4-.07.51.51 0 00.221-.261.869.869 0 000-.387 4.244 4.244 0 00-.096-.483l-.166-.565a2.316 2.316 0 010-1.09 1.103 1.103 0 01.58-.745c.235-.147.512-.21.787-.18.286.034.558.144.787.318.255.193.467.437.621.717.168.278.276.588.318.91.02.275-.028.55-.138.801a1.256 1.256 0 01-.525.58l-.51-.69zm-1.12 6.001l4.695-1.766 1.146 3.05-.704.262-.842-2.194-1.27.483.745 2-.718.262-.773-2.041-1.284.482.842 2.222-.718.262-1.118-3.022zm6.945 13.659a.663.663 0 00.47-.33c.103-.21.142-.446.11-.677a1.24 1.24 0 00-.124-.483.732.732 0 00-.262-.276.511.511 0 00-.346-.083.498.498 0 00-.262.097.58.58 0 00-.18.22c-.044.09-.081.182-.11.277v.8c-.028.191-.07.38-.124.566a2.06 2.06 0 01-.249.496 1.159 1.159 0 01-.372.359 1.188 1.188 0 01-.552.18 1.3 1.3 0 01-.801-.152 1.504 1.504 0 01-.58-.594 2.621 2.621 0 01-.29-1.007 2.98 2.98 0 01.083-1.02 1.38 1.38 0 011.284-1.063l.096.883a.746.746 0 00-.428.207.815.815 0 00-.22.4 1.53 1.53 0 000 .51c.019.177.066.349.138.51.074.129.172.241.29.332a.705.705 0 00.386.097.525.525 0 00.318-.152.937.937 0 00.18-.331c.047-.159.084-.32.11-.483l.096-.58c.036-.368.17-.72.387-1.02a1.075 1.075 0 01.828-.442c.273-.032.55.026.787.165.243.15.443.358.58.608.161.283.256.599.276.924.033.316 0 .635-.096.938a1.615 1.615 0 01-.442.69 1.38 1.38 0 01-.732.303l-.249-.869zm-.414 9.493v-.911c.144-.02.284-.061.414-.124.118-.061.225-.14.318-.235.085-.104.155-.22.207-.345a1.38 1.38 0 00.097-.427 1.448 1.448 0 00-.152-.732 1.38 1.38 0 00-.566-.538 2.28 2.28 0 00-.94-.248 2.17 2.17 0 00-.98.11c-.249.084-.47.237-.634.442a1.38 1.38 0 00-.249.703 1.376 1.376 0 000 .428c.028.133.08.259.152.373a1.136 1.136 0 00.649.469v.91a1.99 1.99 0 01-.663-.276 1.89 1.89 0 01-.51-.483c-.15-.2-.261-.423-.332-.662a2.29 2.29 0 010-.828c.021-.416.16-.818.4-1.159a2.03 2.03 0 01.94-.745 3.04 3.04 0 011.38-.193c.487.013.962.151 1.38.4.354.212.64.518.829.883.18.374.256.788.22 1.2a2.65 2.65 0 01-.179.76 2.04 2.04 0 01-.386.62c-.165.18-.368.322-.594.414a1.95 1.95 0 01-.8.194zm-2.443 6.511l-2.513.663.248-.993 2.5-.635-.235.966zm-1.574-2.993l4.86 1.214-.456 1.835c-.066.326-.213.63-.428.883a1.38 1.38 0 01-.69.441 1.685 1.685 0 01-.87 0 1.807 1.807 0 01-.76-.4 1.448 1.448 0 01-.386-.717 2.26 2.26 0 010-.994l.331-1.297.732.18-.304 1.173a1.379 1.379 0 000 .565.69.69 0 00.193.373.98.98 0 00.415.22.896.896 0 00.469 0 .649.649 0 00.359-.234c.11-.158.184-.336.22-.524l.208-.8-4.142-1.035.249-.883zm-1.616 12.1a2.859 2.859 0 01-1.146-.842 2.097 2.097 0 01-.47-1.118c-.05-.41.016-.826.194-1.2.166-.382.434-.71.773-.952a2.1 2.1 0 011.133-.386 3.344 3.344 0 012.54 1.131c.257.322.42.709.47 1.118.038.411-.033.826-.208 1.2-.161.38-.424.71-.76.952a2.14 2.14 0 01-1.131.386c-.482.019-.96-.08-1.395-.29zm.373-.828c.299.139.623.214.953.22.263.004.522-.068.745-.206a1.2 1.2 0 00.47-.566c.11-.232.148-.491.11-.745a1.215 1.215 0 00-.345-.69 2.292 2.292 0 00-.8-.566 2.376 2.376 0 00-.953-.22 1.381 1.381 0 00-.746.207 1.228 1.228 0 00-.483.565 1.379 1.379 0 00-.11.745c.046.258.166.498.344.69a2.5 2.5 0 00.815.566zm-4.528 3.021l4.142 2.76-.498.745-3.52-2.318-1.229 1.835-.635-.428 1.74-2.594zm-4.018 5.505l3.714 3.38-.608.677-3.106-2.87-1.533 1.642-.566-.552 2.099-2.277zm-9.885 8.637l1.38-.91 2.748 4.208-1.464.924c-.37.249-.798.4-1.242.442a2.017 2.017 0 01-1.201-.263 2.927 2.927 0 01-.967-.965 3.063 3.063 0 01-.483-1.297c-.037-.412.05-.825.248-1.187.24-.397.577-.725.98-.952zm1.09.235l-.635.4c-.257.16-.474.377-.635.634a1.227 1.227 0 00-.124.773c.047.323.17.63.359.897.166.285.392.53.663.717.22.148.48.22.745.207.296-.037.579-.14.828-.303l.65-.414-1.85-2.911zm-9.65 6.815a2.992 2.992 0 01-.249-1.38c.033-.41.182-.802.428-1.13.255-.328.594-.58.98-.732a2.141 2.141 0 011.202-.152c.407.058.79.23 1.104.497.354.324.628.725.8 1.173.194.433.28.906.25 1.38a2.207 2.207 0 01-.429 1.117 2.278 2.278 0 01-.98.731 2.349 2.349 0 01-1.215.166 2.044 2.044 0 01-1.09-.51 2.759 2.759 0 01-.801-1.16zm.842-.358c.11.312.29.595.525.827.185.186.42.316.676.373.256.04.518.011.76-.083.232-.1.433-.262.58-.469.15-.214.232-.47.234-.731a2.401 2.401 0 00-.193-.966 2.759 2.759 0 00-.539-.828 1.298 1.298 0 00-.676-.358 1.382 1.382 0 00-.746.082 1.31 1.31 0 00-.828 1.2c.001.329.072.653.207.953zm-6.365-.635l2.333 4.663-.966.18-1.574-3.463-.276 3.794-.87.165-1.629-3.449-.193 3.794-.967.18.456-5.188.884-.166 1.642 3.27.277-3.642.883-.138zm-12.881 6.098l.083-5.022h.87l2.305 3.463v-3.421h.911l-.082 5.022h-.815l-2.32-3.38V100l-.952-.083zm-4.294-5.56c.14.024.268.097.36.207a.538.538 0 01-.125.759.566.566 0 01-.4.096.552.552 0 01-.346-.22.481.481 0 01-.096-.387.565.565 0 01.11-.262.84.84 0 01.221-.165.637.637 0 01.276-.028zm-8.781-2.194L32.368 96.8l-1.74-.717a2.17 2.17 0 01-.814-.58 1.476 1.476 0 01-.317-.772 1.834 1.834 0 01.662-1.573 1.38 1.38 0 01.774-.318c.34-.023.682.038.994.18l1.145.483-.29.69-1.021-.373a1.049 1.049 0 00-.552-.097.773.773 0 00-.428.166c-.118.113-.212.25-.276.4a1.02 1.02 0 00-.083.483.69.69 0 00.18.414c.126.144.288.253.469.317l.773.318 1.629-3.933.828.276zm-6.682-3.103l-2.623 4.276-.773-.469 2.223-3.629-1.878-1.159.4-.648 2.651 1.628zm-5.523-3.809l-3.258 3.822-2.554-2.152.497-.58 1.795 1.518.883-1.035-1.656-1.38.483-.58 1.67 1.38.884-1.034-1.808-1.546.497-.579 2.567 2.166zm-5.66-5.229l.621.745-4.97 1.877-.732-.856 2.761-4.58.622.73-2.237 3.56 3.935-1.476zm-1.533 1.242l-1.698-2.07.553-.469 1.712 2.028-.567.51zm-7.386-7.561a.676.676 0 00-.29.51c-.01.23.052.458.18.649.084.145.19.276.317.386a.79.79 0 00.36.152c.12.007.24-.021.344-.083a.566.566 0 00.207-.193.896.896 0 000-.276 2.482 2.482 0 000-.303l-.082-.304-.139-.469a4.142 4.142 0 01-.124-.566 2.441 2.441 0 010-.552 1.27 1.27 0 01.18-.496 1.45 1.45 0 01.483-.414c.235-.147.51-.219.787-.207.286.025.559.13.787.303.276.214.506.482.676.787.181.296.303.624.36.966a1.38 1.38 0 01-.719 1.504l-.455-.773a.745.745 0 00.304-.359.992.992 0 000-.455 1.486 1.486 0 00-.152-.386 1.378 1.378 0 00-.346-.4.815.815 0 00-.386-.18.676.676 0 00-.4.083.511.511 0 00-.221.262c-.022.123-.022.25 0 .373.026.167.063.333.11.496l.166.566c.086.358.086.732 0 1.09a1.132 1.132 0 01-.553.745c-.24.145-.521.208-.8.18a1.547 1.547 0 01-.773-.304 2.346 2.346 0 01-.65-.718 2.152 2.152 0 01-.303-.91 1.558 1.558 0 01.11-.8c.11-.248.3-.452.539-.58l.483.676zm1.063-6.002L3.9 69.523l-1.132-3.05.704-.275.856 2.193 1.201-.483-.787-2.041.704-.276.829 2.014 1.27-.497-.856-2.207.704-.276L8.58 67.7zM1.511 54.125a.717.717 0 00-.47.345 1.15 1.15 0 00-.11.718c.018.163.065.322.139.469a.773.773 0 00.262.29.593.593 0 00.345 0 .497.497 0 00.262-.097.58.58 0 00.18-.22.897.897 0 00.096-.29 2.397 2.397 0 000-.304l.07-.483c.015-.192.052-.382.11-.566.1-.173.226-.331.373-.469.096-.154.23-.281.386-.372.166-.107.356-.169.553-.18.27-.04.546.009.787.138.254.132.462.34.593.594.165.312.264.655.29 1.007.064.337.064.683 0 1.02a1.56 1.56 0 01-.47.732 1.63 1.63 0 01-.814.345l-.083-.897a.746.746 0 00.414-.207.773.773 0 00.221-.386c.029-.174.029-.35 0-.524a1.379 1.379 0 00-.138-.51.924.924 0 00-.359-.318.551.551 0 00-.428-.152.524.524 0 00-.317.152.937.937 0 00-.18.33c-.043.16-.075.32-.096.484l-.097.593a2.193 2.193 0 01-.373 1.021 1.076 1.076 0 01-.828.442 1.381 1.381 0 01-.8-.152 1.642 1.642 0 01-.58-.607 2.138 2.138 0 01-.277-.883 2.123 2.123 0 01.083-.952c.085-.264.238-.502.442-.69.199-.158.438-.259.69-.29l.124.87zm.401-9.52v.911a1.381 1.381 0 00-.414.11 1.15 1.15 0 00-.318.249 1.2 1.2 0 00-.207.345 1.38 1.38 0 00-.097.427 1.38 1.38 0 00.732 1.27c.295.138.614.217.939.234.33.032.665-.005.98-.11a1.38 1.38 0 00.621-.455c.126-.203.193-.438.194-.676.02-.138.02-.277 0-.414a1.117 1.117 0 00-.194-.414 1.021 1.021 0 00-.662-.456l.069-.924c.235.051.46.145.662.276.199.122.372.282.511.469.154.196.267.422.332.662.084.268.112.55.082.828a2.303 2.303 0 01-.372 1.159 2.223 2.223 0 01-.94.759c-.435.181-.91.252-1.38.207a2.943 2.943 0 01-1.38-.386 2.125 2.125 0 01-.829-.884 2.261 2.261 0 01-.235-1.186 2.78 2.78 0 01.18-.773c.085-.23.217-.442.386-.62a1.67 1.67 0 01.58-.428c.24-.107.498-.167.76-.18zm3.907-3.435L.93 40.011l.456-1.835c.06-.337.203-.655.414-.924a1.38 1.38 0 01.69-.456 1.8 1.8 0 01.857 0c.303.077.58.234.8.456.202.186.338.433.387.703.081.327.081.668 0 .994l-.387 1.283-.731-.22.29-1.188a1.379 1.379 0 000-.565.69.69 0 00-.194-.373.98.98 0 00-.414-.207.898.898 0 00-.47 0 .663.663 0 00-.358.249 1.38 1.38 0 00-.235.51l-.193.814 4.142.994-.166.924zm-1.602-3.05l2.5-.675-.235.98-2.5.662.235-.966zm3.093-9.146c.445.183.842.466 1.16.827.261.321.428.708.483 1.118.044.41-.023.825-.193 1.2a2.346 2.346 0 01-.746.994 2.224 2.224 0 01-1.146.413 3.136 3.136 0 01-1.38-.275 2.859 2.859 0 01-1.146-.842 2.041 2.041 0 01-.484-1.104 2.289 2.289 0 01.18-1.2 2.4 2.4 0 01.76-.966c.334-.232.725-.37 1.131-.4.472-.028.945.052 1.381.235zm-.4.841a2.376 2.376 0 00-.953-.22 1.382 1.382 0 00-.746.206 1.27 1.27 0 00-.469.594c-.11.227-.148.482-.11.73.05.26.175.5.359.69.225.245.504.433.814.553.299.138.623.214.953.22a1.38 1.38 0 00.745-.207 1.38 1.38 0 00.511-.648 1.28 1.28 0 00.097-.745 1.38 1.38 0 00-.345-.635 2.278 2.278 0 00-.856-.538zm4.556-3.105l-4.211-2.759.497-.758 3.562 2.331 1.215-1.849.635.414-1.698 2.622zm3.962-5.546l-3.741-3.338.607-.69 3.175 2.842 1.464-1.656.58.51-2.085 2.332zm9.789-8.747l-1.38.925-2.762-4.14 1.38-.951c.372-.25.798-.407 1.243-.456.406-.027.81.07 1.16.276.398.24.733.572.98.966.27.385.44.83.497 1.297a2.03 2.03 0 01-.235 1.173 2.67 2.67 0 01-.883.91zm-1.105-.22l.635-.414c.257-.157.47-.375.622-.635.12-.239.168-.507.138-.773a2.36 2.36 0 00-.387-.896 2.347 2.347 0 00-.663-.704 1.133 1.133 0 00-.745-.193c-.299.024-.585.13-.828.303l-.65.414 1.878 2.898zm9.623-6.871c.199.431.288.905.263 1.38a2.247 2.247 0 01-.415 1.13c-.253.333-.592.59-.98.746a2.28 2.28 0 01-1.201.165 2.168 2.168 0 01-1.105-.496 2.953 2.953 0 01-.814-1.16 3.102 3.102 0 01-.262-1.379c.028-.411.177-.804.427-1.131a2.361 2.361 0 012.113-.911c.408.057.791.23 1.104.497.382.308.681.706.87 1.159zm-.842.345a2.457 2.457 0 00-.538-.814 1.381 1.381 0 00-.677-.36 1.285 1.285 0 00-.745.097 1.256 1.256 0 00-.594.47 1.378 1.378 0 00-.221.73 2.22 2.22 0 00.207.967c.123.304.306.58.538.814.188.18.422.305.677.358.257.04.52.007.76-.096.237-.093.44-.257.58-.47a1.24 1.24 0 00.261-.73 2.22 2.22 0 00-.248-.966zm6.365.62l-2.375-4.65.953-.192 1.615 3.449.276-3.822.87-.165 1.67 3.421.208-3.794.952-.193-.4 5.174-.884.165-1.67-3.228-.304 3.642-.911.193zM52.111.069l-.082 5.008h-.815l-2.306-3.449V5.05h-.91L47.982 0h.815l2.292 3.477V.055L52.11.07zm4.308 5.45a.484.484 0 01-.359-.207.47.47 0 01-.097-.4.441.441 0 01.207-.345.525.525 0 01.442-.07c.137.025.26.099.346.208a.537.537 0 010 .662.844.844 0 01-.221.166.636.636 0 01-.318-.014z" fill="#fff"/></svg>