<svg xmlns="http://www.w3.org/2000/svg" viewBox="0 0 260 260" width="260" height="260" preserveAspectRatio="xMidYMid meet" style="width: 100%; height: 100%; transform: translate3d(0px, 0px, 0px); content-visibility: visible;"><defs><clipPath id="__lottie_element_161"><rect width="260" height="260" x="0" y="0"/></clipPath><clipPath id="__lottie_element_175"><path d="M0,0 L260,0 L260,260 L0,260z"/></clipPath><clipPath id="__lottie_element_182"><path d="M0,0 L260,0 L260,260 L0,260z"/></clipPath><clipPath id="__lottie_element_189"><path d="M0,0 L260,0 L260,260 L0,260z"/></clipPath><clipPath id="__lottie_element_196"><path d="M0,0 L260,0 L260,260 L0,260z"/></clipPath></defs><g clip-path="url(#__lottie_element_161)"><g transform="matrix(0.9548780918121338,0.2969980239868164,-0.2969980239868164,0.9548780918121338,49.14012145996094,-2.2482223510742188)" opacity="1" style="display: block;"><g opacity="1" transform="matrix(1,0,0,1,52.34000015258789,41.90999984741211)"><path fill="rgb(255,255,255)" fill-opacity="1" d=" M-14.260000228881836,26.3700008392334 C-14.65999984741211,26.610000610351562 -14.710000038146973,27.049999237060547 -14.880000114440918,27.43000030517578 C-15.850000381469727,29.56999969482422 -17.049999237060547,31.559999465942383 -18.84000015258789,33.13999938964844 C-20.100000381469727,34.25 -21.350000381469727,35.369998931884766 -22.59000015258789,36.5 C-26.280000686645508,39.81999969482422 -30.3700008392334,40.15999984741211 -34.779998779296875,38.18000030517578 C-37.90999984741211,36.77000045776367 -40.43000030517578,34.58000183105469 -42.54999923706055,31.93000030517578 C-45.689998626708984,28 -47.52000045776367,23.469999313354492 -48.61000061035156,18.6200008392334 C-50.279998779296875,11.289999961853027 -50.369998931884766,3.880000114440918 -49.65999984741211,-3.559999942779541 C-48.459999084472656,-16.200000762939453 -42.400001525878906,-26.209999084472656 -32.900001525878906,-34.31999969482422 C-30.979999542236328,-35.959999084472656 -28.770000457763672,-37.189998626708984 -26.350000381469727,-38 C-22.920000076293945,-39.150001525878906 -19.75,-38.70000076293945 -16.81999969482422,-36.529998779296875 C-15.609999656677246,-35.630001068115234 -14.550000190734863,-34.58000183105469 -13.550000190734863,-33.459999084472656 C-10.34000015258789,-29.860000610351562 -8.279999732971191,-25.6200008392334 -6.610000133514404,-21.15999984741211 C-6.559999942779541,-21.020000457763672 -6.630000114440918,-20.84000015258789 -6.639999866485596,-20.68000030517578 C-8.699999809265137,-20.6200008392334 -13,-21.329999923706055 -14.739999771118164,-22.040000915527344 C-15.510000228881836,-22.350000381469727 -16.260000228881836,-22.299999237060547 -17.030000686645508,-22.100000381469727 C-19.100000381469727,-21.540000915527344 -20.90999984741211,-20.5 -22.549999237060547,-19.15999984741211 C-26.40999984741211,-16.010000228881836 -29.1200008392334,-12.0600004196167 -30.600000381469727,-7.28000020980835 C-31.5,-4.409999847412109 -32.0099983215332,-1.4500000476837158 -32.290000915527344,1.5299999713897705 C-32.689998626708984,5.960000038146973 -32.86000061035156,10.399999618530273 -31.68000030517578,14.760000228881836 C-31.1299991607666,16.780000686645508 -30.440000534057617,18.760000228881836 -29.209999084472656,20.510000228881836 C-28.979999542236328,20.829999923706055 -27.899999618530273,21.15999984741211 -29.059999465942383,21.760000228881836 C-29.25,21.850000381469727 -28.889999389648438,22.1299991607666 -28.68000030517578,22.170000076293945 C-27.90999984741211,22.329999923706055 -27.149999618530273,22.510000228881836 -26.3799991607666,22.610000610351562 C-21.56999969482422,23.239999771118164 -16.760000228881836,23.799999237060547 -11.960000038146973,24.479999542236328 C-5.25,25.440000534057617 1.440000057220459,26.459999084472656 8.130000114440918,27.479999542236328 C15.949999809265137,28.670000076293945 23.770000457763672,29.889999389648438 31.59000015258789,31.06999969482422 C33.5,31.360000610351562 36.2239990234375,35.111000061035156 36.65399932861328,37.23099899291992 C40.784000396728516,37.191001892089844 42.26100158691406,36.45600128173828 46.349998474121094,33.380001068115234 C46.189998626708984,33.150001525878906 46.119998931884766,32.790000915527344 46.09000015258789,32.2599983215332 C46.02000045776367,31.049999237060547 45.880001068115234,29.860000610351562 45.56999969482422,28.700000762939453 C45.380001068115234,27.979999542236328 45.560001373291016,27.450000762939453 45.9900016784668,26.889999389648438 C47.97999954223633,24.260000228881836 49.150001525878906,21.260000228881836 49.95000076293945,18.09000015258789 C51.58000183105469,11.59000015258789 52.09000015258789,4.96999979019165 51.81999969482422,-1.7100000381469727 C51.70000076293945,-4.820000171661377 50.75,-7.71999979019165 49.54999923706055,-10.550000190734863 C48.52000045776367,-12.989999771118164 46.61000061035156,-14.1899995803833 44,-14.489999771118164 C39.650001525878906,-14.970000267028809 35.310001373291016,-15.529999732971191 30.969999313354492,-16.09000015258789 C29.360000610351562,-16.299999237060547 29.360000610351562,-16.34000015258789 29.6200008392334,-18 C29.850000381469727,-19.540000915527344 30.200000762939453,-21.079999923706055 30.100000381469727,-22.639999389648438 C30.020000457763672,-24.049999237060547 30.3700008392334,-25.170000076293945 31.3799991607666,-26.190000534057617 C32.220001220703125,-27.040000915527344 32.72999954223633,-28.15999984741211 33.04999923706055,-29.34000015258789 C34.11000061035156,-33.25 31.559999465942383,-36.540000915527344 27.510000228881836,-36.36000061035156 C26.420000076293945,-36.31999969482422 25.729999542236328,-36.56999969482422 25.079999923706055,-37.43000030517578 C24.31999969482422,-38.41999816894531 23.469999313354492,-39.369998931884766 22.540000915527344,-40.209999084472656 C20.920000076293945,-41.65999984741211 19.760000228881836,-41.33000183105469 19.030000686645508,-39.31999969482422 C18.81999969482422,-38.720001220703125 18.6200008392334,-38.11000061035156 18.3700008392334,-37.369998931884766 C17.34000015258789,-38.0099983215332 16.450000762939453,-38.61000061035156 15.529999732971191,-39.130001068115234 C13.470000267028809,-40.29999923706055 12.5,-39.81999969482422 11.989999771118164,-37.470001220703125 C11.880000114440918,-36.95000076293945 12.029999732971191,-36.369998931884766 11.550000190734863,-35.86000061035156 C10.3100004196167,-36.22999954223633 9.119999885559082,-35.79999923706055 7.929999828338623,-35.36000061035156 C6.869999885559082,-34.959999084472656 5.809999942779541,-34.52000045776367 4.730000019073486,-34.16999816894531 C3.0899999141693115,-33.630001068115234 2.8499999046325684,-33.040000915527344 3.859999895095825,-31.56999969482422 C4.429999828338623,-30.729999542236328 5.110000133514404,-29.959999084472656 5.78000020980835,-29.190000534057617 C6.110000133514404,-28.799999237060547 6.130000114440918,-28.510000228881836 5.75,-28.1200008392334 C3.7899999618530273,-26.100000381469727 3.259999990463257,-23.559999465942383 3.1700000762939453,-20.860000610351562 C3.1500000953674316,-20.329999923706055 3.299999952316284,-19.770000457763672 2.890000104904175,-19.18000030517578 C0.27000001072883606,-19.530000686645508 -2.390000104904175,-19.90999984741211 -5.059999942779541,-20.239999771118164 C-5.880000114440918,-20.34000015258789 -5.920000076293945,-20.940000534057617 -6.090000152587891,-21.5 C-7.570000171661377,-26.450000762939453 -9.9399995803833,-30.920000076293945 -13.329999923706055,-34.81999969482422 C-14.600000381469727,-36.279998779296875 -16.030000686645508,-37.560001373291016 -17.729999542236328,-38.5 C-19.950000762939453,-39.7400016784668 -22.299999237060547,-40.189998626708984 -24.829999923706055,-39.7400016784668 C-28.239999771118164,-39.130001068115234 -31.190000534057617,-37.560001373291016 -33.79999923706055,-35.38999938964844 C-41.560001373291016,-28.93000030517578 -47.16999816894531,-20.940000534057617 -49.68000030517578,-11.109999656677246 C-52.09000015258789,-1.690000057220459 -52,7.889999866485596 -50.189998626708984,17.440000534057617 C-49.15999984741211,22.860000610351562 -47.2400016784668,27.940000534057617 -43.86000061035156,32.369998931884766 C-41.4900016784668,35.470001220703125 -38.650001525878906,37.9900016784668 -35.029998779296875,39.560001373291016 C-30.18000030517578,41.65999984741211 -25.690000534057617,41.209999084472656 -21.65999984741211,37.619998931884766 C-20.489999771118164,36.58000183105469 -19.350000381469727,35.5099983215332 -18.09000015258789,34.599998474121094 C-15.59000015258789,32.790000915527344 -14.479999542236328,30.200000762939453 -13.819999694824219,27.34000015258789 C-13.729999542236328,26.950000762939453 -13.65999984741211,26.479999542236328 -14.260000228881836,26.3700008392334z M28.309999465942383,-34.4900016784668 C30.290000915527344,-34.16999816894531 31.479999542236328,-32.619998931884766 31.219999313354492,-30.639999389648438 C31.09000015258789,-29.690000534057617 30.790000915527344,-28.780000686645508 30,-27.940000534057617 C29.479999542236328,-29.350000381469727 28.420000076293945,-30.040000915527344 27.079999923706055,-30.399999618530273 C27.59000015258789,-31.190000534057617 28.290000915527344,-31.709999084472656 28.579999923706055,-32.52000045776367 C28.729999542236328,-32.970001220703125 29,-33.5 28.469999313354492,-33.810001373291016 C28.010000228881836,-34.08000183105469 27.719999313354492,-33.630001068115234 27.469999313354492,-33.290000915527344 C26.579999923706055,-32.099998474121094 25.420000076293945,-31.299999237060547 24.030000686645508,-30.790000915527344 C23.75,-30.690000534057617 23.43000030517578,-30.579999923706055 23.200000762939453,-30.860000610351562 C22.989999771118164,-31.139999389648438 23.18000030517578,-31.43000030517578 23.290000915527344,-31.700000762939453 C24.030000686645508,-33.45000076293945 26.450000762939453,-34.790000915527344 28.309999465942383,-34.4900016784668z M19.100000381469727,-30.8799991607666 C19.639999389648438,-33.45000076293945 20.15999984741211,-36.02000045776367 21.079999923706055,-38.7400016784668 C22.530000686645508,-37.869998931884766 23.31999969482422,-36.650001525878906 24.420000076293945,-35.79999923706055 C24.149999618530273,-35.130001068115234 23.600000381469727,-34.95000076293945 23.219999313354492,-34.59000015258789 C22.229999542236328,-33.66999816894531 21.540000915527344,-32.59000015258789 21.270000457763672,-31.239999771118164 C21.059999465942383,-30.170000076293945 20.780000686645508,-30 19.760000228881836,-30.079999923706055 C19.219999313354492,-30.1299991607666 18.979999542236328,-30.360000610351562 19.100000381469727,-30.8799991607666z M19.209999084472656,-28.100000381469727 C21.610000610351562,-28.18000030517578 24,-28.329999923706055 26.389999389648438,-28.34000015258789 C27.709999084472656,-28.34000015258789 27.969999313354492,-28.020000457763672 28.059999465942383,-26.75 C28.170000076293945,-25.260000228881836 27.899999618530273,-23.790000915527344 28.139999389648438,-22.260000228881836 C28.3799991607666,-20.760000228881836 27.940000534057617,-19.18000030517578 27.729999542236328,-17.6299991607666 C27.6200008392334,-16.780000686645508 27.309999465942383,-16.479999542236328 26.469999313354492,-16.610000610351562 C25.649999618530273,-16.75 24.809999465942383,-16.8700008392334 23.979999542236328,-16.920000076293945 C23.170000076293945,-16.969999313354492 23.010000228881836,-17.350000381469727 23.100000381469727,-18.09000015258789 C23.31999969482422,-19.93000030517578 23.479999542236328,-21.780000686645508 23.670000076293945,-23.6299991607666 C23.93000030517578,-26.15999984741211 23.59000015258789,-26.530000686645508 20.979999542236328,-26.549999237060547 C20.139999389648438,-26.559999465942383 19.309999465942383,-26.559999465942383 18.469999313354492,-26.579999923706055 C18.3700008392334,-26.579999923706055 18.270000457763672,-26.700000762939453 18.149999618530273,-26.770000457763672 C18.200000762939453,-27.459999084472656 18.309999465942383,-28.06999969482422 19.209999084472656,-28.100000381469727z M21.940000534057617,-24.780000686645508 C21.690000534057617,-22.469999313354492 21.440000534057617,-20.229999542236328 21.200000762939453,-17.979999542236328 C21.139999389648438,-17.440000534057617 20.790000915527344,-17.290000915527344 20.31999969482422,-17.350000381469727 C18.09000015258789,-17.6200008392334 15.829999923706055,-17.709999084472656 13.59000015258789,-18.15999984741211 C15.069999694824219,-21.149999618530273 17.790000915527344,-23.299999237060547 21.940000534057617,-24.780000686645508z M14.109999656677246,-37.790000915527344 C15.399999618530273,-37.36000061035156 16.389999389648438,-36.66999816894531 17.450000762939453,-36.150001525878906 C18.010000228881836,-35.869998931884766 18,-35.43000030517578 17.899999618530273,-34.939998626708984 C17.639999389648438,-33.59000015258789 17.350000381469727,-32.2400016784668 17.1200008392334,-30.8799991607666 C17.030000686645508,-30.299999237060547 16.790000915527344,-30.020000457763672 16.209999084472656,-30.010000228881836 C15.729999542236328,-30.010000228881836 15.25,-30 14.770000457763672,-29.989999771118164 C14.239999771118164,-29.979999542236328 14.010000228881836,-30.270000457763672 13.989999771118164,-30.760000228881836 C13.890000343322754,-33.029998779296875 13.569999694824219,-35.29999923706055 14.109999656677246,-37.790000915527344z M16.3700008392334,-28.06999969482422 C16.959999084472656,-28.030000686645508 16.950000762939453,-27.549999237060547 16.989999771118164,-27.149999618530273 C17.030000686645508,-26.670000076293945 16.690000534057617,-26.549999237060547 16.299999237060547,-26.559999465942383 C15.880000114440918,-26.56999969482422 15.470000267028809,-26.610000610351562 15.050000190734863,-26.6299991607666 C14.579999923706055,-26.65999984741211 14.260000228881836,-26.829999923706055 14.300000190734863,-27.389999389648438 C14.329999923706055,-27.940000534057617 14.649999618530273,-28.079999923706055 15.119999885559082,-28.079999923706055 C15.119999885559082,-28.079999923706055 15.65999984741211,-28.079999923706055 15.65999984741211,-28.079999923706055 C15.65999984741211,-28.079999923706055 15.65999984741211,-28.06999969482422 15.65999984741211,-28.06999969482422 C15.899999618530273,-28.06999969482422 16.139999389648438,-28.079999923706055 16.3700008392334,-28.06999969482422z M13.600000381469727,-24.799999237060547 C14.069999694824219,-24.6200008392334 14.710000038146973,-24.8799991607666 15.270000457763672,-24.8700008392334 C15.789999961853027,-24.860000610351562 16.34000015258789,-24.959999084472656 17.110000610351562,-24.579999923706055 C14.949999809265137,-22.899999618530273 13.239999771118164,-21.09000015258789 12.170000076293945,-18.760000228881836 C12.029999732971191,-18.450000762939453 11.770000457763672,-18.34000015258789 11.460000038146973,-18.329999923706055 C11.34000015258789,-18.31999969482422 11.220000267028809,-18.34000015258789 11.100000381469727,-18.34000015258789 C8.119999885559082,-18.34000015258789 8.0600004196167,-18.40999984741211 8.710000038146973,-21.270000457763672 C8.880000114440918,-22.030000686645508 9.069999694824219,-22.780000686645508 9.270000457763672,-23.530000686645508 C9.420000076293945,-24.09000015258789 9.770000457763672,-24.700000762939453 10.3100004196167,-24.610000610351562 C11.4399995803833,-24.43000030517578 12.4399995803833,-25.25 13.600000381469727,-24.799999237060547z M12.579999923706055,-27.219999313354492 C12.619999885559082,-26.850000381469727 12.390000343322754,-26.709999084472656 12.0600004196167,-26.649999618530273 C11.25,-26.520000457763672 10.470000267028809,-26.440000534057617 10.229999542236328,-27.649999618530273 C10.880000114440918,-27.940000534057617 11.470000267028809,-27.93000030517578 12.069999694824219,-27.860000610351562 C12.40999984741211,-27.81999969482422 12.539999961853027,-27.540000915527344 12.579999923706055,-27.219999313354492z M5.880000114440918,-32.599998474121094 C7.369999885559082,-33.439998626708984 8.869999885559082,-34.2599983215332 10.5,-34.79999923706055 C11.529999732971191,-35.13999938964844 11.739999771118164,-34.95000076293945 11.84000015258789,-33.880001068115234 C11.930000305175781,-32.869998931884766 11.989999771118164,-31.860000610351562 12.109999656677246,-30.860000610351562 C12.180000305175781,-30.190000534057617 11.930000305175781,-29.93000030517578 11.270000457763672,-29.799999237060547 C8.420000076293945,-29.219999313354492 7.630000114440918,-29.59000015258789 5.880000114440918,-32.599998474121094z M4.380000114440918,-20.100000381469727 C4.539999961853027,-21.899999618530273 4.809999942779541,-23.670000076293945 5.679999828338623,-25.280000686645508 C5.940000057220459,-25.75 6.25,-26.200000762939453 6.599999904632568,-26.600000381469727 C7.03000020980835,-27.100000381469727 7.550000190734863,-27.31999969482422 8.119999885559082,-26.729999542236328 C8.5600004196167,-26.280000686645508 9.100000381469727,-25.989999771118164 8.510000228881836,-25.149999618530273 C7.46999979019165,-23.690000534057617 7.550000190734863,-21.860000610351562 7.159999847412109,-20.18000030517578 C6.809999942779541,-18.709999084472656 6.739999771118164,-18.65999984741211 5.260000228881836,-18.920000076293945 C4.519999980926514,-19.049999237060547 4.190000057220459,-19.350000381469727 4.380000114440918,-20.100000381469727z M2.0999999046325684,-18.389999389648438 C7.900000095367432,-17.649999618530273 13.729999542236328,-17.260000228881836 19.530000686645508,-16.579999923706055 C19.649999618530273,-16.559999465942383 19.770000457763672,-16.56999969482422 19.889999389648438,-16.540000915527344 C23.1299991607666,-15.789999961853027 26.479999542236328,-15.920000076293945 29.75,-15.369999885559082 C33,-14.819999694824219 36.279998779296875,-14.489999771118164 39.54999923706055,-14.050000190734863 C40.189998626708984,-13.960000038146973 40.810001373291016,-13.819999694824219 41.7400016784668,-13.649999618530273 C39.88999938964844,-12.109999656677246 38.040000915527344,-10.90999984741211 36.7400016784668,-8.949999809265137 C37.470001220703125,-8.739999771118164 37.70000076293945,-9.15999984741211 37.90999984741211,-9.4399995803833 C39.279998779296875,-11.1899995803833 41.279998779296875,-11.869999885559082 43.27000045776367,-12.510000228881836 C45.33000183105469,-13.180000305175781 47.18000030517578,-12.350000381469727 48.2400016784668,-10.329999923706055 C49.59000015258789,-7.760000228881836 50.5099983215332,-5.010000228881836 50.650001525878906,-2.109999895095825 C50.970001220703125,4.75 50.5,11.5600004196167 48.869998931884766,18.25 C48.15999984741211,21.110000610351562 47.060001373291016,23.81999969482422 45.04999923706055,26.270000457763672 C44.54999923706055,25.3799991607666 44.150001525878906,24.59000015258789 43.689998626708984,23.84000015258789 C42.81999969482422,22.450000762939453 41.61000061035156,21.729999542236328 39.93000030517578,21.3799991607666 C37.40999984741211,20.860000610351562 34.91999816894531,21.139999389648438 32.41999816894531,21.100000381469727 C30.920000076293945,21.06999969482422 30.899999618530273,21.06999969482422 30.889999389648438,19.639999389648438 C30.81999969482422,14.239999771118164 30.979999542236328,8.850000381469727 31.920000076293945,3.509999990463257 C31.989999771118164,3.1600000858306885 32.02000045776367,2.799999952316284 32.08000183105469,2.450000047683716 C32.15999984741211,2.0399999618530273 32.099998474121094,1.7200000286102295 31.6200008392334,1.659999966621399 C31.219999313354492,1.6200000047683716 30.920000076293945,1.7899999618530273 30.84000015258789,2.2200000286102295 C30.739999771118164,2.740000009536743 30.6200008392334,3.2699999809265137 30.56999969482422,3.809999942779541 C30.059999465942383,9.119999885559082 29.59000015258789,14.430000305175781 29.610000610351562,19.780000686645508 C29.610000610351562,21.1299991607666 29.56999969482422,21.1200008392334 28.280000686645508,21.399999618530273 C25.829999923706055,21.940000534057617 23.3799991607666,22.549999237060547 20.90999984741211,23.020000457763672 C17.600000381469727,23.65999984741211 14.390000343322754,23.200000762939453 11.1899995803833,22.100000381469727 C5.679999828338623,20.219999313354492 0.8500000238418579,17.09000015258789 -4.010000228881836,14.039999961853027 C-6.079999923706055,12.739999771118164 -7.960000038146973,11.100000381469727 -9.739999771118164,9.40999984741211 C-11.819999694824219,7.449999809265137 -14.239999771118164,6.519999980926514 -17.030000686645508,6.409999847412109 C-21.239999771118164,6.239999771118164 -25.06999969482422,7.420000076293945 -28.639999389648438,9.600000381469727 C-29.139999389648438,9.899999618530273 -29.559999465942383,10.380000114440918 -30.18000030517578,10.4399995803833 C-30.579999923706055,10.210000038146973 -30.530000686645508,9.819999694824219 -30.540000915527344,9.479999542236328 C-30.700000762939453,4.130000114440918 -30.309999465942383,-1.1799999475479126 -28.780000686645508,-6.329999923706055 C-27.15999984741211,-11.819999694824219 -24.010000228881836,-16.219999313354492 -19.1299991607666,-19.31999969482422 C-17.1299991607666,-20.59000015258789 -15.079999923706055,-21.059999465942383 -12.649999618530273,-20.559999465942383 C-7.78000020980835,-19.56999969482422 -2.8299999237060547,-19.010000228881836 2.0999999046325684,-18.389999389648438z"/></g><g opacity="1" transform="matrix(1,0,0,1,86.09500122070312,37.9379997253418)"><path fill="rgb(255,255,255)" fill-opacity="1" d=" M1.034000039100647,-2.013000011444092 C0.7070000171661377,-0.6179999709129333 -0.0020000000949949026,0.609000027179718 -0.7390000224113464,2.013000011444092 C-1.034000039100647,0.6480000019073486 -0.453000009059906,-0.6679999828338623 1.034000039100647,-2.013000011444092z"/></g></g><g transform="matrix(1,0,0,1,62.107994079589844,70.23800659179688)" opacity="1" style="display: block;"><g opacity="1" transform="matrix(1,0,0,1,85.5250015258789,86.76499938964844)"><path fill="rgb(255,255,255)" fill-opacity="1" d=" M81.26499938964844,-38.10499954223633 C77.88500213623047,-44.275001525878906 73.43499755859375,-49.415000915527344 67.3550033569336,-53.064998626708984 C66.125,-53.80500030517578 64.99500274658203,-54.71500015258789 63.80500030517578,-55.525001525878906 C62.60499954223633,-56.334999084472656 61.96500015258789,-57.46500015258789 61.55500030517578,-58.85499954223633 C60.915000915527344,-61.03499984741211 60.244998931884766,-63.21500015258789 59.28499984741211,-65.28500366210938 C58.44499969482422,-67.11499786376953 58.3849983215332,-67.16500091552734 56.73500061035156,-66.19499969482422 C56.334999084472656,-65.96499633789062 56.005001068115234,-65.55500030517578 55.474998474121094,-65.63500213623047 C55.404998779296875,-65.74500274658203 55.28499984741211,-65.82499694824219 55.275001525878906,-65.92500305175781 C54.904998779296875,-71.88500213623047 55.44499969482422,-77.7750015258789 56.55500030517578,-83.63500213623047 C56.595001220703125,-83.83499908447266 56.654998779296875,-83.99500274658203 56.73500061035156,-84.11499786376953 C56.73500061035156,-84.11499786376953 56.73500061035156,-84.125 56.73500061035156,-84.125 C56.744998931884766,-84.74500274658203 57.474998474121094,-85.41500091552734 57.125,-86.03500366210938 C56.85499954223633,-86.51499938964844 56.35499954223633,-86.34500122070312 55.92499923706055,-86.11499786376953 C55.904998779296875,-85.96499633789062 55.8849983215332,-85.79499816894531 55.8849983215332,-85.58499908447266 C55.875,-85.0250015258789 55.724998474121094,-84.54499816894531 55.55500030517578,-84.0250015258789 C53.64500045776367,-77.94499969482422 52.875,-71.74500274658203 53.76499938964844,-65.3949966430664 C53.875,-64.59500122070312 53.67499923706055,-64.21499633789062 53.05500030517578,-63.79499816894531 C46.3849983215332,-59.30500030517578 39.92499923706055,-54.53499984741211 33.51499938964844,-49.69499969482422 C32.70500183105469,-49.084999084472656 32.21500015258789,-49.165000915527344 31.53499984741211,-49.79499816894531 C30.735000610351562,-50.54499816894531 29.764999389648438,-50.76499938964844 28.704999923706055,-50.255001068115234 C28.434999465942383,-50.125 28.295000076293945,-49.595001220703125 27.735000610351562,-50.005001068115234 C28.075000762939453,-51.474998474121094 28.125,-53.03499984741211 28.135000228881836,-54.584999084472656 C28.145000457763672,-55.005001068115234 28.204999923706055,-55.404998779296875 28.434999465942383,-55.78499984741211 C30.415000915527344,-59.01499938964844 30.96500015258789,-62.60499954223633 30.96500015258789,-66.29499816894531 C30.96500015258789,-66.41500091552734 30.96500015258789,-66.51499938964844 30.975000381469727,-66.61499786376953 C30.924999237060547,-66.8949966430664 30.934999465942383,-67.19499969482422 30.915000915527344,-67.4749984741211 C30.864999771118164,-68.01499938964844 30.4950008392334,-68.65499877929688 29.96500015258789,-68.53500366210938 C29.545000076293945,-68.44499969482422 29.385000228881836,-67.8949966430664 29.434999465942383,-67.46499633789062 C29.475000381469727,-67.18499755859375 29.645000457763672,-66.76499938964844 29.594999313354492,-66.45500183105469 C29.594999313354492,-66.45500183105469 29.594999313354492,-66.44499969482422 29.594999313354492,-66.44499969482422 C29.594999313354492,-66.44499969482422 29.594999313354492,-66.38500213623047 29.594999313354492,-66.38500213623047 C29.55500030517578,-64.58499908447266 29.28499984741211,-62.82500076293945 28.7450008392334,-61.005001068115234 C28.344999313354492,-61.32500076293945 28.354999542236328,-61.564998626708984 28.334999084472656,-61.80500030517578 C28.264999389648438,-62.6349983215332 28.235000610351562,-63.474998474121094 28.155000686645508,-64.31500244140625 C28.075000762939453,-65.13500213623047 27.55500030517578,-65.59500122070312 26.825000762939453,-65.83499908447266 C26.014999389648438,-66.1050033569336 25.584999084472656,-65.59500122070312 25.21500015258789,-65.0250015258789 C24.7549991607666,-64.32499694824219 24.295000076293945,-63.625 23.875,-62.89500045776367 C23.565000534057617,-62.35499954223633 23.184999465942383,-61.974998474121094 22.575000762939453,-61.744998931884766 C19.0049991607666,-60.39500045776367 15.425000190734863,-60.025001525878906 11.664999961853027,-60.98500061035156 C8.694999694824219,-61.744998931884766 6.125,-63.20500183105469 3.615000009536743,-64.8550033569336 C2.3949999809265137,-65.65499877929688 1.3350000381469727,-66.59500122070312 0.45500001311302185,-67.75499725341797 C-0.4950000047683716,-68.99500274658203 -1.5149999856948853,-70.17500305175781 -2.484999895095825,-71.3949966430664 C-4.304999828338623,-73.66500091552734 -6.764999866485596,-74.82499694824219 -9.53499984741211,-75.38500213623047 C-10.675000190734863,-75.625 -11.864999771118164,-75.7750015258789 -13.045000076293945,-75.18499755859375 C-12.03499984741211,-74.25499725341797 -12.045000076293945,-74.19499969482422 -11.1850004196167,-74.08499908447266 C-7.474999904632568,-73.59500122070312 -4.494999885559082,-71.8550033569336 -2.315000057220459,-68.83499908447266 C-0.23499999940395355,-65.95500183105469 2.384999990463257,-63.755001068115234 5.494999885559082,-62.084999084472656 C9.385000228881836,-59.994998931884766 13.4350004196167,-58.744998931884766 17.915000915527344,-59.625 C19.415000915527344,-59.92499923706055 20.934999465942383,-60.125 22.475000381469727,-60.375 C22.454999923706055,-59.51499938964844 22.014999389648438,-58.98500061035156 21.71500015258789,-58.404998779296875 C19.184999465942383,-53.435001373291016 16.645000457763672,-48.474998474121094 14.444999694824219,-43.345001220703125 C13.875,-42.025001525878906 13.295000076293945,-40.744998931884766 14.6850004196167,-39.494998931884766 C16.53499984741211,-40.8650016784668 18.375,-42.28499984741211 20.274999618530273,-43.625 C22.184999465942383,-44.96500015258789 24.145000457763672,-46.244998931884766 26.46500015258789,-47.435001373291016 C26.225000381469727,-46.53499984741211 25.815000534057617,-46.154998779296875 25.514999389648438,-45.724998474121094 C21.604999542236328,-40.165000915527344 18.174999237060547,-34.334999084472656 15.4350004196167,-28.114999771118164 C14.78499984741211,-26.635000228881836 14.194999694824219,-25.125 13.9350004196167,-23.514999389648438 C13.835000038146973,-22.924999237060547 13.645000457763672,-22.274999618530273 14.28499984741211,-21.645000457763672 C14.515000343322754,-22.145000457763672 14.704999923706055,-22.514999389648438 14.854999542236328,-22.895000457763672 C15.515000343322754,-24.69499969482422 16.084999084472656,-26.53499984741211 16.844999313354492,-28.295000076293945 C19.584999084472656,-34.70500183105469 23.03499984741211,-40.73500061035156 26.885000228881836,-46.54499816894531 C27.21500015258789,-47.04499816894531 27.545000076293945,-47.55500030517578 27.934999465942383,-48.005001068115234 C28.975000381469727,-49.165000915527344 29.9950008392334,-49.1349983215332 31.045000076293945,-47.95500183105469 C31.44499969482422,-47.51499938964844 31.815000534057617,-46.95500183105469 32.314998626708984,-46.71500015258789 C33.154998779296875,-46.32500076293945 33.3650016784668,-45.665000915527344 33.57500076293945,-44.89500045776367 C34.67499923706055,-40.78499984741211 36.064998626708984,-36.76499938964844 37.46500015258789,-32.744998931884766 C38.064998626708984,-31.03499984741211 38.57500076293945,-30.94499969482422 39.744998931884766,-32.244998931884766 C40.55500030517578,-33.1349983215332 41.375,-34.005001068115234 42.19499969482422,-34.875 C47.46500015258789,-40.46500015258789 53.26499938964844,-45.51499938964844 58.505001068115234,-51.125 C59.32500076293945,-52.005001068115234 60.1150016784668,-52.904998779296875 60.8849983215332,-53.82500076293945 C61.19499969482422,-54.20500183105469 61.44499969482422,-54.67499923706055 60.95500183105469,-55.10499954223633 C60.46500015258789,-55.53499984741211 60.04499816894531,-55.17499923706055 59.70500183105469,-54.845001220703125 C58.935001373291016,-54.095001220703125 58.20500183105469,-53.29499816894531 57.45500183105469,-52.525001525878906 C51.57500076293945,-46.435001373291016 45.20500183105469,-40.85499954223633 39.46500015258789,-34.6349983215332 C39.26499938964844,-34.42499923706055 39.064998626708984,-34.185001373291016 38.73500061035156,-34.17499923706055 C38.314998626708984,-34.564998626708984 38.23500061035156,-35.1150016784668 38.064998626708984,-35.625 C36.915000915527344,-39.025001525878906 35.775001525878906,-42.435001373291016 34.654998779296875,-45.85499954223633 C34.3849983215332,-46.69499969482422 34.14500045776367,-47.53499984741211 33.244998931884766,-48.20500183105469 C41.584999084472656,-53.915000915527344 49.474998474121094,-59.915000915527344 57.904998779296875,-65.13500213623047 C58.32500076293945,-64.65499877929688 58.32500076293945,-64.28500366210938 58.42499923706055,-63.94499969482422 C58.974998474121094,-61.98500061035156 59.53499984741211,-60.025001525878906 60.10499954223633,-58.07500076293945 C60.275001525878906,-57.494998931884766 60.435001373291016,-56.89500045776367 60.915000915527344,-56.494998931884766 C62.98500061035156,-54.78499984741211 64.875,-52.85499954223633 67.15499877929688,-51.39500045776367 C72.61499786376953,-47.8849983215332 76.75499725341797,-43.154998779296875 79.8949966430664,-37.48500061035156 C83.07499694824219,-31.735000610351562 83.78500366210938,-25.725000381469727 81.375,-19.645000457763672 C79.54499816894531,-15.055000305175781 76.83499908447266,-10.925000190734863 72.7750015258789,-7.864999771118164 C71.24500274658203,-6.715000152587891 69.76499938964844,-5.485000133514404 68.3550033569336,-4.184999942779541 C67.20500183105469,-3.125 65.92500305175781,-2.244999885559082 64.6050033569336,-1.4049999713897705 C58.29499816894531,2.575000047683716 51.54499816894531,5.695000171661377 44.724998474121094,8.635000228881836 C36.60499954223633,12.125 28.065000534057617,14.345000267028809 19.53499984741211,16.545000076293945 C15.305000305175781,17.635000228881836 10.954999923706055,18.184999465942383 6.585000038146973,18.485000610351562 C5.724999904632568,18.53499984741211 5.184999942779541,18.264999389648438 4.574999809265137,17.655000686645508 C-0.125,12.984999656677246 -3.9649999141693115,7.625 -7.864999771118164,2.305000066757202 C-8.625,1.2649999856948853 -8.595000267028809,0.45500001311302185 -8.104999542236328,-0.6349999904632568 C-0.5149999856948853,-17.594999313354492 6.835000038146973,-34.665000915527344 15.015000343322754,-51.345001220703125 C15.984999656677246,-53.334999084472656 15.725000381469727,-54.17499923706055 13.8149995803833,-55.30500030517578 C12.354999542236328,-56.165000915527344 10.755000114440918,-56.69499969482422 9.135000228881836,-57.14500045776367 C1.934999942779541,-59.185001373291016 -5.454999923706055,-59.89500045776367 -12.904999732971191,-60.01499938964844 C-16.854999542236328,-60.07500076293945 -20.815000534057617,-60.334999084472656 -24.7549991607666,-59.775001525878906 C-25.934999465942383,-59.60499954223633 -25.93199920654297,-59.72200012207031 -26.28499984741211,-59.82500076293945 C-29.909000396728516,-60.237998962402344 -32.724998474121094,-60.005001068115234 -35.73500061035156,-60.10499954223633 C-36.70500183105469,-60.1349983215332 -37.67499923706055,-60.17499923706055 -38.64500045776367,-60.20500183105469 C-38.6349983215332,-60.14500045776367 -38.6150016784668,-60.064998626708984 -38.60499954223633,-59.994998931884766 C-39.345001220703125,-59.994998931884766 -40.05500030517578,-60.01499938964844 -40.76499938964844,-59.994998931884766 C-49.39500045776367,-59.78499984741211 -58.03499984741211,-59.82500076293945 -66.61499786376953,-58.60499954223633 C-71.20500183105469,-57.95500183105469 -75.63500213623047,-56.685001373291016 -79.78500366210938,-54.564998626708984 C-81.17500305175781,-53.85499954223633 -82.51499938964844,-53.05500030517578 -83.6449966430664,-51.95500183105469 C-85.00499725341797,-50.6150016784668 -85.2750015258789,-49.3650016784668 -84.53500366210938,-47.6349983215332 C-82.91500091552734,-43.834999084472656 -81.2249984741211,-40.05500030517578 -79.30500030517578,-36.39500045776367 C-76.375,-30.815000534057617 -73.66500091552734,-25.145000457763672 -70.99500274658203,-19.434999465942383 C-65.32499694824219,-7.335000038146973 -59.625,4.755000114440918 -52.685001373291016,16.21500015258789 C-51.375,18.364999771118164 -50.1150016784668,20.55500030517578 -49.165000915527344,22.885000228881836 C-48.345001220703125,24.905000686645508 -47.17499923706055,26.71500015258789 -46.04499816894531,28.545000076293945 C-45.564998626708984,29.325000762939453 -45.42499923706055,30.0049991607666 -45.46500015258789,30.875 C-45.564998626708984,32.78499984741211 -45.55500030517578,34.70500183105469 -45.525001525878906,36.625 C-45.51499938964844,37.32500076293945 -45.55500030517578,38.165000915527344 -44.904998779296875,38.60499954223633 C-44.255001068115234,39.03499984741211 -44.005001068115234,39.70500183105469 -43.57500076293945,40.26499938964844 C-42.80500030517578,41.26499938964844 -42.095001220703125,42.3650016784668 -40.96500015258789,42.96500015258789 C-39.935001373291016,43.51499938964844 -39.69499969482422,44.244998931884766 -39.94499969482422,45.3650016784668 C-43.345001220703125,45.6150016784668 -45.54499816894531,47.51499938964844 -46.904998779296875,50.525001525878906 C-47.17499923706055,51.125 -47.474998474121094,51.71500015258789 -47.70500183105469,52.334999084472656 C-49.744998931884766,57.80500030517578 -50.05500030517578,63.435001373291016 -49.14500045776367,69.15499877929688 C-48.8849983215332,70.82499694824219 -48.255001068115234,72.3949966430664 -47.17499923706055,73.74500274658203 C-46.375,74.75499725341797 -45.39500045776367,75.59500122070312 -44.03499984741211,75.58499908447266 C-42.64500045776367,75.58499908447266 -41.28499984741211,75.79499816894531 -39.904998779296875,75.84500122070312 C-38.44499969482422,75.90499877929688 -38.45500183105469,75.92500305175781 -38.46500015258789,77.36499786376953 C-38.474998474121094,79.5250015258789 -38.474998474121094,81.68499755859375 -38.46500015258789,83.84500122070312 C-38.46500015258789,84.19499969482422 -38.44499969482422,84.6050033569336 -37.92499923706055,84.59500122070312 C-37.45500183105469,84.57499694824219 -37.07500076293945,84.40499877929688 -37.05500030517578,83.88500213623047 C-37.03499984741211,83.34500122070312 -37.084999084472656,82.80500030517578 -37.1150016784668,82.26499938964844 C-37.23500061035156,80.25499725341797 -37.435001373291016,78.23500061035156 -37.3650016784668,76.20500183105469 C-36.654998779296875,76.01499938964844 -36.05500030517578,76.18499755859375 -35.51499938964844,76.33499908447266 C-33.564998626708984,76.875 -32.44499969482422,75.96499633789062 -31.674999237060547,74.31500244140625 C-31.524999618530273,73.99500274658203 -31.354999542236328,73.67500305175781 -31.19499969482422,73.3550033569336 C-30.125,71.18499755859375 -29.565000534057617,68.8550033569336 -28.954999923706055,66.53500366210938 C-27.424999237060547,60.724998474121094 -27.625,54.904998779296875 -28.735000610351562,49.064998626708984 C-28.985000610351562,47.755001068115234 -29.53499984741211,46.904998779296875 -30.975000381469727,46.69499969482422 C-33.165000915527344,46.3849983215332 -35.275001525878906,45.6349983215332 -37.51499938964844,45.60499954223633 C-38.904998779296875,45.595001220703125 -38.8849983215332,45.51499938964844 -39.025001525878906,44.1349983215332 C-39.07500076293945,43.685001373291016 -38.92499923706055,43.10499954223633 -39.46500015258789,42.85499954223633 C-40.525001525878906,42.375 -40.76499938964844,41.32500076293945 -41.30500030517578,40.35499954223633 C-35.345001220703125,42.224998474121094 -29.405000686645508,41.595001220703125 -23.375,40.435001373291016 C-23.684999465942383,41.30500030517578 -24.2450008392334,41.78499984741211 -24.665000915527344,42.345001220703125 C-25.584999084472656,43.57500076293945 -26.104999542236328,44.8849983215332 -26.104999542236328,46.48500061035156 C-26.114999771118164,49.48500061035156 -25.795000076293945,52.474998474121094 -25.774999618530273,55.46500015258789 C-25.71500015258789,65.42500305175781 -24.905000686645508,75.3550033569336 -25.094999313354492,85.32499694824219 C-25.104999542236328,85.73500061035156 -25.475000381469727,86.51499938964844 -24.5049991607666,86.48500061035156 C-23.7549991607666,86.46499633789062 -23.71500015258789,85.91500091552734 -23.725000381469727,85.33499908447266 C-23.735000610351562,84.9749984741211 -23.725000381469727,84.61499786376953 -23.735000610351562,84.25499725341797 C-23.78499984741211,80.7249984741211 -23.834999084472656,77.18499755859375 -23.875,73.6449966430664 C-23.895000457763672,72.41500091552734 -23.875,72.40499877929688 -22.625,72.23500061035156 C-21.204999923706055,72.03500366210938 -19.78499984741211,71.8550033569336 -18.434999465942383,71.29499816894531 C-17.184999465942383,70.7750015258789 -16.575000762939453,69.94499969482422 -16.575000762939453,68.54499816894531 C-16.594999313354492,60.564998626708984 -16.454999923706055,52.584999084472656 -16.674999237060547,44.6150016784668 C-16.774999618530273,41.334999084472656 -17.065000534057617,41.125 -20.274999618530273,41.375 C-22.024999618530273,41.51499938964844 -22.184999465942383,41.665000915527344 -22.174999237060547,43.46500015258789 C-22.135000228881836,47.78499984741211 -22.05500030517578,52.10499954223633 -21.9950008392334,56.415000915527344 C-21.985000610351562,57.07500076293945 -21.975000381469727,57.73500061035156 -21.954999923706055,58.39500045776367 C-21.94499969482422,58.89500045776367 -22.145000457763672,59.20500183105469 -22.665000915527344,59.244998931884766 C-23.065000534057617,59.275001525878906 -23.46500015258789,59.474998474121094 -23.905000686645508,59.244998931884766 C-23.94499969482422,59.084999084472656 -24.03499984741211,58.915000915527344 -24.03499984741211,58.755001068115234 C-24.104999542236328,54.314998626708984 -24.325000762939453,49.8849983215332 -25.024999618530273,45.494998931884766 C-25.084999084472656,45.125 -25.104999542236328,44.79499816894531 -24.80500030517578,44.494998931884766 C-23.364999771118164,43.05500030517578 -22.325000762939453,41.255001068115234 -20.905000686645508,39.80500030517578 C-20.21500015258789,39.1150016784668 -20.024999618530273,38.48500061035156 -20.075000762939453,37.60499954223633 C-20.204999923706055,35.44499969482422 -20.2450008392334,33.28499984741211 -20.385000228881836,31.135000228881836 C-20.454999923706055,30.145000457763672 -20.30500030517578,29.2549991607666 -19.924999237060547,28.344999313354492 C-18.94499969482422,25.96500015258789 -17.9950008392334,23.565000534057617 -17.094999313354492,21.155000686645508 C-15.024999618530273,15.585000038146973 -12.824999809265137,10.074999809265137 -10.395000457763672,4.664999961853027 C-10.164999961853027,4.135000228881836 -10.085000038146973,3.494999885559082 -9.524999618530273,3.1549999713897705 C-8.71500015258789,4.215000152587891 -8.704999923706055,4.215000152587891 -9.1850004196167,5.695000171661377 C-11.954999923706055,14.194999694824219 -13.53499984741211,22.875 -13.345000267028809,31.854999542236328 C-13.305000305175781,33.89500045776367 -12.984999656677246,35.904998779296875 -12.854999542236328,37.94499969482422 C-12.53499984741211,43.275001525878906 -11.824999809265137,48.564998626708984 -10.675000190734863,53.78499984741211 C-9.975000381469727,57.005001068115234 -9.085000038146973,60.165000915527344 -7.614999771118164,63.14500045776367 C-7.804999828338623,61.435001373291016 -8.024999618530273,59.724998474121094 -8.385000228881836,58.03499984741211 C-10.255000114440918,49.275001525878906 -11.175000190734863,40.404998779296875 -11.305000305175781,31.44499969482422 C-11.425000190734863,23.05500030517578 -10.1850004196167,14.835000038146973 -8.335000038146973,6.684999942779541 C-8.255000114440918,6.324999809265137 -8.345000267028809,5.804999828338623 -7.764999866485596,5.65500020980835 C-7.304999828338623,5.84499979019165 -7.025000095367432,6.255000114440918 -6.815000057220459,6.664999961853027 C-5.355000019073486,9.524999618530273 -3.255000114440918,11.925000190734863 -1.184999942779541,14.324999809265137 C-0.4350000023841858,15.194999694824219 -0.0949999988079071,16.0049991607666 -0.16500000655651093,17.204999923706055 C-0.6549999713897705,25.704999923706055 -0.925000011920929,34.21500015258789 -0.2549999952316284,42.724998474121094 C0.08500000089406967,46.974998474121094 0.5550000071525574,51.20500183105469 1.5049999952316284,55.3650016784668 C1.8949999809265137,57.07500076293945 2.434999942779541,58.744998931884766 3.515000104904175,60.19499969482422 C0.5049999952316284,45.8849983215332 0.26499998569488525,31.415000915527344 0.6349999904632568,16.46500015258789 C1.6449999809265137,17.364999771118164 2.3350000381469727,18.024999618530273 3.075000047683716,18.614999771118164 C4.474999904632568,19.725000381469727 5.974999904632568,20.575000762939453 7.855000019073486,20.204999923706055 C11.444999694824219,19.485000610351562 15.104999542236328,19.295000076293945 18.684999465942383,18.53499984741211 C23.614999771118164,17.475000381469727 28.405000686645508,15.925000190734863 33.244998931884766,14.5649995803833 C39.654998779296875,12.744999885559082 45.875,10.425000190734863 51.834999084472656,7.414999961853027 C55.244998931884766,5.684999942779541 58.755001068115234,4.144999980926514 62.084999084472656,2.255000114440918 C62.404998779296875,2.765000104904175 62.165000915527344,3.1549999713897705 62.095001220703125,3.5450000762939453 C59.26499938964844,18.21500015258789 58.125,33.005001068115234 59.125,47.92499923706055 C59.46500015258789,52.834999084472656 60.005001068115234,57.724998474121094 61.654998779296875,62.415000915527344 C61.78499984741211,62.80500030517578 61.845001220703125,63.255001068115234 62.275001525878906,63.625 C62.42499923706055,62.755001068115234 62.255001068115234,62.04499816894531 62.185001373291016,61.334999084472656 C61.654998779296875,56.025001525878906 60.834999084472656,50.744998931884766 60.625,45.404998779296875 C60.07500076293945,31.225000381469727 61.125,17.125 63.095001220703125,3.0850000381469727 C63.23500061035156,2.055000066757202 63.744998931884766,1.215000033378601 64.56500244140625,0.7350000143051147 C68.125,-1.3350000381469727 70.91500091552734,-4.355000019073486 74.125,-6.864999771118164 C78.46499633789062,-10.244999885559082 81.32499694824219,-14.78499984741211 83.09500122070312,-19.875 C85.2750015258789,-26.135000228881836 84.46499633789062,-32.26499938964844 81.26499938964844,-38.10499954223633z M26.524999618530273,-52.64500045776367 C26.364999771118164,-51.345001220703125 26.7549991607666,-49.82500076293945 25.9950008392334,-48.80500030517578 C25.295000076293945,-47.8650016784668 23.96500015258789,-47.39500045776367 22.915000915527344,-46.71500015258789 C20.354999542236328,-45.05500030517578 17.924999237060547,-43.23500061035156 15.484999656677246,-41.32500076293945 C18.665000915527344,-49.474998474121094 22.594999313354492,-57.244998931884766 26.655000686645508,-64.9749984741211 C27.045000076293945,-60.80500030517578 27.014999389648438,-56.71500015258789 26.524999618530273,-52.64500045776367z M-38.334999084472656,48.26499938964844 C-37.10499954223633,49.67499923706055 -36.494998931884766,51.3849983215332 -36.345001220703125,53.185001373291016 C-35.8650016784668,59.1150016784668 -36.974998474121094,64.75499725341797 -39.755001068115234,70.0250015258789 C-40.404998779296875,71.25499725341797 -41.28499984741211,72.33499908447266 -42.474998474121094,73.08499908447266 C-43.60499954223633,73.79499816894531 -44.45500183105469,73.69499969482422 -45.3650016784668,72.74500274658203 C-46.21500015258789,71.8550033569336 -46.69499969482422,70.75499725341797 -47.025001525878906,69.59500122070312 C-47.6150016784668,67.49500274658203 -47.755001068115234,65.34500122070312 -47.71500015258789,63.3849983215332 C-47.724998474121094,58.69499969482422 -46.98500061035156,54.3849983215332 -45.1150016784668,50.255001068115234 C-44.30500030517578,48.45500183105469 -42.92499923706055,47.64500045776367 -41.19499969482422,47.185001373291016 C-40.005001068115234,46.875 -39.095001220703125,47.404998779296875 -38.334999084472656,48.26499938964844z M-57.42601776123047,-18.70600128173828 C-61.6585807800293,-18.69294548034668 -65.06929016113281,-18.14703941345215 -66.72928619384766,-14.227038383483887 C-66.79928588867188,-14.067038536071777 -66.68265533447266,-13.582085609436035 -66.77265167236328,-13.432085990905762 C-66.80265808105469,-13.392086029052734 -62.21500015258789,-4.804999828338623 -62.3650016784668,-4.704999923706055 C-62.814998626708984,-5.315000057220459 -83.71499633789062,-47.775001525878906 -83.91500091552734,-48.494998931884766 C-81.73500061035156,-47.57500076293945 -79.51499938964844,-47.17499923706055 -77.26499938964844,-46.95500183105469 C-77.0250015258789,-46.92499923706055 -76.79499816894531,-46.8650016784668 -76.55500030517578,-46.845001220703125 C-76.13500213623047,-46.80500030517578 -75.63500213623047,-46.744998931884766 -75.58499908447266,-47.334999084472656 C-75.54499816894531,-47.85499954223633 -76.0250015258789,-47.78499984741211 -76.36499786376953,-47.834999084472656 C-78.07499694824219,-48.095001220703125 -79.81500244140625,-48.224998474121094 -81.49500274658203,-48.71500015258789 C-82.28500366210938,-48.95500183105469 -83.3550033569336,-49.03499984741211 -83.55500030517578,-49.935001373291016 C-83.79499816894531,-50.94499969482422 -82.76499938964844,-51.46500015258789 -82.07499694824219,-51.974998474121094 C-78.42500305175781,-54.654998779296875 -74.25499725341797,-56.10499954223633 -69.91500091552734,-57.154998779296875 C-65.23500061035156,-58.29499816894531 -60.44499969482422,-58.625 -55.665000915527344,-58.89500045776367 C-50.39500045776367,-59.185001373291016 -45.125,-59.3849983215332 -39.845001220703125,-59.39500045776367 C-38.165000915527344,-59.404998779296875 -38.21500015258789,-59.39500045776367 -37.60499954223633,-57.78499984741211 C-36.46500015258789,-54.744998931884766 -36.45500183105469,-51.55500030517578 -36.39500045776367,-48.3849983215332 C-36.3650016784668,-46.85499954223633 -36.53499984741211,-46.775001525878906 -38.05500030517578,-46.755001068115234 C-47.28499984741211,-46.6150016784668 -56.51499938964844,-46.85499954223633 -65.74500274658203,-47.165000915527344 C-66.2249984741211,-47.17499923706055 -66.70500183105469,-47.185001373291016 -67.17500305175781,-47.154998779296875 C-67.33499908447266,-47.1349983215332 -67.4749984741211,-46.96500015258789 -67.46499633789062,-46.755001068115234 C-67.45500183105469,-46.57500076293945 -67.40499877929688,-46.415000915527344 -67.2249984741211,-46.32500076293945 C-66.71499633789062,-46.084999084472656 -66.16500091552734,-46.125 -65.63500213623047,-46.10499954223633 C-56.70500183105469,-45.80500030517578 -47.775001525878906,-45.525001525878906 -38.845001220703125,-45.69499969482422 C-36.10499954223633,-45.744998931884766 -36.314998626708984,-45.80500030517578 -36.35499954223633,-43.165000915527344 C-36.474998474121094,-35.915000915527344 -36.6143913269043,-27.581825256347656 -36.714393615722656,-20.32182502746582 C-36.74439239501953,-17.561824798583984 -36.60403060913086,-17.28839683532715 -36.842803955078125,-14.746037483215332 C-36.982425689697266,-13.246973991394043 -37.71571350097656,-11.771445274353027 -38.5957145690918,-10.521445274353027 C-39.515716552734375,-9.201445579528809 -42.36542892456055,-9.695075988769531 -43.785430908203125,-10.435076713562012 C-44.41543197631836,-10.765076637268066 -47.294429779052734,-14.31715202331543 -47.914432525634766,-14.677151679992676 C-50.69443130493164,-16.297151565551758 -54.26301956176758,-18.717910766601562 -57.42601776123047,-18.70600128173828z M-21.71500015258789,32.03499984741211 C-21.795000076293945,33.76499938964844 -21.825000762939453,35.505001068115234 -21.795000076293945,37.244998931884766 C-21.774999618530273,38.10499954223633 -22.065000534057617,38.494998931884766 -22.924999237060547,38.73500061035156 C-25.665000915527344,39.51499938964844 -28.44499969482422,39.775001525878906 -31.354999542236328,39.70500183105469 C-35.1349983215332,40.39500045776367 -38.76499938964844,39.19499969482422 -42.46500015258789,38.45500183105469 C-43.44499969482422,38.255001068115234 -43.8650016784668,37.70500183105469 -43.8849983215332,36.70500183105469 C-43.935001373291016,34.67499923706055 -44.064998626708984,32.6349983215332 -44.1150016784668,30.594999313354492 C-44.14500045776367,29.625 -43.994998931884766,29.53499984741211 -43.095001220703125,29.78499984741211 C-36.564998626708984,31.575000762939453 -29.96500015258789,31.655000686645508 -23.315000534057617,30.53499984741211 C-21.665000915527344,30.2549991607666 -21.635000228881836,30.315000534057617 -21.71500015258789,32.03499984741211z M-11.52658748626709,-4.739407062530518 C-13.516587257385254,-3.099407196044922 -15.764209747314453,-1.5133919715881348 -17.94817543029785,-2.4273457527160645 C-20.159269332885742,-3.5359861850738525 -20.9639892578125,-5.7399210929870605 -22.37471580505371,-6.421540260314941 C-25.80924415588379,-8.035329818725586 -27.44499969482422,-8.135000228881836 -27.485000610351562,-12.015000343322754 C-27.614999771118164,-22.684999465942383 -27.69499969482422,-33.35499954223633 -27.514999389648438,-44.025001525878906 C-27.5049991607666,-44.3849983215332 -27.485000610351562,-44.744998931884766 -27.485000610351562,-45.10499954223633 C-27.475000381469727,-45.775001525878906 -27.114999771118164,-46.03499984741211 -26.46500015258789,-46.05500030517578 C-24.725000381469727,-46.125 -22.9950008392334,-46.23500061035156 -21.2549991607666,-46.32500076293945 C-17.905000686645508,-46.51499938964844 -14.555000305175781,-46.67499923706055 -11.204999923706055,-46.915000915527344 C-10.704999923706055,-46.94499969482422 -9.744999885559082,-46.665000915527344 -9.78499984741211,-47.525001525878906 C-9.824999809265137,-48.3849983215332 -10.71500015258789,-48.01499938964844 -11.255000114440918,-47.98500061035156 C-15.854999542236328,-47.71500015258789 -20.46500015258789,-47.3849983215332 -25.075000762939453,-47.14500045776367 C-27.684999465942383,-47.01499938964844 -27.325000762939453,-46.974998474121094 -27.165000915527344,-49.29499816894531 C-26.985000610351562,-52.10499954223633 -26.725000381469727,-54.915000915527344 -26.485000610351562,-57.724998474121094 C-26.385000228881836,-59.01499938964844 -26.375,-59.005001068115234 -25.135000228881836,-58.994998931884766 C-19.674999237060547,-58.95500183105469 -14.225000381469727,-58.92499923706055 -8.774999618530273,-58.564998626708984 C-2.6649999618530273,-58.165000915527344 3.3949999809265137,-57.46500015258789 9.28499984741211,-55.70500183105469 C10.725000381469727,-55.26499938964844 12.154999732971191,-54.80500030517578 13.414999961853027,-53.95500183105469 C14.505000114440918,-53.224998474121094 14.515000343322754,-52.654998779296875 13.4350004196167,-51.915000915527344 C12.234999656677246,-51.095001220703125 10.845000267028809,-50.69499969482422 9.444999694824219,-50.345001220703125 C6.525000095367432,-49.625 3.5450000762939453,-49.314998626708984 0.574999988079071,-48.935001373291016 C0.2849999964237213,-48.89500045776367 -0.004999999888241291,-48.85499954223633 -0.38499999046325684,-48.80500030517578 C-0.20499999821186066,-47.775001525878906 0.39500001072883606,-47.775001525878906 1.0149999856948853,-47.845001220703125 C5.005000114440918,-48.32500076293945 9.015000343322754,-48.64500045776367 12.805000305175781,-50.1150016784668 C12.96500015258789,-50.17499923706055 13.135000228881836,-50.19499969482422 13.28499984741211,-50.224998474121094 C13.555000305175781,-49.974998474121094 13.375,-49.755001068115234 13.265000343322754,-49.564998626708984 C7.605000019073486,-40.005001068115234 3.305000066757202,-29.764999389648438 -1.3250000476837158,-19.704999923706055 C-2.0250000953674316,-18.174999237060547 -2.765000104904175,-16.665000915527344 -3.434999942779541,-15.135000228881836 C-3.755000114440918,-14.414999961853027 -5.271154403686523,-11.340926170349121 -5.881540298461914,-10.658838272094727 C-8.882362365722656,-6.791368007659912 -9.806588172912598,-6.169406890869141 -11.52658748626709,-4.739407062530518z"/></g><g opacity="1" transform="matrix(1,0,0,1,105.88999938964844,67.44499969482422)"><path fill="rgb(255,255,255)" fill-opacity="1" d=" M16.71500015258789,-6.340000152587891 C16.315000534057617,-5.684999942779541 15.711999893188477,-5.506999969482422 15.20300006866455,-5.2220001220703125 C9.61400032043457,-2.0950000286102295 4.084000110626221,1.128000020980835 -1.2130000591278076,4.736000061035156 C-1.8250000476837158,5.1529998779296875 -2.2809998989105225,5.631999969482422 -2.632999897003174,6.296000003814697 C-3.1480000019073486,7.265999794006348 -3.694000005722046,7.390999794006348 -4.452000141143799,6.614999771118164 C-7.770999908447266,3.2209999561309814 -11.670000076293945,0.5099999904632568 -15.1899995803833,-2.6449999809265137 C-15.677000045776367,-3.0820000171661377 -16.09600067138672,-3.5959999561309814 -16.5310001373291,-4.0879998207092285 C-16.70199966430664,-4.2820000648498535 -16.71500015258789,-4.533999919891357 -16.570999145507812,-4.749000072479248 C-16.391000747680664,-5.015999794006348 -16.138999938964844,-4.900000095367432 -15.9399995803833,-4.781000137329102 C-15.633000373840332,-4.5980000495910645 -15.343000411987305,-4.382999897003174 -15.057999610900879,-4.165999889373779 C-11.680000305175781,-1.590999960899353 -8.166000366210938,0.8149999976158142 -5.053999900817871,3.7249999046325684 C-4.367000102996826,4.368000030517578 -3.88100004196167,4.435999870300293 -3.0920000076293945,3.8410000801086426 C2.322000026702881,-0.2409999966621399 8.32800006866455,-3.359999895095825 14.189000129699707,-6.7179999351501465 C15.170000076293945,-7.2789998054504395 15.944999694824219,-7.390999794006348 16.71500015258789,-6.340000152587891z"/></g><g opacity="1" transform="matrix(1,0,0,1,116.65599822998047,122.7300033569336)"><path fill="rgb(255,255,255)" fill-opacity="1" d=" M-0.02800000086426735,-10.029000282287598 C-1.503999948501587,-9.258999824523926 -2.802000045776367,-8.557000160217285 -4.122000217437744,-7.9019999504089355 C-4.861999988555908,-7.533999919891357 -4.51800012588501,-6.988999843597412 -4.38700008392334,-6.514999866485596 C-3.51200008392334,-3.3420000076293945 -2.750999927520752,-0.14100000262260437 -2.078000068664551,3.0810000896453857 C-1.600000023841858,5.363999843597412 -1.1399999856948853,7.6519999504089355 -0.6679999828338623,9.935999870300293 C-0.5830000042915344,10.345000267028809 -0.4189999997615814,10.751999855041504 -0.5550000071525574,11.168999671936035 C-0.6039999723434448,11.319999694824219 -0.7400000095367432,11.472999572753906 -0.878000020980835,11.557000160217285 C-1.1169999837875366,11.704000473022461 -1.3589999675750732,11.572999954223633 -1.5130000114440918,11.39799976348877 C-1.9279999732971191,10.92300033569336 -1.968999981880188,10.295999526977539 -2.0810000896453857,9.717000007629395 C-2.874000072479248,5.605000019073486 -3.6419999599456787,1.4889999628067017 -4.420000076293945,-2.625999927520752 C-4.664000034332275,-3.9189999103546143 -4.9039998054504395,-5.2129998207092285 -5.160999774932861,-6.504000186920166 C-5.369999885559082,-7.558000087738037 -5.081999778747559,-8.345999717712402 -4.122000217437744,-8.935999870300293 C-2.8989999294281006,-9.687000274658203 -1.7489999532699585,-10.560999870300293 -0.4399999976158142,-11.163000106811523 C0.7379999756813049,-11.704000473022461 1.25600004196167,-11.45199966430664 1.3969999551773071,-10.182000160217285 C2.013000011444092,-4.631999969482422 3.427999973297119,0.7540000081062317 4.692999839782715,6.171000003814697 C4.860000133514404,6.888999938964844 5.369999885559082,7.947000026702881 4.400000095367432,8.17300033569336 C3.568000078201294,8.368000030517578 3.313999891281128,7.23199987411499 3.0950000286102295,6.500999927520752 C1.975000023841858,2.7699999809265137 1.1970000267028809,-1.0379999876022339 0.6200000047683716,-4.88700008392334 C0.375,-6.52400016784668 0.2029999941587448,-8.173999786376953 -0.02800000086426735,-10.029000282287598z"/></g><g opacity="1" transform="matrix(1,0,0,1,118.78700256347656,134.72999572753906)"><path fill="rgb(255,255,255)" fill-opacity="1" d=" M6.548999786376953,-3.6410000324249268 C5.86299991607666,-2.4860000610351562 4.9629998207092285,-1.8250000476837158 3.9709999561309814,-1.315999984741211 C0.890999972820282,0.2630000114440918 -2.2119998931884766,1.7970000505447388 -5.307000160217285,3.3469998836517334 C-5.466000080108643,3.4260001182556152 -5.63100004196167,3.496999979019165 -5.798999786376953,3.555000066757202 C-6.053999900817871,3.6419999599456787 -6.315000057220459,3.559000015258789 -6.431000232696533,3.3570001125335693 C-6.548999786376953,3.1530001163482666 -6.48199987411499,2.875 -6.291999816894531,2.7019999027252197 C-5.940000057220459,2.381999969482422 -5.5980000495910645,2.0350000858306885 -5.198999881744385,1.7860000133514404 C-2.3580000400543213,0.01899999938905239 0.5989999771118164,-1.5390000343322754 3.632999897003174,-2.944999933242798 C4.493000030517578,-3.3440001010894775 5.421000003814697,-3.5510001182556152 6.548999786376953,-3.6410000324249268z"/></g><g opacity="1" transform="matrix(1,0,0,1,13.946000099182129,39.79499816894531)"><path fill="rgb(255,255,255)" fill-opacity="1" d=" M0.22200000286102295,0.5590000152587891 C-0.2630000114440918,0.4519999921321869 -0.8859999775886536,0.6919999718666077 -0.9929999709129333,0.04600000008940697 C-1.100000023841858,-0.6019999980926514 -0.5230000019073486,-0.5130000114440918 -0.15199999511241913,-0.4880000054836273 C0.2669999897480011,-0.45899999141693115 0.8849999904632568,-0.6919999718666077 0.9950000047683716,-0.02500000037252903 C1.1009999513626099,0.621999979019165 0.531000018119812,0.4819999933242798 0.22200000286102295,0.5590000152587891z"/></g><g opacity="1" transform="matrix(1,0,0,1,80.39199829101562,38.86899948120117)"><path fill="rgb(255,255,255)" fill-opacity="1" d=" M0.33399999141693115,-0.6169999837875366 C0.5239999890327454,-0.6169999837875366 0.703000009059906,-0.6209999918937683 0.8809999823570251,-0.6159999966621399 C1.2610000371932983,-0.6060000061988831 1.6089999675750732,-0.5450000166893005 1.590000033378601,-0.04500000178813934 C1.5759999752044678,0.33399999141693115 1.309000015258789,0.4440000057220459 0.9940000176429749,0.4690000116825104 C0.2840000092983246,0.5249999761581421 -0.42800000309944153,0.5839999914169312 -1.1399999856948853,0.6110000014305115 C-1.4140000343322754,0.6209999918937683 -1.562999963760376,0.4000000059604645 -1.5859999656677246,0.15000000596046448 C-1.6089999675750732,-0.09700000286102295 -1.5169999599456787,-0.34599998593330383 -1.24399995803833,-0.3959999978542328 C-0.718999981880188,-0.492000013589859 -0.18700000643730164,-0.5460000038146973 0.33399999141693115,-0.6169999837875366z"/></g><g opacity="1" transform="matrix(1,0,0,1,44.62800216674805,144.39199829101562)"><path fill="rgb(255,255,255)" fill-opacity="1" d="M0 0"/></g></g><g clip-path="url(#__lottie_element_196)" style="display: none;"><g style="display: none;"><g><path/></g></g></g><g clip-path="url(#__lottie_element_189)" style="display: block;" transform="matrix(1,0,0,1,0,0)" opacity="1"><g transform="matrix(0.9781469702720642,0,0,0.9781469702720642,129.5030517578125,127.21395111083984)" opacity="0.14568666666666857" style="display: block;"><g opacity="1" transform="matrix(1,0,0,1,4.15500020980835,4.210000038146973)"><path fill="rgb(255,255,255)" fill-opacity="1" d=" M2.3450000286102295,-3.640000104904175 C0.9449999928474426,-3.9600000381469727 -0.2549999952316284,-3.490000009536743 -1.274999976158142,-2.569999933242798 C-2.765000104904175,-1.2300000190734863 -3.505000114440918,0.5199999809265137 -3.755000114440918,2.4600000381469727 C-3.9049999713897705,3.6500000953674316 -3.625,3.9600000381469727 -2.484999895095825,3.630000114440918 C-0.014999999664723873,2.930000066757202 2.065000057220459,1.600000023841858 3.555000066757202,-0.5600000023841858 C3.7950000762939453,-0.9100000262260437 3.8949999809265137,-1.309999942779541 3.8949999809265137,-1.7400000095367432 C3.9049999713897705,-2.7300000190734863 3.375,-3.4100000858306885 2.3450000286102295,-3.640000104904175z M-1.8949999809265137,1.4800000190734863 C-1.3250000476837158,-0.8799999952316284 -0.10499999672174454,-1.9500000476837158 2.075000047683716,-1.8799999952316284 C1.0449999570846558,-0.20999999344348907 -0.42500001192092896,0.5299999713897705 -1.8949999809265137,1.4800000190734863z"/></g></g></g><g clip-path="url(#__lottie_element_182)" style="display: none;"><g style="display: none;"><g><path/></g></g></g><g clip-path="url(#__lottie_element_175)" transform="matrix(1,0,0,1,0.75,4.75)" opacity="1" style="display: none;"><g transform="matrix(0.9667432308197021,0,0,0.9667432308197021,89.88668823242188,121.78002166748047)" opacity="0.133027142857143" style="display: none;"><g opacity="1" transform="matrix(1,0,0,1,4.894999980926514,3.809999942779541)"><path fill="rgb(255,255,255)" fill-opacity="1" d=" M4.554999828338623,1.5299999713897705 C4.554999828338623,-0.1899999976158142 2.6649999618530273,-2.430000066757202 0.625,-3.140000104904175 C-0.375,-3.4800000190734863 -1.3550000190734863,-3.559999942779541 -2.3550000190734863,-3.1600000858306885 C-4.235000133514404,-2.390000104904175 -4.644999980926514,-0.49000000953674316 -3.075000047683716,0.800000011920929 C-1.184999942779541,2.3499999046325684 1.1749999523162842,2.9000000953674316 3.484999895095825,3.490000009536743 C3.765000104904175,3.559999942779541 4.304999828338623,3.4000000953674316 4.244999885559082,3.240000009536743 C3.9549999237060547,2.569999933242798 4.644999980926514,2.140000104904175 4.554999828338623,1.5299999713897705z M-1.4249999523162842,-0.25 C-1.7450000047683716,-0.4000000059604645 -2.0850000381469727,-0.6499999761581421 -2.0250000953674316,-1.059999942779541 C-1.9450000524520874,-1.5700000524520874 -1.4850000143051147,-1.6299999952316284 -1.065000057220459,-1.659999966621399 C0.08500000089406967,-1.7599999904632568 1.024999976158142,-1.2799999713897705 1.875,-0.5699999928474426 C2.565000057220459,0.009999999776482582 3.115000009536743,0.699999988079071 3.255000114440918,1.840000033378601 C1.6950000524520874,1.149999976158142 0.125,0.46000000834465027 -1.4249999523162842,-0.25z"/></g></g></g><g transform="matrix(0.9940127730369568,-0.10926395654678345,0.10926395654678345,0.9940127730369568,154.51718139648438,25.462039947509766)" opacity="1" style="display: block;"><g opacity="1" transform="matrix(1,0,0,1,27.040000915527344,37.9379997253418)"><path fill="rgb(255,255,255)" fill-opacity="1" d=" M-2.5299999713897705,27.479999542236328 C-5.630000114440918,29.389999389648438 -9.069999694824219,29.700000762939453 -12.5600004196167,29.770000457763672 C-14.65999984741211,29.809999465942383 -16.209999084472656,28.780000686645508 -17.309999465942383,27.020000457763672 C-17.850000381469727,26.149999618530273 -18.15999984741211,25.170000076293945 -18.420000076293945,24.190000534057617 C-21.149999618530273,13.930000305175781 -21.450000762939453,3.5999999046325684 -19.31999969482422,-6.800000190734863 C-18.290000915527344,-11.819999694824219 -16.31999969482422,-16.520000457763672 -14.430000305175781,-21.25 C-14.199999809265137,-21.829999923706055 -13.789999961853027,-22.3799991607666 -13.9399995803833,-23.170000076293945 C-14.880000114440918,-22.860000610351562 -15.15999984741211,-22.09000015258789 -15.479999542236328,-21.43000030517578 C-17.600000381469727,-16.989999771118164 -19.610000610351562,-12.510000228881836 -20.649999618530273,-7.659999847412109 C-20.75,-7.179999828338623 -20.920000076293945,-6.710000038146973 -21.100000381469727,-6.090000152587891 C-24.290000915527344,-11.369999885559082 -25.059999465942383,-16.75 -22.030000686645508,-21.969999313354492 C-18.520000457763672,-28 -13.039999961853027,-30.8700008392334 -5.900000095367432,-30.149999618530273 C-5.840000152587891,-31.079999923706055 -6.519999980926514,-31.18000030517578 -7.059999942779541,-31.329999923706055 C-8.34000015258789,-31.690000534057617 -9.649999618530273,-31.84000015258789 -10.979999542236328,-31.690000534057617 C-19.90999984741211,-30.719999313354492 -26.790000915527344,-22.31999969482422 -25.8799991607666,-13.380000114440918 C-25.56999969482422,-10.279999732971191 -24.690000534057617,-7.360000133514404 -21.969999313354492,-5.409999847412109 C-21.31999969482422,-4.940000057220459 -21.280000686645508,-4.389999866485596 -21.399999618530273,-3.680000066757202 C-21.639999389648438,-2.3299999237060547 -21.940000534057617,-0.9700000286102295 -21.989999771118164,0.4000000059604645 C-22.209999084472656,6.340000152587891 -22.34000015258789,12.270000457763672 -21.239999771118164,18.149999618530273 C-20.760000228881836,20.690000534057617 -20.18000030517578,23.200000762939453 -19.420000076293945,25.65999984741211 C-18.579999923706055,28.43000030517578 -15.460000038146973,31.84000015258789 -11.989999771118164,31.329999923706055 C-11.890000343322754,31.309999465942383 -11.789999961853027,31.31999969482422 -11.6899995803833,31.329999923706055 C-11.609999656677246,31.309999465942383 -11.520000457763672,31.299999237060547 -11.430000305175781,31.299999237060547 C-10.630000114440918,31.280000686645508 -9.699999809265137,30.969999313354492 -8.859999656677246,31.010000228881836 C-8.75,30.979999542236328 -8.609999656677246,30.959999084472656 -8.460000038146973,30.959999084472656 C-5.389999866485596,30.889999389648438 -2.859999895095825,29.360000610351562 -0.2800000011920929,27.959999084472656 C0.2800000011920929,27.65999984741211 0.8500000238418579,27.350000381469727 1.0700000524520874,26.56999969482422 C-0.4099999964237213,26.09000015258789 -1.5099999904632568,26.850000381469727 -2.5299999713897705,27.479999542236328z M25.09000015258789,2.680000066757202 C24.43000030517578,1.4299999475479126 23.489999771118164,0.5600000023841858 21.969999313354492,0.6399999856948853 C20.489999771118164,0.7099999785423279 19.579999923706055,1.6299999952316284 18.93000030517578,2.859999895095825 C18.709999084472656,3.2799999713897705 18.420000076293945,3.799999952316284 19,4.110000133514404 C19.489999771118164,4.360000133514404 19.700000762939453,3.819999933242798 19.979999542236328,3.5299999713897705 C20.229999542236328,3.2799999713897705 20.450000762939453,2.9800000190734863 20.729999542236328,2.7699999809265137 C21.709999084472656,2.0199999809265137 22.670000076293945,2.190000057220459 23.34000015258789,3.200000047683716 C24.40999984741211,4.840000152587891 24.25,7.78000020980835 22.809999465942383,9.0600004196167 C21.09000015258789,10.59000015258789 19.1299991607666,11.720000267028809 16.690000534057617,11.640000343322754 C15.970000267028809,11.619999885559082 15.649999618530273,11.699999809265137 15.520000457763672,12.140000343322754 C15.4399995803833,12.729999542236328 15.640000343322754,13.319999694824219 16.1200008392334,13.729999542236328 C16.270000457763672,13.850000381469727 16.420000076293945,13.960000038146973 16.59000015258789,14.050000190734863 C16.799999237060547,14.050000190734863 17.219999313354492,13.9399995803833 17.520000457763672,13.899999618530273 C19.530000686645508,13.680000305175781 21.1299991607666,12.8100004196167 22.799999237060547,11.710000038146973 C25.829999923706055,9.710000038146973 26.790000915527344,5.889999866485596 25.09000015258789,2.680000066757202z"/></g><g opacity="1" transform="matrix(1,0,0,1,44.430999755859375,21.836999893188477)"><path fill="rgb(255,255,255)" fill-opacity="1" d=" M14.079999923706055,21.586999893188477 C14.392000198364258,19.886999130249023 14.704000473022461,18.18600082397461 15.017999649047852,16.486000061035156 C15.093999862670898,16.073999404907227 15.199000358581543,15.666000366210938 15.253000259399414,15.251999855041504 C15.66100025177002,12.14799976348877 15.319999694824219,11.270999908447266 12.454999923706055,10.022000312805176 C8.91100025177002,8.477999687194824 7.297999858856201,5.789000034332275 6.956999778747559,2.0799999237060547 C6.728000164031982,-0.42100000381469727 6.552000045776367,-2.933000087738037 5.958000183105469,-5.389999866485596 C5.4629998207092285,-7.439000129699707 4.784999847412109,-9.411999702453613 3.746000051498413,-11.25 C0.34700000286102295,-17.263999938964844 -6.0320000648498535,-19.83799934387207 -12.675999641418457,-17.91699981689453 C-14.284000396728516,-17.45199966430664 -15.767999649047852,-16.68400001525879 -17.51799964904785,-15.99899959564209 C-17.361000061035156,-16.600000381469727 -16.982999801635742,-16.781999588012695 -16.68000030517578,-16.972000122070312 C-9.343000411987305,-21.586999893188477 0.01899999938905239,-20.472000122070312 5.091000080108643,-11.961999893188477 C7.091000080108643,-8.607000350952148 7.9679999351501465,-4.890999794006348 8.458000183105469,-1.059000015258789 C8.64799976348877,0.42399999499320984 8.866999626159668,1.9040000438690186 9.12600040435791,3.377000093460083 C9.482000350952148,5.408999919891357 10.619999885559082,6.859000205993652 12.494000434875488,7.741000175476074 C13.25100040435791,8.097000122070312 13.996000289916992,8.484999656677246 14.729000091552734,8.888999938964844 C16.738000869750977,9.998000144958496 17.51799964904785,11.758000373840332 17.381000518798828,13.987000465393066 C17.202999114990234,16.88599967956543 16.10099983215332,19.413999557495117 14.079999923706055,21.586999893188477z"/></g><g opacity="1" transform="matrix(1,0,0,1,22.826000213623047,37.823001861572266)"><path fill="rgb(255,255,255)" fill-opacity="1" d=" M1.7339999675750732,-1.1649999618530273 C1.7640000581741333,-0.8550000190734863 1.7760000228881836,-0.5659999847412109 1.6950000524520874,-0.18199999630451202 C1.4249999523162842,0.5379999876022339 1.3029999732971191,1.2050000429153442 0.7229999899864197,1.6950000524520874 C0.2329999953508377,2.1050000190734863 -0.29600000381469727,2.3550000190734863 -0.9259999990463257,2.065000057220459 C-1.5460000038146973,1.784999966621399 -1.7769999504089355,1.225000023841858 -1.7569999694824219,0.5950000286102295 C-1.6970000267028809,-0.7049999833106995 -1.0770000219345093,-1.7519999742507935 0.08299999684095383,-2.2720000743865967 C0.09799999743700027,-2.2780001163482666 0.08299999684095383,-2.2720000743865967 0.11699999868869781,-2.2799999713897705 C0.5270000100135803,-2.2899999618530273 0.9229999780654907,-2.3550000190734863 1.2829999923706055,-2.0950000286102295 C1.5729999542236328,-1.8849999904632568 1.694000005722046,-1.5149999856948853 1.7339999675750732,-1.1649999618530273z"/></g><g opacity="1" transform="matrix(1,0,0,1,35.900001525878906,31.016000747680664)"><path fill="rgb(255,255,255)" fill-opacity="1" d=" M6.9710001945495605,14.381999969482422 C4.998000144958496,13.84000015258789 3.2239999771118164,12.934000015258789 1.7330000400543213,11.487000465393066 C-0.21799999475479126,9.592000007629395 -1.8450000286102295,7.453000068664551 -3.049999952316284,5.01800012588501 C-5.835999965667725,-0.6140000224113464 -6.974999904632568,-6.627999782562256 -7.072999954223633,-12.866999626159668 C-7.080999851226807,-13.366000175476074 -7.291999816894531,-14.197999954223633 -6.681000232696533,-14.277000427246094 C-5.882999897003174,-14.380999565124512 -5.9770002365112305,-13.465999603271484 -5.875,-12.942999839782715 C-5.498000144958496,-11.005000114440918 -5.196000099182129,-9.053000450134277 -4.8520002365112305,-7.107999801635742 C-3.4509999752044678,0.800000011920929 -0.14300000667572021,7.679999828338623 6.019999980926514,13.015000343322754 C6.425000190734863,13.366000175476074 6.867000102996826,13.675999641418457 7.291999816894531,14.005000114440918 C7.184999942779541,14.130000114440918 7.078000068664551,14.255999565124512 6.9710001945495605,14.381999969482422z"/></g><g opacity="1" transform="matrix(1,0,0,1,16.72599983215332,43.676998138427734)"><path fill="rgb(255,255,255)" fill-opacity="1" d=" M4.716000080108643,6.526000022888184 C2.7190001010894775,8.505000114440918 0.5139999985694885,9.194999694824219 -1.8229999542236328,9.583999633789062 C-2.3570001125335693,9.67300033569336 -2.9040000438690186,9.713000297546387 -3.427999973297119,9.543999671936035 C-4.252999782562256,9.277000427246094 -4.716000080108643,8.746999740600586 -4.693999767303467,7.817999839782715 C-4.571000099182129,2.4179999828338623 -3.4089999198913574,-2.750999927520752 -1.2309999465942383,-7.688000202178955 C-0.8849999904632568,-8.470999717712402 -0.6100000143051147,-9.371999740600586 0.3499999940395355,-9.713000297546387 C0.890999972820282,-9.045999526977539 0.45100000500679016,-8.513999938964844 0.2709999978542328,-7.985000133514404 C-0.9649999737739563,-4.3470001220703125 -2.010999917984009,-0.6610000133514404 -2.5250000953674316,3.1559998989105225 C-2.6449999809265137,4.045000076293945 -2.7190001010894775,4.947000026702881 -2.7149999141693115,5.8429999351501465 C-2.7090001106262207,7.160999774932861 -2.549999952316284,7.257999897003174 -1.1970000267028809,7.014999866485596 C-0.7250000238418579,6.929999828338623 -0.24899999797344208,6.849999904632568 0.20900000631809235,6.711999893188477 C1.6109999418258667,6.288000106811523 3.0199999809265137,6.473999977111816 4.716000080108643,6.526000022888184z"/></g><g opacity="1" transform="matrix(1,0,0,1,39.391998291015625,26.523000717163086)"><path fill="rgb(255,255,255)" fill-opacity="1" d=" M-8.104000091552734,-10.496000289916992 C-6.758999824523926,-5.931000232696533 -5.6539998054504395,-1.3450000286102295 -2.742000102996826,2.5369999408721924 C0.18700000643730164,6.440999984741211 4.510000228881836,8.182999610900879 8.74899959564209,10.130000114440918 C7.038000106811523,10.496000289916992 5.422999858856201,10.357999801635742 3.8489999771118164,9.746000289916992 C-0.2029999941587448,8.17199993133545 -3.371999979019165,5.543000221252441 -5.513999938964844,1.7519999742507935 C-7.275000095367432,-1.3639999628067017 -8.23799991607666,-4.744999885559082 -8.574999809265137,-8.302000045776367 C-8.645000457763672,-9.041999816894531 -8.74899959564209,-9.810999870300293 -8.104000091552734,-10.496000289916992z"/></g><g opacity="1" transform="matrix(1,0,0,1,10.781000137329102,36.56800079345703)"><path fill="rgb(255,255,255)" fill-opacity="1" d=" M-0.15000000596046448,-1.8839999437332153 C0.7879999876022339,-1.9240000247955322 1.5889999866485596,-1.315999984741211 1.6670000553131104,-0.5040000081062317 C1.7640000581741333,0.5049999952316284 0.765999972820282,1.8420000076293945 -0.11800000071525574,1.8860000371932983 C-0.859000027179718,1.9240000247955322 -1.6950000524520874,0.953000009059906 -1.7300000190734863,0.014000000432133675 C-1.7630000114440918,-0.8379999995231628 -0.9190000295639038,-1.8509999513626099 -0.15000000596046448,-1.8839999437332153z"/></g><g opacity="1" transform="matrix(1,0,0,1,18.61199951171875,58.749000549316406)"><path fill="rgb(255,255,255)" fill-opacity="1" d=" M-0.8209999799728394,1.3489999771118164 C-1.3539999723434448,1.3359999656677246 -1.8639999628067017,1.25 -2.066999912261963,0.7580000162124634 C-2.2850000858306885,0.23000000417232513 -1.9149999618530273,-0.164000004529953 -1.5089999437332153,-0.4339999854564667 C-0.6439999938011169,-1.0119999647140503 0.3580000102519989,-1.1959999799728394 1.3680000305175781,-1.312999963760376 C1.6740000247955322,-1.3489999771118164 1.9609999656677246,-1.2200000286102295 2.11899995803833,-0.9269999861717224 C2.2850000858306885,-0.6200000047683716 2.1579999923706055,-0.33500000834465027 1.9529999494552612,-0.11299999803304672 C1.1929999589920044,0.7070000171661377 0.20000000298023224,1.0920000076293945 -0.8209999799728394,1.3489999771118164z"/></g></g><g transform="matrix(0.9718945026397705,0.23541687428951263,-0.23541687428951263,0.9718945026397705,174.7122344970703,32.788028717041016)" opacity="1" style="display: block;"><g opacity="1" transform="matrix(1,0,0,1,4.559999942779541,14.545000076293945)"><path fill="rgb(255,255,255)" fill-opacity="1" d=" M4.309999942779541,14.295000076293945 C3.200000047683716,13.984999656677246 3.259999990463257,14.295000076293945 1.4600000381469727,12.795000076293945 C1.4600000381469727,12.795000076293945 1.4500000476837158,12.78499984741211 1.4500000476837158,12.78499984741211 C1.4500000476837158,12.78499984741211 -0.4300000071525574,10.204999923706055 -0.4300000071525574,10.204999923706055 C-1.0700000524520874,8.994999885559082 -1.7899999618530273,8.718999862670898 -2.359999895095825,6.565000057220459 C-2.7019999027252197,5.2729997634887695 -3.200000047683716,3.9549999237060547 -3.430000066757202,2.5950000286102295 C-3.6700000762939453,1.1749999523162842 -3.940000057220459,-0.24500000476837158 -4.039999961853027,-1.6749999523162842 C-4.309999942779541,-5.394999980926514 -4.050000190734863,-9.095000267028809 -3.130000114440918,-12.725000381469727 C-2.990000009536743,-13.295000076293945 -3.0399999618530273,-14.295000076293945 -2.200000047683716,-14.154999732971191 C-1.6100000143051147,-14.055000305175781 -1.8200000524520874,-13.135000228881836 -1.850000023841858,-12.5649995803833 C-2,-9.095000267028809 -2.4100000858306885,-5.644999980926514 -2.0199999809265137,-2.1649999618530273 C-1.75,0.22499999403953552 -1.3700000047683716,2.5850000381469727 -0.6000000238418579,4.864999771118164 C-0.4699999988079071,5.264999866485596 -0.3799999952316284,5.545000076293945 -0.27000001072883606,5.735000133514404 C-0.27000001072883606,5.735000133514404 0.05999999865889549,6.605000019073486 0.05999999865889549,6.605000019073486 C0.05999999865889549,6.605000019073486 1.1699999570846558,8.595000267028809 1.1699999570846558,8.595000267028809 C2.0299999713897705,10.704999923706055 3.5199999809265137,12.225000381469727 4.309999942779541,14.295000076293945z"/></g></g><g transform="matrix(0.9940127730369568,-0.10926395654678345,0.10926395654678345,0.9940127730369568,166.1734161376953,53.700504302978516)" opacity="1" style="display: block;"><g opacity="1" transform="matrix(1,0,0,1,3.3399999141693115,1.4559999704360962)"><path fill="rgb(255,255,255)" fill-opacity="1" d=" M3.0899999141693115,0.041999999433755875 C1.2410000562667847,1.2050000429153442 -0.6480000019073486,0.7020000219345093 -2.4509999752044678,0.8199999928474426 C-2.7079999446868896,0.8370000123977661 -2.940999984741211,0.6380000114440918 -2.99399995803833,0.42399999499320984 C-3.0899999141693115,0.035999998450279236 -2.865999937057495,-0.27799999713897705 -2.5230000019073486,-0.4399999976158142 C-1.1169999837875366,-1.1030000448226929 0.33399999141693115,-1.2059999704360962 1.8009999990463257,-0.6740000247955322 C2.184000015258789,-0.5350000262260437 2.5250000953674316,-0.2770000100135803 3.0899999141693115,0.041999999433755875z"/></g><g opacity="1" transform="matrix(1,0,0,1,17.584999084472656,2.4260001182556152)"><path fill="rgb(255,255,255)" fill-opacity="1" d=" M-1.6330000162124634,-1.0420000553131104 C-2.3519999980926514,-0.9350000023841858 -2.2149999141693115,-1.0420000553131104 -2.937000036239624,-1.0479999780654907 C-3.0230000019073486,-0.9950000047683716 -3.11299991607666,-0.9369999766349792 -3.2139999866485596,-0.8679999709129333 C-3.7049999237060547,-0.5339999794960022 -4.132999897003174,0.07599999755620956 -3.759000062942505,0.6800000071525574 C-3.3429999351501465,1.3519999980926514 -2.433000087738037,1.340999960899353 -1.6349999904632568,1.524999976158142 C0.5249999761581421,1.2389999628067017 2.572999954223633,1.3450000286102295 4.132999897003174,-0.14900000393390656 C2.315999984741211,-1.524999976158142 0.35100001096725464,-1.3380000591278076 -1.6330000162124634,-1.0420000553131104z"/></g></g><g transform="matrix(0.9613894820213318,-0.2751913070678711,0.2751913070678711,0.9613894820213318,104.38581085205078,126.43826293945312)" opacity="1" style="display: block;"><g opacity="1" transform="matrix(1,0,0,1,0,0)"><path fill="rgb(255,255,255)" fill-opacity="1" d=" M-22.187999725341797,79.81199645996094 C-22.187999725341797,79.81199645996094 -24.5,84.125 -24.5,84.125 C-24.5,84.125 -25.687999725341797,87.18800354003906 -25.687999725341797,87.18800354003906 C-25.687999725341797,87.18800354003906 -25.937999725341797,88.68800354003906 -25.937999725341797,88.68800354003906 C-25.937999725341797,88.68800354003906 -25.5,89.625 -25.5,89.625 C-25.5,89.625 -24.312000274658203,89.125 -24.312000274658203,89.125 C-24.312000274658203,89.125 -22.812000274658203,85.75 -22.812000274658203,85.75 C-22.812000274658203,85.75 -21.812000274658203,82.68800354003906 -21.812000274658203,82.68800354003906 C-21.812000274658203,82.68800354003906 -21.25,80.75 -21.25,80.75 C-21.25,80.75 -21.125,79.25 -21.125,79.25"/></g></g></g></svg>