<svg xmlns="http://www.w3.org/2000/svg" width="44.352" height="495.432" viewBox="0 0 44.352 495.432"><path d="M26.448,49.328V28.352h10.9a42.721,42.721,0,0,1,4.32.192V23.312a40.4,40.4,0,0,1-4.32.24H11.088c-1.1,0-2.976-.1-4.224-.24v5.232c1.2-.144,3.168-.192,4.224-.192H21.216V49.328H8.3a28.38,28.38,0,0,1-4.464-.336v5.472c1.536-.144,3.072-.192,4.464-.192h31.68c1.008,0,2.88.048,4.176.192V48.992a35.056,35.056,0,0,1-4.176.336ZM11.184,71.24l-3.5,3.744a109.125,109.125,0,0,1,12,10.176l3.792-3.888A97.2,97.2,0,0,0,11.184,71.24ZM6.24,103.352,9.456,108.3a52.923,52.923,0,0,0,18.384-7.152A49.47,49.47,0,0,0,44.688,83.768L41.76,78.536A45.7,45.7,0,0,1,25.1,96.632,49.875,49.875,0,0,1,6.24,103.352Zm28.416,18.36L31.392,123.1a45.988,45.988,0,0,1,4.32,7.536l3.36-1.488A84.51,84.51,0,0,0,34.656,121.712Zm6.432-2.3L37.776,120.8a46.647,46.647,0,0,1,4.512,7.392l3.36-1.488A70.307,70.307,0,0,0,41.088,119.408Zm-27.072,1.536-2.736,4.128c2.928,1.68,8.064,5.04,10.512,6.816l2.88-4.128C22.368,126.128,16.992,122.576,14.016,120.944ZM6.048,155.12l2.832,4.944a56.24,56.24,0,0,0,15.936-5.952,57.141,57.141,0,0,0,18.768-17.184l-2.928-5.088c-3.84,6.816-10.368,13.248-18.384,17.808A52.712,52.712,0,0,1,6.048,155.12Zm.672-23.328L3.984,135.92a119.171,119.171,0,0,1,10.656,6.72l2.784-4.272C15.168,136.784,9.7,133.424,6.72,131.792ZM4.32,206.6c1.68-.144,3.648-.24,5.424-.24H37.968c1.344,0,3.216.1,4.8.24v-5.808a40.252,40.252,0,0,1-4.8.288H9.744c-1.776,0-3.7-.144-5.424-.288ZM8.4,182.648c1.536-.1,3.408-.192,5.136-.192H33.744c1.632,0,3.648.1,4.992.192v-5.472a48.939,48.939,0,0,1-4.992.24H13.488c-1.584,0-3.5-.1-5.088-.24Zm11.952,51.288a21.325,21.325,0,0,1,.288,3.84c0,7.968-1.1,14.016-7.968,18.432a18.224,18.224,0,0,1-4.608,2.352l4.416,3.6c12.624-6.48,13.344-15.7,13.344-28.224Zm21.84-9.216a24.843,24.843,0,0,1-4.032.336H11.328a42.916,42.916,0,0,1-5.616-.432v5.328c2.064-.144,3.744-.288,5.616-.288H37.68a29.842,29.842,0,0,1-9.792,9.936l3.984,3.216c5.136-3.648,9.7-9.744,11.76-13.248.384-.576,1.152-1.488,1.584-2.016Zm-32.112,49.9c.1,1.008.192,2.688.192,3.552v16.08c0,1.392-.192,3.072-.24,3.888h5.616c-.1-.96-.192-2.64-.192-3.888v-16.08c0-1.344.1-2.544.192-3.552Zm22.128-.384a37.114,37.114,0,0,1,.288,4.416V286.9c0,8.4-.624,12.144-3.984,15.936-2.928,3.312-7.056,5.136-11.616,6.288L20.88,313.3c3.5-1.2,8.352-3.36,11.472-7.008,3.552-4.032,5.28-8.112,5.28-19.1v-8.544c0-1.728.1-3.168.192-4.416ZM11.184,326.24l-3.5,3.744a109.125,109.125,0,0,1,12,10.176l3.792-3.888A97.2,97.2,0,0,0,11.184,326.24ZM6.24,358.352,9.456,363.3a52.924,52.924,0,0,0,18.384-7.152,49.47,49.47,0,0,0,16.848-17.376l-2.928-5.232a45.7,45.7,0,0,1-16.656,18.1A49.874,49.874,0,0,1,6.24,358.352ZM21.6,382.28c.288-.432.48-.816.72-1.248.528-.96,1.536-2.784,2.5-4.224l-5.568-1.824a22.489,22.489,0,0,1-1.776,4.32A41.055,41.055,0,0,1,2.4,395.192l4.224,3.12A49.73,49.73,0,0,0,18.768,386.6H33.792a36.365,36.365,0,0,1-7.3,14.16c-4.272,4.944-9.984,9.216-19.248,11.952l4.464,3.984c8.976-3.408,14.784-7.824,19.2-13.248a47.506,47.506,0,0,0,8.448-16.32A16.427,16.427,0,0,1,40.7,384.2l-3.936-2.4a11.273,11.273,0,0,1-3.6.48Zm12.336-6.768a57.3,57.3,0,0,1,3.792,6.624l3.168-1.344a69.561,69.561,0,0,0-3.888-6.576Zm5.424-2.064a48.175,48.175,0,0,1,3.936,6.624l3.12-1.392a56.741,56.741,0,0,0-3.984-6.528ZM26.016,428.72H16.752v-4.752h-4.32v4.752H3.216v3.888h22.8ZM20.5,441.68c.96-1.968,2.016-4.944,3.072-7.632l-4.224-.96a57.164,57.164,0,0,1-2.4,7.68ZM11.9,440.672a29.616,29.616,0,0,0-2.112-7.344l-3.7.816a31.3,31.3,0,0,1,1.872,7.44Zm7.968,12.912v7.728H9.216v-7.728ZM5.088,467.792H9.216V465.2H19.872v2.4H24.24V449.648H5.088Zm-3.024-21.84H26.64v-4.08H2.064Zm40.8-19.632-.72.192H28.368v41.28h4.368v-37.1h7.632c-1.344,3.744-3.216,8.784-4.944,12.528,4.416,3.984,5.664,7.488,5.664,10.272,0,1.728-.336,2.976-1.3,3.552a3.924,3.924,0,0,1-1.92.528,26.6,26.6,0,0,1-3.264-.1,10.679,10.679,0,0,1,1.2,4.416,34.447,34.447,0,0,0,3.936-.1,7.568,7.568,0,0,0,3.216-1.152c1.728-1.152,2.448-3.408,2.448-6.624,0-3.264-1.056-7.008-5.472-11.376,2.064-4.176,4.368-9.7,6.24-14.256ZM17.712,480.536v3.408H8.784v-3.408ZM8.784,491v-3.744h8.928V491Zm13.1-14.208H4.368v41.952H8.784v-24.1h13.1ZM30.1,491.1v-3.84H39.36v3.84Zm9.264-10.56v3.408H30.1v-3.408Zm4.56-3.744h-18.1v17.9H39.36v18.336c0,.864-.288,1.152-1.248,1.2-.96,0-4.32.048-7.488-.1a15.932,15.932,0,0,1,1.584,4.608c4.464,0,7.392-.1,9.264-.816,1.824-.768,2.448-2.112,2.448-4.9Z" transform="translate(-2.064 -23.312)" fill="#fff"/></svg>