<svg xmlns="http://www.w3.org/2000/svg" viewBox="0 0 42 42" width="42" height="42" preserveAspectRatio="xMidYMid meet" style="width: 100%; height: 100%; transform: translate3d(0px, 0px, 0px); content-visibility: visible;"><defs><clipPath id="__lottie_element_2"><rect width="42" height="42" x="0" y="0"/></clipPath></defs><g clip-path="url(#__lottie_element_2)"><g transform="matrix(1,0,0,1,1.3500003814697266,1.3500003814697266)" opacity="1" style="display: block;"><g opacity="1" transform="matrix(1,0,0,1,19.340999603271484,19.340999603271484)"><path stroke-linecap="round" stroke-linejoin="round" fill-opacity="0" stroke-dasharray=" 1000 623.638 623.638 623.638 623.638 623.638" stroke-dashoffset="0" stroke="rgb(0,0,0)" stroke-opacity="1" stroke-width="0.7" d=" M19.041000366210938,-0.0010000000474974513 C19.041000366210938,-10.517999649047852 10.515999794006348,-19.041000366210938 0.0010000000474974513,-19.041000366210938 C-10.515999794006348,-19.041000366210938 -19.041000366210938,-10.517999649047852 -19.041000366210938,-0.0010000000474974513 C-19.041000366210938,10.515999794006348 -10.515999794006348,19.041000366210938 0.0010000000474974513,19.041000366210938 C10.515999794006348,19.041000366210938 19.041000366210938,10.515999794006348 19.041000366210938,-0.0010000000474974513z"/></g><g opacity="1" transform="matrix(1,0,0,1,19.34000015258789,19.34000015258789)"><path stroke-linecap="round" stroke-linejoin="round" fill-opacity="0" stroke-dasharray=" 1000 623.638 623.638 623.638 623.638 623.638" stroke-dashoffset="0" stroke="rgb(0,0,0)" stroke-opacity="1" stroke-width="0.7" d=" M17.243000030517578,0 C17.243000030517578,-9.52400016784668 9.52299976348877,-17.242000579833984 0.0010000000474974513,-17.242000579833984 C-9.52400016784668,-17.242000579833984 -17.243000030517578,-9.52400016784668 -17.243000030517578,0 C-17.243000030517578,9.52400016784668 -9.52400016784668,17.242000579833984 0.0010000000474974513,17.242000579833984 C9.52299976348877,17.242000579833984 17.243000030517578,9.52400016784668 17.243000030517578,0z"/></g><g opacity="1" transform="matrix(1,0,0,1,19.34000015258789,19.34000015258789)"><path stroke-linecap="round" stroke-linejoin="round" fill-opacity="0" stroke-dasharray=" 1000 623.638 623.638 623.638 623.638 623.638" stroke-dashoffset="0" stroke="rgb(0,0,0)" stroke-opacity="1" stroke-width="0.7" d=" M13.201000213623047,0 C13.201000213623047,-7.289000034332275 7.290999889373779,-13.199999809265137 0.0010000000474974513,-13.199999809265137 C-7.289999961853027,-13.199999809265137 -13.201000213623047,-7.289000034332275 -13.201000213623047,0 C-13.201000213623047,7.290999889373779 -7.289999961853027,13.199999809265137 0.0010000000474974513,13.199999809265137 C7.290999889373779,13.199999809265137 13.201000213623047,7.290999889373779 13.201000213623047,0z"/></g></g><g transform="matrix(-0.5884839296340942,0.8085088729858398,-0.8085088729858398,-0.5884839296340942,26.984472274780273,15.58464241027832)" opacity="1" style="display: block;"><g opacity="1" transform="matrix(1,0,0,1,8.081999778747559,1.7829999923706055)"><path stroke-linecap="round" stroke-linejoin="round" fill-opacity="0" stroke-dasharray=" 1000 623.638 623.638 623.638 623.638 623.638" stroke-dashoffset="0" stroke="rgb(0,0,0)" stroke-opacity="1" stroke-width="0.7" d=" M0.5590000152587891,-0.0010000000474974513 C0.5590000152587891,-0.3109999895095825 0.3089999854564667,-0.5590000152587891 0.0020000000949949026,-0.5590000152587891 C-0.3070000112056732,-0.5590000152587891 -0.5590000152587891,-0.3109999895095825 -0.5590000152587891,-0.0010000000474974513 C-0.5590000152587891,0.3089999854564667 -0.3070000112056732,0.5590000152587891 0.0020000000949949026,0.5590000152587891 C0.3089999854564667,0.5590000152587891 0.5590000152587891,0.3089999854564667 0.5590000152587891,-0.0010000000474974513z"/></g><g opacity="1" transform="matrix(1,0,0,1,4.908999919891357,6.372000217437744)"><path stroke-linecap="round" stroke-linejoin="round" fill-opacity="0" stroke-dasharray=" 1000 623.638 623.638 623.638 623.638 623.638" stroke-dashoffset="0" stroke="rgb(0,0,0)" stroke-opacity="1" stroke-width="0.7" d=" M-4.609000205993652,6.072000026702881 C-4.609000205993652,6.072000026702881 4.070000171661377,-3.6459999084472656 4.070000171661377,-3.6459999084472656 C4.508999824523926,-4.061999797821045 4.609000205993652,-4.743000030517578 4.2769999504089355,-5.275000095367432 C3.8959999084472656,-5.886000156402588 3.0959999561309814,-6.072999954223633 2.4860000610351562,-5.695000171661377 C2.434000015258789,-5.664000034332275 2.3420000076293945,-5.593999862670898 2.2980000972747803,-5.552999973297119 C2.2980000972747803,-5.552999973297119 2.052999973297119,-5.249000072479248 2.052999973297119,-5.249000072479248 C2.052999973297119,-5.249000072479248 -4.609000205993652,6.072000026702881 -4.609000205993652,6.072000026702881z"/></g></g></g></svg>