<svg xmlns="http://www.w3.org/2000/svg" width="45.504" height="206.016" viewBox="0 0 45.504 206.016"><path d="M17.616,36.416l-4.944,1.3V29.264h5.04V25.088h-5.04v-9.36H8.3v9.408H2.4v4.128H8.3v9.648c-2.4.576-4.608,1.1-6.432,1.536L3.024,44.72c1.68-.432,3.408-.912,5.28-1.44V54.656c0,.672-.24.912-.96.912-.576.048-2.592.048-4.7,0A17.3,17.3,0,0,1,3.984,59.6c3.264.048,5.424-.1,6.816-.768s1.872-1.872,1.872-4.176V42.032l5.472-1.584Zm20.736,1.248a28.545,28.545,0,0,1-7.008,9.888,30.339,30.339,0,0,1-6.432-9.888Zm2.784-4.224-.768.144H33.552V27.008H44.64v-4.08H33.552v-7.2H29.136v7.2H18.384v4.08H29.136v6.576H19.248v4.08h1.92l-.624.192a38.794,38.794,0,0,0,7.44,12.432,38.524,38.524,0,0,1-12.336,5.424,19.04,19.04,0,0,1,2.4,4.032,40.608,40.608,0,0,0,13.1-6.384,33.384,33.384,0,0,0,12.432,6.48,15.836,15.836,0,0,1,2.88-3.792A33.614,33.614,0,0,1,34.656,50.48a34.9,34.9,0,0,0,9.36-15.888Zm4.176,38.976H33.984V76.4H45.312Zm-12,4.992a31.823,31.823,0,0,0-3.744-6.48L26.64,72.272A32.278,32.278,0,0,1,30.192,78.9ZM9.84,69.728a30.993,30.993,0,0,1-8.256,9.36c.672.864,1.824,2.448,2.4,3.36a45.747,45.747,0,0,0,9.936-11.28Zm5.808,19.728c-.384,6-1.1,12.048-2.928,15.984a21.006,21.006,0,0,1,3.024,2.112c2.064-4.368,3.024-10.9,3.552-17.616ZM32.5,84.176V80.048H25.68v-9.6H21.5v9.6H14.736v.624l-3.648-1.2A38.643,38.643,0,0,1,.96,92.864a31.506,31.506,0,0,1,2.5,3.984,38.035,38.035,0,0,0,3.648-3.7v20.64h4.128V87.728a55.442,55.442,0,0,0,3.5-6.1v2.544H21.5v28.9H25.68v-28.9Zm-5.04,6a112.552,112.552,0,0,1,2.208,14.16l3.5-.624a91.01,91.01,0,0,0-2.4-14.16Zm18.576-4.56h-13.2v4.032h4.9v19.008c0,.624-.192.816-.816.816-.672.048-2.736.048-4.992-.048a19.735,19.735,0,0,1,1.248,4.32c3.264,0,5.472-.048,6.96-.72,1.488-.768,1.824-2.064,1.824-4.272v-19.1h4.08Zm-20.016,43.1H16.752v-4.752h-4.32v4.752H3.216v3.888h22.8ZM20.5,141.68c.96-1.968,2.016-4.944,3.072-7.632l-4.224-.96a57.164,57.164,0,0,1-2.4,7.68ZM11.9,140.672a29.616,29.616,0,0,0-2.112-7.344l-3.7.816a31.3,31.3,0,0,1,1.872,7.44Zm7.968,12.912v7.728H9.216v-7.728ZM5.088,167.792H9.216V165.2H19.872v2.4H24.24V149.648H5.088Zm-3.024-21.84H26.64v-4.08H2.064Zm40.8-19.632-.72.192H28.368v41.28h4.368v-37.1h7.632c-1.344,3.744-3.216,8.784-4.944,12.528,4.416,3.984,5.664,7.488,5.664,10.272,0,1.728-.336,2.976-1.3,3.552a3.923,3.923,0,0,1-1.92.528,26.608,26.608,0,0,1-3.264-.1,10.678,10.678,0,0,1,1.2,4.416,34.45,34.45,0,0,0,3.936-.1,7.568,7.568,0,0,0,3.216-1.152c1.728-1.152,2.448-3.408,2.448-6.624,0-3.264-1.056-7.008-5.472-11.376,2.064-4.176,4.368-9.7,6.24-14.256ZM17.712,183.536v3.408H8.784v-3.408ZM8.784,194v-3.744h8.928V194Zm13.1-14.208H4.368v41.952H8.784v-24.1h13.1ZM30.1,194.1v-3.84H39.36v3.84Zm9.264-10.56v3.408H30.1v-3.408Zm4.56-3.744h-18.1v17.9H39.36v18.336c0,.864-.288,1.152-1.248,1.2-.96,0-4.32.048-7.488-.1a15.933,15.933,0,0,1,1.584,4.608c4.464,0,7.392-.1,9.264-.816,1.824-.768,2.448-2.112,2.448-4.9Z" transform="translate(-0.96 -15.728)" fill="#fff"/></svg>