<svg xmlns="http://www.w3.org/2000/svg" viewBox="0 0 106 106" width="106" height="106" preserveAspectRatio="xMidYMid meet" style="width: 100%; height: 100%; transform: translate3d(0px, 0px, 0px); content-visibility: visible;"><defs><clipPath id="__lottie_element_84"><rect width="106" height="106" x="0" y="0"/></clipPath></defs><g clip-path="url(#__lottie_element_84)"><g transform="matrix(1,0,0,1,36.67839813232422,42.85167694091797)" opacity="1" style="display: block;"><g opacity="1" transform="matrix(1,0,0,1,16.878999710083008,33.832000732421875)"><path stroke-linecap="round" stroke-linejoin="round" fill-opacity="0" stroke="rgb(255,255,255)" stroke-opacity="1" stroke-width="1.5" d=" M14.380000114440918,-7.189000129699707 C14.380000114440918,-7.189000129699707 -0.0010000000474974513,7.189000129699707 -0.0010000000474974513,7.189000129699707 C-0.0010000000474974513,7.189000129699707 -14.380000114440918,-7.189000129699707 -14.380000114440918,-7.189000129699707"/></g><g opacity="1" transform="matrix(1,0,0,1,1,0)"><path stroke-linecap="round" stroke-linejoin="round" fill-opacity="0" stroke="rgb(255,255,255)" stroke-opacity="1" stroke-width="1.5" d=" M15.878999710083008,0.75 C15.878999710083008,0.75 15.878999710083008,40.61899948120117 15.878999710083008,40.61899948120117"/></g></g><g transform="matrix(1,0,0,1,36.67839813232422,-31.14832305908203)" opacity="1" style="display: block;"><g opacity="1" transform="matrix(1,0,0,1,16.878999710083008,33.832000732421875)"><path stroke-linecap="round" stroke-linejoin="round" fill-opacity="0" stroke="rgb(255,255,255)" stroke-opacity="1" stroke-width="1.5" d=" M14.380000114440918,-7.189000129699707 C14.380000114440918,-7.189000129699707 -0.0010000000474974513,7.189000129699707 -0.0010000000474974513,7.189000129699707 C-0.0010000000474974513,7.189000129699707 -14.380000114440918,-7.189000129699707 -14.380000114440918,-7.189000129699707"/></g><g opacity="1" transform="matrix(1,0,0,1,1,0)"><path stroke-linecap="round" stroke-linejoin="round" fill-opacity="0" stroke="rgb(255,255,255)" stroke-opacity="1" stroke-width="1.5" d=" M15.878999710083008,0.75 C15.878999710083008,0.75 15.878999710083008,40.61899948120117 15.878999710083008,40.61899948120117"/></g></g></g></svg>