<svg xmlns="http://www.w3.org/2000/svg" viewBox="0 0 300 260" width="300" height="260" preserveAspectRatio="xMidYMid meet" style="width: 100%; height: 100%; transform: translate3d(0px, 0px, 0px); content-visibility: visible;"><defs><clipPath id="__lottie_element_208"><rect width="300" height="260" x="0" y="0"/></clipPath></defs><g clip-path="url(#__lottie_element_208)"><g transform="matrix(1,0,0,1,10.746002197265625,52.8640022277832)" opacity="1" style="display: block;"><g opacity="1" transform="matrix(1,0,0,1,57.61000061035156,51.994998931884766)"><path fill="rgb(255,255,255)" fill-opacity="1" d=" M33.61000061035156,46.845001220703125 C31.739999771118164,46.255001068115234 29.950000762939453,45.46500015258789 28.290000915527344,44.404998779296875 C27,43.584999084472656 25.84000015258789,42.625 24.969999313354492,41.345001220703125 C23.719999313354492,39.48500061035156 23.43000030517578,37.494998931884766 24.190000534057617,35.375 C24.780000686645508,33.70500183105469 25.760000228881836,32.28499984741211 26.979999542236328,31.024999618530273 C29.440000534057617,28.454999923706055 32.34000015258789,26.475000381469727 35.4900016784668,24.875 C37.0099983215332,24.104999542236328 38.72999954223633,23.954999923706055 40.380001068115234,23.604999542236328 C41.9900016784668,23.264999389648438 43.61000061035156,22.975000381469727 45.2400016784668,22.674999237060547 C45.22999954223633,22.645000457763672 45.209999084472656,22.604999542236328 45.20000076293945,22.575000762939453 C44.869998931884766,21.674999237060547 44.58000183105469,20.7450008392334 44.439998626708984,19.795000076293945 C42.25,20.395000457763672 40.099998474121094,21.104999542236328 38,21.9950008392334 C33.56999969482422,23.854999542236328 29.469999313354492,26.235000610351562 26.020000457763672,29.625 C24.579999923706055,31.045000076293945 23.40999984741211,32.665000915527344 22.670000076293945,34.564998626708984 C21.56999969482422,37.404998779296875 21.950000762939453,40.07500076293945 23.709999084472656,42.54499816894531 C24.84000015258789,44.1349983215332 26.350000381469727,45.29499816894531 28.020000457763672,46.26499938964844 C29.799999237060547,47.30500030517578 31.690000534057617,48.095001220703125 33.650001525878906,48.685001373291016 C41.189998626708984,50.94499969482422 48.77000045776367,51.744998931884766 56.38999938964844,51.19499969482422 C56.849998474121094,50.685001373291016 57.34000015258789,50.19499969482422 57.36000061035156,49.3650016784668 C49.400001525878906,50.084999084472656 41.47999954223633,49.29499816894531 33.61000061035156,46.845001220703125z M28.200000762939453,-21.084999084472656 C27.989999771118164,-21.524999618530273 27.780000686645508,-21.975000381469727 27.549999237060547,-22.405000686645508 C27.299999237060547,-22.854999542236328 27.479999542236328,-23.094999313354492 27.920000076293945,-23.155000686645508 C29.389999389648438,-23.325000762939453 30.68000030517578,-24.375 32.2599983215332,-24.03499984741211 C32.36000061035156,-24.014999389648438 32.54999923706055,-24.104999542236328 32.599998474121094,-24.19499969482422 C32.970001220703125,-24.915000915527344 33.7400016784668,-24.985000610351562 34.369998931884766,-25.2549991607666 C36.34000015258789,-26.104999542236328 38.2400016784668,-27.084999084472656 39.97999954223633,-28.325000762939453 C41.150001525878906,-29.165000915527344 42.220001220703125,-30.104999542236328 43.08000183105469,-31.2549991607666 C45.09000015258789,-33.935001373291016 45.349998474121094,-36.78499984741211 43.88999938964844,-39.79499816894531 C43.18000030517578,-41.255001068115234 42.13999938964844,-42.474998474121094 40.939998626708984,-43.55500030517578 C39.369998931884766,-44.96500015258789 37.61000061035156,-46.07500076293945 35.720001220703125,-47.005001068115234 C31.399999618530273,-49.125 26.81999969482422,-50.345001220703125 22.06999969482422,-50.98500061035156 C16.459999084472656,-51.744998931884766 10.880000114440918,-51.57500076293945 5.300000190734863,-50.724998474121094 C-2.7899999618530273,-49.48500061035156 -10.4399995803833,-46.974998474121094 -17.510000228881836,-42.80500030517578 C-19.239999771118164,-41.78499984741211 -20.860000610351562,-40.625 -22.610000610351562,-39.29499816894531 C-22.260000228881836,-39.29499816894531 -22.209999084472656,-39.275001525878906 -22.18000030517578,-39.29499816894531 C-20.020000457763672,-40.45500183105469 -17.8799991607666,-41.6349983215332 -15.710000038146973,-42.76499938964844 C-5.960000038146973,-47.82500076293945 4.400000095367432,-50.334999084472656 15.390000343322754,-50.255001068115234 C20.59000015258789,-50.21500015258789 25.670000076293945,-49.435001373291016 30.600000381469727,-47.755001068115234 C33.869998931884766,-46.64500045776367 36.970001220703125,-45.224998474121094 39.63999938964844,-42.974998474121094 C40.97999954223633,-41.845001220703125 42.119998931884766,-40.54499816894531 42.84000015258789,-38.915000915527344 C43.86000061035156,-36.6150016784668 43.650001525878906,-34.415000915527344 42.20000076293945,-32.345001220703125 C41.369998931884766,-31.155000686645508 40.29999923706055,-30.225000381469727 39.130001068115234,-29.395000457763672 C36.7400016784668,-27.71500015258789 34.130001068115234,-26.46500015258789 31.350000381469727,-25.614999771118164 C21.729999542236328,-22.665000915527344 11.899999618530273,-21.295000076293945 1.8300000429153442,-22.165000915527344 C-1.590000033378601,-22.46500015258789 -4.949999809265137,-23.155000686645508 -8.119999885559082,-24.565000534057617 C-9.479999542236328,-25.165000915527344 -10.729999542236328,-25.924999237060547 -11.710000038146973,-27.065000534057617 C-13.0600004196167,-28.625 -13.489999771118164,-30.415000915527344 -12.9399995803833,-32.415000915527344 C-12.640000343322754,-33.505001068115234 -12.09000015258789,-34.46500015258789 -11.420000076293945,-35.3650016784668 C-10.100000381469727,-37.125 -8.539999961853027,-38.64500045776367 -6.809999942779541,-39.98500061035156 C-2.809999942779541,-43.1150016784668 1.659999966621399,-45.39500045776367 6.349999904632568,-47.255001068115234 C8.010000228881836,-47.904998779296875 9.710000038146973,-48.415000915527344 11.479999542236328,-48.685001373291016 C11.789999961853027,-48.73500061035156 12.180000305175781,-48.665000915527344 12.420000076293945,-49.095001220703125 C11.430000305175781,-49.21500015258789 10.5,-49.17499923706055 9.579999923706055,-48.95500183105469 C2.259999990463257,-47.21500015258789 -4.269999980926514,-43.915000915527344 -9.880000114440918,-38.875 C-11.050000190734863,-37.834999084472656 -12.069999694824219,-36.654998779296875 -12.930000305175781,-35.345001220703125 C-15.539999961853027,-31.344999313354492 -14.729999542236328,-27.225000381469727 -10.789999961853027,-24.524999618530273 C-9.380000114440918,-23.565000534057617 -7.820000171661377,-22.924999237060547 -6.210000038146973,-22.395000457763672 C-4.769999980926514,-21.924999237060547 -3.299999952316284,-21.545000076293945 -1.809999942779541,-21.30500030517578 C-1.190000057220459,-21.204999923706055 -1.0399999618530273,-20.954999923706055 -1.3799999952316284,-20.415000915527344 C-1.5199999809265137,-20.19499969482422 -1.6399999856948853,-19.954999923706055 -1.7699999809265137,-19.71500015258789 C-5.090000152587891,-13.8149995803833 -8.470000267028809,-7.954999923706055 -11.930000305175781,-2.1449999809265137 C-15.989999771118164,4.664999961853027 -20.059999465942383,11.46500015258789 -24.09000015258789,18.28499984741211 C-24.530000686645508,19.024999618530273 -25.010000228881836,19.315000534057617 -25.8799991607666,19.344999313354492 C-29.309999465942383,19.4950008392334 -32.709999084472656,19.94499969482422 -36.060001373291016,20.684999465942383 C-39.54999923706055,21.454999923706055 -42.970001220703125,22.415000915527344 -46.15999984741211,24.065000534057617 C-47.790000915527344,24.915000915527344 -49.29999923706055,25.934999465942383 -50.59000015258789,27.2450008392334 C-51.33000183105469,28.0049991607666 -51.83000183105469,28.885000228881836 -52.16999816894531,30.19499969482422 C-51.25,29.5049991607666 -50.540000915527344,29.045000076293945 -49.91999816894531,28.485000610351562 C-47.86000061035156,26.655000686645508 -45.5,25.344999313354492 -42.939998626708984,24.375 C-38.279998779296875,22.614999771118164 -33.439998626708984,21.674999237060547 -28.510000228881836,21.174999237060547 C-27.43000030517578,21.065000534057617 -26.329999923706055,21.165000915527344 -25.260000228881836,21.125 C-23.969999313354492,21.084999084472656 -22.729999542236328,20.704999923706055 -21.360000610351562,20.844999313354492 C-18.790000915527344,21.094999313354492 -16.209999084472656,21.225000381469727 -13.670000076293945,21.71500015258789 C-10.109999656677246,22.385000228881836 -6.650000095367432,23.364999771118164 -3.390000104904175,24.96500015258789 C-1.8200000524520874,25.735000610351562 -0.3499999940395355,26.655000686645508 0.800000011920929,28.0049991607666 C2.4800000190734863,30.0049991607666 2.490000009536743,32.04499816894531 0.8299999833106995,34.04499816894531 C0.17000000178813934,34.845001220703125 -0.6200000047683716,35.505001068115234 -1.440000057220459,36.1150016784668 C-2.700000047683716,37.03499984741211 -4.039999961853027,37.82500076293945 -5.420000076293945,38.564998626708984 C-9.6899995803833,40.834999084472656 -14.220000267028809,42.415000915527344 -18.93000030517578,43.45500183105469 C-25.93000030517578,45.01499938964844 -32.97999954223633,45.80500030517578 -40.13999938964844,44.665000915527344 C-43.31999969482422,44.165000915527344 -46.400001525878906,43.30500030517578 -49.25,41.755001068115234 C-51.400001525878906,40.584999084472656 -53.209999084472656,39.04499816894531 -54.470001220703125,36.904998779296875 C-55.650001525878906,34.904998779296875 -56.09000015258789,32.744998931884766 -55.5,30.485000610351562 C-54.400001525878906,26.30500030517578 -52.33000183105469,22.975000381469727 -47.689998626708984,22.014999389648438 C-49.209999084472656,21.655000686645508 -50.540000915527344,22.114999771118164 -51.75,22.934999465942383 C-54.9900016784668,25.104999542236328 -56.7599983215332,28.204999923706055 -57.060001373291016,32.064998626708984 C-57.36000061035156,35.78499984741211 -55.619998931884766,38.67499923706055 -52.939998626708984,41.07500076293945 C-51.099998474121094,42.73500061035156 -48.90999984741211,43.82500076293945 -46.59000015258789,44.665000915527344 C-42.47999954223633,46.14500045776367 -38.209999084472656,46.775001525878906 -33.869998931884766,46.78499984741211 C-26.690000534057617,46.80500030517578 -19.690000534057617,45.64500045776367 -12.859999656677246,43.415000915527344 C-8.90999984741211,42.125 -5.150000095367432,40.42499923706055 -1.659999966621399,38.154998779296875 C-0.11999999731779099,37.154998779296875 1.3200000524520874,36.03499984741211 2.4100000858306885,34.525001525878906 C3.9800000190734863,32.32500076293945 4.010000228881836,29.915000915527344 2.490000009536743,27.674999237060547 C1.9299999475479126,26.864999771118164 1.2400000095367432,26.165000915527344 0.4699999988079071,25.55500030517578 C-0.6800000071525574,24.625 -1.9500000476837158,23.895000457763672 -3.2899999618530273,23.28499984741211 C-7.75,21.2450008392334 -12.449999809265137,20.114999771118164 -17.299999237060547,19.55500030517578 C-19.09000015258789,19.354999542236328 -20.889999389648438,19.264999389648438 -22.719999313354492,19.274999618530273 C-22.700000762939453,18.635000228881836 -22.3799991607666,18.30500030517578 -22.170000076293945,17.934999465942383 C-19.829999923706055,13.885000228881836 -17.459999084472656,9.854999542236328 -15.119999885559082,5.804999828338623 C-10.380000114440918,-2.4049999713897705 -5.559999942779541,-10.574999809265137 -1.2899999618530273,-19.045000076293945 C-0.9800000190734863,-19.674999237060547 -0.8500000238418579,-20.514999389648438 -0.27000001072883606,-20.885000228881836 C0.33000001311302185,-21.2549991607666 1.1100000143051147,-20.844999313354492 1.809999942779541,-20.774999618530273 C8.289999961853027,-20.135000228881836 14.710000038146973,-20.684999465942383 21.100000381469727,-21.7549991607666 C22.969999313354492,-22.075000762939453 24.84000015258789,-22.44499969482422 26.600000381469727,-22.774999618530273 C31.84000015258789,-9.28499984741211 38.189998626708984,3.615000009536743 44.869998931884766,16.344999313354492 C45.130001068115234,15.755000114440918 45.5099983215332,15.225000381469727 46,14.8149995803833 C39.849998474121094,2.9549999237060547 33.95000076293945,-9.024999618530273 28.200000762939453,-21.084999084472656z"/></g></g><g style="display: none;"><g><path/></g></g><g style="display: none;"><g><path/></g><g><path/></g><g><path/></g><g><path/></g></g><g transform="matrix(0.9827739596366882,-0.18481168150901794,0.18481168150901794,0.9827739596366882,7.444502830505371,116.2400131225586)" opacity="1" style="display: block;"><g opacity="1" transform="matrix(1,0,0,1,28.9060001373291,10.8100004196167)"><path fill="rgb(32,25,82)" fill-opacity="1" d=" M27.41900062561035,-3.7330000400543213 C27.41900062561035,-3.7330000400543213 21.55900001525879,-6.873000144958496 21.06999969482422,-6.873000144958496 C20.582000732421875,-6.873000144958496 5.511000156402588,-8.572999954223633 5.23199987411499,-8.769000053405762 C4.953000068664551,-8.965999603271484 -6.9770002365112305,-9.383000373840332 -6.9770002365112305,-9.383000373840332 C-6.9770002365112305,-9.383000373840332 -16.395000457763672,-7.710000038146973 -16.743999481201172,-7.639999866485596 C-17.093000411987305,-7.570000171661377 -23.791000366210938,-7.848999977111816 -24.000999450683594,-7.78000020980835 C-24.209999084472656,-7.710000038146973 -27.41900062561035,-7.290999889373779 -27.41900062561035,-7.290999889373779 C-27.41900062561035,-7.290999889373779 -27.41900062561035,-5.685999870300293 -27.41900062561035,-5.685999870300293 C-27.41900062561035,-5.685999870300293 -27.208999633789062,-4.081999778747559 -26.23200035095215,-4.01200008392334 C-25.2549991607666,-3.941999912261963 -18.06999969482422,-2.617000102996826 -18.06999969482422,-2.617000102996826 C-18.06999969482422,-2.617000102996826 -7.117000102996826,-2.617000102996826 -7.117000102996826,-2.617000102996826 C-7.117000102996826,-2.617000102996826 -7.046000003814697,1.1950000524520874 -7.046000003814697,1.1950000524520874 C-7.046000003814697,1.1950000524520874 -7.74399995803833,4.289999961853027 -7.74399995803833,4.289999961853027 C-7.74399995803833,4.289999961853027 -9.48799991607666,5.617000102996826 -9.48799991607666,5.617000102996826 C-9.48799991607666,5.617000102996826 -9.696999549865723,7.918000221252441 -9.696999549865723,7.918000221252441 C-9.696999549865723,7.918000221252441 -4.119999885559082,8.35099983215332 -4.119999885559082,8.35099983215332 C-4.119999885559082,8.35099983215332 3.559000015258789,9.104000091552734 3.559000015258789,9.104000091552734 C3.559000015258789,9.104000091552734 8.163000106811523,9.383000373840332 8.163000106811523,9.383000373840332 C8.163000106811523,9.383000373840332 11.930000305175781,7.568999767303467 11.930000305175781,7.568999767303467 C11.930000305175781,7.568999767303467 17.30299949645996,3.940999984741211 17.30299949645996,3.940999984741211 C17.30299949645996,3.940999984741211 22.07699966430664,5.979000091552734 22.07699966430664,5.979000091552734 C22.07699966430664,5.979000091552734 27.41900062561035,-3.7330000400543213 27.41900062561035,-3.7330000400543213z"/></g><g opacity="1" transform="matrix(1,0,0,1,29.670000076293945,11.295000076293945)"><path fill="rgb(255,255,255)" fill-opacity="1" d=" M28.639999389648438,-4.84499979019165 C28.059999465942383,-5.255000114440918 27.43000030517578,-5.585000038146973 26.760000228881836,-5.835000038146973 C26.43000030517578,-5.965000152587891 25.959999084472656,-6.014999866485596 25.639999389648438,-6.235000133514404 C25.6299991607666,-6.235000133514404 25.6200008392334,-6.244999885559082 25.610000610351562,-6.244999885559082 C25.520000457763672,-6.284999847412109 25.43000030517578,-6.324999809265137 25.34000015258789,-6.375 C22.5,-7.815000057220459 19.549999237060547,-8.984999656677246 16.350000381469727,-9.354999542236328 C14.619999885559082,-9.555000305175781 12.890000343322754,-9.71500015258789 11.15999984741211,-9.854999542236328 C6.320000171661377,-10.234999656677246 1.4700000286102295,-10.395000457763672 -3.369999885559082,-10.875 C-4.909999847412109,-11.03499984741211 -6.449999809265137,-11.045000076293945 -8,-10.635000228881836 C-14.069999694824219,-9.03499984741211 -20.219999313354492,-8.28499984741211 -26.5,-9.055000305175781 C-27.979999542236328,-9.234999656677246 -28.950000762939453,-8.524999618530273 -29.190000534057617,-7.065000057220459 C-29.420000076293945,-5.675000190734863 -28.84000015258789,-4.605000019073486 -27.709999084472656,-3.825000047683716 C-26.700000762939453,-3.134999990463257 -25.540000915527344,-2.805000066757202 -24.350000381469727,-2.6549999713897705 C-20.469999313354492,-2.1649999618530273 -16.579999923706055,-2.0350000858306885 -12.6899995803833,-2.515000104904175 C-11.289999961853027,-2.684999942779541 -9.869999885559082,-2.944999933242798 -8.380000114440918,-2.615000009536743 C-8.569999694824219,-1.715000033378601 -8.84000015258789,-0.9049999713897705 -8.90999984741211,-0.08500000089406967 C-9.039999961853027,1.6649999618530273 -9.3100004196167,3.2049999237060547 -11.010000228881836,4.304999828338623 C-11.960000038146973,4.914999961853027 -12.3100004196167,6.175000190734863 -11.770000457763672,7.385000228881836 C-11.220000267028809,8.625 -10.130000114440918,8.654999732971191 -9.020000457763672,8.484999656677246 C-6.710000038146973,8.135000228881836 -4.480000019073486,8.515000343322754 -2.2699999809265137,9.125 C-0.18000000715255737,9.694999694824219 1.9299999475479126,10.095000267028809 4.059999942779541,10.454999923706055 C7.599999904632568,11.045000076293945 10.569999694824219,10.104999542236328 13.109999656677246,7.605000019073486 C14.050000190734863,6.684999942779541 15.079999923706055,5.84499979019165 16.030000686645508,4.934999942779541 C16.56999969482422,4.414999961853027 16.969999313354492,4.244999885559082 17.700000762939453,4.755000114440918 C18.309999465942383,5.184999942779541 19.19700050354004,5.521999835968018 19.226999282836914,5.5320000648498535 C20.104000091552734,6.02400016784668 20.763999938964844,6.310999870300293 21.634000778198242,6.491000175476074 C22.503999710083008,6.671000003814697 23.416000366210938,6.4120001792907715 23.256000518798828,5.5320000648498535 C23.04599952697754,4.4120001792907715 20.841999053955078,3.9519999027252197 20.832000732421875,3.9619998931884766 C20.014999389648438,3.621000051498413 19.40999984741211,3.2850000858306885 18.84000015258789,3.115000009536743 C18.3700008392334,2.984999895095825 18.1299991607666,2.694999933242798 18.209999084472656,2.184999942779541 C18.3700008392334,1.1749999523162842 17.68000030517578,1.2949999570846558 17.079999923706055,1.3849999904632568 C16.360000610351562,1.4950000047683716 15.770000457763672,1.934999942779541 15.180000305175781,2.3450000286102295 C13.699999809265137,3.384999990463257 12.34000015258789,4.554999828338623 11.029999732971191,5.784999847412109 C9.289999961853027,7.414999961853027 7.309999942779541,8.085000038146973 4.940000057220459,7.764999866485596 C3.2799999713897705,7.545000076293945 1.6200000047683716,7.295000076293945 -0.009999999776482582,6.894999980926514 C-1.4600000381469727,6.545000076293945 -2.9100000858306885,6.175000190734863 -4.400000095367432,5.945000171661377 C-5.889999866485596,5.715000152587891 -7.369999885559082,5.784999847412109 -9.260000228881836,5.994999885559082 C-8.369999885559082,4.994999885559082 -7.570000171661377,4.925000190734863 -6.710000038146973,5.054999828338623 C-5.150000095367432,5.284999847412109 -3.609999895095825,5.255000114440918 -2.059999942779541,4.914999961853027 C1.600000023841858,4.114999771118164 3.380000114440918,0.7850000262260437 2.069999933242798,-2.9549999237060547 C1.1699999570846558,-2.5950000286102295 1.5700000524520874,-1.5549999475479126 0.8999999761581421,-0.8949999809265137 C0.09000000357627869,-1.9049999713897705 -0.9399999976158142,-2.6649999618530273 -2.0399999618530273,-3.3450000286102295 C-3.9700000286102295,-4.534999847412109 -6.050000190734863,-5.195000171661377 -8.350000381469727,-4.974999904632568 C-10.140000343322754,-4.804999828338623 -11.9399995803833,-4.684999942779541 -13.720000267028809,-4.514999866485596 C-17.31999969482422,-4.164999961853027 -20.899999618530273,-4.275000095367432 -24.469999313354492,-4.784999847412109 C-25.43000030517578,-4.925000190734863 -26.3700008392334,-5.15500020980835 -27.040000915527344,-5.925000190734863 C-27.280000686645508,-6.204999923706055 -27.420000076293945,-6.554999828338623 -27.209999084472656,-6.914999961853027 C-27.020000457763672,-7.235000133514404 -26.719999313354492,-7.184999942779541 -26.420000076293945,-7.125 C-22.329999923706055,-6.275000095367432 -18.299999237060547,-7.09499979019165 -14.260000228881836,-7.514999866485596 C-11.930000305175781,-7.755000114440918 -9.640000343322754,-8.1850004196167 -7.429999828338623,-8.975000381469727 C-6.090000152587891,-9.444999694824219 -4.699999809265137,-9.255000114440918 -3.3299999237060547,-9.145000457763672 C1.1399999856948853,-8.774999618530273 5.619999885559082,-8.395000457763672 10.09000015258789,-8.045000076293945 C15.300000190734863,-7.635000228881836 20.440000534057617,-6.925000190734863 25.350000381469727,-4.474999904632568 C25.299999237060547,-4.394999980926514 26.961000442504883,-3.7009999752044678 27.72100067138672,-3.38100004196167 C28.47100067138672,-3.0510001182556152 29.420000076293945,-3.325000047683716 29.239999771118164,-4.125 C29.170000076293945,-4.434999942779541 28.899999618530273,-4.65500020980835 28.639999389648438,-4.84499979019165z M-2.0899999141693115,-0.22499999403953552 C-1.7400000095367432,-0.8149999976158142 -1.2699999809265137,-0.22499999403953552 -0.8500000238418579,-0.1550000011920929 C-0.5099999904632568,-0.10499999672174454 -0.1599999964237213,-0.03500000014901161 0.1899999976158142,-0.04500000178813934 C0.550000011920929,-0.054999999701976776 0.75,0.02500000037252903 0.6000000238418579,0.5649999976158142 C0.49000000953674316,0.7549999952316284 0.33000001311302185,1.0750000476837158 0.14000000059604645,1.3650000095367432 C-0.20999999344348907,1.9149999618530273 -0.6200000047683716,2.075000047683716 -1.090000033378601,1.475000023841858 C-1.2400000095367432,1.2949999570846558 -1.440000057220459,1.1649999618530273 -1.600000023841858,0.9850000143051147 C-1.9199999570846558,0.6449999809265137 -2.369999885559082,0.23499999940395355 -2.0899999141693115,-0.22499999403953552z M-6.980000019073486,-0.925000011920929 C-6.96999979019165,-1.225000023841858 -6.940000057220459,-1.524999976158142 -6.949999809265137,-1.8250000476837158 C-6.989999771118164,-2.694999933242798 -6.510000228881836,-2.8350000381469727 -5.809999942779541,-2.6050000190734863 C-5.25,-2.424999952316284 -4.679999828338623,-2.2149999141693115 -4.139999866485596,-1.975000023841858 C-3.4000000953674316,-1.6549999713897705 -2.690000057220459,-1.3250000476837158 -3.4700000286102295,-0.32499998807907104 C-3.880000114440918,0.2150000035762787 -3.640000104904175,0.8349999785423279 -3.3299999237060547,1.3650000095367432 C-3.0899999141693115,1.7549999952316284 -2.7799999713897705,2.1050000190734863 -2.369999885559082,2.625 C-6.920000076293945,3.4049999713897705 -7.119999885559082,3.244999885559082 -6.980000019073486,-0.925000011920929z"/></g><g opacity="1" transform="matrix(1,0,0,1,129.0760040283203,24.07900047302246)"><path fill="rgb(96,96,96)" fill-opacity="1" d=" M-0.2750000059604645,0.3149999976158142 C-0.2750000059604645,0.3149999976158142 0.2750000059604645,-0.3149999976158142 0.2750000059604645,-0.3149999976158142 C0.11500000208616257,-0.04500000178813934 -0.054999999701976776,0.17499999701976776 -0.2750000059604645,0.3149999976158142z"/></g></g><g transform="matrix(0.9827739596366882,-0.18481168150901794,0.18481168150901794,0.9827739596366882,53.713539123535156,110.83993530273438)" opacity="1" style="display: block;"><g opacity="1" transform="matrix(1,0,0,1,82.6050033569336,20.834999084472656)"><path fill="rgb(96,96,96)" fill-opacity="1" d=" M-0.2750000059604645,0.3149999976158142 C-0.2750000059604645,0.3149999976158142 0.2750000059604645,-0.3149999976158142 0.2750000059604645,-0.3149999976158142 C0.11500000208616257,-0.04500000178813934 -0.054999999701976776,0.17499999701976776 -0.2750000059604645,0.3149999976158142z"/></g><g opacity="1" transform="matrix(1,0,0,1,41.290000915527344,28.875)"><path fill="rgb(255,255,255)" fill-opacity="1" d=" M40.349998474121094,-7.525000095367432 C38.130001068115234,-7.465000152587891 35.90999984741211,-7.375 33.70000076293945,-7.264999866485596 C32.349998474121094,-7.195000171661377 31.09000015258789,-7.445000171661377 29.84000015258789,-7.934999942779541 C27.15999984741211,-8.994999885559082 24.540000915527344,-10.175000190734863 22.049999237060547,-11.645000457763672 C17.170000076293945,-14.53499984741211 11.949999809265137,-16.604999542236328 6.420000076293945,-17.895000457763672 C3.569999933242798,-18.565000534057617 0.699999988079071,-19.21500015258789 -2.1600000858306885,-19.854999542236328 C-10.0600004196167,-21.645000457763672 -17.93000030517578,-23.4950008392334 -25.309999465942383,-26.96500015258789 C-26.229999542236328,-27.395000457763672 -27.229999542236328,-27.665000915527344 -28.139999389648438,-28.104999542236328 C-29.219999313354492,-28.625 -30.09000015258789,-28.545000076293945 -30.780000686645508,-27.524999618530273 C-36.57899856567383,-21.040000915527344 -40.08599853515625,-12.067999839782715 -40.93000030517578,-3.434999942779541 C-41.040000915527344,-2.0450000762939453 -40.90999984741211,-1.9049999713897705 -39.619998931884766,-1.465000033378601 C-36.040000915527344,-0.26499998569488525 -32.43000030517578,0.8149999976158142 -28.729999542236328,1.6050000190734863 C-19.979999542236328,3.4549999237060547 -11.430000305175781,5.985000133514404 -3.1600000858306885,9.4350004196167 C1.2599999904632568,11.274999618530273 5.610000133514404,13.3149995803833 10.15999984741211,14.824999809265137 C11.470000267028809,15.265000343322754 12.859999656677246,15.524999618530273 14.079999923706055,16.125 C19.56999969482422,18.764999389648438 24.440000534057617,22.344999313354492 29.040000915527344,26.30500030517578 C29.59000015258789,26.78499984741211 29.89699935913086,27.621000289916992 29.927000045776367,28.320999145507812 C29.927000045776367,28.320999145507812 31.583999633789062,28.625 31.583999633789062,28.625 C31.583999633789062,28.625 31.933000564575195,23.042999267578125 31.933000564575195,23.042999267578125 C31.933000564575195,23.042999267578125 33.99100112915039,12.229000091552734 33.99100112915039,12.229000091552734 C33.99100112915039,12.229000091552734 36.676998138427734,4.729000091552734 36.676998138427734,4.729000091552734 C36.676998138427734,4.729000091552734 41.040000915527344,-7.715000152587891 41.040000915527344,-7.715000152587891 C40.86000061035156,-7.59499979019165 40.63999938964844,-7.525000095367432 40.349998474121094,-7.525000095367432z"/></g></g><g transform="matrix(1,0,0,1,62.316009521484375,28.264007568359375)" opacity="1" style="display: block;"><g opacity="1" transform="matrix(1,0,0,1,0,0)"><path fill="rgb(32,25,82)" fill-opacity="1" d=" M83.93399810791016,52.861000061035156 C83.93399810791016,52.861000061035156 84.68399810791016,64.11100006103516 84.68399810791016,64.11100006103516 C84.68399810791016,64.11100006103516 82.68399810791016,74.48600006103516 82.68399810791016,74.48600006103516 C82.68399810791016,74.48600006103516 75.80899810791016,88.98600006103516 75.80899810791016,88.98600006103516 C75.80899810791016,88.98600006103516 70.05899810791016,103.36100006103516 70.05899810791016,103.36100006103516 C70.05899810791016,103.36100006103516 67.55899810791016,111.98600006103516 67.55899810791016,111.98600006103516 C67.55899810791016,111.98600006103516 66.30899810791016,121.86100006103516 66.30899810791016,121.86100006103516 C66.30899810791016,121.86100006103516 66.80899810791016,128.86099243164062 66.80899810791016,128.86099243164062 C66.80899810791016,128.86099243164062 69.55899810791016,133.86099243164062 69.55899810791016,133.86099243164062 C69.55899810791016,133.86099243164062 74.93399810791016,137.98599243164062 74.93399810791016,137.98599243164062 C74.93399810791016,137.98599243164062 80.05899810791016,138.98599243164062 80.05899810791016,138.98599243164062 C80.05899810791016,138.98599243164062 82.80899810791016,129.36099243164062 82.80899810791016,129.36099243164062 C82.80899810791016,129.36099243164062 81.93399810791016,116.48600006103516 81.93399810791016,116.48600006103516 C81.93399810791016,116.48600006103516 87.80899810791016,97.11100006103516 87.80899810791016,97.11100006103516 C87.80899810791016,97.11100006103516 94.43399810791016,85.98600006103516 94.43399810791016,85.98600006103516 C94.43399810791016,85.98600006103516 97.30899810791016,82.23600006103516 97.30899810791016,82.23600006103516 C97.30899810791016,82.23600006103516 97.80899810791016,77.86100006103516 97.80899810791016,77.86100006103516 C97.80899810791016,77.86100006103516 92.05899810791016,62.486000061035156 92.05899810791016,62.486000061035156 C92.05899810791016,62.486000061035156 89.68399810791016,53.236000061035156 89.68399810791016,53.236000061035156 C89.68399810791016,53.236000061035156 83.93399810791016,52.861000061035156 83.93399810791016,52.861000061035156z"/></g><g opacity="1" transform="matrix(1,0,0,1,117.07499694824219,103.81999969482422)"><path fill="rgb(255,255,255)" fill-opacity="1" d=" M115.11499786376953,101.66000366210938 C113.44499969482422,101.54000091552734 111.76499938964844,101.43000030517578 110.08499908447266,101.41000366210938 C99.41500091552734,101.33999633789062 88.74500274658203,101.29000091552734 78.06500244140625,101.22000122070312 C77.43499755859375,101.22000122070312 76.7750015258789,101.3499984741211 76.19499969482422,101.06999969482422 C76.18499755859375,100.8499984741211 76.1449966430664,100.72000122070312 76.17500305175781,100.62000274658203 C78.29499816894531,93.58000183105469 79.44499969482422,86.37999725341797 79.90499877929688,79.05999755859375 C80.34500122070312,71.87000274658203 80.17500305175781,64.68000030517578 79.8550033569336,57.4900016784668 C79.34500122070312,45.849998474121094 77.29499816894531,34.529998779296875 73.3550033569336,23.540000915527344 C71.21499633789062,17.59000015258789 68.38500213623047,11.989999771118164 65.31500244140625,6.489999771118164 C63.37900161743164,5.006999969482422 61.22100067138672,3.8550000190734863 58.93000030517578,3.010999917984009 C59.0880012512207,3.003999948501587 59.23500061035156,2.997999906539917 59.39500045776367,2.990000009536743 C63.224998474121094,0.9300000071525574 64.34500122070312,-2.2100000381469727 64.3550033569336,-5.920000076293945 C64.36499786376953,-8.699999809265137 63.564998626708984,-11.239999771118164 62.05500030517578,-13.5600004196167 C60.23500061035156,-16.34000015258789 57.775001525878906,-18.399999618530273 54.875,-19.950000762939453 C52.55500030517578,-21.200000762939453 50.20500183105469,-22.399999618530273 47.82500076293945,-23.530000686645508 C42.64500045776367,-25.989999771118164 39.875,-30.09000015258789 39.28499984741211,-35.7400016784668 C39.19499969482422,-36.630001068115234 39.1349983215332,-37.529998779296875 39.095001220703125,-38.43000030517578 C38.915000915527344,-42.75 39.3849983215332,-47.04999923706055 39.71500015258789,-51.349998474121094 C40.20500183105469,-57.83000183105469 40.3650016784668,-64.27999877929688 39.165000915527344,-70.70999908447266 C37.814998626708984,-77.9800033569336 34.85499954223633,-84.38999938964844 29.454999923706055,-89.56999969482422 C27.235000610351562,-91.69999694824219 24.704999923706055,-93.41000366210938 22.114999771118164,-95.02999877929688 C18.274999618530273,-97.43000030517578 14.114999771118164,-98.80999755859375 9.604999542236328,-99.16999816894531 C8.8149995803833,-99.2300033569336 8.114999771118164,-99.4000015258789 7.505000114440918,-100.01000213623047 C6.025000095367432,-101.5 4.135000228881836,-102.26000213623047 2.134999990463257,-102.76000213623047 C-1.0750000476837158,-103.56999969482422 -4.164999961853027,-102.94000244140625 -7.215000152587891,-101.9000015258789 C-16.584999084472656,-98.70999908447266 -23.844999313354492,-92.83999633789062 -29.44499969482422,-84.7300033569336 C-34.244998931884766,-77.7699966430664 -36.35499954223633,-70.25 -35.165000915527344,-61.77000045776367 C-34.46500015258789,-56.72999954223633 -33.834999084472656,-51.68000030517578 -33.35499954223633,-46.599998474121094 C-32.415000915527344,-36.599998474121094 -34.14500045776367,-29.100000381469727 -39.14500045776367,-20.530000686645508 C-39.275001525878906,-20.309999465942383 -40.10499954223633,-18.489999771118164 -40.26499938964844,-18.360000610351562 C-40.26499938964844,-18.360000610351562 -41.28499984741211,-16.3799991607666 -41.28499984741211,-16.3799991607666 C-41.28499984741211,-16.3799991607666 -41.32500076293945,-16.290000915527344 -41.32500076293945,-16.290000915527344 C-45.005001068115234,-9.220000267028809 -48.39500045776367,-0.800000011920929 -50.095001220703125,6.960000038146973 C-50.48500061035156,9.739999771118164 -51.23500061035156,15.489999771118164 -51.564998626708984,18.260000228881836 C-51.595001220703125,20.110000610351562 -51.435001373291016,21.93000030517578 -51.1349983215332,23.75 C-50.1349983215332,29.90999984741211 -46.505001068115234,34.040000915527344 -40.875,35.40999984741211 C-40.345001220703125,35.540000915527344 -41.40365219116211,34.68678283691406 -41.22365188598633,34.81678009033203 C-41.213653564453125,34.81678009033203 -39.80500030517578,35.75 -39.79499816894531,35.7599983215332 C-39.678001403808594,35.78099822998047 -39.56700134277344,35.80699920654297 -39.45800018310547,35.83399963378906 C-39.52899932861328,36.013999938964844 -41.014652252197266,35.26778030395508 -41.08365249633789,35.446781158447266 C-41.08365249633789,35.446781158447266 -41.08365249633789,35.45650863647461 -41.08365249633789,35.45650863647461 C-41.10365295410156,35.506507873535156 -41.113651275634766,35.54677963256836 -41.13365173339844,35.59678268432617 C-41.19365310668945,35.75678253173828 -41.26338195800781,35.946781158447266 -41.343379974365234,36.16678237915039 C-41.39338302612305,36.286781311035156 -41.467323303222656,36.02316665649414 -41.5173225402832,36.14316940307617 C-41.58732223510742,36.32316589355469 -42.2071533203125,35.69670104980469 -42.270362854003906,35.878875732421875 C-43.75565719604492,40.34309768676758 -44.83336639404297,44.77455139160156 -45.675201416015625,48.83102035522461 C-47.42937088012695,57.305641174316406 -46.95500183105469,66.80000305175781 -45.375,75.38999938964844 C-44.80500030517578,78.51000213623047 -43.974998474121094,81.58000183105469 -43.3849983215332,84.69999694824219 C-42.89500045776367,87.3499984741211 -40.46500015258789,96.5199966430664 -39.21500015258789,99.88999938964844 C-39.21500015258789,99.88999938964844 -45.42499923706055,99.88999938964844 -45.42499923706055,99.88999938964844 C-68.95500183105469,99.98999786376953 -92.30500030517578,100.72000122070312 -115.59500122070312,102.72000122070312 C-115.83499908447266,102.73999786376953 -116.07499694824219,102.75 -116.31500244140625,102.79000091552734 C-116.42500305175781,102.80999755859375 -116.53500366210938,102.87000274658203 -116.6449966430664,102.91999816894531 C-116.69499969482422,102.94000244140625 -116.74500274658203,102.9800033569336 -116.7750015258789,103.02999877929688 C-116.79499816894531,103.08000183105469 -116.79499816894531,103.13999938964844 -116.82499694824219,103.41000366210938 C-115.67500305175781,103.56999969482422 -114.51499938964844,103.48999786376953 -113.36499786376953,103.41000366210938 C-102.71499633789062,102.75 -92.06500244140625,102.06999969482422 -81.40499877929688,101.7300033569336 C-68.88500213623047,101.33000183105469 3.4149999618530273,101.19999694824219 18.235000610351562,101.22000122070312 C18.235000610351562,101.23999786376953 18.2450008392334,101.2699966430664 18.2450008392334,101.2699966430664 C18.2450008392334,101.2699966430664 53.494998931884766,102.5 53.494998931884766,102.5 C53.494998931884766,102.5 53.64500045776367,102.51000213623047 53.64500045776367,102.51000213623047 C73.42500305175781,102.80999755859375 93.19499969482422,103.12000274658203 112.9749984741211,103.12000274658203 C113.69499969482422,103.12000274658203 114.41500091552734,103.13999938964844 115.13500213623047,103.12999725341797 C115.7750015258789,103.11000061035156 116.76499938964844,103.22000122070312 116.79499816894531,102.4800033569336 C116.82499694824219,101.58000183105469 115.7750015258789,101.70999908447266 115.11499786376953,101.66000366210938z M20.165000915527344,24.1200008392334 C18.405000686645508,27.790000915527344 16.645000457763672,31.459999084472656 14.864999771118164,35.119998931884766 C13.755000114440918,37.38999938964844 12.765000343322754,39.70000076293945 11.755000114440918,42 C10.354999542236328,45.220001220703125 9.975000381469727,48.56999969482422 10.175000190734863,52.02000045776367 C10.505000114440918,57.7599983215332 11.104999542236328,63.470001220703125 12.074999809265137,69.13999938964844 C12.074999809265137,69.13999938964844 15.204999923706055,85.44999694824219 15.204999923706055,85.44999694824219 C16.434999465942383,91.87999725341797 17.5049991607666,97.41999816894531 17.975000381469727,99.88999938964844 C17.975000381469727,99.88999938964844 -26.674999237060547,99.88999938964844 -26.674999237060547,99.88999938964844 C-26.485000610351562,99.79000091552734 -24.165000915527344,87.52999877929688 -24.375,87.61000061035156 C-24.174999237060547,86.5 -24.0049991607666,85.69000244140625 -23.885000228881836,84.87000274658203 C-22.854999542236328,77.72000122070312 -23.985000610351562,70.9000015258789 -27.145000457763672,64.43000030517578 C-28.405000686645508,61.83000183105469 -30.385000228881836,59.689998626708984 -31.96500015258789,57.279998779296875 C-32.185001373291016,56.93000030517578 -32.48500061035156,56.630001068115234 -32.724998474121094,56.290000915527344 C-33.82500076293945,54.7400016784668 -34.275001525878906,53.31999969482422 -33.05500030517578,51.41999816894531 C-30.375,47.2400016784668 -28.03499984741211,42.84000015258789 -25.44499969482422,38.59000015258789 C-21.274999618530273,31.729999542236328 -17.354999542236328,24.719999313354492 -13.46500015258789,17.700000762939453 C-13.175000190734863,17.190000534057617 -12.994999885559082,16.59000015258789 -12.46500015258789,16.209999084472656 C-11.694999694824219,16.59000015258789 -11.154999732971191,17.260000228881836 -10.604999542236328,17.860000610351562 C-7.505000114440918,21.200000762939453 -3.5850000381469727,22.6200008392334 0.8450000286102295,23.25 C7.054999828338623,24.149999618530273 13.145000457763672,23.739999771118164 19.21500015258789,22.389999389648438 C19.735000610351562,22.280000686645508 20.2450008392334,22 20.795000076293945,22.290000915527344 C20.854999542236328,22.989999771118164 20.44499969482422,23.540000915527344 20.165000915527344,24.1200008392334z M22.614999771118164,18.770000457763672 C22.2549991607666,19.56999969482422 21.774999618530273,19.8799991607666 20.895000457763672,20.010000228881836 C17.9950008392334,20.450000762939453 15.135000228881836,21.149999618530273 12.21500015258789,21.530000686645508 C7.204999923706055,22.15999984741211 2.2850000858306885,21.549999237060547 -2.5950000286102295,20.489999771118164 C-4.434999942779541,20.09000015258789 -6.085000038146973,19.219999313354492 -7.505000114440918,17.959999084472656 C-8.625,16.959999084472656 -9.725000381469727,15.949999809265137 -10.835000038146973,14.930000305175781 C-11.244999885559082,14.5600004196167 -11.585000038146973,14.180000305175781 -11.225000381469727,13.550000190734863 C-9.267000198364258,10.083999633789062 -7.166999816894531,5.138000011444092 -6.013999938964844,1.3669999837875366 C-6.017000198364258,1.4010000228881836 -6.019000053405762,1.4299999475479126 -6.025000095367432,1.4700000286102295 C-6.014999866485596,1.4500000476837158 -6.014999866485596,1.440000057220459 -6.005000114440918,1.4199999570846558 C-5.335000038146973,1.4299999475479126 -5.675000190734863,2.25 -5.074999809265137,2.240000009536743 C-4.485000133514404,1.850000023841858 -4.485000133514404,1.149999976158142 -4.324999809265137,0.5299999713897705 C-3.424999952316284,-3.0299999713897705 -3.6449999809265137,-6.610000133514404 -4.144999980926514,-10.1899995803833 C-4.355000019073486,-11.680000305175781 -4.514999866485596,-13.170000076293945 -5.005000114440918,-14.600000381469727 C-5.063000202178955,-14.838000297546387 -5.14300012588501,-15.095000267028809 -5.202000141143799,-15.329999923706055 C-5.23199987411499,-15.460000038146973 -5.255000114440918,-15.529999732971191 -5.324999809265137,-15.649999618530273 C-5.4019999504089355,-15.78499984741211 -5.559000015258789,-15.838000297546387 -5.704999923706055,-15.829999923706055 C-5.704999923706055,-15.829999923706055 -5.715000152587891,-15.829999923706055 -5.715000152587891,-15.829999923706055 C-6.298999786376953,-15.821000099182129 -6.901000022888184,-15.840999603271484 -7.504000186920166,-15.892999649047852 C-9.557000160217285,-16.139999389648438 -11.53600025177002,-17.0049991607666 -13.104999542236328,-18.34000015258789 C-14.71500015258789,-19.709999084472656 -15.895000457763672,-21.530000686645508 -17.604999542236328,-22.780000686645508 C-18.475000381469727,-23.420000076293945 -19.0049991607666,-23.709999084472656 -19.895000457763672,-23.440000534057617 C-19.915000915527344,-23.440000534057617 -19.924999237060547,-23.440000534057617 -19.934999465942383,-23.43000030517578 C-22.46500015258789,-22.459999084472656 -24.354999542236328,-20.6299991607666 -26.235000610351562,-18.790000915527344 C-27.834999084472656,-17.219999313354492 -29.165000915527344,-15.449999809265137 -30.145000457763672,-13.4399995803833 C-33.67499923706055,-6.289999961853027 -36.244998931884766,1.149999976158142 -36.92499923706055,9.15999984741211 C-37.345001220703125,14.09000015258789 -37.03499984741211,19 -36.165000915527344,23.850000381469727 C-35.67499923706055,26.579999923706055 -35.73500061035156,29 -37.42499923706055,31.309999465942383 C-38.01499938964844,32.119998931884766 -38.334999084472656,33.130001068115234 -38.73500061035156,34.06999969482422 C-38.755001068115234,34.130001068115234 -38.78499984741211,34.18000030517578 -38.814998626708984,34.22999954223633 C-38.834999084472656,34.27000045776367 -38.845001220703125,34.29999923706055 -38.8650016784668,34.34000015258789 C-38.91999816894531,34.472999572753906 -38.965999603271484,34.59700012207031 -39.01900100708008,34.72800064086914 C-39.05500030517578,34.71200180053711 -39.09700012207031,34.70000076293945 -39.125,34.68000030517578 C-39.474998474121094,34.61000061035156 -40.224998474121094,34.189998626708984 -40.584999084472656,34.08000183105469 C-47.435001373291016,31.450000762939453 -49.55500030517578,25.950000762939453 -49.64500045776367,19.200000762939453 C-49.724998474121094,13.8100004196167 -48.724998474121094,8.579999923706055 -47.345001220703125,3.4100000858306885 C-45.89500045776367,-1.9900000095367432 -43.724998474121094,-7.119999885559082 -41.244998931884766,-12.130000114440918 C-39.775001525878906,-15.079999923706055 -38.275001525878906,-18.010000228881836 -36.744998931884766,-20.93000030517578 C-32.625,-28.780000686645508 -30.954999923706055,-37.099998474121094 -31.575000762939453,-45.95000076293945 C-31.954999923706055,-51.220001220703125 -32.64500045776367,-56.45000076293945 -33.345001220703125,-61.66999816894531 C-34.42499923706055,-69.83000183105469 -32.42499923706055,-77.06999969482422 -27.78499984741211,-83.77999877929688 C-22.385000228881836,-91.55999755859375 -15.46500015258789,-97.29000091552734 -6.454999923706055,-100.37999725341797 C-3.744999885559082,-101.30999755859375 -1.0149999856948853,-101.87000274658203 1.8450000286102295,-101.30999755859375 C3.875,-100.9000015258789 5.804999828338623,-100.2699966430664 6.994999885559082,-98.37000274658203 C7.295000076293945,-97.87000274658203 7.675000190734863,-97.56999969482422 8.324999809265137,-97.75 C9.345000267028809,-98.02999877929688 10.385000228881836,-97.83000183105469 11.345000267028809,-97.55999755859375 C24.815000534057617,-93.87000274658203 33.85499954223633,-85.73999786376953 36.994998931884766,-71.7699966430664 C38.334999084472656,-65.80000305175781 38.32500076293945,-59.7599983215332 37.915000915527344,-53.689998626708984 C37.6150016784668,-49.38999938964844 37.10499954223633,-45.099998474121094 37.025001525878906,-40.779998779296875 C36.974998474121094,-38.25 37.165000915527344,-35.75 37.67499923706055,-33.27000045776367 C38.6150016784668,-28.65999984741211 41.07500076293945,-25.149999618530273 45.1349983215332,-22.760000228881836 C47.154998779296875,-21.56999969482422 49.275001525878906,-20.579999923706055 51.3650016784668,-19.530000686645508 C53.404998779296875,-18.510000228881836 55.42499923706055,-17.450000762939453 57.165000915527344,-15.949999809265137 C59.64500045776367,-13.819999694824219 61.46500015258789,-11.279999732971191 62.025001525878906,-7.980000019073486 C62.29499816894531,-6.369999885559082 62.275001525878906,-4.760000228881836 61.845001220703125,-3.1700000762939453 C61.095001220703125,-0.41999998688697815 59.255001068115234,1.1100000143051147 56.415000915527344,1.2400000095367432 C55.03499984741211,1.2999999523162842 53.654998779296875,1.2699999809265137 52.275001525878906,1.190000057220459 C49.869998931884766,1.0509999990463257 47.50600051879883,1.156000018119812 45.17399978637695,1.4700000286102295 C42.242000579833984,1.7979999780654907 39.35100173950195,2.5239999294281006 36.6349983215332,3.621000051498413 C34.430999755859375,4.447999954223633 32.22800064086914,5.2829999923706055 29.9950008392334,6.050000190734863 C28.235000610351562,6.659999847412109 26.415000915527344,7.03000020980835 24.53499984741211,7.019999980926514 C21.514999389648438,7.010000228881836 18.915000915527344,6 16.704999923706055,3.930000066757202 C11.71500015258789,-0.75 9.994999885559082,-6.559999942779541 10.864999771118164,-13.220000267028809 C11.4350004196167,-17.559999465942383 12.505000114440918,-21.809999465942383 13.46500015258789,-26.079999923706055 C13.744999885559082,-27.31999969482422 14.1850004196167,-28.5 14.854999542236328,-29.56999969482422 C15.925000190734863,-31.299999237060547 17.03499984741211,-33.0099983215332 18.155000686645508,-34.709999084472656 C20.174999237060547,-37.77000045776367 21.625,-41.02000045776367 21.565000534057617,-44.77000045776367 C21.565000534057617,-44.91999816894531 21.575000762939453,-45.060001373291016 21.594999313354492,-45.16999816894531 C21.584999084472656,-45.529998779296875 21.665000915527344,-45.88999938964844 21.655000686645508,-46.25 C21.635000228881836,-46.66999816894531 21.405000686645508,-47.150001525878906 20.9950008392334,-47.209999084472656 C20.7450008392334,-47.25 20.4950008392334,-47.130001068115234 20.325000762939453,-46.93000030517578 C20.325000762939453,-46.93000030517578 20.325000762939453,-46.90999984741211 20.325000762939453,-46.90999984741211 C20.295000076293945,-46.81999969482422 20.274999618530273,-46.720001220703125 20.264999389648438,-46.61000061035156 C20.2450008392334,-46.43000030517578 20.19499969482422,-46.25 20.184999465942383,-46.06999969482422 C20.174999237060547,-45.97999954223633 20.174999237060547,-45.88999938964844 20.155000686645508,-45.79999923706055 C19.834999084472656,-42.06999969482422 18.334999084472656,-38.790000915527344 16.065000534057617,-35.880001068115234 C13.3149995803833,-32.349998474121094 11.6850004196167,-28.389999389648438 10.645000457763672,-24.059999465942383 C9.675000190734863,-20.030000686645508 8.664999961853027,-16.020000457763672 8.444999694824219,-11.880000114440918 C8.114999771118164,-5.429999828338623 9.8149995803833,0.3199999928474426 14.515000343322754,5.019999980926514 C17.7549991607666,8.239999771118164 21.55500030517578,9.65999984741211 26.084999084472656,9.25 C26.55500030517578,9.210000038146973 27.03499984741211,9.170000076293945 27.514999389648438,9.140000343322754 C27.549999237060547,9.140000343322754 27.761999130249023,9.079000473022461 28.011999130249023,9.005999565124512 C27.937000274658203,9.074999809265137 27.858999252319336,9.140000343322754 27.78499984741211,9.210000038146973 C27.80500030517578,9.220000267028809 27.834999084472656,9.220000267028809 27.854999542236328,9.229999542236328 C24.952999114990234,14.387999534606934 23.881999969482422,15.35099983215332 22.614999771118164,18.770000457763672z"/></g></g><g transform="matrix(1,0,0,1,148.0360107421875,35.073997497558594)" opacity="1" style="display: block;"><g opacity="1" transform="matrix(1,0,0,1,30.895000457763672,40.875)"><path fill="rgb(255,255,255)" fill-opacity="1" d=" M27.03499984741211,-10.28499984741211 C25.264999389648438,-11.335000038146973 23.485000610351562,-11.154999732971191 21.864999771118164,-10.114999771118164 C21.295000076293945,-10.324999809265137 21.385000228881836,-10.744999885559082 21.334999084472656,-11.074999809265137 C20.924999237060547,-13.914999961853027 19.315000534057617,-15.864999771118164 16.80500030517578,-17.165000915527344 C14.96500015258789,-18.104999542236328 12.96500015258789,-18.5049991607666 10.96500015258789,-18.875 C9.484999656677246,-19.145000457763672 8.03499984741211,-19.485000610351562 6.635000228881836,-20.045000076293945 C2.3550000190734863,-21.7549991607666 0.22499999403953552,-24.854999542236328 0.1550000011920929,-29.454999923706055 C0.125,-31.19499969482422 0.39500001072883606,-32.92499923706055 0.6050000190734863,-34.64500045776367 C0.675000011920929,-35.21500015258789 1.0149999856948853,-36.095001220703125 0.41499999165534973,-36.26499938964844 C-0.39500001072883606,-36.494998931884766 -0.5149999856948853,-35.494998931884766 -0.6949999928474426,-34.94499969482422 C-1.8650000095367432,-31.424999237060547 -1.9850000143051147,-27.875 -0.6150000095367432,-24.385000228881836 C0.375,-21.864999771118164 2.244999885559082,-20.135000228881836 4.644999980926514,-18.954999923706055 C6.59499979019165,-17.985000610351562 8.6850004196167,-17.485000610351562 10.824999809265137,-17.104999542236328 C12.53499984741211,-16.80500030517578 14.234999656677246,-16.46500015258789 15.8149995803833,-15.6850004196167 C19.104999542236328,-14.055000305175781 20.364999771118164,-11.074999809265137 19.184999465942383,-7.614999771118164 C18.434999465942383,-5.394999980926514 18.71500015258789,-3.115000009536743 18.7549991607666,-0.8450000286102295 C18.7549991607666,-0.375 18.885000228881836,0.24500000476837158 19.405000686645508,0.3050000071525574 C20.065000534057617,0.375 20.2450008392334,-0.29499998688697815 20.385000228881836,-0.7950000166893005 C20.684999465942383,-1.9049999713897705 20.735000610351562,-3.0450000762939453 20.764999389648438,-4.184999942779541 C20.774999618530273,-4.724999904632568 20.764999389648438,-5.264999866485596 20.764999389648438,-5.804999828338623 C20.78499984741211,-7.394999980926514 21.665000915527344,-8.345000267028809 23.05500030517578,-8.925000190734863 C24.44499969482422,-9.505000114440918 25.645000457763672,-9.114999771118164 26.69499969482422,-8.145000457763672 C28.065000534057617,-6.875 28.7549991607666,-5.275000095367432 28.264999389648438,-3.444999933242798 C27.315000534057617,0.08500000089406967 26.2450008392334,3.575000047683716 24.895000457763672,6.985000133514404 C24.545000076293945,7.894999980926514 23.985000610351562,8.494999885559082 22.905000686645508,8.484999656677246 C22.434999465942383,8.475000381469727 21.96500015258789,8.664999961853027 21.4950008392334,8.71500015258789 C20.975000381469727,8.765000343322754 20.764999389648438,9.055000305175781 20.725000381469727,9.524999618530273 C20.704999923706055,9.704999923706055 20.655000686645508,9.885000228881836 20.645000457763672,10.0649995803833 C20.635000228881836,10.145000457763672 20.635000228881836,10.234999656677246 20.625,10.3149995803833 C20.885000228881836,10.454999923706055 21.155000686645508,10.574999809265137 21.44499969482422,10.635000228881836 C21.674999237060547,10.675000190734863 21.905000686645508,10.704999923706055 22.145000457763672,10.725000381469727 C22.274999618530273,10.505000114440918 22.524999618530273,10.425000190734863 22.954999923706055,10.4350004196167 C24.454999923706055,10.494999885559082 25.315000534057617,9.604999542236328 26.014999389648438,8.354999542236328 C27.604999542236328,5.514999866485596 28.704999923706055,2.4749999046325684 29.875,-0.5450000166893005 C30.354999542236328,-1.774999976158142 30.645000457763672,-3.065000057220459 30.594999313354492,-4.40500020980835 C30.485000610351562,-7.014999866485596 29.2549991607666,-8.975000381469727 27.03499984741211,-10.28499984741211z M3.075000047683716,36.165000915527344 C0.35499998927116394,37.1349983215332 -2.4549999237060547,37.875 -5.304999828338623,38.17499923706055 C-9.795000076293945,38.665000915527344 -13.53499984741211,37.334999084472656 -15.984999656677246,33.154998779296875 C-17.815000534057617,30.045000076293945 -19.375,26.834999084472656 -20.614999771118164,23.44499969482422 C-23.0049991607666,16.905000686645508 -25.075000762939453,10.265000343322754 -26.375,3.424999952316284 C-26.895000457763672,0.7250000238418579 -27.334999084472656,-2.015000104904175 -27.584999084472656,-4.755000114440918 C-28.135000228881836,-10.765000343322754 -26.475000381469727,-16.145000457763672 -22.485000610351562,-20.735000610351562 C-21.625,-21.725000381469727 -20.69499969482422,-22.665000915527344 -19.7450008392334,-23.584999084472656 C-16.834999084472656,-26.415000915527344 -13.4350004196167,-28.594999313354492 -9.954999923706055,-30.764999389648438 C-9.954999923706055,-30.764999389648438 -9.9350004196167,-30.78499984741211 -9.9350004196167,-30.78499984741211 C-9.9350004196167,-30.78499984741211 -6.40500020980835,-33.69499969482422 -6.40500020980835,-33.69499969482422 C-6.40500020980835,-33.69499969482422 -3.305000066757202,-36.525001525878906 -3.305000066757202,-36.525001525878906 C-3.065000057220459,-36.8650016784668 -2.7850000858306885,-37.19499969482422 -2.4749999046325684,-37.505001068115234 C-1.6349999904632568,-38.345001220703125 -0.9049999713897705,-39.275001525878906 -0.36500000953674316,-40.3849983215332 C-0.9950000047683716,-40.625 -1.1950000524520874,-40.14500045776367 -1.4550000429153442,-39.8849983215332 C-5.454999923706055,-35.974998474121094 -9.845000267028809,-32.55500030517578 -14.585000038146973,-29.575000762939453 C-17.94499969482422,-27.454999923706055 -21.0049991607666,-24.94499969482422 -23.665000915527344,-21.975000381469727 C-28.514999389648438,-16.575000762939453 -30.645000457763672,-10.305000305175781 -29.375,-3.065000057220459 C-28.594999313354492,1.3550000190734863 -27.975000381469727,5.835000038146973 -26.764999389648438,10.154999732971191 C-24.645000457763672,17.704999923706055 -22.545000076293945,25.274999618530273 -18.954999923706055,32.525001525878906 C-18.96500015258789,32.525001525878906 -18.96500015258789,32.525001525878906 -18.975000381469727,32.53499984741211 C-18.075000762939453,33.8650016784668 -17.454999923706055,35.45500183105469 -16.46500015258789,36.70500183105469 C-15.444999694824219,37.974998474121094 -14.0649995803833,38.994998931884766 -12.555000305175781,39.6349983215332 C-10.675000190734863,40.435001373291016 -8.725000381469727,40.55500030517578 -6.684999942779541,40.564998626708984 C-6.684999942779541,40.584999084472656 -6.675000190734863,40.60499954223633 -6.675000190734863,40.625 C-6.675000190734863,40.625 -4.114999771118164,40.39500045776367 -4.114999771118164,40.39500045776367 C-4.014999866485596,40.35499954223633 -3.9049999713897705,40.32500076293945 -3.7750000953674316,40.30500030517578 C-2.7149999141693115,40.095001220703125 -1.6749999523162842,39.814998626708984 -0.6349999904632568,39.53499984741211 C0.6549999713897705,39.185001373291016 1.8250000476837158,38.595001220703125 2.8949999809265137,37.79499816894531 C3.4549999237060547,37.375 4.09499979019165,36.96500015258789 4.034999847412109,36.10499954223633 C3.674999952316284,35.685001373291016 3.3550000190734863,36.064998626708984 3.075000047683716,36.165000915527344z"/></g><g opacity="1" transform="matrix(1,0,0,1,15.460000038146973,47.85100173950195)"><path fill="rgb(255,255,255)" fill-opacity="1" d=" M3.121999979019165,9.256999969482422 C0.8119999766349792,9.45300006866455 -0.8830000162124634,8.649999618530273 -2.4679999351501465,7.544000148773193 C-3.009999990463257,7.164999961853027 -3.121999979019165,6.560999870300293 -2.9600000381469727,5.929999828338623 C-1.753999948501587,1.2419999837875366 -0.9259999990463257,-3.5390000343322754 0.5230000019073486,-8.166000366210938 C0.6669999957084656,-8.628999710083008 0.7789999842643738,-9.45300006866455 1.434999942779541,-9.239999771118164 C2.114000082015991,-9.020000457763672 1.6130000352859497,-8.376999855041504 1.5110000371932983,-7.883999824523926 C0.6110000014305115,-3.553999900817871 -0.24300000071525574,0.7850000262260437 -1.1519999504089355,5.11299991607666 C-1.319000005722046,5.9039998054504395 -1.0809999704360962,6.321000099182129 -0.3930000066757202,6.684999942779541 C0.7950000166893005,7.313000202178955 2.1600000858306885,7.715000152587891 3.121999979019165,9.256999969482422z"/></g></g><g transform="matrix(1,0,0,1,165.46600341796875,40.073997497558594)" opacity="1" style="display: block;"><g opacity="1" transform="matrix(1,0,0,1,4.929999828338623,11.585000038146973)"><path fill="rgb(255,255,255)" fill-opacity="1" d=" M3.8499999046325684,-9.175000190734863 C4.059999942779541,-9.944999694824219 4.320000171661377,-10.664999961853027 4.679999828338623,-11.335000038146973 C4.110000133514404,-11.0649995803833 0.75,-9.204999923706055 0.4300000071525574,-8.984999656677246 C-0.5799999833106995,-8.274999618530273 -0.7799999713897705,-7.445000171661377 -1.3700000047683716,-6.505000114440918 C-1.3600000143051147,-6.514999866485596 -1.340000033378601,-6.525000095367432 -1.3300000429153442,-6.534999847412109 C-3.9200000762939453,-0.6349999904632568 -4.679999828338623,5.264999866485596 -2.2100000381469727,11.335000038146973 C-1.899999976158142,10.145000457763672 -1.8899999856948853,8.944999694824219 -2.009999990463257,7.724999904632568 C-2.5299999713897705,2.2850000858306885 -1.25,-2.744999885559082 1.5399999618530273,-7.414999961853027 C1.7200000286102295,-7.715000152587891 1.8600000143051147,-8.074999809265137 2.380000114440918,-8.28499984741211 C0.6700000166893005,-2.0850000381469727 0.8999999761581421,3.875 4,9.545000076293945 C4.119999885559082,8.265000343322754 3.940000057220459,7.014999866485596 3.6500000953674316,5.775000095367432 C2.490000009536743,0.7749999761581421 2.5199999809265137,-4.204999923706055 3.8499999046325684,-9.175000190734863z"/></g></g><g transform="matrix(1,0,0,1,154.47900390625,70.99199676513672)" opacity="1" style="display: block;"><g opacity="1" transform="matrix(1,0,0,1,20.013999938964844,3.947000026702881)"><path fill="rgb(255,255,255)" fill-opacity="1" d=" M-0.13199999928474426,-2.818000078201294 C0.5609999895095825,-2.822000026702881 1.1549999713897705,-2.628999948501587 1.5740000009536743,-2.0269999504089355 C2.375,-0.8730000257492065 1.965000033378601,1.399999976158142 0.8009999990463257,2.193000078201294 C-0.1720000058412552,2.8559999465942383 -1.25,2.625999927520752 -1.7699999809265137,1.5889999866485596 C-2.375999927520752,0.3790000081062317 -2.309999942779541,-0.8360000252723694 -1.6169999837875366,-2.002000093460083 C-1.2869999408721924,-2.555999994277954 -0.796999990940094,-2.8559999465942383 -0.13199999928474426,-2.818000078201294z"/></g><g opacity="1" transform="matrix(1,0,0,1,2.3550000190734863,3.183000087738037)"><path fill="rgb(255,255,255)" fill-opacity="1" d=" M2.1029999256134033,-0.1979999989271164 C2.0950000286102295,0.7419999837875366 1.7949999570846558,1.5670000314712524 1.0770000219345093,2.190999984741211 C0.22599999606609344,2.931999921798706 -0.7419999837875366,2.7699999809265137 -1.3489999771118164,1.8179999589920044 C-2.1050000190734863,0.6320000290870667 -1.7890000343322754,-1.3450000286102295 -0.7369999885559082,-2.2990000247955322 C-0.03799999877810478,-2.931999921798706 0.597000002861023,-2.615999937057495 1.2109999656677246,-2.2290000915527344 C1.9459999799728394,-1.7660000324249268 2.1050000190734863,-1.0069999694824219 2.1029999256134033,-0.1979999989271164z"/></g></g><g transform="matrix(1,0,0,1,171.96600341796875,61.19199752807617)" opacity="1" style="display: block;"><g opacity="1" transform="matrix(1,0,0,1,5.239999771118164,2.8480000495910645)"><path fill="rgb(255,255,255)" fill-opacity="1" d=" M-2.765000104904175,2.556999921798706 C-3.5490000247955322,2.562999963760376 -4.392000198364258,2.5980000495910645 -4.701000213623047,1.6660000085830688 C-4.988999843597412,0.7979999780654907 -4.513999938964844,0.1469999998807907 -3.8440001010894775,-0.32199999690055847 C-0.7649999856948853,-2.4739999771118164 0.23999999463558197,-2.5980000495910645 3.322000026702881,-0.7860000133514404 C3.6730000972747803,-0.5799999833106995 3.990999937057495,-0.2770000100135803 4.244999885559082,0.0430000014603138 C4.989999771118164,0.9800000190734863 4.796000003814697,1.555999994277954 3.625999927520752,1.7860000133514404 C1.5180000066757202,2.2009999752044678 -0.6159999966621399,2.437999963760376 -2.765000104904175,2.556999921798706z"/></g></g><g transform="matrix(1,0,0,1,152.92100524902344,60.85399627685547)" opacity="1" style="display: block;"><g opacity="1" transform="matrix(1,0,0,1,4.743000030517578,2.752000093460083)"><path fill="rgb(255,255,255)" fill-opacity="1" d=" M-2.686000108718872,2.453000068664551 C-4.190000057220459,2.500999927520752 -4.493000030517578,2.246999979019165 -4.1529998779296875,1.3329999446868896 C-3.484999895095825,-0.4650000035762787 -2.197999954223633,-1.6959999799728394 -0.3160000145435333,-2.130000114440918 C1.3029999732971191,-2.502000093460083 2.6040000915527344,-1.7510000467300415 3.693000078201294,-0.6129999756813049 C4.109000205993652,-0.17900000512599945 4.493000030517578,0.328000009059906 4.257999897003174,0.9919999837875366 C4,1.722000002861023 3.3399999141693115,1.9800000190734863 2.677000045776367,1.9620000123977661 C0.746999979019165,1.9079999923706055 -1.1449999809265137,2.1670000553131104 -2.686000108718872,2.453000068664551z"/></g></g><g transform="matrix(0.8529999852180481,0,0,0.8669999837875366,165.3870391845703,96.98909759521484)" opacity="1" style="display: block;"><g opacity="1" transform="matrix(1,0,0,1,7.489999771118164,4.699999809265137)"><path fill="rgb(255,255,255)" fill-opacity="1" d=" M6.53000020980835,-3.930000066757202 C5.889999866485596,-4.449999809265137 5.199999809265137,-3.7699999809265137 4.559999942779541,-3.509999990463257 C1.4600000381469727,-2.190000057220459 -1.8300000429153442,-1.6299999952316284 -5.139999866485596,-1.2300000190734863 C-5.5,-1.25 -5.860000133514404,-1.2999999523162842 -6.210000038146973,-1.2699999809265137 C-6.559999942779541,-1.25 -6.980000019073486,-1.2100000381469727 -7.099999904632568,-0.800000011920929 C-7.239999771118164,-0.3100000023841858 -6.880000114440918,-0.019999999552965164 -6.5,0.17000000178813934 C-6.019999980926514,0.4099999964237213 -5.5,0.6499999761581421 -4.960000038146973,0.5600000023841858 C-3.9100000858306885,0.3799999952316284 -3.5,0.8899999856948853 -3.180000066757202,1.809999942779541 C-2.7799999713897705,2.950000047683716 -1.8899999856948853,3.619999885559082 -0.6800000071525574,3.880000114440918 C2,4.449999809265137 4.860000133514404,2.869999885559082 5.75,0.2800000011920929 C6.010000228881836,-0.44999998807907104 6.199999809265137,-1.2100000381469727 6.389999866485596,-1.9600000381469727 C6.539999961853027,-2.609999895095825 7.239999771118164,-3.369999885559082 6.53000020980835,-3.930000066757202z M1.690000057220459,1.909999966621399 C0.10000000149011612,2.440000057220459 -0.9399999976158142,2.0999999046325684 -2.140000104904175,0.5600000023841858 C0.009999999776482582,-0.15000000596046448 2.0999999046325684,-0.8299999833106995 4.21999979019165,-1.5299999713897705 C4.150000095367432,0.36000001430511475 3.4200000762939453,1.3300000429153442 1.690000057220459,1.909999966621399z"/></g></g><g transform="matrix(1,0,0,1,134.56600952148438,205.65399169921875)" opacity="1" style="display: block;"><g opacity="1" transform="matrix(1,0,0,1,33.9739990234375,20.25200080871582)"><path fill="rgb(32,25,82)" fill-opacity="1" d=" M32.17499923706055,-8.390999794006348 C32.17499923706055,-8.390999794006348 5.383999824523926,-8.390999794006348 5.383999824523926,-8.390999794006348 C5.383999824523926,-8.390999794006348 -4.848999977111816,-8.789999961853027 -4.848999977111816,-8.789999961853027 C-4.848999977111816,-8.789999961853027 -8.267999649047852,-8.390999794006348 -8.267999649047852,-8.390999794006348 C-8.267999649047852,-8.390999794006348 -13.361000061035156,-5.23199987411499 -13.361000061035156,-5.23199987411499 C-13.361000061035156,-5.23199987411499 -25.56999969482422,1.1859999895095825 -25.56999969482422,1.1859999895095825 C-25.56999969482422,1.1859999895095825 -32.47700119018555,4.046000003814697 -32.47700119018555,4.046000003814697 C-32.47700119018555,4.046000003814697 -32.47700119018555,6.138999938964844 -32.47700119018555,6.138999938964844 C-32.47700119018555,6.138999938964844 -30.382999420166016,7.117000102996826 -30.382999420166016,7.117000102996826 C-30.382999420166016,7.117000102996826 -28.98900032043457,8.303000450134277 -28.98900032043457,8.303000450134277 C-28.98900032043457,8.303000450134277 -13.779000282287598,6.627999782562256 -13.779000282287598,6.627999782562256 C-13.779000282287598,6.627999782562256 -12.03499984741211,8.789999961853027 -12.03499984741211,8.789999961853027 C-12.03499984741211,8.789999961853027 -7.639999866485596,8.789999961853027 -7.639999866485596,8.789999961853027 C-7.639999866485596,8.789999961853027 -0.9419999718666077,6.627999782562256 -0.9419999718666077,6.627999782562256 C-0.9419999718666077,6.627999782562256 8.826000213623047,6.76800012588501 8.826000213623047,6.76800012588501 C8.826000213623047,6.76800012588501 15.454000473022461,5.861000061035156 15.454000473022461,5.861000061035156 C15.454000473022461,5.861000061035156 19.222000122070312,5.861000061035156 19.222000122070312,5.861000061035156 C19.222000122070312,5.861000061035156 24.87299919128418,8.51200008392334 24.87299919128418,8.51200008392334 C24.87299919128418,8.51200008392334 28.56999969482422,7.986000061035156 28.56999969482422,7.986000061035156 C28.56999969482422,7.986000061035156 32.47700119018555,-8.390999794006348 32.47700119018555,-8.390999794006348 C32.47700119018555,-8.390999794006348 32.17499923706055,-8.390999794006348 32.17499923706055,-8.390999794006348z"/></g><g opacity="1" transform="matrix(1,0,0,1,58.185001373291016,16.56999969482422)"><path fill="rgb(255,255,255)" fill-opacity="1" d=" M57.564998626708984,-3.549999952316284 C57.415000915527344,-5.730000019073486 56.96500015258789,-7.949999809265137 55.82500076293945,-9.819999694824219 C53.685001373291016,-13.319999694824219 49.625,-14.970000267028809 45.654998779296875,-16.200000762939453 C45.654998779296875,-16.200000762939453 43.875,-15.920000076293945 43.875,-15.920000076293945 C43.875,-15.920000076293945 -0.9750000238418579,-15.819999694824219 -0.5149999856948853,-15.920000076293945 C-3.315000057220459,-16.31999969482422 -3.8450000286102295,-14.670000076293945 -4.625,-12.9399995803833 C-5.574999809265137,-10.850000381469727 -6.105000019073486,-8.640000343322754 -6.514999866485596,-6.400000095367432 C-6.664999961853027,-5.570000171661377 -7.005000114440918,-5.300000190734863 -7.804999828338623,-5.320000171661377 C-14.694999694824219,-5.489999771118164 -21.594999313354492,-5.489999771118164 -28.46500015258789,-5.860000133514404 C-30.655000686645508,-5.980000019073486 -32.435001373291016,-5.670000076293945 -34.17499923706055,-4.460000038146973 C-35.20500183105469,-3.75 -36.28499984741211,-3.0999999046325684 -37.73500061035156,-2.5299999713897705 C-37.73500061035156,-2.5299999713897705 -44.404998779296875,1.2899999618530273 -44.404998779296875,1.2899999618530273 C-44.404998779296875,1.2899999618530273 -53.45500183105469,5.929999828338623 -53.45500183105469,5.929999828338623 C-53.54499816894531,5.989999771118164 -53.654998779296875,6.050000190734863 -53.78499984741211,6.099999904632568 C-53.814998626708984,6.119999885559082 -53.85499954223633,6.130000114440918 -53.8849983215332,6.139999866485596 C-54.19499969482422,6.269999980926514 -54.6150016784668,6.389999866485596 -55.17499923706055,6.550000190734863 C-55.98500061035156,6.78000020980835 -56.78499984741211,7.03000020980835 -57.39500045776367,7.679999828338623 C-57.935001373291016,8.260000228881836 -57.654998779296875,9 -57.654998779296875,9.739999771118164 C-57.654998779296875,9.739999771118164 -56.875,11.079999923706055 -56.875,11.079999923706055 C-56.875,11.079999923706055 -56.875,11.09000015258789 -56.875,11.09000015258789 C-56.875,11.09000015258789 -56.45500183105469,11.09000015258789 -56.45500183105469,11.09000015258789 C-56.095001220703125,11.09000015258789 -55.73500061035156,11.09000015258789 -55.375,11.109999656677246 C-55.125,11.119999885559082 -54.875,11.170000076293945 -54.80500030517578,11.4399995803833 C-54.32500076293945,13.180000305175781 -52.92499923706055,13.050000190734863 -51.595001220703125,12.989999771118164 C-49.1349983215332,12.859999656677246 -46.73500061035156,12.3100004196167 -44.375,11.609999656677246 C-42.54499816894531,11.069999694824219 -40.70500183105469,11.149999618530273 -38.845001220703125,11.15999984741211 C-38.404998779296875,11.15999984741211 -38.05500030517578,11.229999542236328 -37.85499954223633,11.720000267028809 C-37.1349983215332,13.449999809265137 -35.625,13.550000190734863 -34.07500076293945,13.449999809265137 C-31.96500015258789,13.300000190734863 -29.96500015258789,12.630000114440918 -28.014999389648438,11.850000381469727 C-27.225000381469727,11.529999732971191 -26.434999465942383,11.329999923706055 -25.575000762939453,11.350000381469727 C-23.155000686645508,11.399999618530273 -20.7450008392334,11.4399995803833 -18.325000762939453,11.489999771118164 C-17.704999923706055,11.470000267028809 -17.094999313354492,11.449999809265137 -16.475000381469727,11.399999618530273 C-14.364999771118164,11.220000267028809 -12.265000343322754,10.850000381469727 -10.21500015258789,10.300000190734863 C-9.385000228881836,10.079999923706055 -8.5649995803833,9.819999694824219 -7.704999923706055,9.720000267028809 C-6.985000133514404,9.640000343322754 -6.204999923706055,9.670000076293945 -5.574999809265137,10.050000190734863 C-5.054999828338623,10.359999656677246 -4.695000171661377,10.869999885559082 -4.34499979019165,11.369999885559082 C-4.164999961853027,11.630000114440918 -3.9749999046325684,11.890000343322754 -3.815000057220459,12.15999984741211 C-3.615000009536743,12.329999923706055 -3.444999933242798,12.5600004196167 -3.2850000858306885,12.859999656677246 C-1.8350000381469727,15.520000457763672 0.07500000298023224,16.31999969482422 3.0250000953674316,15.5600004196167 C6.15500020980835,14.739999771118164 9.3149995803833,14.0600004196167 12.494999885559082,13.449999809265137 C16.614999771118164,12.65999984741211 20.725000381469727,12.079999923706055 24.96500015258789,12.140000343322754 C32.53499984741211,12.239999771118164 44.744998931884766,12.430000305175781 53.03499984741211,12.550000190734863 C56.29499816894531,7.889999866485596 57.935001373291016,2.119999885559082 57.564998626708984,-3.549999952316284z M2.4049999713897705,8.369999885559082 C2.2049999237060547,9.260000228881836 1.7450000047683716,9.539999961853027 0.875,9.390000343322754 C-1.0149999856948853,9.0600004196167 -2.9149999618530273,8.8100004196167 -4.795000076293945,8.449999809265137 C-6.835000038146973,8.0600004196167 -8.805000305175781,8.050000190734863 -10.824999809265137,8.630000114440918 C-13.664999961853027,9.449999809265137 -16.584999084472656,9.779999732971191 -19.545000076293945,9.670000076293945 C-20.44499969482422,9.640000343322754 -21.334999084472656,9.5600004196167 -22.2549991607666,9.220000267028809 C-22.104999542236328,8.979999542236328 -21.975000381469727,8.789999961853027 -21.854999542236328,8.59000015258789 C-21.665000915527344,8.319999694824219 -21.635000228881836,8.020000457763672 -21.854999542236328,7.769999980926514 C-22.075000762939453,7.53000020980835 -22.395000457763672,7.480000019073486 -22.684999465942383,7.599999904632568 C-23.174999237060547,7.809999942779541 -23.655000686645508,8.050000190734863 -24.135000228881836,8.3100004196167 C-26.674999237060547,9.6899995803833 -29.375,10.670000076293945 -32.17499923706055,11.359999656677246 C-33.21500015258789,11.609999656677246 -34.29499816894531,11.800000190734863 -35.375,11.550000190734863 C-36.10499954223633,11.380000114440918 -36.23500061035156,11.020000457763672 -35.85499954223633,10.380000114440918 C-35.35499954223633,9.510000228881836 -34.55500030517578,9 -33.665000915527344,8.600000381469727 C-30.985000610351562,7.400000095367432 -28.295000076293945,6.210000038146973 -25.635000228881836,4.980000019073486 C-24.854999542236328,4.610000133514404 -24.014999389648438,4.28000020980835 -23.225000381469727,3.369999885559082 C-24.30500030517578,3.390000104904175 -24.975000381469727,3.7799999713897705 -25.684999465942383,4.010000228881836 C-32.744998931884766,6.28000020980835 -39.67499923706055,8.979999542236328 -46.935001373291016,10.640000343322754 C-48.44499969482422,10.989999771118164 -50.005001068115234,11.15999984741211 -51.54499816894531,11.390000343322754 C-51.80500030517578,11.430000305175781 -52.084999084472656,11.359999656677246 -52.505001068115234,11.329999923706055 C-52.07500076293945,10.550000190734863 -51.435001373291016,10.329999923706055 -50.89500045776367,10.020000457763672 C-48.755001068115234,8.800000190734863 -46.525001525878906,7.769999980926514 -44.26499938964844,6.800000190734863 C-40.57500076293945,5.199999809265137 -36.96500015258789,3.450000047683716 -33.46500015258789,1.4700000286102295 C-32.80500030517578,1.100000023841858 -32.10499954223633,0.7699999809265137 -31.5049991607666,0.10000000149011612 C-32.1150016784668,-0.2199999988079071 -32.51499938964844,0.07999999821186066 -32.915000915527344,0.27000001072883606 C-39.584999084472656,3.380000114440918 -46.584999084472656,5.789999961853027 -53.03499984741211,9.380000114440918 C-53.845001220703125,9.829999923706055 -54.654998779296875,9.739999771118164 -55.48500061035156,9.680000305175781 C-55.875,9.65999984741211 -56.1349983215332,9.390000343322754 -56.19499969482422,8.979999542236328 C-56.23500061035156,8.649999618530273 -56.03499984741211,8.430000305175781 -55.76499938964844,8.260000228881836 C-55.6150016784668,8.170000076293945 -55.46500015258789,8.0600004196167 -55.29499816894531,8 C-53.01499938964844,7.239999771118164 -50.98500061035156,5.949999809265137 -48.80500030517578,4.980000019073486 C-43.095001220703125,2.450000047683716 -37.595001220703125,-0.47999998927116394 -32.244998931884766,-3.6700000762939453 C-31.385000228881836,-4.190000057220459 -30.524999618530273,-4.46999979019165 -29.514999389648438,-4.289999961853027 C-27.5049991607666,-3.930000066757202 -25.454999923706055,-3.9700000286102295 -23.415000915527344,-3.9700000286102295 C-16.885000228881836,-3.9800000190734863 -10.345000267028809,-3.9700000286102295 -3.815000057220459,-4.059999942779541 C-2.0850000381469727,-4.079999923706055 -0.36500000953674316,-4.449999809265137 1.3650000095367432,-4.639999866485596 C2.734999895095825,-4.800000190734863 2.7950000762939453,-4.78000020980835 2.9749999046325684,-3.430000066757202 C3.5250000953674316,0.5400000214576721 3.2850000858306885,4.460000038146973 2.4049999713897705,8.369999885559082z"/></g><g opacity="1" transform="matrix(1,0,0,1,4.349999904632568,22.690000534057617)"><path fill="rgb(255,255,255)" fill-opacity="1" d=" M0.05000000074505806,-0.019999999552965164 C0.05000000074505806,-0.019999999552965164 -0.029999999329447746,0.019999999552965164 -0.029999999329447746,0.019999999552965164 C-0.029999999329447746,0.019999999552965164 -0.05000000074505806,0.019999999552965164 -0.05000000074505806,0.019999999552965164 C-0.019999999552965164,0.009999999776482582 0.019999999552965164,0 0.05000000074505806,-0.019999999552965164z"/></g></g></g></svg>