<svg xmlns="http://www.w3.org/2000/svg" width="2940" height="125" viewBox="0 0 2940 125"><path d="M34.39,0V-33.485h36.2c28.055,0,46.155-16.109,46.155-43.983s-18.1-43.8-46.155-43.8H7.24V0Zm33.3-96.835c15.023,0,22.082,4.525,22.082,19.367,0,15.2-7.059,19.548-22.082,19.548H34.39V-96.835ZM167.968,0V-43.983h17.919c14.118,0,18.643,3.077,23.53,12.489L226.069,0h31.494L240.006-32.58c-4.525-8.507-8.688-14.3-19.548-17.195v-1.448c22.806-2.172,34.209-13.937,34.209-33.666,0-23.168-17.014-36.381-46.879-36.381h-66.97V0Zm0-96.835h39.639c12.851,0,18.643,4.163,18.643,16.109,0,12.67-5.792,16.29-18.643,16.29H167.968ZM342.995,1.81c41.087,0,65.884-24.616,65.884-62.445s-24.8-62.445-65.884-62.445c-40.182,0-65.16,24.616-65.16,62.445S302.813,1.81,342.995,1.81Zm0-26.064c-26.607,0-36.381-9.412-36.381-36.381s9.774-36.381,36.381-36.381,36.924,9.412,36.924,36.381S369.6-24.254,342.995-24.254ZM462.274,0V-45.25h72.762V-69.5H462.274V-96.835h75.477V-121.27H435.124V0ZM666.442,0V-24.435H590.965V-48.87h72.762V-73.124H590.965V-96.835h75.477V-121.27H563.815V0Zm81.812,1.81c38.553,0,53.938-17.738,53.938-37.467,0-16.652-9.774-29.865-36.924-34.209L731.24-75.3c-10.136-1.81-14.118-4.344-14.118-11.4,0-7.783,5.973-11.584,25.521-11.584,24.073,0,30.046,4.887,30.046,16.471v2.534H800.02v-1.086c0-25.521-17.376-42.716-54.662-42.716-40.725,0-55.567,19.186-55.567,37.467,0,19.729,12.851,30.589,34.571,34.028L758.39-46.7c12.489,2.172,16.652,4.887,16.652,12.308,0,8.145-5.068,11.4-26.788,11.4-24.616,0-30.227-4.525-30.227-15.747v-3.258h-27.15v1.086C690.877-12.67,711.511,1.81,748.254,1.81Zm134.483,0c38.553,0,53.938-17.738,53.938-37.467,0-16.652-9.774-29.865-36.924-34.209L865.723-75.3c-10.136-1.81-14.118-4.344-14.118-11.4,0-7.783,5.973-11.584,25.521-11.584,24.073,0,30.046,4.887,30.046,16.471v2.534H934.5v-1.086c0-25.521-17.376-42.716-54.662-42.716-40.725,0-55.567,19.186-55.567,37.467,0,19.729,12.851,30.589,34.571,34.028L892.873-46.7c12.489,2.172,16.652,4.887,16.652,12.308,0,8.145-5.068,11.4-26.788,11.4-24.616,0-30.227-4.525-30.227-15.747v-3.258H825.36v1.086C825.36-12.67,845.994,1.81,882.737,1.81ZM989.346,0V-121.27H962.2V0Zm91.224,1.81c41.087,0,65.884-24.616,65.884-62.445s-24.8-62.445-65.884-62.445c-40.182,0-65.16,24.616-65.16,62.445S1040.388,1.81,1080.57,1.81Zm0-26.064c-26.607,0-36.381-9.412-36.381-36.381s9.774-36.381,36.381-36.381,36.924,9.412,36.924,36.381S1107.177-24.254,1080.57-24.254ZM1199.849,0V-58.463l-1.086-22.263h1.81l15.385,22.806L1260.665,0h28.96V-121.27h-27.15v58.463l1.267,24.435h-1.991L1245.1-63.893l-43.44-57.377H1172.7V0Zm141,0,11.584-26.788h60.635L1424.47,0H1455.6l-53.4-121.27h-38.734L1310.44,0Zm33.485-77.649,7.421-18.824h1.991l7.421,18.824,11.4,26.426H1362.93ZM1575.786,0V-24.435h-72.219V-121.27h-27.15V0Zm221.906,0V-43.983h17.919c14.118,0,18.643,3.077,23.53,12.489L1855.793,0h31.494L1869.73-32.58c-4.525-8.507-8.688-14.3-19.548-17.195v-1.448c22.806-2.172,34.209-13.937,34.209-33.666,0-23.168-17.014-36.381-46.879-36.381h-66.97V0Zm0-96.835h39.639c12.851,0,18.643,4.163,18.643,16.109,0,12.67-5.792,16.29-18.643,16.29h-39.639ZM1972.719,1.81c41.087,0,65.884-24.616,65.884-62.445s-24.8-62.445-65.884-62.445c-40.182,0-65.16,24.616-65.16,62.445S1932.537,1.81,1972.719,1.81Zm0-26.064c-26.607,0-36.381-9.412-36.381-36.381s9.774-36.381,36.381-36.381,36.924,9.412,36.924,36.381S1999.326-24.254,1972.719-24.254ZM2132.361,0V-96.835h45.069V-121.27H2060.142v24.435h45.069V0Zm171.95,0V-24.435h-75.477V-48.87H2301.6V-73.124h-72.762V-96.835h75.477V-121.27H2201.684V0Zm88.871,1.81c37.829,0,61.9-18.824,61.9-49.594V-50.5h-30.227v2.715c0,15.928-9.05,23.53-31.132,23.53-26.607,0-36.562-9.412-36.562-36.381s9.955-36.381,36.562-36.381c22.082,0,31.132,7.6,31.132,23.53v2.715h30.227v-2.715c0-30.77-24.254-49.594-61.9-49.594-40,0-64.8,24.616-64.8,62.445S2353.181,1.81,2393.182,1.81ZM2548.842,0V-96.835h45.069V-121.27H2476.623v24.435h45.069V0Zm96.473,0V-121.27h-27.15V0Zm91.224,1.81c41.087,0,65.884-24.616,65.884-62.445s-24.8-62.445-65.884-62.445c-40.182,0-65.16,24.616-65.16,62.445S2696.357,1.81,2736.539,1.81Zm0-26.064c-26.607,0-36.381-9.412-36.381-36.381s9.774-36.381,36.381-36.381,36.924,9.412,36.924,36.381S2763.146-24.254,2736.539-24.254ZM2855.818,0V-58.463l-1.086-22.263h1.81l15.385,22.806L2916.634,0h28.96V-121.27h-27.15v58.463l1.267,24.435h-1.991l-16.652-25.521-43.44-57.377h-28.96V0Z" transform="translate(-7.24 123.08)" fill="#201952"/></svg>
