<svg xmlns="http://www.w3.org/2000/svg" xmlns:xlink="http://www.w3.org/1999/xlink" width="375" height="140" viewBox="0 0 375 140"><defs><clipPath id="a"><rect width="375" height="140" transform="translate(0 4998)" fill="none" stroke="#fff" stroke-width="0.5"/></clipPath><clipPath id="b"><rect width="374.84" height="493.039" fill="none" stroke="#fff" stroke-width="0.5"/></clipPath></defs><g transform="translate(0 -5312)"><g transform="translate(0 314)" opacity="0.296" clip-path="url(#a)"><g transform="translate(0 4809.5)"><g clip-path="url(#b)"><path d="M0,492.628a.25.25,0,0,1-.25-.25V0A.25.25,0,0,1,0-.25.25.25,0,0,1,.25,0V492.378A.25.25,0,0,1,0,492.628Z" transform="translate(312.778 0.33)" fill="#fff"/><path d="M0,492.628a.25.25,0,0,1-.25-.25V0A.25.25,0,0,1,0-.25.25.25,0,0,1,.25,0V492.378A.25.25,0,0,1,0,492.628Z" transform="translate(0.331 0.331)" fill="#fff"/><path d="M0,492.628a.25.25,0,0,1-.25-.25V0A.25.25,0,0,1,0-.25.25.25,0,0,1,.25,0V492.378A.25.25,0,0,1,0,492.628Z" transform="translate(45.858 0.33)" fill="#fff"/><path d="M0,492.628a.25.25,0,0,1-.25-.25V0A.25.25,0,0,1,0-.25.25.25,0,0,1,.25,0V492.378A.25.25,0,0,1,0,492.628Z" transform="translate(62.062 0.33)" fill="#fff"/><path d="M0,492.628a.25.25,0,0,1-.25-.25V0A.25.25,0,0,1,0-.25.25.25,0,0,1,.25,0V492.378A.25.25,0,0,1,0,492.628Z" transform="translate(75.812 0.33)" fill="#fff"/><path d="M0,492.628a.25.25,0,0,1-.25-.25V0A.25.25,0,0,1,0-.25.25.25,0,0,1,.25,0V492.378A.25.25,0,0,1,0,492.628Z" transform="translate(87.738 0.33)" fill="#fff"/><path d="M0,492.628a.25.25,0,0,1-.25-.25V0A.25.25,0,0,1,0-.25.25.25,0,0,1,.25,0V492.378A.25.25,0,0,1,0,492.628Z" transform="translate(98.189 0.33)" fill="#fff"/><path d="M0,492.628a.25.25,0,0,1-.25-.25V0A.25.25,0,0,1,0-.25.25.25,0,0,1,.25,0V492.378A.25.25,0,0,1,0,492.628Z" transform="translate(107.659 0.33)" fill="#fff"/><path d="M0,492.628a.25.25,0,0,1-.25-.25V0A.25.25,0,0,1,0-.25.25.25,0,0,1,.25,0V492.378A.25.25,0,0,1,0,492.628Z" transform="translate(169.391 0.33)" fill="#fff"/><path d="M0,492.628a.25.25,0,0,1-.25-.25V0A.25.25,0,0,1,0-.25.25.25,0,0,1,.25,0V492.378A.25.25,0,0,1,0,492.628Z" transform="translate(205.515 0.33)" fill="#fff"/><path d="M0,492.628a.25.25,0,0,1-.25-.25V0A.25.25,0,0,1,0-.25.25.25,0,0,1,.25,0V492.378A.25.25,0,0,1,0,492.628Z" transform="translate(231.125 0.33)" fill="#fff"/><path d="M0,492.628a.25.25,0,0,1-.25-.25V0A.25.25,0,0,1,0-.25.25.25,0,0,1,.25,0V492.378A.25.25,0,0,1,0,492.628Z" transform="translate(250.977 0.33)" fill="#fff"/><path d="M0,492.628a.25.25,0,0,1-.25-.25V0A.25.25,0,0,1,0-.25.25.25,0,0,1,.25,0V492.378A.25.25,0,0,1,0,492.628Z" transform="translate(267.18 0.33)" fill="#fff"/><path d="M0,492.628a.25.25,0,0,1-.25-.25V0A.25.25,0,0,1,0-.25.25.25,0,0,1,.25,0V492.378A.25.25,0,0,1,0,492.628Z" transform="translate(280.929 0.33)" fill="#fff"/><path d="M0,492.628a.25.25,0,0,1-.25-.25V0A.25.25,0,0,1,0-.25.25.25,0,0,1,.25,0V492.378A.25.25,0,0,1,0,492.628Z" transform="translate(292.859 0.33)" fill="#fff"/><path d="M0,492.628a.25.25,0,0,1-.25-.25V0A.25.25,0,0,1,0-.25.25.25,0,0,1,.25,0V492.378A.25.25,0,0,1,0,492.628Z" transform="translate(303.309 0.33)" fill="#fff"/><path d="M0,492.628a.25.25,0,0,1-.25-.25V0A.25.25,0,0,1,0-.25.25.25,0,0,1,.25,0V492.378A.25.25,0,0,1,0,492.628Z" transform="translate(348.907 0.33)" fill="#fff"/><path d="M0,492.628a.25.25,0,0,1-.25-.25V0A.25.25,0,0,1,0-.25.25.25,0,0,1,.25,0V492.378A.25.25,0,0,1,0,492.628Z" transform="translate(374.509 0.33)" fill="#fff"/><path d="M0,492.628a.25.25,0,0,1-.25-.25V0A.25.25,0,0,1,0-.25.25.25,0,0,1,.25,0V492.378A.25.25,0,0,1,0,492.628Z" transform="translate(26.007 0.33)" fill="#fff"/><path d="M374.178.25H0A.25.25,0,0,1-.25,0,.25.25,0,0,1,0-.25H374.178a.25.25,0,0,1,.25.25A.25.25,0,0,1,374.178.25Z" transform="translate(0.331 0.331)" fill="#fff"/><path d="M374.178.25H0A.25.25,0,0,1-.25,0,.25.25,0,0,1,0-.25H374.178a.25.25,0,0,1,.25.25A.25.25,0,0,1,374.178.25Z" transform="translate(0.331 410.635)" fill="#fff"/><path d="M374.178.25H0A.25.25,0,0,1-.25,0,.25.25,0,0,1,0-.25H374.178a.25.25,0,0,1,.25.25A.25.25,0,0,1,374.178.25Z" transform="translate(0.331 205.517)" fill="#fff"/><path d="M374.178.25H0A.25.25,0,0,1-.25,0,.25.25,0,0,1,0-.25H374.178a.25.25,0,0,1,.25.25A.25.25,0,0,1,374.178.25Z" transform="translate(0.331 143.996)" fill="#fff"/><path d="M374.178.25H0A.25.25,0,0,1-.25,0,.25.25,0,0,1,0-.25H374.178a.25.25,0,0,1,.25.25A.25.25,0,0,1,374.178.25Z" transform="translate(0.331 107.027)" fill="#fff"/><path d="M374.178.25H0A.25.25,0,0,1-.25,0,.25.25,0,0,1,0-.25H374.178a.25.25,0,0,1,.25.25A.25.25,0,0,1,374.178.25Z" transform="translate(0.331 82.406)" fill="#fff"/><path d="M374.178.25H0A.25.25,0,0,1-.25,0,.25.25,0,0,1,0-.25H374.178a.25.25,0,0,1,.25.25A.25.25,0,0,1,374.178.25Z" transform="translate(0.331 45.507)" fill="#fff"/><path d="M374.178.25H0A.25.25,0,0,1-.25,0,.25.25,0,0,1,0-.25H374.178a.25.25,0,0,1,.25.25A.25.25,0,0,1,374.178.25Z" transform="translate(0.331 31.127)" fill="#fff"/><path d="M374.178.25H0A.25.25,0,0,1-.25,0,.25.25,0,0,1,0-.25H374.178a.25.25,0,0,1,.25.25A.25.25,0,0,1,374.178.25Z" transform="translate(0.331 20.886)" fill="#fff"/><path d="M374.178.25H0A.25.25,0,0,1-.25,0,.25.25,0,0,1,0-.25H374.178a.25.25,0,0,1,.25.25A.25.25,0,0,1,374.178.25Z" transform="translate(0.331 10.573)" fill="#fff"/><path d="M374.178.25H0A.25.25,0,0,1-.25,0,.25.25,0,0,1,0-.25H374.178a.25.25,0,0,1,.25.25A.25.25,0,0,1,374.178.25Z" transform="translate(0.331 61.923)" fill="#fff"/><path d="M374.178.25H0A.25.25,0,0,1-.25,0,.25.25,0,0,1,0-.25H374.178a.25.25,0,0,1,.25.25A.25.25,0,0,1,374.178.25Z" transform="translate(0.331 267.107)" fill="#fff"/><path d="M374.178.25H0A.25.25,0,0,1-.25,0,.25.25,0,0,1,0-.25H374.178a.25.25,0,0,1,.25.25A.25.25,0,0,1,374.178.25Z" transform="translate(0.331 250.694)" fill="#fff"/><path d="M374.178.25H0A.25.25,0,0,1-.25,0,.25.25,0,0,1,0-.25H374.178a.25.25,0,0,1,.25.25A.25.25,0,0,1,374.178.25Z" transform="translate(0.331 236.313)" fill="#fff"/><path d="M374.178.25H0A.25.25,0,0,1-.25,0,.25.25,0,0,1,0-.25H374.178a.25.25,0,0,1,.25.25A.25.25,0,0,1,374.178.25Z" transform="translate(0.331 226.072)" fill="#fff"/><path d="M374.178.25H0A.25.25,0,0,1-.25,0,.25.25,0,0,1,0-.25H374.178a.25.25,0,0,1,.25.25A.25.25,0,0,1,374.178.25Z" transform="translate(0.331 215.761)" fill="#fff"/><path d="M374.178.25H0A.25.25,0,0,1-.25,0,.25.25,0,0,1,0-.25H374.178a.25.25,0,0,1,.25.25A.25.25,0,0,1,374.178.25Z" transform="translate(0.331 287.591)" fill="#fff"/><path d="M374.178.25H0A.25.25,0,0,1-.25,0,.25.25,0,0,1,0-.25H374.178a.25.25,0,0,1,.25.25A.25.25,0,0,1,374.178.25Z" transform="translate(0.331 349.117)" fill="#fff"/><path d="M374.178.25H0A.25.25,0,0,1-.25,0,.25.25,0,0,1,0-.25H374.178a.25.25,0,0,1,.25.25A.25.25,0,0,1,374.178.25Z" transform="translate(0.331 312.214)" fill="#fff"/><path d="M0,5.371a.25.25,0,0,1-.25-.25V0A.25.25,0,0,1,0-.25.25.25,0,0,1,.25,0V5.121A.25.25,0,0,1,0,5.371Z" transform="translate(107.659 487.587)" fill="#fff"/><path d="M0,5.371a.25.25,0,0,1-.25-.25V0A.25.25,0,0,1,0-.25.25.25,0,0,1,.25,0V5.121A.25.25,0,0,1,0,5.371Z" transform="translate(45.858 487.587)" fill="#fff"/><path d="M0,5.371a.25.25,0,0,1-.25-.25V0A.25.25,0,0,1,0-.25.25.25,0,0,1,.25,0V5.121A.25.25,0,0,1,0,5.371Z" transform="translate(250.977 487.587)" fill="#fff"/><path d="M374.178.25H0A.25.25,0,0,1-.25,0,.25.25,0,0,1,0-.25H374.178a.25.25,0,0,1,.25.25A.25.25,0,0,1,374.178.25Z" transform="translate(0.331 168.619)" fill="#fff"/></g><path d="M0,143.844a.25.25,0,0,1-.224-.138.25.25,0,0,1,.112-.335L286.664-.224A.25.25,0,0,1,287-.112a.25.25,0,0,1-.112.335L.112,143.817A.249.249,0,0,1,0,143.844Z" transform="translate(78.337 61.923)" fill="#fff"/><path d="M0,143.914a.25.25,0,0,1-.224-.138.25.25,0,0,1,.112-.336L286.664-.224A.25.25,0,0,1,287-.112a.25.25,0,0,1-.112.336L.112,143.888A.249.249,0,0,1,0,143.914Z" transform="translate(78.338 82.407)" fill="#fff"/><path d="M0,144.9a.25.25,0,0,1-.224-.138.25.25,0,0,1,.112-.335L288.7-.224a.25.25,0,0,1,.335.112.25.25,0,0,1-.112.335L.112,144.873A.249.249,0,0,1,0,144.9Z" transform="translate(76.302 107.026)" fill="#fff"/><path d="M0,143.846a.25.25,0,0,1-.224-.138.25.25,0,0,1,.112-.336L286.664-.224A.25.25,0,0,1,287-.112a.25.25,0,0,1-.112.336L.112,143.82A.249.249,0,0,1,0,143.846Z" transform="translate(78.338 143.995)" fill="#fff"/><path d="M0,143.846a.25.25,0,0,1-.224-.138.25.25,0,0,1,.112-.336L286.664-.224A.25.25,0,0,1,287-.112a.25.25,0,0,1-.112.336L.112,143.82A.249.249,0,0,1,0,143.846Z" transform="translate(78.338 168.618)" fill="#fff"/><path d="M0,143.851a.25.25,0,0,1-.224-.138.25.25,0,0,1,.112-.335L286.664-.224A.25.25,0,0,1,287-.112a.25.25,0,0,1-.112.335L.112,143.824A.249.249,0,0,1,0,143.851Z" transform="translate(78.338 205.517)" fill="#fff"/><path d="M0,143.778a.25.25,0,0,1-.224-.138.25.25,0,0,1,.112-.335L286.664-.224A.25.25,0,0,1,287-.112a.25.25,0,0,1-.112.335L.112,143.751A.249.249,0,0,1,0,143.778Z" transform="translate(78.338 267.107)" fill="#fff"/><g clip-path="url(#b)"><path d="M0,5.371a.25.25,0,0,1-.25-.25V0A.25.25,0,0,1,0-.25.25.25,0,0,1,.25,0V5.121A.25.25,0,0,1,0,5.371Z" transform="translate(312.778 487.587)" fill="#fff"/><path d="M374.178.25H0A.25.25,0,0,1-.25,0,.25.25,0,0,1,0-.25H374.178a.25.25,0,0,1,.25.25A.25.25,0,0,1,374.178.25Z" transform="translate(0.331 492.708)" fill="#fff"/></g></g></g><g transform="translate(-53.787 -157.063)"><rect width="60" height="60" transform="translate(211.787 5509.063)" fill="none"/><path d="M49.461,49.811H2.2A2.2,2.2,0,0,1,0,47.627V2.181A2.195,2.195,0,0,1,2.2,0H49.461a2.194,2.194,0,0,1,2.2,2.181V47.627A2.2,2.2,0,0,1,49.461,49.811ZM25.38,32.918a4.906,4.906,0,0,0-3.4,1.82L15.893,44.994c.032,0,3.305.024,5.962.024,1.062,0,2.462,0,3.106-.024a3.71,3.71,0,0,0,3.106-1.652c1.249-2.189,4.718-8.51,4.865-8.778a4.885,4.885,0,0,1,3.673-1.646h4.212l.12,0,.161,0a3.284,3.284,0,0,0,2.792-1.673A44.7,44.7,0,0,0,48.1,23.412c.856-2.261.858-4.025,0-5.244a3.757,3.757,0,0,0-2.721-1.495H35.113a4.426,4.426,0,0,0-3.283,1.565l-4,6.681H38.669c-.03.054-3.519,6.234-3.556,6.331-.647,1.65-2.756,1.669-2.777,1.669ZM3.531,4.814,12.3,18.932,3.5,32.918c.033,0,3.313.007,5.977.007,1.245,0,2.618,0,3.365-.007a4.232,4.232,0,0,0,3.258-1.7l7.221-12.286c-.062-.109-6.5-11.5-7.161-12.435a3.715,3.715,0,0,0-2.943-1.684H3.531Zm27.122,0a3.275,3.275,0,0,0-2.741,1.495c-.054.094-5.444,9.451-5.678,9.92a.413.413,0,0,0-.043.379.332.332,0,0,0,.228.149h8.259a3.951,3.951,0,0,0,2.961-1.534L39.866,4.814Z" transform="translate(216.17 5513.446)" fill="#fff"/><path d="M49.461,50.311H2.2A2.7,2.7,0,0,1-.5,47.627V2.181A2.7,2.7,0,0,1,2.2-.5H49.461a2.7,2.7,0,0,1,2.7,2.681V47.627A2.7,2.7,0,0,1,49.461,50.311ZM2.2.5A1.694,1.694,0,0,0,.5,2.181V47.627a1.7,1.7,0,0,0,1.7,1.685H49.461a1.7,1.7,0,0,0,1.7-1.685V2.181A1.694,1.694,0,0,0,49.461.5ZM21.855,45.519c-2.343,0-5.137-.018-5.937-.024l-.9-.005,6.546-11.032.019-.024a5.347,5.347,0,0,1,3.8-2.014h6.955c.015,0,1.795-.035,2.311-1.35.022-.057.114-.239,3.166-5.649H26.946l4.469-7.462.017-.022a4.97,4.97,0,0,1,3.681-1.762H45.384a4.237,4.237,0,0,1,3.13,1.708c.953,1.363.971,3.283.053,5.708l0,.012a45.191,45.191,0,0,1-4.27,7.944,3.776,3.776,0,0,1-3.2,1.877c-.106,0-.2,0-.28,0H36.605a4.383,4.383,0,0,0-3.253,1.42c-.309.563-3.633,6.616-4.851,8.751a4.217,4.217,0,0,1-3.528,1.9C24.326,45.514,22.92,45.519,21.855,45.519ZM16.767,44.5c1.222.008,3.288.019,5.088.019,1.058,0,2.453,0,3.09-.024a3.207,3.207,0,0,0,2.687-1.4c1.247-2.186,4.714-8.5,4.861-8.771l.018-.032.022-.029a5.405,5.405,0,0,1,4.072-1.844h4.212c.08,0,.173,0,.28,0a2.806,2.806,0,0,0,2.389-1.469,44.052,44.052,0,0,0,4.148-7.724c.792-2.094.812-3.7.06-4.774a3.253,3.253,0,0,0-2.311-1.281H35.113a3.956,3.956,0,0,0-2.873,1.353l-3.529,5.893H39.522l-.416.744-.121.214c-2.86,5.069-3.348,5.95-3.415,6.077-.779,1.943-3.21,1.965-3.234,1.965H25.38a4.388,4.388,0,0,0-2.991,1.607ZM9.475,33.425c-2.675,0-5.962-.007-5.979-.007l-.9,0L11.712,18.93,2.631,4.314H13.215a4.225,4.225,0,0,1,3.351,1.9c.45.639,3.445,5.885,5.441,9.4,1.037-1.847,5.272-9.2,5.472-9.546a3.81,3.81,0,0,1,3.174-1.745h10.1l-6.7,11.2a4.491,4.491,0,0,1-3.369,1.745H22.944l.8,1.42.147.26L16.512,31.5a4.772,4.772,0,0,1-3.669,1.92C12.1,33.424,10.721,33.425,9.475,33.425Zm-5.072-1c1.162,0,3.247,0,5.072,0,1.244,0,2.616,0,3.361-.007a3.759,3.759,0,0,0,2.842-1.472l7.064-12.019c-2.432-4.3-6.5-11.445-6.992-12.142a3.2,3.2,0,0,0-2.534-1.472H4.43l8.461,13.62ZM22.788,16.257h7.891a3.463,3.463,0,0,0,2.546-1.314l5.76-9.629H30.653A2.757,2.757,0,0,0,28.344,6.56C26.945,8.989,23.46,15.048,22.788,16.257Z" transform="translate(216.17 5513.446)" fill="rgba(0,0,0,0)"/><path d="M52.371,23.372H60.63a3.921,3.921,0,0,0,2.961-1.534L69.818,11.43H60.6a3.252,3.252,0,0,0-2.741,1.494s-5.441,9.445-5.678,9.921.185.527.185.527" transform="translate(186.218 5506.83)" fill="#cf1126"/><path d="M60.63,23.872H52.337l-.033,0a.813.813,0,0,1-.6-.411.876.876,0,0,1,.039-.836c.24-.481,5.469-9.559,5.691-9.945A3.74,3.74,0,0,1,60.6,10.93H70.7L64,22.128A4.407,4.407,0,0,1,60.63,23.872Zm-7.89-1h7.89a3.437,3.437,0,0,0,2.545-1.312l5.761-9.629H60.6A2.742,2.742,0,0,0,58.3,13.172C56.9,15.6,53.415,21.66,52.74,22.872Z" transform="translate(186.218 5506.83)" fill="rgba(0,0,0,0)"/></g></g></svg>