<svg xmlns="http://www.w3.org/2000/svg" width="2728" height="125" viewBox="0 0 2728 125"><path d="M34.39,0V-33.485h36.2c28.055,0,46.155-16.109,46.155-43.983s-18.1-43.8-46.155-43.8H7.24V0Zm33.3-96.835c15.023,0,22.082,4.525,22.082,19.367,0,15.2-7.059,19.548-22.082,19.548H34.39V-96.835ZM167.968,0V-43.983h17.919c14.118,0,18.643,3.077,23.53,12.489L226.069,0h31.494L240.006-32.58c-4.525-8.507-8.688-14.3-19.548-17.195v-1.448c22.806-2.172,34.209-13.937,34.209-33.666,0-23.168-17.014-36.381-46.879-36.381h-66.97V0Zm0-96.835h39.639c12.851,0,18.643,4.163,18.643,16.109,0,12.67-5.792,16.29-18.643,16.29H167.968ZM342.995,1.81c41.087,0,65.884-24.616,65.884-62.445s-24.8-62.445-65.884-62.445c-40.182,0-65.16,24.616-65.16,62.445S302.813,1.81,342.995,1.81Zm0-26.064c-26.607,0-36.381-9.412-36.381-36.381s9.774-36.381,36.381-36.381,36.924,9.412,36.924,36.381S369.6-24.254,342.995-24.254ZM462.274,0V-33.485h36.2c28.055,0,46.155-16.109,46.155-43.983s-18.1-43.8-46.155-43.8h-63.35V0Zm33.3-96.835c15.023,0,22.082,4.525,22.082,19.367,0,15.2-7.059,19.548-22.082,19.548h-33.3V-96.835ZM631.147,1.81c41.087,0,65.884-24.616,65.884-62.445s-24.8-62.445-65.884-62.445c-40.182,0-65.16,24.616-65.16,62.445S590.965,1.81,631.147,1.81Zm0-26.064c-26.607,0-36.381-9.412-36.381-36.381s9.774-36.381,36.381-36.381,36.924,9.412,36.924,36.381S657.754-24.254,631.147-24.254ZM778.3,1.81c38.553,0,53.938-17.738,53.938-37.467,0-16.652-9.774-29.865-36.924-34.209L761.286-75.3c-10.136-1.81-14.118-4.344-14.118-11.4,0-7.783,5.973-11.584,25.521-11.584,24.073,0,30.046,4.887,30.046,16.471v2.534h27.331v-1.086c0-25.521-17.376-42.716-54.662-42.716-40.725,0-55.567,19.186-55.567,37.467,0,19.729,12.851,30.589,34.571,34.028L788.436-46.7c12.489,2.172,16.652,4.887,16.652,12.308,0,8.145-5.068,11.4-26.788,11.4-24.616,0-30.227-4.525-30.227-15.747v-3.258h-27.15v1.086C720.923-12.67,741.557,1.81,778.3,1.81ZM880.022,0l11.584-26.788h60.635L963.644,0h31.132l-53.4-121.27H902.647L849.614,0Zm33.485-77.649,7.421-18.824h1.991l7.421,18.824,11.4,26.426H902.1ZM1114.96,0V-24.435h-72.219V-121.27h-27.15V0Zm262.269,0V-96.835H1422.3V-121.27H1305.01v24.435h45.069V0Zm171.95,0V-24.435H1473.7V-48.87h72.762V-73.124H1473.7V-96.835h75.477V-121.27H1446.552V0Zm88.871,1.81c37.829,0,61.9-18.824,61.9-49.594V-50.5h-30.227v2.715c0,15.928-9.05,23.53-31.132,23.53-26.607,0-36.562-9.412-36.562-36.381s9.955-36.381,36.562-36.381c22.082,0,31.132,7.6,31.132,23.53v2.715h30.227v-2.715c0-30.77-24.254-49.594-61.9-49.594-40,0-64.8,24.616-64.8,62.445S1598.049,1.81,1638.05,1.81ZM1753.347,0V-48.689h63.35V0h27.15V-121.27H1816.7v48.146h-63.35V-121.27H1726.2V0Zm146.61,0V-58.463l-1.086-22.263h1.81l15.385,22.806L1960.773,0h28.96V-121.27h-27.15v58.463l1.267,24.435h-1.991l-16.652-25.521-43.44-57.377h-28.96V0Zm181.181,1.81c41.087,0,65.884-24.616,65.884-62.445s-24.8-62.445-65.884-62.445c-40.182,0-65.16,24.616-65.16,62.445S2040.956,1.81,2081.138,1.81Zm0-26.064c-26.607,0-36.381-9.412-36.381-36.381s9.774-36.381,36.381-36.381,36.924,9.412,36.924,36.381S2107.745-24.254,2081.138-24.254ZM2272.636,0V-24.435h-72.219V-121.27h-27.15V0Zm87.785,1.81c41.087,0,65.884-24.616,65.884-62.445s-24.8-62.445-65.884-62.445c-40.182,0-65.16,24.616-65.16,62.445S2320.239,1.81,2360.421,1.81Zm0-26.064c-26.607,0-36.381-9.412-36.381-36.381s9.774-36.381,36.381-36.381,36.924,9.412,36.924,36.381S2387.028-24.254,2360.421-24.254ZM2509.746,1.81c26.245,0,38.915-11.946,43.078-27.874h1.448V0h25.159V-64.074h-68.237v20.091h41.087c-.724,15.385-9.231,19.729-37.1,19.729-26.607,0-36.562-9.412-36.562-36.381s10.317-36.381,37.829-36.381c23.349,0,32.58,6.7,32.58,20.815v1.448h30.227V-76.2c0-29.141-24.073-46.879-62.083-46.879-41.63,0-67.332,24.616-67.332,62.445S2472.641,1.81,2509.746,1.81ZM2678.981,0V-40l54.662-81.269h-33.666l-23.168,35.476L2666.673-69.5h-1.991l-10.136-16.29-23.168-35.476h-33.485l53.757,81.088V0Z" transform="translate(-7.24 123.08)" fill="#201952"/></svg>
