<svg xmlns="http://www.w3.org/2000/svg" width="44.544" height="205.968" viewBox="0 0 44.544 205.968"><path d="M26.4,53.984V42.944H41.328V38.672H26.4v-9.6H43.1V24.7H26.4V15.776H21.792V24.7H13.1c.912-2.3,1.776-4.752,2.5-7.2l-4.608-1.056c-1.776,6.72-4.8,13.3-8.688,17.376a28.587,28.587,0,0,1,4.08,2.688,41.442,41.442,0,0,0,4.752-7.44H21.792v9.6H8.112v4.272h13.68v11.04H2.784V58.3H45.408v-4.32Zm3.744,49.776H41.136V100.3H30.144V95.888H42.432V92.336H30.144V88.4H25.776v3.936h-6.24c.48-1.008.912-2.064,1.3-3.12L16.848,88.3a23.567,23.567,0,0,1-6.1,9.648,25.891,25.891,0,0,1,3.552,2.16,25.727,25.727,0,0,0,3.264-4.224h8.208V100.3H15.312v3.456H25.776v5.28h-14.4v3.792H45.168V109.04H30.144ZM31.488,77.5A54.736,54.736,0,0,1,29.28,83.12l1.2.384H17.568l1.728-.48a20.367,20.367,0,0,0-2.208-5.52Zm1.92,6c1.008-1.632,2.208-3.792,3.408-5.856l-.624-.144h6.816V73.616H26.3V69.68H21.84v3.936H5.328V77.5h9.12l-1.728.432A26.039,26.039,0,0,1,14.88,83.5H5.9v7.584c0,5.664-.432,13.872-4.272,19.776A20.93,20.93,0,0,1,5.04,113.7c4.32-6.432,5.136-16.176,5.136-22.608v-3.7H45.408V83.5ZM26.016,128.72H16.752v-4.752h-4.32v4.752H3.216v3.888h22.8ZM20.5,141.68c.96-1.968,2.016-4.944,3.072-7.632l-4.224-.96a57.164,57.164,0,0,1-2.4,7.68ZM11.9,140.672a29.616,29.616,0,0,0-2.112-7.344l-3.7.816a31.3,31.3,0,0,1,1.872,7.44Zm7.968,12.912v7.728H9.216v-7.728ZM5.088,167.792H9.216V165.2H19.872v2.4H24.24V149.648H5.088Zm-3.024-21.84H26.64v-4.08H2.064Zm40.8-19.632-.72.192H28.368v41.28h4.368v-37.1h7.632c-1.344,3.744-3.216,8.784-4.944,12.528,4.416,3.984,5.664,7.488,5.664,10.272,0,1.728-.336,2.976-1.3,3.552a3.923,3.923,0,0,1-1.92.528,26.608,26.608,0,0,1-3.264-.1,10.678,10.678,0,0,1,1.2,4.416,34.45,34.45,0,0,0,3.936-.1,7.568,7.568,0,0,0,3.216-1.152c1.728-1.152,2.448-3.408,2.448-6.624,0-3.264-1.056-7.008-5.472-11.376,2.064-4.176,4.368-9.7,6.24-14.256ZM17.712,183.536v3.408H8.784v-3.408ZM8.784,194v-3.744h8.928V194Zm13.1-14.208H4.368v41.952H8.784v-24.1h13.1ZM30.1,194.1v-3.84H39.36v3.84Zm9.264-10.56v3.408H30.1v-3.408Zm4.56-3.744h-18.1v17.9H39.36v18.336c0,.864-.288,1.152-1.248,1.2-.96,0-4.32.048-7.488-.1a15.933,15.933,0,0,1,1.584,4.608c4.464,0,7.392-.1,9.264-.816,1.824-.768,2.448-2.112,2.448-4.9Z" transform="translate(-1.632 -15.776)" fill="#fff"/></svg>