<svg xmlns="http://www.w3.org/2000/svg" viewBox="0 0 250 250" width="250" height="250" preserveAspectRatio="xMidYMid meet" style="width: 100%; height: 100%; transform: translate3d(0px, 0px, 0px); content-visibility: visible;"><defs><clipPath id="__lottie_element_136"><rect width="250" height="250" x="0" y="0"/></clipPath></defs><g clip-path="url(#__lottie_element_136)"><g transform="matrix(1,0,0,1,7.49200439453125,65.48299407958984)" opacity="1" style="display: block;"><g opacity="1" transform="matrix(1,0,0,1,118.37999725341797,80.68000030517578)"><path fill="rgb(255,255,255)" fill-opacity="1" d=" M-50.55500030517578,28.969999313354492 C-50.625,29.31999969482422 -50.619998931884766,27.8799991607666 -50.709999084472656,28.190000534057617 C-52.689998626708984,35.54999923706055 -53.97999954223633,40.45000076293945 -54.459999084472656,48.09000015258789 C-54.7599983215332,52.810001373291016 -55.099998474121094,57.540000915527344 -54.2599983215332,62.25 C-54.189998626708984,62.68000030517578 -54.220001220703125,63.15999984741211 -53.70000076293945,63.47999954223633 C-53.33000183105469,61.380001068115234 -52.959999084472656,59.369998931884766 -52.91999816894531,57.33000183105469 C-52.72999954223633,48.91999816894531 -51.77000045776367,40.59000015258789 -50.119998931884766,32.34000015258789 C-49.61000061035156,29.81999969482422 -49.560001373291016,31.375 -49.599998474121094,28.795000076293945 C-49.599998474121094,28.774999618530273 -49.89500045776367,27.489999771118164 -49.89500045776367,27.40999984741211 C-49.974998474121094,27.299999237060547 -51.49700164794922,28.211999893188477 -50.55500030517578,28.969999313354492z M-16.85691261291504,-28.481534957885742 C-17.056913375854492,-29.671533584594727 -17.494260787963867,-30.625629425048828 -17.67121124267578,-31.202987670898438 C-17.868728637695312,-31.871665954589844 -18.10780143737793,-32.55632400512695 -18.39394187927246,-33.25215148925781 C-18.63194465637207,-33.830780029296875 -18.901823043823242,-34.4166259765625 -19.20899200439453,-35.0103874206543 C-21.403926849365234,-39.256629943847656 -25.45228385925293,-43.84822082519531 -32.65999984741211,-48.18000030517578 C-33.40374755859375,-48.6270866394043 -33.849998474121094,-49.09000015258789 -34.060001373291016,-49.880001068115234 C-34.31999969482422,-50.869998931884766 -34.799015045166016,-49.039588928222656 -35.08572006225586,-50.013275146484375 C-35.70757293701172,-52.19257736206055 -37.33557891845703,-52.62055587768555 -38.7257194519043,-53.53113555908203 C-40.2745246887207,-54.57669448852539 -40.01715850830078,-53.35140609741211 -40.88715744018555,-53.62140655517578 C-41.13715744018555,-53.67140579223633 -41.40999984741211,-54.970001220703125 -41.630001068115234,-54.84000015258789 C-41.91999816894531,-54.66999816894531 -41.97999954223633,-54.279998779296875 -42,-53.939998626708984 C-42.040000915527344,-53.15999984741211 -41.97999954223633,-52.130001068115234 -41.97999954223633,-51.349998474121094 C-41.97999954223633,-51.27000045776367 -41.97999954223633,-51.189998626708984 -41.9900016784668,-51.11000061035156 C-41.9900016784668,-51.11000061035156 -41.97999954223633,-51.11000061035156 -41.97999954223633,-51.11000061035156 C-41.97999954223633,-51.029998779296875 -41.9900016784668,-50.939998626708984 -42,-50.86000061035156 C-42.119998931884766,-48.599998474121094 -42.41999816894531,-46.439998626708984 -42.81999969482422,-44.150001525878906 C-43.15999984741211,-44.36000061035156 -43.34000015258789,-44.41999816894531 -43.439998626708984,-44.540000915527344 C-48.189998626708984,-50.40999984741211 -53.68000030517578,-55.58000183105469 -59.02000045776367,-60.88999938964844 C-59.029998779296875,-60.88999938964844 -59.04999923706055,-60.900001525878906 -59.060001373291016,-60.90999984741211 C-59.119998931884766,-60.970001220703125 -59.20000076293945,-61.04999923706055 -59.27000045776367,-61.119998931884766 C-59.27000045776367,-61.119998931884766 -59.720001220703125,-61.560001373291016 -59.720001220703125,-61.560001373291016 C-60.88999938964844,-62.66999816894531 -62.7599983215332,-64.41000366210938 -64.20999908447266,-66.08000183105469 C-64.36000061035156,-66.19000244140625 -64.4800033569336,-66.33999633789062 -64.58999633789062,-66.52999877929688 C-64.5999984741211,-66.52999877929688 -64.5999984741211,-66.54000091552734 -64.5999984741211,-66.54000091552734 C-64.72000122070312,-66.73999786376953 -64.83000183105469,-66.97000122070312 -64.93000030517578,-67.22000122070312 C-64.16999816894531,-67.33999633789062 -63.54999923706055,-67.36000061035156 -62.86000061035156,-67.27999877929688 C-62.52000045776367,-67.33000183105469 -62.15999984741211,-67.33999633789062 -61.83000183105469,-67.37999725341797 C-61.40999984741211,-67.43000030517578 -60.54999923706055,-68.22000122070312 -59.91999816894531,-68.70999908447266 C-60.93000030517578,-68.30999755859375 -62.5099983215332,-68.37000274658203 -63.810001373291016,-68.41000366210938 C-66.41000366210938,-68.87000274658203 -68.12000274658203,-67.47000122070312 -69.61000061035156,-65.61000061035156 C-69.94999694824219,-65.19000244140625 -70.27999877929688,-64.76000213623047 -70.61000061035156,-64.33000183105469 C-71.01000213623047,-63.79999923706055 -71.37000274658203,-63.209999084472656 -71.23999786376953,-62.52000045776367 C-71.06999969482422,-61.65999984741211 -71.62999725341797,-61.540000915527344 -72.2300033569336,-61.36000061035156 C-78.44000244140625,-59.470001220703125 -83.7300033569336,-56.060001373291016 -88.31999969482422,-51.5099983215332 C-91.61000061035156,-48.2400016784668 -94.4800033569336,-44.630001068115234 -97.08000183105469,-40.810001373291016 C-109.08999633789062,-23.139999389648438 -115.7300033569336,-3.619999885559082 -117.19000244140625,17.65999984741211 C-118.12999725341797,31.5 -117.25,45.22999954223633 -114.36000061035156,58.79999923706055 C-113.4800033569336,62.959999084472656 -112.5199966430664,67.11000061035156 -110.81999969482422,71.04000091552734 C-110.66999816894531,71.38999938964844 -110.58999633789062,71.79000091552734 -110.02999877929688,71.94999694824219 C-110.16000366210938,70.16999816894531 -110.56999969482422,68.54000091552734 -110.9800033569336,66.91999816894531 C-115.31999969482422,49.40999984741211 -116.58999633789062,31.68000030517578 -114.80999755859375,13.729999542236328 C-113.47000122070312,0.23999999463558197 -109.87000274658203,-12.630000114440918 -103.91999816894531,-24.829999923706055 C-99.80000305175781,-33.27000045776367 -94.9000015258789,-41.20000076293945 -88.61000061035156,-48.22999954223633 C-83.97000122070312,-53.41999816894531 -78.41000366210938,-57.290000915527344 -71.94999694824219,-59.86000061035156 C-70.55000305175781,-60.40999984741211 -70.52999877929688,-60.40999984741211 -70.02999877929688,-59.060001373291016 C-69.33000183105469,-57.150001525878906 -68.62999725341797,-55.22999954223633 -68,-53.29999923706055 C-64.98999786376953,-44.130001068115234 -62,-34.95000076293945 -59.0099983215332,-25.780000686645508 C-58.7599983215332,-25.040000915527344 -58.5099983215332,-24.309999465942383 -58.22999954223633,-23.579999923706055 C-57.970001220703125,-22.8799991607666 -57.619998931884766,-22.229999542236328 -56.7599983215332,-22.200000762939453 C-55.9900016784668,-22.170000076293945 -55.58000183105469,-22.709999084472656 -55.25,-23.309999465942383 C-54.9900016784668,-23.780000686645508 -54.75,-24.260000228881836 -54.4900016784668,-24.729999542236328 C-51.880001068115234,-29.65999984741211 -49.099998474121094,-34.4900016784668 -45.91999816894531,-39.08000183105469 C-45.56999969482422,-39.59000015258789 -45.310001373291016,-40.22999954223633 -44.61000061035156,-40.5 C-44.31999969482422,-40.0099983215332 -44.34000015258789,-39.52000045776367 -44.290000915527344,-39.04999923706055 C-43.619998931884766,-33.150001525878906 -42.939998626708984,-27.260000228881836 -42.4900016784668,-21.34000015258789 C-42.38999938964844,-19.969999313354492 -42.08000183105469,-20.794328689575195 -41.54999923706055,-19.224328994750977 C-40.939998626708984,-21.1943302154541 -40.86000061035156,-20.75 -40.90999984741211,-22.479999542236328 C-41.06999969482422,-28.25 -41.849998474121094,-33.939998626708984 -42.93000030517578,-39.61000061035156 C-43.040000915527344,-40.16999816894531 -43.34000015258789,-40.72999954223633 -43.02000045776367,-41.33000183105469 C-40.15999984741211,-40.189998626708984 -37.459999084472656,-38.779998779296875 -34.81999969482422,-37.27000045776367 C-32.88999938964844,-36.15999984741211 -30.940000534057617,-35.11000061035156 -28.989999771118164,-34.060001373291016 C-28.520000457763672,-33.79999923706055 -28,-33.619998931884766 -27.489999771118164,-33.470001220703125 C-27.06999969482422,-33.34000015258789 -26.6299991607666,-33.41999816894531 -26.350000381469727,-33.790000915527344 C-26.010000228881836,-34.220001220703125 -26.100000381469727,-34.70000076293945 -26.350000381469727,-35.13999938964844 C-26.469999313354492,-35.34000015258789 -26.639999389648438,-35.52000045776367 -26.799999237060547,-35.70000076293945 C-29.399999618530273,-38.459999084472656 -30.959999084472656,-41.83000183105469 -32.400001525878906,-45.27000045776367 C-32.54999923706055,-45.619998931884766 -32.880001068115234,-45.9900016784668 -32.529998779296875,-46.40999984741211 C-27.542999267578125,-43.7599983215332 -24.179964065551758,-39.778594970703125 -21.775375366210938,-35.615848541259766 C-21.369497299194336,-34.912837982177734 -20.991310119628906,-34.20553970336914 -20.636659622192383,-33.49840545654297 C-20.198522567749023,-32.62348937988281 -19.797544479370117,-31.75012969970703 -19.426929473876953,-30.887042999267578 C-19.31336784362793,-30.793376922607422 -18.318918228149414,-26.305484771728516 -17.93891716003418,-27.805484771728516 C-17.858917236328125,-28.125484466552734 -16.816913604736328,-27.6915340423584 -16.85691261291504,-28.481534957885742z M-46.5,-42.060001373291016 C-47.060001373291016,-41.36000061035156 -47.56999969482422,-40.61000061035156 -48.08000183105469,-39.869998931884766 C-50.83000183105469,-35.869998931884766 -53.34000015258789,-31.719999313354492 -55.66999816894531,-27.459999084472656 C-55.95000076293945,-26.950000762939453 -56.130001068115234,-26.360000610351562 -56.650001525878906,-25.979999542236328 C-57.220001220703125,-26.549999237060547 -57.630001068115234,-27.260000228881836 -57.52000045776367,-27.959999084472656 C-56.36000061035156,-35.58000183105469 -63.380001068115234,-47.529998779296875 -67.2300033569336,-57.4900016784668 C-67.79000091552734,-58.939998626708984 -68.30999755859375,-60.40999984741211 -68.91000366210938,-61.84000015258789 C-69.19000244140625,-62.529998779296875 -69.1500015258789,-63.09000015258789 -68.69000244140625,-63.66999816894531 C-67.95999908447266,-64.5999984741211 -67.29000091552734,-65.58999633789062 -66.4000015258789,-66.30000305175781 C-66.2300033569336,-66.2300033569336 -66.16000366210938,-66.22000122070312 -66.12000274658203,-66.18000030517578 C-62.459999084472656,-61.36000061035156 -57.970001220703125,-57.29999923706055 -53.849998474121094,-52.88999938964844 C-51.36000061035156,-50.220001220703125 -48.83000183105469,-47.59000015258789 -46.5099983215332,-44.75 C-45.40999984741211,-43.400001525878906 -45.43000030517578,-43.40999984741211 -46.5,-42.060001373291016z M-31.43000030517578,-38.880001068115234 C-31.15999984741211,-38.380001068115234 -30.889999389648438,-37.880001068115234 -30.59000015258789,-37.31999969482422 C-31.260000228881836,-37.209999084472656 -31.6200008392334,-37.56999969482422 -32.0099983215332,-37.790000915527344 C-34.689998626708984,-39.25 -37.33000183105469,-40.790000915527344 -40.13999938964844,-41.970001220703125 C-40.75,-42.22999954223633 -41.16999816894531,-42.529998779296875 -41.060001373291016,-43.279998779296875 C-40.63999938964844,-46.36000061035156 -40.310001373291016,-49.45000076293945 -40.130001068115234,-52.560001373291016 C-40.37200164794922,-52.78799819946289 -39.90999984741211,-53.34000015258789 -39.380001068115234,-53.369998931884766 C-39.150001525878906,-53.38999938964844 -38.847999572753906,-52.61800003051758 -38.608001708984375,-52.65800094604492 C-36.38800048828125,-53.007999420166016 -36.689998626708984,-53.7400016784668 -36.290000915527344,-51.75 C-35.369998931884766,-47.20000076293945 -33.68000030517578,-42.939998626708984 -31.43000030517578,-38.880001068115234z M105.7699966430664,-80.08999633789062 C98.77999877929688,-79.51000213623047 91.77999877929688,-79.05000305175781 84.80000305175781,-78.44000244140625 C77.51000213623047,-77.80000305175781 70.2300033569336,-77.13999938964844 63,-75.98999786376953 C61.83000183105469,-75.80999755859375 60.70000076293945,-75.31999969482422 59.459999084472656,-75.55999755859375 C58.810001373291016,-75.69000244140625 58.459999084472656,-75.20999908447266 58.38999938964844,-74.61000061035156 C58.349998474121094,-74.19000244140625 58.38999938964844,-73.7699966430664 58.439998626708984,-73.3499984741211 C58.70000076293945,-71.02999877929688 59.04999923706055,-68.70999908447266 59.22999954223633,-66.37999725341797 C59.43000030517578,-63.779998779296875 59.470001220703125,-61.16999816894531 59.599998474121094,-58.15999984741211 C59.119998931884766,-58.63999938964844 58.90999984741211,-58.81999969482422 58.72999954223633,-59.029998779296875 C57.79999923706055,-60.130001068115234 56.90999984741211,-61.2599983215332 55.959999084472656,-62.34000015258789 C53.119998931884766,-65.58000183105469 51.58000183105469,-65.77999877929688 47.90999984741211,-63.43000030517578 C47.7599983215332,-63.33000183105469 47.61000061035156,-63.2400016784668 47.459999084472656,-63.130001068115234 C46.209999084472656,-62.209999084472656 44.93000030517578,-61.310001373291016 43.709999084472656,-60.349998474121094 C43.15999984741211,-59.90999984741211 42.790000915527344,-59.93000030517578 42.400001525878906,-60.5 C42.22999954223633,-60.7400016784668 42.029998779296875,-60.959999084472656 41.84000015258789,-61.20000076293945 C40.150001525878906,-63.29999923706055 38.31999969482422,-65.29000091552734 36.849998474121094,-67.55999755859375 C36.31999969482422,-68.36000061035156 35.720001220703125,-68.54000091552734 34.880001068115234,-68.05999755859375 C33.72999954223633,-67.4000015258789 32.4900016784668,-66.79000091552734 31.84000015258789,-65.5999984741211 C31.5,-64.97000122070312 30.829999923706055,-64.94999694824219 30.389999389648438,-64.58000183105469 C30.68000030517578,-63.650001525878906 31.15999984741211,-62.95000076293945 31.639999389648438,-62.27000045776367 C33.130001068115234,-60.15999984741211 34.63999938964844,-58.06999969482422 36.150001525878906,-55.9900016784668 C37.0099983215332,-54.79999923706055 37.02000045776367,-54.810001373291016 36.040000915527344,-53.83000183105469 C35.189998626708984,-52.97999954223633 34.34000015258789,-52.130001068115234 33.4900016784668,-51.279998779296875 C31.110000610351562,-48.88999938964844 31.100000381469727,-48.83000183105469 33.31999969482422,-46.36000061035156 C35.560001373291016,-43.869998931884766 37.56999969482422,-41.20000076293945 39.54999923706055,-38.38999938964844 C37.58000183105469,-36.68000030517578 31.676000595092773,-31.525999069213867 31.239999771118164,-31.149999618530273 C31.239999771118164,-31.1299991607666 31.229999542236328,-31.100000381469727 31.229999542236328,-31.100000381469727 C29.920000076293945,-29.100000381469727 29.72599983215332,-29.395999908447266 31.209999084472656,-27.15999984741211 C32.069000244140625,-25.865999221801758 33.04999923706055,-24.649999618530273 34.029998779296875,-23.440000534057617 C34.5,-22.860000610351562 34.56999969482422,-22.40999984741211 33.97999954223633,-21.90999984741211 C31.43000030517578,-19.75 29.81999969482422,-16.81999969482422 27.709999084472656,-14.300000190734863 C27.209999084472656,-13.699999809265137 26.8799991607666,-13.229999542236328 25.979999542236328,-13.720000267028809 C24.90999984741211,-14.3100004196167 23.8799991607666,-13.850000381469727 22.959999084472656,-13.199999809265137 C21.959999084472656,-12.489999771118164 21.270000457763672,-11.510000228881836 20.670000076293945,-10.460000038146973 C19.520000457763672,-8.40999984741211 18.56999969482422,-6.28000020980835 17.940000534057617,-4.019999980926514 C17.360000610351562,-1.940000057220459 16.270000457763672,-0.3199999928474426 14.25,0.5799999833106995 C14.09000015258789,0.6600000262260437 13.920000076293945,0.7300000190734863 13.789999961853027,0.8500000238418579 C13.619999885559082,1 13.380000114440918,1.1699999570846558 13.5600004196167,1.440000057220459 C13.649999618530273,1.5700000524520874 13.819999694824219,1.6799999475479126 13.979999542236328,1.7200000286102295 C14.529999732971191,1.840000033378601 15.039999961853027,1.690000057220459 15.550000190734863,1.4800000190734863 C17.420000076293945,0.7400000095367432 18.549999237060547,-0.6600000262260437 19.110000610351562,-2.5399999618530273 C19.790000915527344,-4.849999904632568 20.56999969482422,-7.110000133514404 21.709999084472656,-9.229999542236328 C22.190000534057617,-10.130000114440918 22.700000762939453,-11.020000457763672 23.479999542236328,-11.710000038146973 C24.75,-12.8100004196167 26.020000457763672,-12.510000228881836 26.59000015258789,-10.949999809265137 C27.1200008392334,-9.470000267028809 26.93000030517578,-7.989999771118164 26.389999389648438,-6.550000190734863 C26.110000610351562,-5.800000190734863 25.6299991607666,-5.480000019073486 24.860000610351562,-5.949999809265137 C24.709999084472656,-6.039999961853027 24.549999237060547,-6.130000114440918 24.389999389648438,-6.21999979019165 C23.549999237060547,-6.659999847412109 22.68000030517578,-6.889999866485596 21.860000610351562,-6.239999771118164 C21.079999923706055,-5.619999885559082 21.010000228881836,-4.710000038146973 21.110000610351562,-3.7799999713897705 C21.18000030517578,-3.049999952316284 21.43000030517578,-2.369999885559082 21.81999969482422,-1.7599999904632568 C22.760000228881836,-0.28999999165534973 22.780000686645508,1.2699999809265137 22.3700008392334,2.9100000858306885 C22.100000381469727,4 21.65999984741211,5.079999923706055 22.1200008392334,6.480000019073486 C23.860000610351562,4.96999979019165 24.209999084472656,3.0999999046325684 24.520000457763672,1.2100000381469727 C24.850000381469727,-0.8199999928474426 23.479999542236328,-2.4000000953674316 22.829999923706055,-4.519999980926514 C24.15999984741211,-4.25 25.010000228881836,-3.3499999046325684 26.139999389648438,-3.700000047683716 C27.200000762939453,-4.039999961853027 27.639999389648438,-4.980000019073486 28.31999969482422,-5.840000152587891 C31.229999542236328,-2.059999942779541 33.72999954223633,1.8600000143051147 36.349998474121094,6.070000171661377 C34.58000183105469,6.25 33.06999969482422,6.199999809265137 31.549999237060547,5.929999828338623 C29.889999389648438,5.630000114440918 29.780000686645508,5.639999866485596 28.920000076293945,7.039999961853027 C27.760000228881836,8.920000076293945 26.15999984741211,10.329999923706055 24.350000381469727,11.550000190734863 C22.860000610351562,12.550000190734863 21.280000686645508,12.760000228881836 19.549999237060547,12.300000190734863 C18.200000762939453,11.930000305175781 17.040000915527344,11.149999618530273 15.75,10.670000076293945 C15.319999694824219,10.5 15.220000267028809,10.050000190734863 15.069999694824219,9.65999984741211 C13.630000114440918,5.940000057220459 12.569999694824219,2.1500000953674316 13.050000190734863,-1.909999966621399 C13.09000015258789,-2.259999990463257 13.09000015258789,-2.630000114440918 13.029999732971191,-2.9800000190734863 C12.949999809265137,-3.4700000286102295 12.59000015258789,-3.700000047683716 12.109999656677246,-3.5999999046325684 C11.710000038146973,-3.5199999809265137 11.319999694824219,-3.3399999141693115 10.930000305175781,-3.180000066757202 C6.920000076293945,-1.590000033378601 2.809999942779541,-0.30000001192092896 -1.3300000429153442,0.9100000262260437 C-1.559999942779541,0.9800000190734863 -3.7899999618530273,0.47999998927116394 -3.990000009536743,0.5099999904632568 C-5.619999885559082,0.7599999904632568 -5.670000076293945,1.2200000286102295 -7.179999828338623,2.009999990463257 C-7.349999904632568,2.0999999046325684 -7.519999980926514,2.200000047683716 -7.619999885559082,2.369999885559082 C-7.71999979019165,2.5299999713897705 -7.730000019073486,2.7699999809265137 -7.590000152587891,2.890000104904175 C-7.5,2.9700000286102295 -7.380000114440918,2.990000009536743 -7.269999980926514,3.009999990463257 C-6.739999771118164,3.0799999237060547 -6.199999809265137,3.059999942779541 -5.679999828338623,2.940000057220459 C-5.170000076293945,2.690000057220459 -4.639999866485596,2.5399999618530273 -4.039999961853027,2.4700000286102295 C-2.0799999237060547,2.2300000190734863 -0.1599999964237213,1.7400000095367432 1.75,1.2300000190734863 C2.259999990463257,1.090000033378601 2.7799999713897705,0.9700000286102295 3.440000057220459,0.8100000023841858 C3.8499999046325684,5.559999942779541 5.170000076293945,9.859999656677246 8.850000381469727,13.600000381469727 C8.550000190734863,11.760000228881836 8.029999732971191,10.449999809265137 7.409999847412109,9.15999984741211 C6.269999980926514,6.769999980926514 5.380000114440918,4.300000190734863 4.829999923706055,1.7000000476837158 C4.570000171661377,0.46000000834465027 4.579999923706055,0.4300000071525574 5.78000020980835,0.029999999329447746 C7.519999980926514,-0.5600000023841858 9.270000457763672,-1.1200000047683716 11.220000267028809,-1.7599999904632568 C10.619999885559082,3.630000114440918 12.220000267028809,8.270000457763672 14.699999809265137,12.65999984741211 C14.470000267028809,13.09000015258789 14.069999694824219,13.260000228881836 13.720000267028809,13.470000267028809 C3.0299999713897705,19.65999984741211 -7.630000114440918,25.90999984741211 -19.149999618530273,30.469999313354492 C-21.110000610351562,31.25 -23.040000915527344,32.04999923706055 -25.059999465942383,32.650001525878906 C-27.989999771118164,33.52000045776367 -30.719999313354492,33.15999984741211 -33.29999923706055,31.459999084472656 C-34.439998626708984,30.709999084472656 -35.439998626708984,29.700000762939453 -36.9900016784668,29.450000762939453 C-36.268001556396484,27.621000289916992 -35.46200180053711,25.92099952697754 -34.608001708984375,24.281999588012695 C-33.94900131225586,23.017000198364258 -34.62200164794922,24.399999618530273 -34.685001373291016,24.632999420166016 C-35.402000427246094,26.632999420166016 -35.095001220703125,25.625 -34.64500045776367,24.514999389648438 C-34.6150016784668,24.135000228881836 -35.073001861572266,24.746999740600586 -35.37300109863281,24.53700065612793 C-35.472999572753906,24.466999053955078 -35.47800064086914,24.332000732421875 -35.597999572753906,24.351999282836914 C-36.06800079345703,24.41200065612793 -36.03799819946289,24.197999954223633 -36.30799865722656,24.488000869750977 C-36.28799819946289,24.49799919128418 -36.08000183105469,24.131999969482422 -36.060001373291016,24.152000427246094 C-36.45000076293945,24.691999435424805 -36.362998962402344,24.172000885009766 -36.7130012512207,24.652000427246094 C-38.058998107910156,26.51300048828125 -35.5880012512207,22.93000030517578 -36.67499923706055,24.905000686645508 C-39.301998138427734,29.68000030517578 -41.28900146484375,34.229000091552734 -42.349998474121094,39.689998626708984 C-43.81999969482422,47.22999954223633 -43.88999938964844,54.81999969482422 -42.970001220703125,62.43000030517578 C-42.279998779296875,68.08999633789062 -41.400001525878906,73.70999908447266 -39.290000915527344,79.05999755859375 C-39.11000061035156,79.51000213623047 -39.060001373291016,80.02999877929688 -38.47999954223633,80.43000030517578 C-38.790000915527344,77.97000122070312 -38.97999954223633,75.63999938964844 -39.380001068115234,73.3499984741211 C-40.77000045776367,65.47000122070312 -41.66999816894531,57.560001373291016 -41.27000045776367,49.54999923706055 C-40.97999954223633,43.65999984741211 -40.029998779296875,37.869998931884766 -38.08000183105469,32.279998779296875 C-37.86000061035156,31.670000076293945 -37.779998779296875,30.989999771118164 -37.209999084472656,30.469999313354492 C-36.9900016784668,30.760000228881836 -36.790000915527344,31.059999465942383 -36.560001373291016,31.31999969482422 C-33.52000045776367,34.65999984741211 -29.899999618530273,36.34000015258789 -25.299999237060547,35.25 C-23.25,34.77000045776367 -21.299999237060547,34.0099983215332 -19.34000015258789,33.2599983215332 C-7.199999809265137,28.56999969482422 3.880000114440918,21.850000381469727 15.050000190734863,15.289999961853027 C15.949999809265137,14.760000228881836 16.770000457763672,14.170000076293945 16.6299991607666,12.970000267028809 C17.139999389648438,12.90999984741211 17.420000076293945,13.180000305175781 17.729999542236328,13.329999923706055 C20.579999923706055,14.75 23.260000228881836,14.550000190734863 25.84000015258789,12.630000114440918 C27.440000534057617,11.4399995803833 28.889999389648438,10.109999656677246 29.979999542236328,8.430000305175781 C30.309999465942383,7.900000095367432 30.610000610351562,7.460000038146973 31.389999389648438,7.650000095367432 C33.04999923706055,8.0600004196167 34.72999954223633,7.929999828338623 36.369998931884766,7.5 C37.08000183105469,7.309999942779541 37.459999084472656,7.519999980926514 37.86000061035156,8.079999923706055 C39.34000015258789,10.119999885559082 40.630001068115234,12.279999732971191 42.02000045776367,14.380000114440918 C42.5099983215332,15.130000114440918 42.58000183105469,15.75 42.130001068115234,16.530000686645508 C41.11000061035156,18.299999237060547 40.88999938964844,20.25 40.970001220703125,22.260000228881836 C41.06999969482422,24.450000762939453 41.58000183105469,26.530000686645508 42.380001068115234,28.549999237060547 C43.91999816894531,32.400001525878906 45.59000015258789,36.18000030517578 47.70000076293945,39.75 C53.470001220703125,49.5 58.5099983215332,59.65999984741211 64.48999786376953,69.29000091552734 C65.62999725341797,71.12000274658203 66.72000122070312,72.98999786376953 68.06999969482422,74.68000030517578 C68.51000213623047,75.22000122070312 68.93000030517578,75.79000091552734 69.80999755859375,76.0199966430664 C69.7699966430664,75.01000213623047 69.2699966430664,74.33999633789062 68.86000061035156,73.62999725341797 C65.51000213623047,67.80999755859375 62.02000045776367,62.06999969482422 58.84000015258789,56.15999984741211 C55.779998779296875,50.459999084472656 52.7400016784668,44.7400016784668 49.47999954223633,39.150001525878906 C47.27000045776367,35.36000061035156 45.41999816894531,31.389999389648438 43.869998931884766,27.299999237060547 C42.529998779296875,23.770000457763672 42.11000061035156,20.200000762939453 43.959999084472656,16.670000076293945 C44.45000076293945,15.720000267028809 44.29999923706055,14.859999656677246 43.72999954223633,13.970000267028809 C39.38999938964844,7.210000038146973 34.93000030517578,0.5299999713897705 29.770000457763672,-5.650000095367432 C28.969999313354492,-6.619999885559082 28.360000610351562,-7.519999980926514 28.559999465942383,-8.850000381469727 C28.65999984741211,-9.5600004196167 28.600000381469727,-10.3100004196167 28.31999969482422,-10.979999542236328 C28.020000457763672,-11.699999809265137 28.260000228881836,-12.210000038146973 28.68000030517578,-12.779999732971191 C29.5,-13.890000343322754 30.5,-14.850000381469727 31.18000030517578,-16.06999969482422 C32.29999923706055,-18.049999237060547 34.0099983215332,-19.600000381469727 35.34000015258789,-21.690000534057617 C36.060001373291016,-20.760000228881836 36.65999984741211,-19.959999084472656 37.279998779296875,-19.18000030517578 C38.63999938964844,-17.5 40.02000045776367,-15.84000015258789 41.83000183105469,-14.609999656677246 C43.13999938964844,-13.720000267028809 44.34000015258789,-13.699999809265137 45.650001525878906,-14.579999923706055 C47.29999923706055,-15.699999809265137 48.79999923706055,-16.989999771118164 50.20000076293945,-18.3799991607666 C53.5099983215332,-21.68000030517578 56.810001373291016,-25 60.119998931884766,-28.309999465942383 C60.5,-28.690000534057617 60.88999938964844,-29.06999969482422 61.209999084472656,-29.5 C61.9900016784668,-30.540000915527344 62.029998779296875,-31.219999313354492 61.2599983215332,-32.279998779296875 C60.689998626708984,-33.060001373291016 60.0099983215332,-33.7400016784668 59.380001068115234,-34.459999084472656 C58.869998931884766,-35.04999923706055 58.060001373291016,-35.59000015258789 57.939998626708984,-36.2400016784668 C57.810001373291016,-36.9900016784668 58.869998931884766,-37.349998474121094 59.349998474121094,-37.939998626708984 C59.720001220703125,-38.40999984741211 60.16999816894531,-38.81999969482422 60.540000915527344,-39.290000915527344 C62.25,-41.41999816894531 64.2699966430664,-43.15999984741211 66.5999984741211,-44.59000015258789 C68.58000183105469,-45.810001373291016 68.70999908447266,-46.619998931884766 67.3499984741211,-48.5099983215332 C65.66999816894531,-50.849998474121094 63.83000183105469,-53.06999969482422 61.95000076293945,-55.25 C61.11000061035156,-56.209999084472656 59.900001525878906,-57.06999969482422 61.060001373291016,-58.58000183105469 C61.189998626708984,-58.7400016784668 61.150001525878906,-59.04999923706055 61.15999984741211,-59.279998779296875 C61.34000015258789,-62.400001525878906 61.34000015258789,-65.5199966430664 61.04999923706055,-68.62999725341797 C60.91999816894531,-69.94000244140625 60.84000015258789,-71.26000213623047 60.650001525878906,-72.56999969482422 C60.540000915527344,-73.41000366210938 60.93000030517578,-73.80000305175781 61.65999984741211,-73.97000122070312 C62.06999969482422,-74.06999969482422 62.4900016784668,-74.0999984741211 62.900001525878906,-74.13999938964844 C66.77999877929688,-74.55000305175781 70.6500015258789,-75 74.52999877929688,-75.3499984741211 C83.55000305175781,-76.18000030517578 92.56999969482422,-76.94999694824219 101.58000183105469,-77.7699966430664 C105.16000366210938,-78.08999633789062 108.73999786376953,-78.44999694824219 112.31999969482422,-78.83000183105469 C113.33000183105469,-78.94000244140625 114.31999969482422,-79.19000244140625 115.30999755859375,-79.41000366210938 C116.22000122070312,-79.62000274658203 117.19000244140625,-79.61000061035156 118.12999725341797,-80.18000030517578 C113.91999816894531,-80.43000030517578 109.8499984741211,-80.43000030517578 105.7699966430664,-80.08999633789062z M40.77000045776367,-57.88999938964844 C39.939998626708984,-57.29999923706055 39.189998626708984,-56.61000061035156 38.2599983215332,-55.849998474121094 C35.970001220703125,-58.63999938964844 33.66999816894531,-61.29999923706055 31.610000610351562,-64.16999816894531 C32.63999938964844,-65.26000213623047 33.61000061035156,-65.94999694824219 34.65999984741211,-66.55000305175781 C35.22999954223633,-66.87000274658203 35.59000015258789,-66.86000061035156 35.959999084472656,-66.2300033569336 C37.36000061035156,-63.84000015258789 39.18000030517578,-61.75 40.91999816894531,-59.619998931884766 C41.52000045776367,-58.900001525878906 41.54999923706055,-58.45000076293945 40.77000045776367,-57.88999938964844z"/></g><g opacity="1" transform="matrix(1,0,0,1,193.58700561523438,77.39700317382812)"><path fill="rgb(255,255,255)" fill-opacity="1" d=" M22.829999923706055,-10.114999771118164 C22.420000076293945,-15.914999961853027 21.440000534057617,-21.524999618530273 18.59000015258789,-26.684999465942383 C18.420000076293945,-26.9950008392334 18.309999465942383,-27.344999313354492 18.1200008392334,-27.655000686645508 C17.700000762939453,-28.354999542236328 17.780000686645508,-28.844999313354492 18.360000610351562,-29.53499984741211 C21.65999984741211,-33.45500183105469 21.270000457763672,-38.814998626708984 17.510000228881836,-42.29499816894531 C14.34000015258789,-45.21500015258789 10.649999618530273,-45.525001525878906 6.769999980926514,-44.21500015258789 C2.700000047683716,-42.834999084472656 0.44999998807907104,-39.834999084472656 -0.23000000417232513,-35.6349983215332 C-0.4300000071525574,-34.39500045776367 -0.44999998807907104,-33.125 -0.3100000023841858,-31.875 C-0.029999999329447746,-29.395000457763672 1.190000057220459,-27.485000610351562 3.2200000286102295,-26.075000762939453 C4.800000190734863,-24.985000610351562 6.559999942779541,-24.80500030517578 8.390000343322754,-25.135000228881836 C8.960000038146973,-25.2450008392334 9.460000038146973,-25.385000228881836 9.680000305175781,-24.665000915527344 C10.119999885559082,-23.295000076293945 10.979999542236328,-22.094999313354492 11.34000015258789,-20.69499969482422 C12.399999618530273,-16.5049991607666 13.5,-12.324999809265137 13.0600004196167,-8.375 C13.199999809265137,-3.8350000381469727 12.850000381469727,0.2150000035762787 11.550000190734863,4.135000228881836 C10.6899995803833,6.744999885559082 9.949999809265137,9.4350004196167 8.300000190734863,11.694999694824219 C6.690000057220459,13.925000190734863 4.960000038146973,16.075000762939453 3.25,18.2450008392334 C1.2799999713897705,20.7450008392334 -1.2999999523162842,22.46500015258789 -4.079999923706055,23.924999237060547 C-4.789999961853027,24.30500030517578 -5.340000152587891,24.415000915527344 -5.900000095367432,23.584999084472656 C-6.630000114440918,22.53499984741211 -7.820000171661377,22.174999237060547 -9.050000190734863,22.094999313354492 C-12.869999885559082,21.844999313354492 -16.139999389648438,23.045000076293945 -18.65999984741211,25.9950008392334 C-23.209999084472656,31.315000534057617 -21.690000534057617,40.494998931884766 -15.699999809265137,44.1150016784668 C-14.109999656677246,45.064998626708984 -12.390000343322754,45.525001525878906 -10.539999961853027,45.345001220703125 C-4.829999923706055,44.80500030517578 -0.8399999737739563,40.834999084472656 -0.30000001192092896,35.10499954223633 C-0.23999999463558197,34.45500183105469 -0.11999999731779099,34.005001068115234 0.5600000023841858,33.744998931884766 C2.2100000381469727,33.095001220703125 3.509999990463257,31.915000915527344 4.800000190734863,30.7549991607666 C7.400000095367432,28.434999465942383 9.819999694824219,25.954999923706055 12.119999885559082,23.344999313354492 C16.739999771118164,18.114999771118164 19.690000534057617,12.005000114440918 21.649999618530273,5.385000228881836 C23.149999618530273,0.3149999976158142 23.209999084472656,-4.864999771118164 22.829999923706055,-10.114999771118164z M-10.279999732971191,37.42499923706055 C-12.329999923706055,37.525001525878906 -13.930000305175781,35.96500015258789 -13.930000305175781,33.85499954223633 C-13.9399995803833,32.01499938964844 -12.390000343322754,30.44499969482422 -10.529999732971191,30.395000457763672 C-8.6899995803833,30.344999313354492 -7.119999885559082,31.9950008392334 -7.090000152587891,34.025001525878906 C-7.050000190734863,35.904998779296875 -8.390000343322754,37.32500076293945 -10.279999732971191,37.42499923706055z M9.520000457763672,-31.854999542236328 C7.869999885559082,-31.854999542236328 6.539999961853027,-33.26499938964844 6.510000228881836,-35.025001525878906 C6.489999771118164,-37.01499938964844 8.289999961853027,-38.92499923706055 10.220000267028809,-38.94499969482422 C11.979999542236328,-38.96500015258789 13.380000114440918,-37.44499969482422 13.399999618530273,-35.494998931884766 C13.420000076293945,-33.46500015258789 11.710000038146973,-31.854999542236328 9.520000457763672,-31.854999542236328z"/></g><g opacity="1" transform="matrix(1,0,0,1,38.099998474121094,127.2300033569336)"><path fill="rgb(255,255,255)" fill-opacity="1" d=" M9.1899995803833,13.770000457763672 C8.920000076293945,12.90999984741211 8.640000343322754,12.0600004196167 8.350000381469727,11.210000038146973 C5.78000020980835,3.6700000762939453 3.2799999713897705,-3.890000104904175 1.6100000143051147,-11.6899995803833 C1.3200000524520874,-13.039999961853027 1.0499999523162842,-14.390000343322754 0.6399999856948853,-15.699999809265137 C0.11999999731779099,-17.329999923706055 -0.8700000047683716,-17.860000610351562 -2.549999952316284,-17.530000686645508 C-4.380000114440918,-17.170000076293945 -6.099999904632568,-16.450000762939453 -7.760000228881836,-15.630000114440918 C-9.359999656677246,-14.84000015258789 -9.550000190734863,-14.520000457763672 -9.220000267028809,-12.8100004196167 C-7.420000076293945,-3.390000104904175 -4.900000095367432,5.849999904632568 -1.7799999713897705,14.920000076293945 C-1.4900000095367432,15.770000457763672 -1,16.530000686645508 -0.4699999988079071,17.260000228881836 C-0.15000000596046448,17.700000762939453 0.14000000059604645,17.860000610351562 0.7200000286102295,17.6200008392334 C2.809999942779541,16.739999771118164 4.940000057220459,15.949999809265137 6.710000038146973,14.420000076293945 C6.829999923706055,14.569999694824219 6.96999979019165,14.6899995803833 7.050000190734863,14.850000381469727 C7.409999847412109,15.569999694824219 7.929999828338623,16.09000015258789 8.75,15.670000076293945 C9.550000190734863,15.260000228881836 9.40999984741211,14.489999771118164 9.1899995803833,13.770000457763672z M0.23000000417232513,15.989999771118164 C-1.7899999618530273,9.069999694824219 -3.759999990463257,2.299999952316284 -5.739999771118164,-4.460000038146973 C-6.5,-7.050000190734863 -7.269999980926514,-9.630000114440918 -8.029999732971191,-12.210000038146973 C-8.4399995803833,-13.579999923706055 -8.4399995803833,-13.59000015258789 -7.019999980926514,-14.020000457763672 C-5.929999828338623,-14.350000381469727 -4.840000152587891,-14.670000076293945 -3.75,-14.979999542236328 C-1.590000033378601,-15.600000381469727 -1.5700000524520874,-15.569999694824219 -1.090000033378601,-13.300000190734863 C-0.5600000023841858,-10.779999732971191 -0.05000000074505806,-8.260000228881836 0.550000011920929,-5.760000228881836 C1.9700000286102295,0.05999999865889549 3.890000104904175,5.730000019073486 5.849999904632568,11.390000343322754 C6.059999942779541,12.010000228881836 6.260000228881836,12.630000114440918 6.539999961853027,13.449999809265137 C4.079999923706055,13.619999885559082 2.259999990463257,14.9399995803833 0.23000000417232513,15.989999771118164z"/></g></g><g transform="matrix(0.9548660516738892,0.297036737203598,-0.297036737203598,0.9548660516738892,174.8041534423828,121.42755889892578)" opacity="1" style="display: block;"><g opacity="1" transform="matrix(1,0,0,1,19.415000915527344,19.31999969482422)"><path fill="rgb(255,255,255)" fill-opacity="1" d=" M18.71500015258789,-14.100000381469727 C18.084999084472656,-15.619999885559082 17.104999542236328,-16.920000076293945 15.755000114440918,-17.860000610351562 C14.005000114440918,-19.06999969482422 11.555000305175781,-18.549999237060547 10.9350004196167,-16.6299991607666 C10.734999656677246,-16.020000457763672 10.274999618530273,-15.649999618530273 9.8149995803833,-15.270000457763672 C6.59499979019165,-12.5600004196167 3.674999952316284,-9.5600004196167 0.9750000238418579,-6.340000152587891 C-0.7649999856948853,-4.269999980926514 -2.494999885559082,-2.200000047683716 -4.164999961853027,-0.09000000357627869 C-4.715000152587891,0.6000000238418579 -5.244999885559082,0.9100000262260437 -6.135000228881836,0.7400000095367432 C-7.074999809265137,0.5600000023841858 -8.03499984741211,0.5400000214576721 -8.994999885559082,0.44999998807907104 C-8.994999885559082,0.44999998807907104 -8.994999885559082,0.5299999713897705 -8.994999885559082,0.5299999713897705 C-9.475000381469727,0.5299999713897705 -9.954999923706055,0.49000000953674316 -10.4350004196167,0.5299999713897705 C-13.795000076293945,0.8399999737739563 -16.385000228881836,2.319999933242798 -17.735000610351562,5.519999980926514 C-19.165000915527344,8.949999809265137 -18.924999237060547,12.210000038146973 -16.415000915527344,15.100000381469727 C-15.744999885559082,15.859999656677246 -14.984999656677246,16.549999237060547 -14.225000381469727,17.219999313354492 C-12.805000305175781,18.459999084472656 -11.125,19.06999969482422 -9.265000343322754,19.030000686645508 C-4.784999847412109,18.90999984741211 -1.8250000476837158,16.469999313354492 0.24500000476837158,12.699999809265137 C0.9649999737739563,11.380000114440918 1.3949999809265137,9.890000343322754 0.9150000214576721,8.539999961853027 C0.2750000059604645,6.739999771118164 1.1349999904632568,5.699999809265137 2.174999952316284,4.590000152587891 C2.7950000762939453,3.940000057220459 3.3949999809265137,3.2699999809265137 4.054999828338623,2.6500000953674316 C5.974999904632568,0.8600000143051147 7.965000152587891,-0.8799999952316284 9.774999618530273,-2.799999952316284 C11.805000305175781,-4.929999828338623 13.904999732971191,-6.980000019073486 16.204999923706055,-8.8100004196167 C17.0049991607666,-9.449999809265137 17.735000610351562,-10.15999984741211 18.30500030517578,-11.020000457763672 C18.934999465942383,-11.979999542236328 19.165000915527344,-13.020000457763672 18.71500015258789,-14.100000381469727z M-5.525000095367432,10.069999694824219 C-6.175000190734863,11.180000305175781 -7.315000057220459,11.329999923706055 -8.204999923706055,11.470000267028809 C-9.984999656677246,11.430000305175781 -10.994999885559082,10.5600004196167 -11.125,9.130000114440918 C-11.234999656677246,7.980000019073486 -10.404999732971191,7.039999961853027 -8.954999923706055,6.739999771118164 C-7.704999923706055,6.46999979019165 -6.565000057220459,6.679999828338623 -5.735000133514404,7.730000019073486 C-5.175000190734863,8.430000305175781 -5.045000076293945,9.25 -5.525000095367432,10.069999694824219z"/></g></g><g transform="matrix(0.9968976378440857,-0.07870925962924957,0.07870925962924957,0.9968976378440857,25.234622955322266,99.04883575439453)" opacity="1" style="display: block;"><g opacity="1" transform="matrix(1,0,0,1,64.5999984741211,43.51300048828125)"><path fill="rgb(255,255,255)" fill-opacity="1" d=" M41.060001373291016,-10.864999771118164 C41.060001373291016,-10.864999771118164 41.060001373291016,-10.845000267028809 41.060001373291016,-10.845000267028809 C41.08000183105469,-10.835000038146973 41.11000061035156,-10.8149995803833 41.130001068115234,-10.805000305175781 C41.130001068115234,-10.805000305175781 41.060001373291016,-10.864999771118164 41.060001373291016,-10.864999771118164z M62.9900016784668,-28.735000610351562 C62.72999954223633,-28.71500015258789 62.459999084472656,-28.764999389648438 62.16999816894531,-28.815000534057617 C60.810001373291016,-29.075000762939453 59.459999084472656,-29.325000762939453 58.06999969482422,-29.2549991607666 C56.84000015258789,-29.204999923706055 55.70000076293945,-28.864999771118164 54.65999984741211,-28.235000610351562 C54.18000030517578,-27.934999465942383 54.11000061035156,-27.594999313354492 54.09000015258789,-26.94499969482422 C54.02000045776367,-24.524999618530273 54.709999084472656,-22.354999542236328 55.63999938964844,-20.184999465942383 C56.40999984741211,-18.405000686645508 56.06999969482422,-17.594999313354492 54.34000015258789,-16.674999237060547 C53.7599983215332,-16.375 53.13999938964844,-16.135000228881836 52.52000045776367,-15.925000190734863 C50.439998626708984,-15.225000381469727 48.279998779296875,-15.175000190734863 46.119998931884766,-15.114999771118164 C45.45000076293945,-15.095000267028809 45.16999816894531,-15.475000381469727 44.849998474121094,-15.925000190734863 C43.810001373291016,-17.395000457763672 42.900001525878906,-18.94499969482422 42.099998474121094,-20.55500030517578 C41.88999938964844,-20.96500015258789 41.72999954223633,-21.344999313354492 41.88999938964844,-21.895000457763672 C42.16999816894531,-22.934999465942383 41.939998626708984,-23.165000915527344 40.86000061035156,-23.165000915527344 C40.08000183105469,-23.165000915527344 39.29999923706055,-23.094999313354492 38.529998779296875,-22.9950008392334 C31.100000381469727,-22.03499984741211 23.690000534057617,-20.954999923706055 16.3799991607666,-19.2450008392334 C16.3799991607666,-19.2450008392334 12.199999809265137,-18.264999389648438 12.199999809265137,-18.264999389648438 C12.199999809265137,-18.264999389648438 12.15999984741211,-18.2549991607666 12.15999984741211,-18.2549991607666 C12.15999984741211,-18.2549991607666 11.6899995803833,-18.145000457763672 11.6899995803833,-18.145000457763672 C11.6899995803833,-18.145000457763672 11.210000038146973,-18.03499984741211 11.210000038146973,-18.03499984741211 C7.078999996185303,-16.983999252319336 2.9779999256134033,-15.833000183105469 -1.0829999446868896,-14.555999755859375 C-3.7070000171661377,-13.730999946594238 -6.313000202178955,-12.852999687194824 -8.899999618530273,-11.914999961853027 C-12.279999732971191,-10.6850004196167 -15.640000343322754,-9.395000457763672 -18.84000015258789,-7.755000114440918 C-19.420000076293945,-7.454999923706055 -19.969999313354492,-7.074999809265137 -20.5,-6.695000171661377 C-20.700000762939453,-6.554999828338623 -20.770000457763672,-6.275000095367432 -20.65999984741211,-6.045000076293945 C-20.549999237060547,-5.795000076293945 -20.290000915527344,-5.744999885559082 -20.059999465942383,-5.815000057220459 C-19.600000381469727,-5.965000152587891 -19.15999984741211,-6.135000228881836 -18.719999313354492,-6.324999809265137 C-16.850000381469727,-7.125 -15.010000228881836,-8.005000114440918 -13.100000381469727,-8.725000381469727 C-8.604999542236328,-10.434000015258789 -4.070000171661377,-11.991000175476074 0.5049999952316284,-13.390999794006348 C10.920999526977539,-16.577999114990234 21.547000885009766,-18.951000213623047 32.400001525878906,-20.44499969482422 C33.83000183105469,-20.635000228881836 33.81999969482422,-20.635000228881836 34.369998931884766,-19.325000762939453 C35.83000183105469,-15.774999618530273 37.400001525878906,-12.28499984741211 39.54999923706055,-9.074999809265137 C39.75,-8.774999618530273 39.939998626708984,-8.46500015258789 40.16999816894531,-8.194999694824219 C40.47999954223633,-7.855000019073486 40.869998931884766,-7.735000133514404 41.310001373291016,-7.945000171661377 C41.7599983215332,-8.164999961853027 41.81999969482422,-8.574999809265137 41.72999954223633,-9.015000343322754 C41.599998474121094,-9.654999732971191 41.09000015258789,-10.164999961853027 41.060001373291016,-10.845000267028809 C40.380001068115234,-11.244999885559082 40.029998779296875,-11.925000190734863 39.689998626708984,-12.585000038146973 C38.4900016784668,-14.864999771118164 37.310001373291016,-17.155000686645508 36.13999938964844,-19.454999923706055 C35.93000030517578,-19.864999771118164 35.56999969482422,-20.2450008392334 35.75,-20.844999313354492 C36.91999816894531,-20.985000610351562 38.11000061035156,-21.114999771118164 39.290000915527344,-21.295000076293945 C40.119998931884766,-21.415000915527344 40.61000061035156,-21.204999923706055 40.849998474121094,-20.30500030517578 C41.369998931884766,-18.434999465942383 42.349998474121094,-16.78499984741211 43.41999816894531,-15.1850004196167 C44.04999923706055,-14.234999656677246 45.20000076293945,-13.354999542236328 45.2599983215332,-12.395000457763672 C45.33000183105469,-11.295000076293945 43.91999816894531,-10.545000076293945 43.209999084472656,-9.595000267028809 C42.470001220703125,-8.585000038146973 41.88999938964844,-7.414999961853027 40.880001068115234,-6.644999980926514 C37.040000915527344,-3.674999952316284 33.2599983215332,-0.6150000095367432 29.139999389648438,1.975000023841858 C15.25,10.725000381469727 0.6100000143051147,17.975000381469727 -14.550000190734863,24.225000381469727 C-17.3700008392334,25.395000457763672 -20.299999237060547,26.295000076293945 -23.329999923706055,26.774999618530273 C-25.290000915527344,27.084999084472656 -27.170000076293945,26.94499969482422 -28.93000030517578,25.9950008392334 C-34.380001068115234,23.03499984741211 -39.560001373291016,19.704999923706055 -43.7400016784668,15.024999618530273 C-45.86000061035156,12.654999732971191 -47.9900016784668,10.295000076293945 -50.02000045776367,7.855000019073486 C-55.41999816894531,1.3849999904632568 -60.5,-5.275000095367432 -63.29999923706055,-13.364999771118164 C-63.40999984741211,-13.6850004196167 -63.52000045776367,-14.095000267028809 -64.08000183105469,-13.944999694824219 C-64.3499984741211,-12.864999771118164 -63.91999816894531,-11.835000038146973 -63.63999938964844,-10.8149995803833 C-62.88999938964844,-8.015000343322754 -61.5099983215332,-5.485000133514404 -60.060001373291016,-2.994999885559082 C-56.41999816894531,3.265000104904175 -51.70000076293945,8.6850004196167 -47.060001373291016,14.194999694824219 C-42.220001220703125,19.94499969482422 -36.290000915527344,24.204999923706055 -29.770000457763672,27.78499984741211 C-27.68000030517578,28.924999237060547 -25.520000457763672,29.325000762939453 -23.18000030517578,28.854999542236328 C-22.200000762939453,28.655000686645508 -17.84000015258789,27.53499984741211 -17.649999618530273,27.485000610351562 C-12.65999984741211,25.864999771118164 1.7300000190734863,19.165000915527344 1.7400000095367432,19.165000915527344 C9.3100004196167,15.524999618530273 24.940000534057617,6.835000038146973 25.299999237060547,6.59499979019165 C26.260000228881836,5.974999904632568 29.229999542236328,4.184999942779541 29.31999969482422,4.125 C33.15999984741211,1.6649999618530273 36.689998626708984,-1.2350000143051147 40.2599983215332,-4.054999828338623 C42.20000076293945,-5.59499979019165 43.72999954223633,-7.534999847412109 45.2599983215332,-9.454999923706055 C46.04999923706055,-10.454999923706055 47.40999984741211,-11.024999618530273 47.54999923706055,-12.555000305175781 C47.599998474121094,-13.085000038146973 48.220001220703125,-12.9350004196167 48.599998474121094,-12.944999694824219 C50.41999816894531,-13.005000114440918 52.15999984741211,-13.4350004196167 53.84000015258789,-14.104999542236328 C54.68000030517578,-14.4350004196167 55.470001220703125,-14.854999542236328 56.189998626708984,-15.414999961853027 C57.90999984741211,-16.764999389648438 58.349998474121094,-18.315000534057617 57.540000915527344,-20.344999313354492 C57.18000030517578,-21.235000610351562 56.72999954223633,-22.084999084472656 56.31999969482422,-22.954999923706055 C55.849998474121094,-23.934999465942383 55.5099983215332,-24.954999923706055 55.380001068115234,-26.03499984741211 C55.2400016784668,-27.2450008392334 55.45000076293945,-27.514999389648438 56.68000030517578,-27.684999465942383 C58.2400016784668,-27.895000457763672 59.77000045776367,-27.665000915527344 61.2400016784668,-27.204999923706055 C61.900001525878906,-27.05500030517578 61.900001525878906,-27.05500030517578 62.86000061035156,-27.024999618530273 C63.290000915527344,-27.014999389648438 63.91999816894531,-27.135000228881836 64.0999984741211,-27.584999084472656 C64.3499984741211,-28.204999923706055 63.77000045776367,-28.614999771118164 62.9900016784668,-28.735000610351562z"/></g><g opacity="1" transform="matrix(1,0,0,1,112.47899627685547,10.223999977111816)"><path fill="rgb(255,255,255)" fill-opacity="1" d=" M9.105999946594238,-8.98799991607666 C8.920000076293945,-8.182999610900879 7.624000072479248,-8.210000038146973 6.848999977111816,-8.130000114440918 C3.569000005722046,-7.789999961853027 0.296999990940094,-7.388000011444092 -2.937999963760376,-6.739999771118164 C-3.999000072479248,-6.5269999504089355 -5.040999889373779,-6.247000217437744 -6,-5.732999801635742 C-7.340000152587891,-5.013999938964844 -7.630000114440918,-4.4720001220703125 -7.255000114440918,-2.9619998931884766 C-6.618000030517578,-0.40400001406669617 -5.9079999923706055,2.135999917984009 -5.216000080108643,4.679999828338623 C-4.822000026702881,6.129000186920166 -4.533999919891357,7.5970001220703125 -4.375,9.09000015258789 C-4.336999893188477,9.446999549865723 -4.321000099182129,9.883999824523926 -4.795000076293945,9.939000129699707 C-5.099999904632568,9.973999977111816 -5.309999942779541,9.685999870300293 -5.414999961853027,9.380000114440918 C-5.49399995803833,9.154000282287598 -5.598999977111816,8.934000015258789 -5.663000106811523,8.704000473022461 C-6.690000057220459,5.008999824523926 -7.742000102996826,1.3209999799728394 -8.723999977111816,-2.384999990463257 C-9.409000396728516,-4.9730000495910645 -8.765000343322754,-6.322000026702881 -6.3470001220703125,-7.458000183105469 C-5.485000133514404,-7.86299991607666 -4.567999839782715,-8.196999549865723 -3.6410000324249268,-8.406999588012695 C-0.5389999747276306,-9.109000205993652 2.5989999771118164,-9.61400032043457 5.7820000648498535,-9.755000114440918 C6.90500020980835,-9.805000305175781 9.409000396728516,-9.973999977111816 9.105999946594238,-8.98799991607666z"/></g><g opacity="1" transform="matrix(1,0,0,1,118.71900177001953,7.702000141143799)"><path fill="rgb(255,255,255)" fill-opacity="1" d=" M6.769999980926514,-2.509000062942505 C6.64900016784668,-1.899999976158142 6.091000080108643,-1.8020000457763672 5.564000129699707,-1.718999981880188 C3.8499999046325684,-1.4490000009536743 2.13100004196167,-1.215000033378601 0.4169999957084656,-0.949999988079071 C-1.1200000047683716,-0.7120000123977661 -2.6500000953674316,-0.42899999022483826 -4.189000129699707,-0.20900000631809235 C-4.955999851226807,-0.09799999743700027 -5.238999843597412,0.2370000034570694 -5.000999927520752,1.0010000467300415 C-4.804999828338623,1.6299999952316284 -4.660999774932861,2.2769999504089355 -4.78000020980835,2.943000078201294 C-4.808000087738037,3.1050000190734863 -4.861999988555908,3.2920000553131104 -5.103000164031982,3.306999921798706 C-5.302999973297119,3.319000005722046 -5.4670000076293945,3.259999990463257 -5.531000137329102,3.0820000171661377 C-5.89300012588501,2.069999933242798 -6.330999851226807,1.0740000009536743 -6.566999912261963,0.03200000151991844 C-6.769999980926514,-0.8669999837875366 -6.313000202178955,-1.3550000190734863 -5.09499979019165,-1.6119999885559082 C-3.1059999465942383,-2.0320000648498535 -1.1030000448226929,-2.3929998874664307 0.9020000100135803,-2.7300000190734863 C2.257999897003174,-2.9579999446868896 3.625999927520752,-3.119999885559082 4.993000030517578,-3.2730000019073486 C5.400000095367432,-3.319000005722046 5.826000213623047,-3.2639999389648438 6.234000205993652,-3.1989998817443848 C6.553999900817871,-3.1480000019073486 6.747000217437744,-2.9140000343322754 6.769999980926514,-2.509000062942505z"/></g><g opacity="1" transform="matrix(1,0,0,1,121.49099731445312,11.762999534606934)"><path fill="rgb(255,255,255)" fill-opacity="1" d=" M-5.956999778747559,2.134999990463257 C-6.517000198364258,-0.25200000405311584 -5.590000152587891,-1.6770000457763672 -3.3540000915527344,-1.965000033378601 C-2.0339999198913574,-2.134999990463257 -0.7300000190734863,-1.9140000343322754 0.5720000267028809,-1.7669999599456787 C2.2309999465942383,-1.5789999961853027 3.88100004196167,-1.305999994277954 5.535999774932861,-1.0720000267028809 C6.044000148773193,-1 6.51800012588501,-0.8389999866485596 6.484000205993652,-0.22699999809265137 C6.449999809265137,0.375 5.921999931335449,0.5720000267028809 5.449999809265137,0.5479999780654907 C4.440999984741211,0.49900001287460327 3.430999994277954,0.37299999594688416 2.433000087738037,0.210999995470047 C0.7839999794960022,-0.057999998331069946 -0.8560000061988831,-0.3930000066757202 -2.5329999923706055,-0.44699999690055847 C-4.36899995803833,-0.5059999823570251 -4.504000186920166,-0.41600000858306885 -5.239999771118164,1.2139999866485596 C-5.380000114440918,1.524999976158142 -5.394999980926514,1.9279999732971191 -5.956999778747559,2.134999990463257z"/></g><g opacity="1" transform="matrix(1,0,0,1,107.01399993896484,31.52899932861328)"><path fill="rgb(255,255,255)" fill-opacity="1" d=" M-1.1950000524520874,1.121000051498413 C-1.1950000524520874,1.121000051498413 -1.128000020980835,1.1820000410079956 -1.128000020980835,1.1820000410079956 C-1.4889999628067017,-0.1679999977350235 -1.3140000104904175,-0.7459999918937683 -0.40700000524520874,-1.1890000104904175 C0.11500000208616257,-1.4450000524520874 0.6320000290870667,-1.4889999628067017 1.059000015258789,-1.0269999504089355 C1.465999960899353,-0.5870000123977661 1.4889999628067017,-0.07800000160932541 1.215000033378601,0.453000009059906 C0.7770000100135803,1.3029999732971191 0.11800000071525574,1.4880000352859497 -1.1950000524520874,1.121000051498413z"/></g></g><g transform="matrix(0.9816271662712097,0.1908089965581894,-0.1908089965581894,0.9816271662712097,73.00038146972656,24.010604858398438)" opacity="1" style="display: block;"><g opacity="1" transform="matrix(1,0,0,1,36.7599983215332,36.92499923706055)"><path fill="rgb(255,255,255)" fill-opacity="1" d=" M34.2400016784668,-13.305000305175781 C33.34000015258789,-13.9350004196167 32.33000183105469,-14.295000076293945 31.290000915527344,-14.604999542236328 C29.799999237060547,-15.055000305175781 28.309999465942383,-15.515000343322754 26.809999465942383,-15.925000190734863 C26.040000915527344,-16.125 25.860000610351562,-16.44499969482422 26.200000762939453,-17.19499969482422 C26.8799991607666,-18.725000381469727 27.530000686645508,-20.274999618530273 28.1299991607666,-21.844999313354492 C29.329999923706055,-24.9950008392334 28.809999465942383,-26.475000381469727 26.110000610351562,-28.485000610351562 C22.6299991607666,-31.065000534057617 18.739999771118164,-32.96500015258789 15.100000381469727,-35.29499816894531 C13.470000267028809,-36.334999084472656 11.720000267028809,-36.67499923706055 9.789999961853027,-36.57500076293945 C3.140000104904175,-36.19499969482422 -3.440000057220459,-35.23500061035156 -10,-34.125 C-13.029999732971191,-33.60499954223633 -15.960000038146973,-32.76499938964844 -18.75,-31.475000381469727 C-20.200000762939453,-30.80500030517578 -21.239999771118164,-29.815000534057617 -21.479999542236328,-28.155000686645508 C-22.100000381469727,-23.825000762939453 -23.450000762939453,-19.625 -23.829999923706055,-15.255000114440918 C-23.8700008392334,-14.805000305175781 -23.950000762939453,-14.425000190734863 -24.440000534057617,-14.28499984741211 C-26.739999771118164,-13.585000038146973 -27.90999984741211,-11.864999771118164 -28.6200008392334,-9.704999923706055 C-28.780000686645508,-9.1850004196167 -29.079999923706055,-8.805000305175781 -29.610000610351562,-8.505000114440918 C-32.029998779296875,-7.105000019073486 -33.650001525878906,-4.965000152587891 -34.75,-2.444999933242798 C-35.83000183105469,0.014999999664723873 -35.41999816894531,1.1749999523162842 -33.08000183105469,2.565000057220459 C-32.5099983215332,2.9049999713897705 -32.31999969482422,3.2850000858306885 -32.5099983215332,3.884999990463257 C-32.630001068115234,4.275000095367432 -32.849998474121094,4.644999980926514 -32.97999954223633,5.045000076293945 C-33.63999938964844,7.09499979019165 -32.90999984741211,8.524999618530273 -30.8799991607666,9.324999809265137 C-30.219999313354492,9.595000267028809 -29.489999771118164,9.46500015258789 -28.719999313354492,9.805000305175781 C-29.549999237060547,11.96500015258789 -30.639999389648438,13.854999542236328 -31.809999465942383,15.734999656677246 C-32,16.03499984741211 -32.20000076293945,16.315000534057617 -32.400001525878906,16.565000534057617 C-32.40999984741211,16.575000762939453 -32.41999816894531,16.584999084472656 -32.41999816894531,16.594999313354492 C-33.0099983215332,17.584999084472656 -34.369998931884766,18.71500015258789 -35.15999984741211,19.545000076293945 C-35.27000045776367,19.665000915527344 -35.380001068115234,19.78499984741211 -35.459999084472656,19.885000228881836 C-35.459999084472656,19.885000228881836 -35.7400016784668,20.145000457763672 -35.869998931884766,20.415000915527344 C-36.5099983215332,21.415000915527344 -36.290000915527344,21.55500030517578 -35.25,22.075000762939453 C-35.09000015258789,22.204999923706055 -34.650001525878906,21.684999465942383 -34.31999969482422,21.364999771118164 C-28.06999969482422,15.125 -24.860000610351562,7.204999923706055 -22,-0.9049999713897705 C-21.8799991607666,-1.2450000047683716 -21.760000228881836,-1.5950000286102295 -21.739999771118164,-1.9450000524520874 C-21.700000762939453,-2.6449999809265137 -22.15999984741211,-3.075000047683716 -22.8700008392334,-2.994999885559082 C-23.399999618530273,-2.934999942779541 -23.920000076293945,-2.734999895095825 -24.450000762939453,-2.694999933242798 C-25.940000534057617,-2.5850000381469727 -26.649999618530273,-3.055000066757202 -26.889999389648438,-4.465000152587891 C-27.260000228881836,-6.65500020980835 -26.950000762939453,-8.805000305175781 -25.770000457763672,-10.704999923706055 C-24.229999542236328,-13.194999694824219 -20.6299991607666,-13.074999809265137 -19.190000534057617,-10.545000076293945 C-19,-10.204999923706055 -19.059999465942383,-9.845000267028809 -19.100000381469727,-9.494999885559082 C-19.290000915527344,-7.835000038146973 -19.489999771118164,-6.164999961853027 -19.68000030517578,-4.494999885559082 C-19.75,-3.9049999713897705 -19.850000381469727,-3.315000057220459 -19.899999618530273,-2.7149999141693115 C-19.950000762939453,-2.134999990463257 -19.809999465942383,-1.6050000190734863 -19.200000762939453,-1.4049999713897705 C-18.59000015258789,-1.2050000429153442 -18.15999984741211,-1.5549999475479126 -17.829999923706055,-2.015000104904175 C-17.530000686645508,-2.4649999141693115 -17.260000228881836,-2.934999942779541 -17,-3.4049999713897705 C-16.110000610351562,-4.965000152587891 -15.260000228881836,-6.554999828338623 -14.149999618530273,-7.985000133514404 C-12.1899995803833,-10.515000343322754 -9.770000457763672,-11.925000190734863 -6.400000095367432,-12.164999961853027 C-0.3499999940395355,-12.595000267028809 5.570000171661377,-11.854999542236328 11.5,-10.954999923706055 C12.699999809265137,-10.774999618530273 13.819999694824219,-10.345000267028809 14.899999618530273,-9.824999809265137 C16.84000015258789,-8.885000228881836 18.850000381469727,-8.055000305175781 20.6299991607666,-6.835000038146973 C21.850000381469727,-6.005000114440918 21.8700008392334,-5.804999828338623 21.219999313354492,-4.485000133514404 C19.8799991607666,-1.7949999570846558 18.790000915527344,1.0049999952316284 17.489999771118164,3.694999933242798 C13.789999961853027,11.335000038146973 9.329999923706055,18.4950008392334 3.680000066757202,24.875 C2.200000047683716,26.545000076293945 0.44999998807907104,27.885000228881836 -1.4900000095367432,29.014999389648438 C-2.5,29.604999542236328 -3.4000000953674316,29.7549991607666 -4.519999980926514,29.30500030517578 C-6.880000114440918,28.375 -9.100000381469727,27.225000381469727 -11.199999809265137,25.815000534057617 C-12.739999771118164,24.774999618530273 -14.270000457763672,23.725000381469727 -15.819999694824219,22.69499969482422 C-16.3700008392334,22.325000762939453 -16.950000762939453,21.9950008392334 -17.6200008392334,21.905000686645508 C-18.06999969482422,21.844999313354492 -18.450000762939453,22.045000076293945 -18.639999389648438,22.475000381469727 C-18.799999237060547,22.834999084472656 -18.690000534057617,23.19499969482422 -18.399999618530273,23.454999923706055 C-18.040000915527344,23.764999389648438 -17.639999389648438,24.03499984741211 -17.25,24.30500030517578 C-15.710000038146973,25.354999542236328 -14.180000305175781,26.385000228881836 -12.449999809265137,27.55500030517578 C-14.5600004196167,30.385000228881836 -15.75,33.404998779296875 -16.68000030517578,36.665000915527344 C-15.670000076293945,36.67499923706055 -15.189000129699707,36.28499984741211 -14.6899995803833,35.46500015258789 C-14.6899995803833,35.46500015258789 -13.88599967956543,33.86199951171875 -13.88599967956543,33.86199951171875 C-13.88599967956543,33.86199951171875 -12.920000076293945,31.825000762939453 -12.920000076293945,31.825000762939453 C-12.920000076293945,31.825000762939453 -12.90999984741211,31.815000534057617 -12.90999984741211,31.815000534057617 C-12.350000381469727,30.94499969482422 -11.819999694824219,30.235000610351562 -11.380000114440918,29.46500015258789 C-10.949999809265137,28.704999923706055 -10.489999771118164,28.704999923706055 -9.779999732971191,29.125 C-8.239999771118164,30.045000076293945 -6.559999942779541,30.684999465942383 -4.860000133514404,31.30500030517578 C-3.450000047683716,31.80500030517578 -2.190000057220459,31.665000915527344 -0.8899999856948853,30.975000381469727 C0.7099999785423279,30.125 2.1700000762939453,29.084999084472656 3.450000047683716,27.815000534057617 C6.849999904632568,24.485000610351562 9.770000457763672,20.7450008392334 12.34000015258789,16.764999389648438 C15.84000015258789,11.3149995803833 19.139999389648438,5.744999885559082 21.360000610351562,-0.38499999046325684 C21.719999313354492,-1.4049999713897705 22.15999984741211,-2.3949999809265137 22.510000228881836,-3.4049999713897705 C22.700000762939453,-3.924999952316284 22.920000076293945,-4.324999809265137 23.530000686645508,-4.045000076293945 C24.649999618530273,-3.5450000762939453 25.6200008392334,-4.034999847412109 26.6200008392334,-4.445000171661377 C28.170000076293945,-5.074999809265137 29.739999771118164,-5.675000190734863 31.31999969482422,-6.255000114440918 C32.45000076293945,-6.675000190734863 33.54999923706055,-7.144999980926514 34.47999954223633,-7.914999961853027 C36.5099983215332,-9.604999542236328 36.40999984741211,-11.78499984741211 34.2400016784668,-13.305000305175781z M-19.40999984741211,-12.574999809265137 C-19.899999618530273,-13.645000457763672 -20.700000762939453,-14.21500015258789 -21.770000457763672,-14.385000228881836 C-22.600000381469727,-14.515000343322754 -22.6200008392334,-14.994999885559082 -22.469999313354492,-15.6850004196167 C-21.75,-19.084999084472656 -20.850000381469727,-22.46500015258789 -20.440000534057617,-25.895000457763672 C-20.09000015258789,-28.735000610351562 -18.639999389648438,-30.045000076293945 -16.09000015258789,-30.864999771118164 C-12.239999771118164,-32.095001220703125 -8.289999961853027,-32.724998474121094 -4.300000190734863,-33.19499969482422 C-0.20000000298023224,-33.67499923706055 3.9000000953674316,-34.21500015258789 8.020000457763672,-34.595001220703125 C10.4399995803833,-34.82500076293945 12.600000381469727,-34.525001525878906 14.65999984741211,-33.095001220703125 C17.959999084472656,-30.815000534057617 21.700000762939453,-29.2549991607666 24.959999084472656,-26.864999771118164 C26.850000381469727,-25.46500015258789 27.149999618530273,-24.875 26.389999389648438,-22.645000457763672 C25.809999465942383,-20.934999465942383 25.1299991607666,-19.274999618530273 24.520000457763672,-17.584999084472656 C24.329999923706055,-17.045000076293945 24.079999923706055,-16.80500030517578 23.459999084472656,-16.96500015258789 C21.3700008392334,-17.4950008392334 19.280000686645508,-18.0049991607666 17.170000076293945,-18.46500015258789 C16.290000915527344,-18.655000686645508 16.219999313354492,-19.125 16.31999969482422,-19.895000457763672 C16.549999237060547,-21.735000610351562 16.31999969482422,-22.045000076293945 14.5,-22.4950008392334 C12.229999542236328,-23.065000534057617 9.970000267028809,-23.665000915527344 7.659999847412109,-24.014999389648438 C6,-24.274999618530273 5.409999847412109,-24.03499984741211 4.889999866485596,-22.524999618530273 C4.610000133514404,-21.674999237060547 4.159999847412109,-21.475000381469727 3.369999885559082,-21.344999313354492 C1.4700000286102295,-21.045000076293945 -0.33000001311302185,-20.364999771118164 -2.0999999046325684,-19.635000228881836 C-7.820000171661377,-17.315000534057617 -13.520000457763672,-14.975000381469727 -19.40999984741211,-12.574999809265137z M33.29999923706055,-9.654999732971191 C32.720001220703125,-9.114999771118164 32.02000045776367,-8.755000114440918 31.290000915527344,-8.484999656677246 C29.15999984741211,-7.695000171661377 27,-6.965000152587891 24.979999542236328,-5.90500020980835 C24.34000015258789,-5.565000057220459 24.010000228881836,-5.784999847412109 23.639999389648438,-6.275000095367432 C22.40999984741211,-7.894999980926514 20.760000228881836,-8.944999694824219 18.90999984741211,-9.725000381469727 C17.59000015258789,-10.28499984741211 16.309999465942383,-10.954999923706055 15.010000228881836,-11.555000305175781 C13.859999656677246,-12.085000038146973 12.649999618530273,-12.4350004196167 11.40999984741211,-12.664999961853027 C4.550000190734863,-13.954999923706055 -2.359999895095825,-14.46500015258789 -9.329999923706055,-13.774999618530273 C-10.270000457763672,-13.6850004196167 -11.199999809265137,-13.345000267028809 -12.210000038146973,-13.664999961853027 C-7.340000152587891,-15.354999542236328 -2.759999990463257,-17.735000610351562 2.180000066757202,-19.165000915527344 C3.700000047683716,-19.604999542236328 5.239999771118164,-19.725000381469727 6.789999961853027,-19.315000534057617 C7.550000190734863,-19.125 8.34000015258789,-19.05500030517578 9.069999694824219,-18.80500030517578 C16.110000610351562,-16.434999465942383 23.40999984741211,-14.975000381469727 30.469999313354492,-12.675000190734863 C31.43000030517578,-12.364999771118164 32.43000030517578,-12.095000267028809 33.2400016784668,-11.4350004196167 C34,-10.824999809265137 34.0099983215332,-10.324999809265137 33.29999923706055,-9.654999732971191z"/></g><g opacity="1" transform="matrix(1,0,0,1,40.882999420166016,43.236000061035156)"><path fill="rgb(255,255,255)" fill-opacity="1" d=" M3.759999990463257,-8.743000030517578 C4.324999809265137,-8.14799976348877 4.173999786376953,-7.6529998779296875 4.129000186920166,-7.209000110626221 C3.6410000324249268,-2.4170000553131104 2.430999994277954,2.196000099182129 0.5299999713897705,6.614999771118164 C-0.19900000095367432,8.3100004196167 -1.7940000295639038,8.743000030517578 -3.315999984741211,7.802999973297119 C-3.515000104904175,7.678999900817871 -3.7100000381469727,7.52400016784668 -3.8570001125335693,7.3420000076293945 C-4.324999809265137,6.765999794006348 -4.116000175476074,6.144999980926514 -3.4149999618530273,5.980000019073486 C-3.299999952316284,5.953000068664551 -3.1630001068115234,5.910999774932861 -3.062000036239624,5.947000026702881 C-1.1990000009536743,6.624000072479248 -0.7049999833106995,5.364999771118164 -0.17800000309944153,4.000999927520752 C1.1829999685287476,0.48100000619888306 2.259999990463257,-3.11899995803833 3.0840001106262207,-6.798999786376953 C3.2219998836517334,-7.418000221252441 3.2839999198913574,-8.072999954223633 3.759999990463257,-8.743000030517578z"/></g><g opacity="1" transform="matrix(1,0,0,1,23.860000610351562,68.75)"><path fill="rgb(255,255,255)" fill-opacity="1" d=" M-0.009999999776482582,-0.009999999776482582 C-0.009999999776482582,-0.009999999776482582 0.019999999552965164,0.009999999776482582 0.019999999552965164,0.009999999776482582 C0.009999999776482582,0.009999999776482582 -0.009999999776482582,0 -0.019999999552965164,0 C-0.019999999552965164,0 -0.009999999776482582,-0.009999999776482582 -0.009999999776482582,-0.009999999776482582z"/></g></g><g transform="matrix(0.9816271662712097,0.1908089965581894,-0.1908089965581894,0.9816271662712097,73.00038146972656,24.010604858398438)" opacity="1" style="display: block;"><g opacity="1" transform="matrix(1,0,0,1,49.81999969482422,36.29499816894531)"><path fill="rgb(255,255,255)" fill-opacity="1" d=" M-0.30799999833106995,1.784999966621399 C-1.0570000410079956,1.7489999532699585 -1.6540000438690186,1.0299999713897705 -1.6469999551773071,0.17399999499320984 C-1.6369999647140503,-0.9240000247955322 -0.7509999871253967,-1.8279999494552612 0.24699999392032623,-1.75600004196167 C1.0520000457763672,-1.6979999542236328 1.6540000438690186,-1.0230000019073486 1.6349999904632568,-0.19900000095367432 C1.6119999885559082,0.7789999842643738 0.5849999785423279,1.8279999494552612 -0.30799999833106995,1.784999966621399z"/></g><g opacity="1" transform="matrix(1,0,0,1,36.257999420166016,32.20199966430664)"><path fill="rgb(255,255,255)" fill-opacity="1" d=" M1.6740000247955322,-0.09200000017881393 C1.7170000076293945,0.7350000143051147 0.7570000290870667,1.6729999780654907 -0.19699999690055847,1.7339999675750732 C-1.090000033378601,1.7910000085830688 -1.6770000457763672,1.2549999952316284 -1.6950000524520874,0.3619999885559082 C-1.7170000076293945,-0.6449999809265137 -0.7990000247955322,-1.7350000143051147 0.09600000083446503,-1.7669999599456787 C0.765999972820282,-1.7910000085830688 1.6330000162124634,-0.8709999918937683 1.6740000247955322,-0.09200000017881393z"/></g></g><g transform="matrix(0.9816271662712097,0.1908089965581894,-0.1908089965581894,0.9816271662712097,118.09158325195312,62.678855895996094)" opacity="1" style="display: block;"><g opacity="1" transform="matrix(1,0,0,1,2.130000114440918,2.0329999923706055)"><path fill="rgb(255,255,255)" fill-opacity="1" d=" M1.88100004196167,1.7829999923706055 C-0.10199999809265137,1.5149999856948853 -0.968999981880188,0.23800000548362732 -1.812000036239624,-1.0529999732971191 C-1.88100004196167,-1.159999966621399 -1.8179999589920044,-1.4110000133514404 -1.7350000143051147,-1.5440000295639038 C-1.5850000381469727,-1.7829999923706055 -1.3040000200271606,-1.777999997138977 -1.0920000076293945,-1.6690000295639038 C0.25600001215934753,-0.9729999899864197 1.5049999952316284,-0.17800000309944153 1.88100004196167,1.7829999923706055z"/></g></g><g transform="matrix(0.7660444378852844,0.6427875757217407,-0.6427875757217407,0.7660444378852844,102.22966003417969,55.74217224121094)" opacity="1" style="display: block;"><g opacity="1" transform="matrix(1,0,0,1,4.25,1.4470000267028809)"><path fill="rgb(255,255,255)" fill-opacity="1" d=" M-4.000999927520752,0.7120000123977661 C-2.5409998893737793,-0.8650000095367432 1.4900000095367432,-1.1970000267028809 4.000999927520752,0.01600000075995922 C1.309999942779541,1.1959999799728394 -1.2319999933242798,1.1059999465942383 -4.000999927520752,0.7120000123977661z"/></g></g><g transform="matrix(0.7986354827880859,0.6018150448799133,-0.6018150448799133,0.7986354827880859,91.15369415283203,75.07247924804688)" opacity="1" style="display: block;"><g opacity="1" transform="matrix(1,0,0,1,3.515000104904175,2.5169999599456787)"><path fill="rgb(255,255,255)" fill-opacity="1" d=" M1.5010000467300415,2.2669999599456787 C-0.26499998569488525,1.9780000448226929 -1.8459999561309814,1.152999997138977 -2.8329999446868896,-0.5910000205039978 C-3.069999933242798,-1.0099999904632568 -3.265000104904175,-1.5199999809265137 -2.8410000801086426,-1.906999945640564 C-2.447000026702881,-2.2669999599456787 -2.0450000762939453,-1.9259999990463257 -1.7289999723434448,-1.684000015258789 C-0.6309999823570251,-0.8429999947547913 0.5809999704360962,-0.22200000286102295 1.8660000562667847,0.27000001072883606 C1.9769999980926514,0.31299999356269836 2.0859999656677246,0.36399999260902405 2.187000036239624,0.4259999990463257 C2.6459999084472656,0.7110000252723694 3.265000104904175,1.0449999570846558 3.1410000324249268,1.593999981880188 C2.990000009536743,2.259000062942505 2.247999906539917,2.2269999980926514 1.5010000467300415,2.2669999599456787z"/></g></g></g></svg>