<svg xmlns="http://www.w3.org/2000/svg" width="44.496" height="206.16" viewBox="0 0 44.496 206.16"><path d="M36.384,54.272H12.336v-5.52H36.384ZM15.792,33.44H32.4v4.608H15.792Zm20.976,7.968V30.128h-25.1v11.28h9.312c-.288,1.1-.576,2.352-.912,3.456h-12V59.84h4.272V58.112H36.384v1.68h4.464V44.864H24.432c.432-1.056.912-2.256,1.392-3.456Zm.24-18.192c1.44-1.68,3.024-3.7,4.512-5.664l-4.752-1.488a50.194,50.194,0,0,1-4.608,7.152h-8.4l2.832-1.1a28.888,28.888,0,0,0-3.744-6.528L18.96,16.928a33.948,33.948,0,0,1,3.408,6.288h-8.5l1.488-.672A29.769,29.769,0,0,0,10.992,16.4L7.1,18.032a32.482,32.482,0,0,1,3.6,5.184H4.368v9.7H8.5v-5.9H39.888v5.9H44.16v-9.7ZM30.576,81.632a44.788,44.788,0,0,1-2.112,4.56H18.336l1.392-.288a20.194,20.194,0,0,0-2.064-4.272Zm14.448,21.024V98.912H26.112V95.984H40.848v-3.36H26.112v-2.88H43.1V86.192H32.928c.816-1.344,1.776-2.928,2.688-4.56H44.88V77.888H37.968a75.1,75.1,0,0,0,3.984-6.528l-4.608-1.152a41.836,41.836,0,0,1-3.36,7.1l1.824.576H30.624V69.68H26.4v8.208H21.648V69.68H17.472v8.208h-5.28l2.448-.912a33.364,33.364,0,0,0-3.84-6.864l-3.888,1.3a35.987,35.987,0,0,1,3.5,6.48h-7.1v3.744h10.9l-1.152.192a23.779,23.779,0,0,1,2.016,4.368H5.232v3.552H21.744v2.88H7.584v3.36h14.16v2.928H3.12v3.744H17.952a46.571,46.571,0,0,1-16.176,6.672A20.031,20.031,0,0,1,4.7,113.12a47.677,47.677,0,0,0,17.04-8.64v9.312h4.368v-9.648A42.818,42.818,0,0,0,43.3,113.168a20.045,20.045,0,0,1,2.976-3.984A44.081,44.081,0,0,1,30,102.656ZM26.016,128.72H16.752v-4.752h-4.32v4.752H3.216v3.888h22.8ZM20.5,141.68c.96-1.968,2.016-4.944,3.072-7.632l-4.224-.96a57.164,57.164,0,0,1-2.4,7.68ZM11.9,140.672a29.616,29.616,0,0,0-2.112-7.344l-3.7.816a31.3,31.3,0,0,1,1.872,7.44Zm7.968,12.912v7.728H9.216v-7.728ZM5.088,167.792H9.216V165.2H19.872v2.4H24.24V149.648H5.088Zm-3.024-21.84H26.64v-4.08H2.064Zm40.8-19.632-.72.192H28.368v41.28h4.368v-37.1h7.632c-1.344,3.744-3.216,8.784-4.944,12.528,4.416,3.984,5.664,7.488,5.664,10.272,0,1.728-.336,2.976-1.3,3.552a3.923,3.923,0,0,1-1.92.528,26.608,26.608,0,0,1-3.264-.1,10.678,10.678,0,0,1,1.2,4.416,34.45,34.45,0,0,0,3.936-.1,7.568,7.568,0,0,0,3.216-1.152c1.728-1.152,2.448-3.408,2.448-6.624,0-3.264-1.056-7.008-5.472-11.376,2.064-4.176,4.368-9.7,6.24-14.256ZM17.712,183.536v3.408H8.784v-3.408ZM8.784,194v-3.744h8.928V194Zm13.1-14.208H4.368v41.952H8.784v-24.1h13.1ZM30.1,194.1v-3.84H39.36v3.84Zm9.264-10.56v3.408H30.1v-3.408Zm4.56-3.744h-18.1v17.9H39.36v18.336c0,.864-.288,1.152-1.248,1.2-.96,0-4.32.048-7.488-.1a15.933,15.933,0,0,1,1.584,4.608c4.464,0,7.392-.1,9.264-.816,1.824-.768,2.448-2.112,2.448-4.9Z" transform="translate(-1.776 -15.584)" fill="#fff"/></svg>