<svg xmlns="http://www.w3.org/2000/svg" viewBox="0 0 106 106" width="106" height="106" preserveAspectRatio="xMidYMid meet" style="width: 100%; height: 100%; transform: translate3d(0px, 0px, 0px); content-visibility: visible;"><defs><clipPath id="__lottie_element_91"><rect width="106" height="106" x="0" y="0"/></clipPath><clipPath id="__lottie_element_102"><path fill="#ffffff" clip-rule="nonzero" d=" M40.87099838256836,16.672000885009766 C40.94599914550781,7.031000137329102 26.13599967956543,1.0729999542236328 16.493999481201172,1.0490000247955322 C6.625999927520752,1.024999976158142 -8.802000045776367,6.432000160217285 -8.878999710083008,16.298999786376953 C-8.944999694824219,24.716999053955078 7.328000068664551,30.900999069213867 15.746000289916992,30.922000885009766 C23.954999923706055,30.941999435424805 40.80699920654297,24.881000518798828 40.87099838256836,16.672000885009766" fill-opacity="1"/></clipPath></defs><g clip-path="url(#__lottie_element_91)"><g clip-path="url(#__lottie_element_102)" transform="matrix(1,0,0,1,36.25400161743164,36.077999114990234)" opacity="1" style="display: block;"><g opacity="1" transform="matrix(1,0,0,1,16.479999542236328,16.479999542236328)"><path stroke-linecap="round" stroke-linejoin="round" fill-opacity="0" stroke="rgb(255,255,255)" stroke-opacity="1" stroke-width="1.5" d=" M14.977999687194824,-0.003000000026077032 C14.979999542236328,8.269000053405762 8.274999618530273,14.97599983215332 0.003000000026077032,14.977999687194824 C-8.269000053405762,14.979999542236328 -14.97599983215332,8.274999618530273 -14.977999687194824,0.003000000026077032 C-14.979999542236328,-8.269000053405762 -8.274999618530273,-14.97599983215332 -0.003000000026077032,-14.977999687194824 C-0.003000000026077032,-14.977999687194824 0.0020000000949949026,-14.977999687194824 0.0020000000949949026,-14.977999687194824 C8.270999908447266,-14.979999542236328 14.97599983215332,-8.277000427246094 14.977999687194824,-0.00800000037997961 C14.977999687194824,-0.00800000037997961 14.977999687194824,-0.003000000026077032 14.977999687194824,-0.003000000026077032z"/></g></g><g transform="matrix(1,0,0,1,26.25,35.72599792480469)" opacity="1" style="display: block;"><g opacity="1" transform="matrix(1,0,0,1,26.472000122070312,16.4950008392334)"><path stroke-linecap="round" stroke-linejoin="round" fill-opacity="0" stroke="rgb(255,255,255)" stroke-opacity="1" stroke-width="1.5" d=" M-24.94499969482422,-0.014000000432133675 C-20.5939998626709,-7.940999984741211 -12.692000389099121,-14.994999885559082 0.006000000052154064,-14.994999885559082 C0.006000000052154064,-14.994999885559082 0.014000000432133675,-14.994999885559082 0.014000000432133675,-14.994999885559082 C12.713000297546387,-14.994999885559082 20.621000289916992,-7.940999984741211 24.972999572753906,-0.014000000432133675 C24.972999572753906,-0.014000000432133675 24.94499969482422,0.014000000432133675 24.94499969482422,0.014000000432133675 C20.5939998626709,7.940999984741211 12.692000389099121,14.994999885559082 -0.006000000052154064,14.994999885559082 C-0.008999999612569809,14.994999885559082 -0.012000000104308128,14.994999885559082 -0.014000000432133675,14.994999885559082 C-12.713000297546387,14.994999885559082 -20.621000289916992,7.940999984741211 -24.972999572753906,0.014000000432133675 C-24.972999572753906,0.014000000432133675 -24.94499969482422,-0.014000000432133675 -24.94499969482422,-0.014000000432133675z"/></g></g><g transform="matrix(1,0,0,1,26.249000549316406,50.73500061035156)" opacity="1" style="display: block;"><g opacity="1" transform="matrix(1,0,0,1,26.458999633789062,8.991000175476074)"><path stroke-linecap="round" stroke-linejoin="round" fill-opacity="0" stroke="rgb(255,255,255)" stroke-opacity="1" stroke-width="1.5" d=" M24.95800018310547,-7.489999771118164 C20.60700035095215,0.43700000643730164 12.706000328063965,7.489999771118164 0.00800000037997961,7.489999771118164 C0.004999999888241291,7.489999771118164 0.003000000026077032,7.489999771118164 0.0010000000474974513,7.489999771118164 C-12.697999954223633,7.489999771118164 -20.606000900268555,0.43700000643730164 -24.95800018310547,-7.489999771118164"/></g></g><g transform="matrix(1,0,0,1,26.25,35.724998474121094)" opacity="1" style="display: block;"><g opacity="1" transform="matrix(1,0,0,1,26.472000122070312,9.005000114440918)"><path stroke-linecap="round" stroke-linejoin="round" fill-opacity="0" stroke="rgb(255,255,255)" stroke-opacity="1" stroke-width="1.5" d=" M-24.972000122070312,7.505000114440918 C-24.972000122070312,7.505000114440918 -24.944000244140625,7.4770002365112305 -24.944000244140625,7.4770002365112305 C-20.593000411987305,-0.44999998807907104 -12.692999839782715,-7.505000114440918 0.006000000052154064,-7.505000114440918 C0.006000000052154064,-7.505000114440918 0.014000000432133675,-7.505000114440918 0.014000000432133675,-7.505000114440918 C12.711999893188477,-7.505000114440918 20.621000289916992,-0.44999998807907104 24.972000122070312,7.4770002365112305 C24.972000122070312,7.4770002365112305 24.94499969482422,7.505000114440918 24.94499969482422,7.505000114440918"/></g></g></g></svg>