<svg xmlns="http://www.w3.org/2000/svg" viewBox="0 0 250 250" width="250" height="250" preserveAspectRatio="xMidYMid meet" style="width: 100%; height: 100%; transform: translate3d(0px, 0px, 0px); content-visibility: visible;"><defs><clipPath id="__lottie_element_65"><rect width="250" height="250" x="0" y="0"/></clipPath></defs><g clip-path="url(#__lottie_element_65)"><g transform="matrix(1,0,0,1,4.1510009765625,79.00498962402344)" opacity="1" style="display: block;"><g opacity="1" transform="matrix(1,0,0,1,76.98899841308594,95.57099914550781)"><path fill="rgb(32,25,82)" fill-opacity="1" d=" M6.7220001220703125,1.2400000095367432 C6.690000057220459,2.884999990463257 5.505000114440918,5.000999927520752 3.805000066757202,6.8470001220703125 C2.875999927520752,7.855999946594238 1.6330000162124634,8.137999534606934 0.2750000059604645,7.864999771118164 C-4.202000141143799,6.964000225067139 -6.76200008392334,3.253000020980835 -5.98199987411499,-1.2039999961853027 C-5.88100004196167,-1.781000018119812 -5.816999912261963,-2.365000009536743 -5.718999862670898,-2.943000078201294 C-5.374000072479248,-4.989999771118164 -4.223999977111816,-6.296999931335449 -2.193000078201294,-6.833000183105469 C2.75600004196167,-8.137999534606934 6.76200008392334,-4.951000213623047 6.7220001220703125,1.2400000095367432z"/></g><g opacity="1" transform="matrix(1,0,0,1,99.55000305175781,67.53500366210938)"><path fill="rgb(32,25,82)" fill-opacity="1" d=" M101.30000305175781,8.265000343322754 C99.55999755859375,6.625 95.2699966430664,-0.9350000023841858 93.75,-2.8550000190734863 C91.16999816894531,-6.105000019073486 89.30000305175781,-9.755000114440918 87.55000305175781,-13.484999656677246 C85,-18.905000686645508 82.7699966430664,-24.46500015258789 80.43000030517578,-29.96500015258789 C77.75,-36.244998931884766 74.25,-42.04499816894531 70.33000183105469,-47.60499954223633 C68.80000305175781,-49.79499816894531 67.26000213623047,-51.98500061035156 65.37000274658203,-53.89500045776367 C64.80999755859375,-54.46500015258789 64.23999786376953,-55.01499938964844 63.56999969482422,-55.474998474121094 C62.349998474121094,-56.30500030517578 61.060001373291016,-56.55500030517578 59.61000061035156,-56.1349983215332 C58.36000061035156,-55.775001525878906 57.22999954223633,-55.185001373291016 56.099998474121094,-54.584999084472656 C54.36000061035156,-53.64500045776367 52.61000061035156,-52.724998474121094 50.720001220703125,-52.1150016784668 C48.20000076293945,-51.29499816894531 45.720001220703125,-51.1349983215332 43.2599983215332,-52.42499923706055 C41.560001373291016,-53.314998626708984 39.77000045776367,-53.32500076293945 37.970001220703125,-52.685001373291016 C36.90999984741211,-52.30500030517578 35.869998931884766,-51.8849983215332 34.869998931884766,-51.3849983215332 C34.59000015258789,-51.255001068115234 34.33000183105469,-50.974998474121094 33.84000015258789,-51.125 C33.5099983215332,-51.1150016784668 33.119998931884766,-51.1150016784668 32.720001220703125,-50.55500030517578 C32.369998931884766,-50.05500030517578 32.119998931884766,-49.8650016784668 32.16999816894531,-49.26499938964844 C32.33000183105469,-48.76499938964844 32.15999984741211,-48.255001068115234 32.119998931884766,-47.744998931884766 C32.0099983215332,-46.3650016784668 31.899999618530273,-44.974998474121094 32.34000015258789,-43.6150016784668 C32.689998626708984,-42.525001525878906 32.70000076293945,-42.48500061035156 31.6200008392334,-41.98500061035156 C28.610000610351562,-40.57500076293945 25.5,-39.45500183105469 22.270000457763672,-38.685001373291016 C20.639999389648438,-38.29499816894531 19.010000228881836,-38.095001220703125 17.350000381469727,-38.39500045776367 C14.609999656677246,-38.8849983215332 11.960000038146973,-39.685001373291016 9.399999618530273,-40.82500076293945 C8.460000038146973,-41.23500061035156 8.1899995803833,-41.775001525878906 8.239999771118164,-42.775001525878906 C8.479999542236328,-48.01499938964844 8.100000381469727,-53.23500061035156 7.289999961853027,-58.42499923706055 C6.880000114440918,-61.07500076293945 6.230000019073486,-63.665000915527344 5.349999904632568,-66.18499755859375 C5.309999942779541,-66.31500244140625 5.260000228881836,-66.42500305175781 5.199999809265137,-66.53500366210938 C5.199999809265137,-66.53500366210938 5.199999809265137,-66.54499816894531 5.199999809265137,-66.54499816894531 C5.090000152587891,-66.81500244140625 4.949999809265137,-67.01499938964844 4.800000190734863,-67.13500213623047 C4.800000190734863,-67.13500213623047 4.789999961853027,-67.1449966430664 4.789999961853027,-67.1449966430664 C4.699999809265137,-67.21499633789062 4.610000133514404,-67.26499938964844 4.510000228881836,-67.28500366210938 C4.309999942779541,-67.125 4.28000020980835,-66.82499694824219 4.300000190734863,-66.55500030517578 C4.320000171661377,-66.11499786376953 4.369999885559082,-65.67500305175781 4.460000038146973,-65.24500274658203 C4.480000019073486,-65.13500213623047 4.510000228881836,-65.0250015258789 4.519999980926514,-64.91500091552734 C4.71999979019165,-63.665000915527344 5.050000190734863,-62.3849983215332 5.230000019073486,-61.1150016784668 C5.579999923706055,-58.525001525878906 5.900000095367432,-55.92499923706055 6.239999771118164,-53.32500076293945 C6.329999923706055,-52.665000915527344 6.21999979019165,-52.314998626708984 5.420000076293945,-52.125 C3.5299999713897705,-51.69499969482422 1.840000033378601,-50.73500061035156 0.18000000715255737,-49.775001525878906 C-0.6000000238418579,-49.334999084472656 -1.25,-49.29499816894531 -2.0799999237060547,-49.55500030517578 C-5.670000076293945,-50.64500045776367 -9.199999809265137,-51.8650016784668 -12.350000381469727,-53.95500183105469 C-14.390000343322754,-55.30500030517578 -16.459999084472656,-55.21500015258789 -18.579999923706055,-54.14500045776367 C-20.030000686645508,-53.404998779296875 -21.260000228881836,-52.39500045776367 -22.420000076293945,-51.275001525878906 C-24.860000610351562,-48.92499923706055 -26.8799991607666,-46.244998931884766 -28.649999618530273,-43.35499954223633 C-31.34000015258789,-38.98500061035156 -33.7400016784668,-34.45500183105469 -36.06999969482422,-29.885000228881836 C-39.9900016784668,-22.21500015258789 -43.43000030517578,-14.335000038146973 -46.54999923706055,-6.324999809265137 C-47.099998474121094,-4.925000190734863 -47.810001373291016,-4.514999866485596 -49.2400016784668,-4.525000095367432 C-54.959999084472656,-4.545000076293945 -60.68000030517578,-4.445000171661377 -66.4000015258789,-4.40500020980835 C-67.1500015258789,-4.394999980926514 -67.88999938964844,-4.324999809265137 -68.62999725341797,-4.184999942779541 C-70.12999725341797,-3.8949999809265137 -70.94000244140625,-2.944999933242798 -71.29000091552734,-1.534999966621399 C-71.4800033569336,-0.7549999952316284 -71.54000091552734,0.04500000178813934 -71.44999694824219,0.8550000190734863 C-71.30000305175781,2.134999990463257 -71.0999984741211,3.3949999809265137 -70.77999877929688,4.635000228881836 C-67.83000183105469,15.805000305175781 -64.6500015258789,26.885000228881836 -60.900001525878906,37.80500030517578 C-60.689998626708984,38.404998779296875 -60.369998931884766,38.974998474121094 -60.400001525878906,39.76499938964844 C-61.029998779296875,40.04499816894531 -61.619998931884766,39.95500183105469 -62.20000076293945,39.95500183105469 C-65.68000030517578,39.974998474121094 -69.1500015258789,39.974998474121094 -72.62999725341797,39.994998931884766 C-80.43000030517578,40.05500030517578 -88.23999786376953,40.1150016784668 -96.04000091552734,40.17499923706055 C-96.94999694824219,40.185001373291016 -97.86000061035156,40.17499923706055 -98.73999786376953,40.44499969482422 C-99.01000213623047,40.525001525878906 -99.30000305175781,40.625 -99.30000305175781,40.935001373291016 C-99.29000091552734,41.345001220703125 -98.94000244140625,41.42499923706055 -98.61000061035156,41.404998779296875 C-97.5999984741211,41.3650016784668 -96.58999633789062,41.255001068115234 -95.58000183105469,41.255001068115234 C-91.36000061035156,41.23500061035156 -87.12999725341797,41.255001068115234 -82.91000366210938,41.255001068115234 C-75.63999938964844,41.244998931884766 -68.37000274658203,41.23500061035156 -61.099998474121094,41.224998474121094 C-59.75,41.224998474121094 -59.75,41.224998474121094 -59.29999923706055,42.494998931884766 C-58.59000015258789,44.564998626708984 -57.900001525878906,46.64500045776367 -57.15999984741211,48.70500183105469 C-55.439998626708984,53.42499923706055 -53.70000076293945,58.1349983215332 -51.959999084472656,62.845001220703125 C-50.97999954223633,65.49500274658203 -49.09000015258789,66.78500366210938 -46.2400016784668,66.91500091552734 C-42.130001068115234,67.11499786376953 -38.0099983215332,67.1050033569336 -33.900001525878906,67.15499877929688 C-23.790000915527344,67.28500366210938 -13.699999809265137,66.88500213623047 -3.5999999046325684,66.50499725341797 C7.659999847412109,66.07499694824219 18.950000762939453,66.24500274658203 30.209999084472656,65.55500030517578 C33.38999938964844,65.3550033569336 36.18000030517578,64.48500061035156 38.63999938964844,62.525001525878906 C39.599998474121094,61.755001068115234 40.540000915527344,60.95500183105469 41.4900016784668,60.19499969482422 C41.7599983215332,59.974998474121094 54.68199920654297,49.40800094604492 55.051998138427734,49.31800079345703 C55.00199890136719,49.11800003051758 54.922000885009766,48.9379997253418 54.79199981689453,48.77799987792969 C54.652000427246094,48.608001708984375 54.45199966430664,48.49800109863281 54.25199890136719,48.38800048828125 C52.391998291015625,49.97800064086914 37.79999923706055,61.79499816894531 35.709999084472656,63.084999084472656 C35.59000015258789,63.165000915527344 35.40999984741211,63.14500045776367 35.22999954223633,63.17499923706055 C35.5099983215332,56.96500015258789 33.66999816894531,51.1150016784668 32.47999954223633,45.17499923706055 C32.06999969482422,43.084999084472656 31.540000915527344,41.01499938964844 31.09000015258789,38.92499923706055 C30.8799991607666,37.915000915527344 30.969999313354492,37.79499816894531 31.989999771118164,37.71500015258789 C33.959999084472656,37.564998626708984 35.93000030517578,37.46500015258789 37.900001525878906,37.345001220703125 C40.9900016784668,37.14500045776367 44.08000183105469,36.915000915527344 47.18000030517578,36.76499938964844 C49.95000076293945,36.6349983215332 52.72999954223633,36.584999084472656 55.5,36.51499938964844 C55.650001525878906,36.51499938964844 57.65700149536133,36.35100173950195 57.87699890136719,36.42100143432617 C57.87699890136719,36.42100143432617 61.68000030517578,35.92499923706055 61.68000030517578,35.92499923706055 C61.68000030517578,35.92499923706055 66.54900360107422,35.20899963378906 66.54900360107422,35.20899963378906 C65.55899810791016,28.77899932861328 63.06999969482422,3.744999885559082 62.81999969482422,-2.7750000953674316 C62.77000045776367,-3.825000047683716 62.810001373291016,-4.885000228881836 62.810001373291016,-5.934999942779541 C62.95000076293945,-5.994999885559082 63.09000015258789,-6.045000076293945 63.22999954223633,-6.09499979019165 C66.87000274658203,-0.16500000655651093 70.55999755859375,5.724999904632568 74.9800033569336,11.295000076293945 C76.16999816894531,11.154999732971191 90.68000030517578,28.274999618530273 90.68000030517578,28.274999618530273 C90.68000030517578,28.274999618530273 104.80000305175781,16.9950008392334 104.80000305175781,16.9950008392334 C104.56999969482422,17.045000076293945 101.55000305175781,8.494999885559082 101.30000305175781,8.265000343322754z M33.900001525878906,-48.125 C34.029998779296875,-48.3650016784668 35.970001220703125,-48.71500015258789 36.31999969482422,-48.55500030517578 C36.939998626708984,-48.255001068115234 37.119998931884766,-47.69499969482422 36.9900016784668,-47.07500076293945 C36.650001525878906,-45.53499984741211 35.709999084472656,-44.44499969482422 34.279998779296875,-43.6349983215332 C33.72999954223633,-45.05500030517578 33.93000030517578,-46.45500183105469 33.83000183105469,-47.82500076293945 C33.81999969482422,-47.92499923706055 33.849998474121094,-48.03499984741211 33.900001525878906,-48.125z M38.029998779296875,-45.01499938964844 C38.099998474121094,-44.73500061035156 38.150001525878906,-44.625 38.13999938964844,-44.525001525878906 C37.29999923706055,-39.474998474121094 35.400001525878906,-35.01499938964844 31.020000457763672,-31.985000610351562 C30.579999923706055,-31.684999465942383 30.100000381469727,-31.424999237060547 29.6299991607666,-31.19499969482422 C28.329999923706055,-30.565000534057617 27.139999389648438,-30.674999237060547 26.149999618530273,-31.80500030517578 C24.790000915527344,-33.35499954223633 23.450000762939453,-34.935001373291016 21.979999542236328,-36.64500045776367 C27.84000015258789,-38.6150016784668 33.869998931884766,-39.875 38.029998779296875,-45.01499938964844z M6.510000228881836,-49.64500045776367 C6.760000228881836,-47.30500030517578 6.940000057220459,-45.07500076293945 6.960000038146973,-42.564998626708984 C4.510000228881836,-44.54499816894531 4.320000171661377,-48.01499938964844 6.510000228881836,-49.64500045776367z M2.819999933242798,-44.3650016784668 C2.890000104904175,-44.724998474121094 2.950000047683716,-45.095001220703125 3.359999895095825,-45.584999084472656 C3.9700000286102295,-42.07500076293945 6.400000095367432,-40.415000915527344 9.1899995803833,-39.10499954223633 C11.720000267028809,-37.915000915527344 14.399999618530273,-37.19499969482422 17.15999984741211,-36.775001525878906 C17.469999313354492,-36.724998474121094 17.790000915527344,-36.665000915527344 18.100000381469727,-36.595001220703125 C18.139999389648438,-36.584999084472656 18.170000076293945,-36.525001525878906 18.34000015258789,-36.345001220703125 C16.690000534057617,-34.8650016784668 15.65999984741211,-32.8650016784668 14.0600004196167,-31.315000534057617 C12.779999732971191,-30.084999084472656 11.319999694824219,-29.735000610351562 9.630000114440918,-30.30500030517578 C7.409999847412109,-31.05500030517578 5.630000114440918,-32.415000915527344 4.519999980926514,-34.44499969482422 C2.8499999046325684,-37.53499984741211 2.2100000381469727,-40.85499954223633 2.819999933242798,-44.3650016784668z M17.709999084472656,-25.114999771118164 C17.06999969482422,-18.424999237060547 16.59000015258789,-11.71500015258789 16.049999237060547,-5.014999866485596 C15.9399995803833,-3.6449999809265137 16.229999542236328,-3.4649999141693115 14.329999923706055,-3.565000057220459 C12.09000015258789,-3.684999942779541 9.850000381469727,-3.815000057220459 7.610000133514404,-3.8949999809265137 C6.809999942779541,-3.9149999618530273 6.510000228881836,-4.255000114440918 6.46999979019165,-5.045000076293945 C6.380000114440918,-7.235000133514404 6.230000019073486,-9.414999961853027 6.079999923706055,-11.595000267028809 C5.659999847412109,-17.885000228881836 5.050000190734863,-24.145000457763672 4.179999828338623,-30.385000228881836 C4.139999866485596,-30.635000228881836 4.059999942779541,-30.895000457763672 4.300000190734863,-31.235000610351562 C7.929999828338623,-28.274999618530273 11.6899995803833,-26.295000076293945 15.800000190734863,-30.2549991607666 C17.979999542236328,-28.954999923706055 17.90999984741211,-27.145000457763672 17.709999084472656,-25.114999771118164z M-15.600000381469727,-7.824999809265137 C-15.140000343322754,-6.90500020980835 -15.25,-5.994999885559082 -15.260000228881836,-5.09499979019165 C-15.270000457763672,-4.775000095367432 -15.520000457763672,-4.65500020980835 -15.8100004196167,-4.65500020980835 C-16.229999542236328,-4.644999980926514 -16.65999984741211,-4.554999828338623 -17.280000686645508,-4.864999771118164 C-16.68000030517578,-5.914999961853027 -16.139999389648438,-6.875 -15.600000381469727,-7.824999809265137z M33.40999984741211,59.665000915527344 C33.52000045776367,60.51499938964844 33.56999969482422,61.3650016784668 33.470001220703125,62.224998474121094 C33.36000061035156,63.1150016784668 32.880001068115234,63.70500183105469 31.979999542236328,63.875 C31.350000381469727,63.994998931884766 30.719999313354492,64.16500091552734 30.079999923706055,64.18499755859375 C26.34000015258789,64.29499816894531 22.600000381469727,64.44499969482422 18.860000610351562,64.42500305175781 C11.329999923706055,64.40499877929688 3.799999952316284,64.74500274658203 -0.03999999910593033,64.86499786376953 C-14.680000305175781,65.3949966430664 -25.6299991607666,65.7750015258789 -36.59000015258789,65.61499786376953 C-38.189998626708984,65.58499908447266 -39.790000915527344,65.68499755859375 -41.38999938964844,65.66500091552734 C-43.619998931884766,65.6449966430664 -45.709999084472656,65.0250015258789 -47.83000183105469,64.51499938964844 C-48.599998474121094,64.32499694824219 -49.16999816894531,63.834999084472656 -49.529998779296875,63.14500045776367 C-49.91999816894531,62.3849983215332 -50.31999969482422,61.625 -50.619998931884766,60.82500076293945 C-57.47999954223633,42.724998474121094 -63.689998626708984,24.424999237060547 -68.55999755859375,5.684999942779541 C-68.9800033569336,4.074999809265137 -69.3499984741211,2.4649999141693115 -69.5,0.8050000071525574 C-69.54000091552734,0.33500000834465027 -69.58000183105469,-0.1550000011920929 -69.5199966430664,-0.625 C-69.33000183105469,-2.244999885559082 -68.75,-2.755000114440918 -67.13999938964844,-2.7950000762939453 C-60.52000045776367,-2.944999933242798 -53.88999938964844,-3.0850000381469727 -47.27000045776367,-3.255000114440918 C-46.09000015258789,-3.2750000953674316 -44.91999816894531,-3.4149999618530273 -43.7400016784668,-3.4149999618530273 C-35.95000076293945,-3.424999952316284 -28.149999618530273,-3.3550000190734863 -20.350000381469727,-3.4049999713897705 C-12.5,-3.4549999237060547 -4.650000095367432,-3.125 3.2100000381469727,-3.005000114440918 C7.320000171661377,-2.934999942779541 11.420000076293945,-2.6549999713897705 15.539999961853027,-2.865000009536743 C16.540000915527344,-2.9149999618530273 17.520000457763672,-3.075000047683716 18.559999465942383,-2.9049999713897705 C20.350000381469727,-2.5950000286102295 21.280000686645508,-1.4950000047683716 21.75,0.07500000298023224 C22.100000381469727,1.2450000047683716 22.239999771118164,2.4749999046325684 22.510000228881836,3.674999952316284 C24.239999771118164,11.345000267028809 25.56999969482422,19.075000762939453 26.93000030517578,26.815000534057617 C27.959999084472656,32.70500183105469 29.34000015258789,38.53499984741211 30.520000457763672,44.39500045776367 C31.540000915527344,49.474998474121094 32.79999923706055,54.505001068115234 33.40999984741211,59.665000915527344z M43.33000183105469,35.6150016784668 C41.20000076293945,35.71500015258789 39.060001373291016,35.775001525878906 36.91999816894531,35.80500030517578 C36.08000183105469,35.814998626708984 35.099998474121094,36.1349983215332 34.40999984741211,35.665000915527344 C33.68000030517578,35.154998779296875 33.9900016784668,34.084999084472656 33.790000915527344,33.275001525878906 C31.469999313354492,23.924999237060547 30.280000686645508,14.375 28.84000015258789,4.864999771118164 C27.540000915527344,-3.744999885559082 26.139999389648438,-12.335000038146973 24.799999237060547,-20.94499969482422 C24.40999984741211,-23.475000381469727 24.15999984741211,-26.03499984741211 23.829999923706055,-28.575000762939453 C23.780000686645508,-28.96500015258789 23.780000686645508,-29.315000534057617 24.040000915527344,-29.635000228881836 C24.34000015258789,-30.0049991607666 24.639999389648438,-30.235000610351562 25.100000381469727,-29.834999084472656 C27.31999969482422,-27.905000686645508 29.540000915527344,-28.514999389648438 31.739999771118164,-29.864999771118164 C33.810001373291016,-31.135000228881836 35.5099983215332,-32.814998626708984 36.790000915527344,-34.915000915527344 C36.900001525878906,-34.8849983215332 37.0099983215332,-34.85499954223633 37.11000061035156,-34.82500076293945 C36.880001068115234,-32.974998474121094 36.619998931884766,-31.125 36.40999984741211,-29.274999618530273 C34.83000183105469,-14.975000381469727 35.54999923706055,-0.7850000262260437 38.54999923706055,13.295000076293945 C40,20.094999313354492 41.86000061035156,26.774999618530273 43.9900016784668,33.39500045776367 C44.09000015258789,33.69499969482422 44.189998626708984,34.005001068115234 44.279998779296875,34.30500030517578 C44.63999938964844,35.494998931884766 44.630001068115234,35.55500030517578 43.33000183105469,35.6150016784668z"/></g><g opacity="1" transform="matrix(1,0,0,1,203.4239959716797,102.97200012207031)"><path fill="rgb(32,25,82)" fill-opacity="1" d=" M38.01599884033203,-0.6399999856948853 C37.7859992980957,0.17000000178813934 37.11600112915039,0.17000000178813934 36.486000061035156,0.1899999976158142 C34.45600128173828,0.2800000011920929 32.42599868774414,0.3799999952316284 30.395999908447266,0.4099999964237213 C22.54599952697754,0.5299999713897705 14.685999870300293,0.7099999785423279 6.835999965667725,1.0499999523162842 C6.466000080108643,1.059999942779541 -37.617000579833984,1.0199999809265137 -38.016998291015625,1.059999942779541 C-38.016998291015625,1.059999942779541 -38.016998291015625,-0.33000001311302185 -38.016998291015625,-0.33000001311302185 C-37.89699935913086,-0.3400000035762787 -37.777000427246094,-0.36000001430511475 -37.65700149536133,-0.36000001430511475 C-29.80699920654297,-0.5600000023841858 21.676000595092773,-0.800000011920929 29.535999298095703,-1 C31.615999221801758,-1.059999942779541 33.70600128173828,-1.0099999904632568 35.7859992980957,-0.9800000190734863 C36.5260009765625,-0.9800000190734863 37.2859992980957,-1 38.01599884033203,-0.6399999856948853z"/></g></g><g transform="matrix(0.9957020282745361,-0.09261467307806015,0.09261467307806015,0.9957020282745361,138.19764709472656,132.11688232421875)" opacity="1" style="display: block;"><g opacity="1" transform="matrix(1,0,0,1,39.35100173950195,34.24300003051758)"><path fill="rgb(255,255,255)" fill-opacity="1" d=" M36.21500015258789,-33.19200134277344 C36.21500015258789,-33.19200134277344 18.81999969482422,-25.204999923706055 17.238000869750977,-24.593000411987305 C15.656000137329102,-23.979999542236328 -3.5290000438690186,-18.09600067138672 -3.5290000438690186,-18.09600067138672 C-3.5290000438690186,-18.09600067138672 -7.2789998054504395,-16.631000518798828 -7.2789998054504395,-16.631000518798828 C-7.2789998054504395,-16.631000518798828 -7.752999782562256,-15.939000129699707 -7.752999782562256,-15.939000129699707 C-7.752999782562256,-15.939000129699707 -7.698999881744385,-14.826000213623047 -7.698999881744385,-14.826000213623047 C-7.698999881744385,-14.826000213623047 -7.752999782562256,-14.052000045776367 -7.752999782562256,-14.052000045776367 C-7.752999782562256,-14.052000045776367 -9.47700023651123,-13.930000305175781 -9.47700023651123,-13.930000305175781 C-9.47700023651123,-13.930000305175781 -10.984000205993652,-14.201000213623047 -10.984000205993652,-14.201000213623047 C-10.984000205993652,-14.201000213623047 -11.63700008392334,-12.42300033569336 -11.63700008392334,-12.300999641418457 C-11.63700008392334,-12.178000450134277 -12.057000160217285,-11.130000114440918 -12.057000160217285,-11.130000114440918 C-12.057000160217285,-11.130000114440918 -13.739999771118164,-11.501999855041504 -13.739999771118164,-11.501999855041504 C-13.739999771118164,-11.501999855041504 -16.238000869750977,-11.130000114440918 -16.238000869750977,-11.130000114440918 C-16.238000869750977,-11.130000114440918 -17.378000259399414,-10.6850004196167 -17.378000259399414,-10.6850004196167 C-17.378000259399414,-10.6850004196167 -18.138999938964844,-5.960999965667725 -18.138999938964844,-5.960999965667725 C-18.138999938964844,-5.960999965667725 -19.17099952697754,-2.052000045776367 -19.17099952697754,-2.052000045776367 C-19.17099952697754,-2.052000045776367 -20.31100082397461,2.4010000228881836 -20.31100082397461,2.4010000228881836 C-20.31100082397461,2.4010000228881836 -21.884000778198242,7.77400016784668 -21.884000778198242,7.77400016784668 C-21.884000778198242,7.77400016784668 -25.95800018310547,18.472999572753906 -25.95800018310547,18.472999572753906 C-25.95800018310547,18.472999572753906 -28.94300079345703,19.667999267578125 -29.540000915527344,19.667999267578125 C-30.13800048828125,19.667999267578125 -37.54399871826172,22.28700065612793 -37.54399871826172,22.28700065612793 C-37.54399871826172,22.28700065612793 -37.54399871826172,23.413999557495117 -37.54399871826172,23.413999557495117 C-37.54399871826172,23.413999557495117 -35.67599868774414,28.735000610351562 -35.67599868774414,28.735000610351562 C-35.67599868774414,28.735000610351562 -34.880001068115234,31.5049991607666 -33.893001556396484,31.885000228881836 C-32.90700149536133,32.26499938964844 -31.983999252319336,32.97100067138672 -30.898000717163086,33.07899856567383 C-29.812000274658203,33.1879997253418 -28.238000869750977,33.45899963378906 -27.69499969482422,33.45899963378906 C-27.152000427246094,33.45899963378906 -4.78000020980835,31.93899917602539 -4.617000102996826,31.93899917602539 C-4.454999923706055,31.93899917602539 7.76200008392334,30.472999572753906 7.76200008392334,30.472999572753906 C7.76200008392334,30.472999572753906 12.324000358581543,28.62700080871582 12.324000358581543,28.62700080871582 C12.324000358581543,28.62700080871582 16.450000762939453,21.35099983215332 16.450000762939453,21.35099983215332 C16.450000762939453,21.35099983215332 19.600000381469727,13.911999702453613 19.600000381469727,13.911999702453613 C19.600000381469727,13.911999702453613 22.108999252319336,14.128999710083008 22.108999252319336,14.128999710083008 C22.108999252319336,14.128999710083008 25.51799964904785,12.184000015258789 25.51799964904785,12.184000015258789 C25.51799964904785,12.184000015258789 28.597999572753906,10.27400016784668 28.496999740600586,10.057000160217285 C28.395000457763672,9.84000015258789 28.496999740600586,8.211000442504883 28.496999740600586,8.211000442504883 C28.496999740600586,8.211000442504883 28.496999740600586,6.5269999504089355 28.496999740600586,6.5269999504089355 C28.496999740600586,6.5269999504089355 29.535999298095703,5.223999977111816 29.535999298095703,5.223999977111816 C29.535999298095703,5.223999977111816 29.145999908447266,4.434000015258789 29.145999908447266,4.434000015258789 C29.145999908447266,4.434000015258789 28.17799949645996,2.4549999237060547 28.17799949645996,2.4549999237060547 C28.17799949645996,2.4549999237060547 30.1299991607666,1.2599999904632568 30.1299991607666,1.2599999904632568 C30.1299991607666,1.2599999904632568 31.437000274658203,-0.36899998784065247 31.111000061035156,-0.6940000057220459 C30.78499984741211,-1.0199999809265137 29.158000946044922,-2.6489999294281006 29.158000946044922,-2.6489999294281006 C29.158000946044922,-2.6489999294281006 26.983999252319336,-3.625999927520752 26.983999252319336,-3.625999927520752 C26.983999252319336,-3.625999927520752 31.486000061035156,-12.295999526977539 31.486000061035156,-12.295999526977539 C31.486000061035156,-12.295999526977539 33.027000427246094,-16.39299964904785 33.027000427246094,-16.39299964904785 C33.027000427246094,-16.39299964904785 34.066001892089844,-19.854999542236328 34.066001892089844,-19.854999542236328 C34.066001892089844,-19.854999542236328 35.308998107910156,-23.84600067138672 35.308998107910156,-23.84600067138672 C35.308998107910156,-23.84600067138672 36.72999954223633,-28.631000518798828 36.72999954223633,-28.631000518798828 C36.72999954223633,-28.631000518798828 37.54399871826172,-31.59000015258789 37.54399871826172,-31.59000015258789 C37.54399871826172,-31.59000015258789 37.369998931884766,-33.05099868774414 37.369998931884766,-33.05099868774414 C37.369998931884766,-33.05099868774414 36.974998474121094,-33.45899963378906 36.974998474121094,-33.45899963378906 C36.974998474121094,-33.45899963378906 36.21500015258789,-33.19200134277344 36.21500015258789,-33.19200134277344z"/></g><g opacity="1" transform="matrix(1,0,0,1,38.80500030517578,34.494998931884766)"><path fill="rgb(32,25,82)" fill-opacity="1" d=" M29.514999389648438,-5.864999771118164 C32.98500061035156,-13.404999732971191 35.814998626708984,-21.174999237060547 37.8849983215332,-29.21500015258789 C38.29499816894531,-30.815000534057617 38.55500030517578,-32.435001373291016 38.30500030517578,-34.084999084472656 C37.67499923706055,-34.244998931884766 37.20500183105469,-33.915000915527344 36.724998474121094,-33.71500015258789 C34.3650016784668,-32.71500015258789 32.025001525878906,-31.684999465942383 29.665000915527344,-30.684999465942383 C27.2549991607666,-29.655000686645508 24.834999084472656,-28.645000457763672 22.424999237060547,-27.645000457763672 C22.21500015258789,-27.565000534057617 22.0049991607666,-27.454999923706055 21.78499984741211,-27.415000915527344 C21.78499984741211,-27.415000915527344 21.774999618530273,-27.405000686645508 21.774999618530273,-27.405000686645508 C21.774999618530273,-27.405000686645508 17.7549991607666,-25.655000686645508 17.7549991607666,-25.655000686645508 C17.7549991607666,-25.655000686645508 10.375,-22.825000762939453 10.375,-22.825000762939453 C10.375,-22.825000762939453 4.34499979019165,-20.545000076293945 4.34499979019165,-20.545000076293945 C4.34499979019165,-20.545000076293945 -1.2450000047683716,-18.815000534057617 -1.465000033378601,-18.7549991607666 C-1.684999942779541,-18.704999923706055 -2.984999895095825,-18.344999313354492 -2.984999895095825,-18.344999313354492 C-4.135000228881836,-17.825000762939453 -5.125,-17.735000610351562 -6.114999771118164,-17.645000457763672 C-7.755000114440918,-17.485000610351562 -7.954999923706055,-17.30500030517578 -7.804999828338623,-15.654999732971191 C-7.735000133514404,-14.795000076293945 -8.03499984741211,-14.645000457763672 -8.774999618530273,-14.704999923706055 C-9.454999923706055,-14.755000114440918 -10.305000305175781,-15.085000038146973 -10.795000076293945,-14.664999961853027 C-11.244999885559082,-14.28499984741211 -11.274999618530273,-13.4350004196167 -11.53499984741211,-12.8149995803833 C-11.704999923706055,-12.404999732971191 -11.664999961853027,-11.744999885559082 -12.274999618530273,-11.755000114440918 C-12.364999771118164,-11.755000114440918 -12.444999694824219,-11.765000343322754 -12.515000343322754,-11.78499984741211 C-12.515000343322754,-11.78499984741211 -12.524999618530273,-11.78499984741211 -12.524999618530273,-11.78499984741211 C-12.595000267028809,-11.805000305175781 -12.654999732971191,-11.835000038146973 -12.71500015258789,-11.864999771118164 C-13.194999694824219,-12.085000038146973 -13.725000381469727,-12.03499984741211 -14.024999618530273,-12.024999618530273 C-14.6850004196167,-12.024999618530273 -15.345000267028809,-11.984999656677246 -16.0049991607666,-11.904999732971191 C-16.315000534057617,-11.864999771118164 -16.635000228881836,-11.8149995803833 -16.905000686645508,-11.654999732971191 C-17.315000534057617,-11.404999732971191 -17.665000915527344,-10.984999656677246 -17.725000381469727,-10.515000343322754 C-18.625,-3.984999895095825 -20.454999923706055,1.125 -22.045000076293945,6.894999980926514 C-22.05500030517578,6.925000190734863 -22.065000534057617,6.954999923706055 -22.075000762939453,6.985000133514404 C-22.03499984741211,6.994999885559082 -21.9950008392334,7.014999866485596 -21.954999923706055,7.025000095367432 C-22.30500030517578,8.664999961853027 -22.895000457763672,10.204999923706055 -23.424999237060547,11.755000114440918 C-23.975000381469727,13.375 -24.604999542236328,14.96500015258789 -25.145000457763672,16.584999084472656 C-25.44499969482422,17.485000610351562 -25.985000610351562,17.934999465942383 -26.924999237060547,18.155000686645508 C-30.094999313354492,18.905000686645508 -33.23500061035156,19.7450008392334 -36.3849983215332,20.55500030517578 C-36.595001220703125,20.614999771118164 -36.79499816894531,20.684999465942383 -37.005001068115234,20.7549991607666 C-38.404998779296875,21.225000381469727 -38.55500030517578,21.434999465942383 -37.935001373291016,22.834999084472656 C-37.19499969482422,24.825000762939453 -35.775001525878906,28.4950008392334 -34.994998931884766,30.475000381469727 C-33.6349983215332,32.79499816894531 -31.5049991607666,33.80500030517578 -28.854999542236328,34.04499816894531 C-26.604999542236328,34.244998931884766 -24.375,34.224998474121094 -22.125,34.1150016784668 C-15.664999961853027,33.78499984741211 -9.234999656677246,33.14500045776367 -2.7850000858306885,32.60499954223633 C1.684999942779541,32.23500061035156 6.135000228881836,31.684999465942383 10.515000343322754,30.635000228881836 C11.96500015258789,30.28499984741211 13.005000114440918,29.575000762939453 13.78499984741211,28.295000076293945 C16.30500030517578,24.174999237060547 18.485000610351562,19.905000686645508 19.815000534057617,15.244999885559082 C19.895000457763672,14.994999885559082 19.915000915527344,14.71500015258789 20.174999237060547,14.53499984741211 C22.934999465942383,15.135000228881836 25.155000686645508,14.03499984741211 27.104999542236328,12.1850004196167 C27.684999465942383,11.635000228881836 28.204999923706055,11.045000076293945 28.915000915527344,10.625 C29.584999084472656,10.244999885559082 29.975000381469727,9.625 30.084999084472656,8.8149995803833 C30.204999923706055,8.005000114440918 29.405000686645508,7.364999771118164 29.584999084472656,6.715000152587891 C29.764999389648438,6.065000057220459 30.875,5.755000114440918 30.905000686645508,4.994999885559082 C30.915000915527344,4.885000228881836 30.924999237060547,4.784999847412109 30.934999465942383,4.695000171661377 C30.94499969482422,4.324999809265137 30.975000381469727,3.944999933242798 30.954999923706055,3.565000057220459 C30.934999465942383,3.1649999618530273 30.674999237060547,2.6649999618530273 30.415000915527344,2.3450000286102295 C30.315000534057617,2.2149999141693115 30.315000534057617,2.2149999141693115 30.184999465942383,2.125 C30.575000762939453,1.774999976158142 30.915000915527344,1.5149999856948853 31.21500015258789,1.215000033378601 C32.76499938964844,-0.32499998807907104 32.55500030517578,-1.8650000095367432 30.635000228881836,-2.934999942779541 C30.03499984741211,-3.265000104904175 29.375,-3.494999885559082 28.7549991607666,-3.765000104904175 C28.7450008392334,-3.8949999809265137 28.704999923706055,-4.014999866485596 28.7450008392334,-4.105000019073486 C28.9950008392334,-4.695000171661377 29.2450008392334,-5.284999847412109 29.514999389648438,-5.864999771118164z M-5.885000228881836,-16.815000534057617 C-1.975000023841858,-17.475000381469727 1.784999966621399,-18.684999465942383 5.465000152587891,-20.104999542236328 C16.065000534057617,-24.21500015258789 26.7549991607666,-28.094999313354492 37.03499984741211,-32.96500015258789 C37.275001525878906,-33.07500076293945 37.525001525878906,-33.154998779296875 37.915000915527344,-33.30500030517578 C36.3650016784668,-26.21500015258789 33.935001373291016,-19.645000457763672 31.155000686645508,-13.194999694824219 C31.934999465942383,-17.844999313354492 32.76499938964844,-22.485000610351562 33.724998474121094,-27.165000915527344 C32.71500015258789,-27.184999465942383 32.224998474121094,-26.725000381469727 31.684999465942383,-26.415000915527344 C23.03499984741211,-21.385000228881836 13.864999771118164,-17.71500015258789 4.074999809265137,-15.595000267028809 C0.8849999904632568,-14.895000457763672 -2.3550000190734863,-14.635000228881836 -5.614999771118164,-14.524999618530273 C-6.135000228881836,-14.515000343322754 -6.675000190734863,-14.425000190734863 -6.90500020980835,-15.145000457763672 C-7.284999847412109,-16.295000076293945 -7.105000019073486,-16.604999542236328 -5.885000228881836,-16.815000534057617z M-22.905000686645508,12.975000381469727 C-21.655000686645508,9.295000076293945 -20.364999771118164,5.614999771118164 -19.274999618530273,1.8849999904632568 C-18.204999923706055,-1.8049999475479126 -17.2450008392334,-5.525000095367432 -16.7450008392334,-9.345000267028809 C-16.514999389648438,-11.005000114440918 -16.53499984741211,-11.03499984741211 -14.78499984741211,-11.145000457763672 C-13.954999923706055,-11.194999694824219 -13.135000228881836,-11.574999809265137 -12.225000381469727,-11.255000114440918 C-12.255000114440918,-11.005000114440918 -12.234999656677246,-10.795000076293945 -12.305000305175781,-10.604999542236328 C-14.255000114440918,-4.795000076293945 -16.165000915527344,1.034999966621399 -18.604999542236328,6.675000190734863 C-19.584999084472656,8.925000190734863 -20.565000534057617,11.175000190734863 -21.415000915527344,13.475000381469727 C-22.674999237060547,16.885000228881836 -24.325000762939453,20.114999771118164 -26.135000228881836,23.274999618530273 C-26.395000457763672,23.735000610351562 -26.684999465942383,24.19499969482422 -27.045000076293945,24.575000762939453 C-27.655000686645508,25.225000381469727 -28.344999313354492,25.815000534057617 -28.9950008392334,26.424999237060547 C-26.235000610351562,22.21500015258789 -24.485000610351562,17.635000228881836 -22.905000686645508,12.975000381469727z M-33.915000915527344,26.565000534057617 C-35.095001220703125,25.2450008392334 -35.875,23.665000915527344 -36.994998931884766,22.03499984741211 C-33.404998779296875,21.395000457763672 -30.104999542236328,20.104999542236328 -26.364999771118164,19.21500015258789 C-27.55500030517578,22.104999542236328 -28.915000915527344,24.55500030517578 -30.844999313354492,26.655000686645508 C-32.1150016784668,28.03499984741211 -32.6150016784668,28.014999389648438 -33.915000915527344,26.565000534057617z M20.434999465942383,12.255000114440918 C21.954999923706055,12.074999809265137 23.424999237060547,12.135000228881836 24.875,11.9350004196167 C22.885000228881836,13.454999923706055 21.5049991607666,13.545000076293945 20.434999465942383,12.255000114440918z M27.485000610351562,9.8149995803833 C26.21500015258789,10.255000114440918 24.875,10.295000076293945 23.545000076293945,10.414999961853027 C21.21500015258789,10.635000228881836 18.875,10.604999542236328 16.545000076293945,10.524999618530273 C16.454999923706055,10.085000038146973 16.684999465942383,9.925000190734863 16.94499969482422,9.925000190734863 C20.7549991607666,10.005000114440918 24.274999618530273,8.774999618530273 27.774999618530273,7.505000114440918 C28.165000915527344,7.364999771118164 28.5049991607666,7.054999828338623 28.96500015258789,7.144999980926514 C29.204999923706055,8.774999618530273 28.915000915527344,9.335000038146973 27.485000610351562,9.8149995803833z M29.395000457763672,4.885000228881836 C28.80500030517578,5.445000171661377 28.084999084472656,5.795000076293945 27.344999313354492,6.105000019073486 C25.264999389648438,6.954999923706055 23.094999313354492,7.534999847412109 20.905000686645508,7.985000133514404 C20.235000610351562,8.125 19.575000762939453,8.414999961853027 18.725000381469727,8.255000114440918 C18.815000534057617,7.505000114440918 19.315000534057617,7.045000076293945 19.565000534057617,6.465000152587891 C19.774999618530273,5.985000133514404 20.135000228881836,5.755000114440918 20.655000686645508,5.644999980926514 C22.434999465942383,5.275000095367432 24.165000915527344,4.724999904632568 25.885000228881836,4.144999980926514 C26.915000915527344,3.805000066757202 27.9950008392334,3.8550000190734863 29.065000534057617,3.8450000286102295 C29.325000762939453,3.8450000286102295 29.625,3.8450000286102295 29.69499969482422,4.184999942779541 C29.7450008392334,4.465000152587891 29.604999542236328,4.695000171661377 29.395000457763672,4.885000228881836z M29.815000534057617,-1.9850000143051147 C30.985000610351562,-1.0449999570846558 30.96500015258789,-0.574999988079071 29.7450008392334,0.3449999988079071 C29.485000610351562,0.5350000262260437 29.21500015258789,0.7149999737739563 28.934999465942383,0.8650000095367432 C26.295000076293945,2.2950000762939453 23.485000610351562,3.244999885559082 20.55500030517578,3.865000009536743 C20.354999542236328,3.9049999713897705 20.145000457763672,3.8949999809265137 19.934999465942383,3.8949999809265137 C19.895000457763672,3.8949999809265137 19.864999771118164,3.8350000381469727 19.725000381469727,3.694999933242798 C20.454999923706055,3.015000104904175 21.264999389648438,2.424999952316284 22.135000228881836,1.965000033378601 C23.53499984741211,1.215000033378601 24.764999389648438,0.1850000023841858 26.30500030517578,-0.32499998807907104 C26.71500015258789,-0.45500001311302185 26.885000228881836,-0.925000011920929 27.114999771118164,-1.284999966621399 C27.4950008392334,-1.9049999713897705 27.735000610351562,-2.625 28.274999618530273,-3.1449999809265137 C28.80500030517578,-2.744999885559082 29.325000762939453,-2.384999990463257 29.815000534057617,-1.9850000143051147z M26.03499984741211,-3.0850000381469727 C25.55500030517578,-1.565000057220459 25.114999771118164,-0.4950000047683716 23.334999084472656,-0.1850000023841858 C21.825000762939453,0.07500000298023224 20.44499969482422,0.9150000214576721 19.19499969482422,1.8450000286102295 C18.80500030517578,2.134999990463257 18.424999237060547,2.424999952316284 18.084999084472656,2.765000104904175 C16.7549991607666,4.054999828338623 16.834999084472656,4.835000038146973 18.424999237060547,5.954999923706055 C17.424999237060547,7.224999904632568 16.815000534057617,8.864999771118164 14.994999885559082,9.305000305175781 C14.795000076293945,9.354999542236328 14.614999771118164,9.505000114440918 14.444999694824219,9.635000228881836 C13.46500015258789,10.425000190734863 13.604999542236328,11.395000457763672 14.774999618530273,11.8149995803833 C15.645000457763672,12.114999771118164 16.55500030517578,12.145000457763672 17.46500015258789,12.175000190734863 C18.03499984741211,12.194999694824219 19.395000457763672,13.454999923706055 19.434999465942383,13.975000381469727 C19.434999465942383,14.125 19.364999771118164,14.28499984741211 19.28499984741211,14.425000190734863 C17.094999313354492,18.635000228881836 15.125,22.975000381469727 12.595000267028809,27.014999389648438 C11.845000267028809,28.204999923706055 10.944999694824219,28.834999084472656 9.585000038146973,29.125 C4.764999866485596,30.145000457763672 -0.125,30.584999084472656 -5.034999847412109,30.954999923706055 C-11.104999542236328,31.405000686645508 -17.174999237060547,32.01499938964844 -23.2549991607666,32.29499816894531 C-25.344999313354492,32.3849983215332 -27.434999465942383,32.35499954223633 -29.4950008392334,32.03499984741211 C-31.065000534057617,31.78499984741211 -32.46500015258789,31.21500015258789 -33.345001220703125,29.5049991607666 C-31.084999084472656,30.2450008392334 -29.485000610351562,29.204999923706055 -27.985000610351562,27.924999237060547 C-25.584999084472656,25.875 -23.875,23.295000076293945 -22.625,20.424999237060547 C-20.584999084472656,15.774999618530273 -18.594999313354492,11.104999542236328 -16.825000762939453,6.355000019073486 C-15.045000076293945,1.5950000286102295 -13.114999771118164,-3.1050000190734863 -11.755000114440918,-8.005000114440918 C-11.295000076293945,-9.645000457763672 -10.875,-11.305000305175781 -10.645000457763672,-13.005000114440918 C-10.585000038146973,-13.444999694824219 -10.524999618530273,-13.864999771118164 -9.875,-13.71500015258789 C-5.385000228881836,-12.6850004196167 -0.9750000238418579,-13.425000190734863 3.4749999046325684,-14.114999771118164 C10.524999618530273,-15.204999923706055 17.094999313354492,-17.674999237060547 23.55500030517578,-20.545000076293945 C25.94499969482422,-21.604999542236328 28.295000076293945,-22.764999389648438 30.475000381469727,-24.235000610351562 C30.69499969482422,-24.385000228881836 30.905000686645508,-24.55500030517578 31.264999389648438,-24.485000610351562 C31.2549991607666,-23.264999389648438 31.045000076293945,-22.065000534057617 30.80500030517578,-20.875 C29.614999771118164,-14.835000038146973 27.875,-8.944999694824219 26.03499984741211,-3.0850000381469727z"/></g><g opacity="1" transform="matrix(1,0,0,1,26.184999465942383,22.670000076293945)"><path fill="rgb(207,19,38)" fill-opacity="1" d=" M0.0949999988079071,0.03999999910593033 C0.07500000298023224,0.03999999910593033 0.04500000178813934,0.029999999329447746 0.02500000037252903,0.019999999552965164 C-0.014999999664723873,0 -0.054999999701976776,-0.019999999552965164 -0.0949999988079071,-0.03999999910593033 C-0.03500000014901161,-0.009999999776482582 0.02500000037252903,0.019999999552965164 0.0949999988079071,0.03999999910593033z"/></g></g><g transform="matrix(0.9902680516242981,0.13917310535907745,-0.13917310535907745,0.9902680516242981,105.6492919921875,35.015045166015625)" opacity="1" style="display: block;"><g opacity="1" transform="matrix(1,0,0,1,28.054000854492188,39.66699981689453)"><path fill="rgb(32,25,82)" fill-opacity="1" d=" M26.1200008392334,-21.889999389648438 C25.889999389648438,-23.170000076293945 25.350000381469727,-24.350000381469727 24.389999389648438,-25.270000457763672 C23.40999984741211,-26.200000762939453 22.270000457763672,-26.719999313354492 20.889999389648438,-26.3799991607666 C20.479999542236328,-26.280000686645508 20.020000457763672,-26.100000381469727 20.079999923706055,-25.549999237060547 C20.139999389648438,-25.06999969482422 20.549999237060547,-25 20.920000076293945,-24.959999084472656 C22.6200008392334,-24.799999237060547 23.43000030517578,-23.68000030517578 23.8700008392334,-22.200000762939453 C24.1200008392334,-21.3799991607666 24.229999542236328,-20.530000686645508 24.219999313354492,-19.670000076293945 C24.200000762939453,-16.719999313354492 23.34000015258789,-13.989999771118164 22.040000915527344,-11.380000114440918 C21.90999984741211,-11.130000114440918 21.889999389648438,-10.710000038146973 21.3799991607666,-10.859999656677246 C21.25,-12.029999732971191 21.469999313354492,-13.229999542236328 21.229999542236328,-14.449999809265137 C20.739999771118164,-14.229999542236328 20.799999237060547,-13.869999885559082 20.739999771118164,-13.569999694824219 C20.309999465942383,-11.319999694824219 19.829999923706055,-9.069999694824219 19.469999313354492,-6.800000190734863 C18.299999237060547,0.5099999904632568 15.899999618530273,7.369999885559082 12,13.6899995803833 C10.5,16.1200008392334 8.770000457763672,18.329999923706055 6.650000095367432,20.260000228881836 C3.2200000286102295,23.360000610351562 -0.47999998927116394,24.15999984741211 -4.639999866485596,21.809999465942383 C-4.880000114440918,21.68000030517578 -5.119999885559082,21.56999969482422 -5.369999885559082,21.469999313354492 C-5.869999885559082,21.270000457763672 -6.380000114440918,21.139999389648438 -6.96999979019165,21.34000015258789 C-6.869999885559082,22.09000015258789 -6.420000076293945,22.600000381469727 -5.880000114440918,23.030000686645508 C-3.2799999713897705,25.059999465942383 0.5600000023841858,26.719999313354492 4.840000152587891,24.149999618530273 C5.710000038146973,23.6299991607666 6.539999961853027,23.040000915527344 7.389999866485596,22.489999771118164 C7.690000057220459,22.290000915527344 8.0600004196167,21.8700008392334 8.789999961853027,21.299999237060547 C8.789999961853027,21.299999237060547 10.020000457763672,20.079999923706055 10.020000457763672,20.079999923706055 C11.59000015258789,18.309999465942383 12.920000076293945,16.510000228881836 14.069999694824219,14.579999923706055 C17.719999313354492,8.489999771118164 20.030000686645508,1.940000057220459 20.809999465942383,-5.130000114440918 C20.969999313354492,-6.550000190734863 21,-8.029999732971191 22.600000381469727,-8.720000267028809 C22.690000534057617,-8.760000228881836 22.75,-8.869999885559082 22.81999969482422,-8.949999809265137 C25.790000915527344,-12.789999961853027 26.989999771118164,-17.09000015258789 26.1200008392334,-21.889999389648438z M-19.1200008392334,6.039999961853027 C-18.760000228881836,5.75 -18.510000228881836,5.320000171661377 -18.479999542236328,4.849999904632568 C-18.84000015258789,3.940000057220459 -19.290000915527344,3.700000047683716 -20.020000457763672,4.110000133514404 C-20.639999389648438,4.46999979019165 -21.190000534057617,4.869999885559082 -21.940000534057617,4.53000020980835 C-22.649999618530273,4.210000038146973 -23.149999618530273,3.6600000858306885 -23.5,2.990000009536743 C-24.549999237060547,1.0099999904632568 -24.809999465942383,-1.059999942779541 -24.200000762939453,-3.2200000286102295 C-24.020000457763672,-3.8499999046325684 -23.729999542236328,-4.420000076293945 -23.309999465942383,-4.909999847412109 C-22.559999465942383,-5.800000190734863 -22,-5.960000038146973 -20.950000762939453,-5.449999809265137 C-20.40999984741211,-5.190000057220459 -19.93000030517578,-5 -19.549999237060547,-5.579999923706055 C-19.139999389648438,-6.210000038146973 -19.510000228881836,-6.699999809265137 -19.969999313354492,-7.119999885559082 C-20.8700008392334,-7.929999828338623 -22.360000610351562,-8 -23.56999969482422,-7.300000190734863 C-24.790000915527344,-6.599999904632568 -25.579999923706055,-5.519999980926514 -26,-4.21999979019165 C-26.989999771118164,-1.2100000381469727 -26.690000534057617,1.690000057220459 -25.010000228881836,4.400000095367432 C-23.799999237060547,6.329999923706055 -21.440000534057617,7.340000152587891 -19.479999542236328,6.260000228881836 C-19.479999542236328,6.260000228881836 -19.1200008392334,6.039999961853027 -19.1200008392334,6.039999961853027z"/></g><g opacity="1" transform="matrix(1,0,0,1,24.02400016784668,15.321999549865723)"><path fill="rgb(32,25,82)" fill-opacity="1" d=" M-19.496999740600586,15.071999549865723 C-19.691999435424805,15.020000457763672 -19.768999099731445,15.02299976348877 -19.78700065612793,14.991999626159668 C-22.19700050354004,10.829999923706055 -23.774999618530273,6.4770002365112305 -22.742000579833984,1.565000057220459 C-22.139999389648438,-1.3009999990463257 -20.583999633789062,-3.6510000228881836 -18.56399917602539,-5.697999954223633 C-14.510000228881836,-9.807999610900879 -9.531000137329102,-12.265999794006348 -3.994999885559082,-13.675000190734863 C0.5759999752044678,-14.83899974822998 5.183000087738037,-15.071999549865723 9.810999870300293,-14.027999877929688 C14.135000228881836,-13.052000045776367 17.923999786376953,-11.095000267028809 20.996999740600586,-7.84499979019165 C21.283000946044922,-7.544000148773193 21.481000900268555,-7.13100004196167 22.035999298095703,-6.980999946594238 C22.319000244140625,-7.504000186920166 22.600000381469727,-8.053000450134277 22.91200065612793,-8.583999633789062 C23.01799964904785,-8.765000343322754 23.209999084472656,-8.894000053405762 23.451000213623047,-8.817999839782715 C23.700000762939453,-8.73900032043457 23.77400016784668,-8.508999824523926 23.722999572753906,-8.3100004196167 C23.472999572753906,-7.328999996185303 23.26099967956543,-6.328999996185303 22.89900016784668,-5.388000011444092 C22.604999542236328,-4.622000217437744 21.993999481201172,-4.52400016784668 21.367000579833984,-5.03000020980835 C21.121000289916992,-5.229000091552734 20.926000595092773,-5.493000030517578 20.716999053955078,-5.736000061035156 C16.804000854492188,-10.27299976348877 11.76200008392334,-12.621000289916992 5.872000217437744,-13.008000373840332 C-1.8329999446868896,-13.515000343322754 -8.795999526977539,-11.3149995803833 -14.967000007629395,-6.666999816894531 C-15.77400016784668,-6.059000015258789 -16.520000457763672,-5.359000205993652 -17.236000061035156,-4.64300012588501 C-20.895999908447266,-0.9819999933242798 -22.155000686645508,3.380000114440918 -20.961999893188477,8.425000190734863 C-20.68000030517578,9.619000434875488 -20.32699966430664,10.79800033569336 -20.009000778198242,11.982999801635742 C-19.746000289916992,12.958999633789062 -19.45400047302246,13.930000305175781 -19.496999740600586,15.071999549865723z"/></g><g opacity="1" transform="matrix(1,0,0,1,28.496000289916992,26.736000061035156)"><path fill="rgb(32,25,82)" fill-opacity="1" d=" M19.393999099731445,-9.583000183105469 C19.20599937438965,-8.645999908447266 18.66699981689453,-8.185999870300293 18.20599937438965,-7.705999851226807 C15.13599967956543,-4.506999969482422 11.326000213623047,-2.5179998874664307 7.195000171661377,-1.0850000381469727 C3.7750000953674316,0.10100000351667404 0.2150000035762787,0.44999998807907104 -3.371999979019165,0.5139999985694885 C-7.697999954223633,0.5899999737739563 -12.026000022888184,0.6340000033378601 -16.30699920654297,-0.18199999630451202 C-16.451000213623047,-0.20900000631809235 -16.607999801635742,-0.16899999976158142 -16.823999404907227,-0.15600000321865082 C-16.993000030517578,0.4729999899864197 -16.663999557495117,1.0069999694824219 -16.527000427246094,1.5460000038146973 C-16.048999786376953,3.4240000247955322 -15.8149995803833,5.321000099182129 -15.914999961853027,7.256999969482422 C-15.947999954223633,7.9019999504089355 -16.027999877929688,8.53600025177002 -16.368000030517578,9.104000091552734 C-16.542999267578125,9.39799976348877 -16.802000045776367,9.583000183105469 -17.156999588012695,9.543999671936035 C-17.517000198364258,9.503999710083008 -17.73699951171875,9.253999710083008 -17.801000595092773,8.923999786376953 C-17.881000518798828,8.506999969482422 -17.94700050354004,8.076000213623047 -17.926000595092773,7.656000137329102 C-17.792999267578125,5.007999897003174 -18.2549991607666,2.444999933242798 -18.9689998626709,-0.08699999749660492 C-19.027000427246094,-0.2919999957084656 -19.097999572753906,-0.4950000047683716 -19.136999130249023,-0.7049999833106995 C-19.393999099731445,-2.0980000495910645 -18.9060001373291,-2.6449999809265137 -17.483999252319336,-2.371999979019165 C-15.699000358581543,-2.0290000438690186 -13.918999671936035,-1.6979999542236328 -12.10200023651123,-1.5980000495910645 C-7.243000030517578,-1.3300000429153442 -2.380000114440918,-1.215999960899353 2.4509999752044678,-1.9079999923706055 C8.074999809265137,-2.7139999866485596 13.027000427246094,-5.135000228881836 17.58099937438965,-8.45300006866455 C18.0939998626709,-8.82699966430664 18.54400062561035,-9.305000305175781 19.393999099731445,-9.583000183105469z"/></g><g opacity="1" transform="matrix(1,0,0,1,31.97100067138672,46.02199935913086)"><path fill="rgb(32,25,82)" fill-opacity="1" d=" M-0.6150000095367432,-7.882999897003174 C0.017999999225139618,-7.585999965667725 0.02800000086426735,-7.077000141143799 0.10300000011920929,-6.644999980926514 C0.8119999766349792,-2.5980000495910645 1.5110000371932983,1.4500000476837158 2.197999954223633,5.500999927520752 C2.3959999084472656,6.664000034332275 2.1649999618530273,7.054999828338623 1.0540000200271606,7.4039998054504395 C0.44699999690055847,7.59499979019165 -0.18799999356269836,7.7210001945495605 -0.8199999928474426,7.802999973297119 C-1.4279999732971191,7.881999969482422 -2.0810000896453857,7.798999786376953 -2.249000072479248,7.093999862670898 C-2.3959999084472656,6.4720001220703125 -1.878999948501587,6.15500020980835 -1.3799999952316284,5.914999961853027 C-1.187999963760376,5.822999954223633 -0.9879999756813049,5.747000217437744 -0.7870000004768372,5.676000118255615 C0.42899999022483826,5.25 0.41499999165534973,5.251999855041504 0.24199999868869781,3.9040000438690186 C-0.1860000044107437,0.5699999928474426 -0.7210000157356262,-2.753000020980835 -0.8080000281333923,-6.122000217437744 C-0.8230000138282776,-6.676000118255615 -0.9089999794960022,-7.257999897003174 -0.6150000095367432,-7.882999897003174z"/></g><g opacity="1" transform="matrix(1,0,0,1,38.499000549316406,40.643001556396484)"><path fill="rgb(32,25,82)" fill-opacity="1" d=" M1.3509999513626099,-0.11500000208616257 C1.3320000171661377,0.718999981880188 0.640999972820282,1.4559999704360962 -0.12200000137090683,1.4570000171661377 C-0.8690000176429749,1.4589999914169312 -1.3660000562667847,0.8880000114440918 -1.309000015258789,0.09600000083446503 C-1.2519999742507935,-0.718999981880188 -0.492000013589859,-1.4589999914169312 0.2409999966621399,-1.4170000553131104 C0.8830000162124634,-1.3799999952316284 1.3660000562667847,-0.8130000233650208 1.3509999513626099,-0.11500000208616257z"/></g><g opacity="1" transform="matrix(1,0,0,1,20.898000717163086,41.15700149536133)"><path fill="rgb(32,25,82)" fill-opacity="1" d=" M0.12999999523162842,-1.3509999513626099 C0.8510000109672546,-1.315999984741211 1.3519999980926514,-0.703000009059906 1.2829999923706055,0.06199999898672104 C1.2139999866485596,0.8349999785423279 0.6370000243186951,1.3869999647140503 -0.05299999937415123,1.340999960899353 C-0.7509999871253967,1.2940000295639038 -1.3519999980926514,0.6669999957084656 -1.350000023841858,-0.01600000075995922 C-1.3480000495910645,-0.7440000176429749 -0.6340000033378601,-1.3880000114440918 0.12999999523162842,-1.3509999513626099z"/></g></g><g transform="matrix(0.8987940549850464,0.4383711516857147,-0.4383711516857147,0.8987940549850464,118.76625061035156,71.17572784423828)" opacity="1" style="display: block;"><g opacity="1" transform="matrix(1,0,0,1,3.7100000381469727,1.378000020980835)"><path fill="rgb(32,25,82)" fill-opacity="1" d=" M0.08900000154972076,1.1080000400543213 C-0.7080000042915344,1.1080000400543213 -1.503999948501587,1.1169999837875366 -2.3010001182556152,1.1050000190734863 C-2.743000030517578,1.0980000495910645 -3.2130000591278076,0.9950000047683716 -3.322000026702881,0.5180000066757202 C-3.4600000381469727,-0.0860000029206276 -2.944000005722046,-0.30300000309944153 -2.499000072479248,-0.4729999899864197 C-0.7799999713897705,-1.1269999742507935 0.9380000233650208,-1.0570000410079956 2.63100004196167,-0.38199999928474426 C3.0230000019073486,-0.22599999606609344 3.4609999656677246,0.017000000923871994 3.3389999866485596,0.5370000004768372 C3.2239999771118164,1.031999945640564 2.750999927520752,1.1019999980926514 2.318000078201294,1.1109999418258667 C1.5750000476837158,1.1269999742507935 0.8320000171661377,1.1150000095367432 0.08900000154972076,1.1150000095367432 C0.08900000154972076,1.1150000095367432 0.08900000154972076,1.1080000400543213 0.08900000154972076,1.1080000400543213z"/></g></g><g transform="matrix(0.9902680516242981,-0.13917309045791626,0.13917309045791626,0.9902680516242981,135.76187133789062,75.12969970703125)" opacity="1" style="display: block;"><g opacity="1" transform="matrix(1,0,0,1,4.139999866485596,1.4129999876022339)"><path fill="rgb(32,25,82)" fill-opacity="1" d=" M-2.0899999141693115,1.1629999876022339 C-2.319000005722046,1.1519999504089355 -2.796999931335449,1.1449999809265137 -3.2720000743865967,1.1030000448226929 C-3.5380001068115234,1.0789999961853027 -3.821000099182129,0.9769999980926514 -3.8559999465942383,0.6729999780654907 C-3.8910000324249268,0.3709999918937683 -3.638000011444092,0.20999999344348907 -3.3949999809265137,0.09399999678134918 C-1.3869999647140503,-0.8640000224113464 0.7480000257492065,-1.1629999876022339 2.946000099182129,-1.0700000524520874 C3.361999988555908,-1.0529999732971191 3.871999979019165,-0.9139999747276306 3.881999969482422,-0.39899998903274536 C3.8910000324249268,0.08100000023841858 3.4179999828338623,0.29600000381469727 3.0139999389648438,0.4090000092983246 C1.4270000457763672,0.8519999980926514 -0.18799999356269836,1.1390000581741333 -2.0899999141693115,1.1629999876022339z"/></g></g><g transform="matrix(0.9902680516242981,0.13917310535907745,-0.13917310535907745,0.9902680516242981,125.28897857666016,94.50531768798828)" opacity="1" style="display: block;"><g opacity="1" transform="matrix(1,0,0,1,2.9660000801086426,1.496000051498413)"><path fill="rgb(32,25,82)" fill-opacity="1" d=" M0.23199999332427979,-1.1749999523162842 C0.7620000243186951,-1.1740000247955322 1.3040000200271606,-1.246000051498413 1.8179999589920044,-1.156999945640564 C2.51200008392334,-1.0360000133514404 2.7160000801086426,-0.3779999911785126 2.2960000038146973,0.17399999499320984 C1.4819999933242798,1.246000051498413 -1.5520000457763672,1.225000023841858 -2.377000093460083,0.14300000667572021 C-2.7160000801086426,-0.3009999990463257 -2.566999912261963,-0.75 -1.9769999980926514,-0.9539999961853027 C-1.2619999647140503,-1.2000000476837158 -0.5080000162124634,-1.1319999694824219 0.23199999332427979,-1.1749999523162842z"/></g></g></g></svg>